%TF.GenerationSoftware,KiCad,Pcbnew,6.0.4-6f826c9f35~116~ubuntu22.04.1*%
%TF.CreationDate,2022-03-31T18:52:35+02:00*%
%TF.ProjectId,plaid_plate_mit_grid,706c6169-645f-4706-9c61-74655f6d6974,rev?*%
%TF.SameCoordinates,PX208b4c8PY36216c0*%
%TF.FileFunction,Soldermask,Top*%
%TF.FilePolarity,Negative*%
%FSLAX46Y46*%
G04 Gerber Fmt 4.6, Leading zero omitted, Abs format (unit mm)*
G04 Created by KiCad (PCBNEW 6.0.4-6f826c9f35~116~ubuntu22.04.1) date 2022-03-31 18:52:35*
%MOMM*%
%LPD*%
G01*
G04 APERTURE LIST*
%TA.AperFunction,Profile*%
%ADD10C,0.200000*%
%TD*%
%TA.AperFunction,Profile*%
%ADD11C,0.150000*%
%TD*%
G04 APERTURE END LIST*
D10*
X211499600Y-72491000D02*
G75*
G03*
X212499600Y-73491000I999999J-1D01*
G01*
X225499586Y-60491000D02*
G75*
G03*
X224499600Y-59491000I-999993J7D01*
G01*
X224499600Y-73491000D02*
G75*
G03*
X225499600Y-72491000I-7J1000007D01*
G01*
X212499600Y-59491000D02*
X224499600Y-59491000D01*
X211499600Y-72491000D02*
X211499600Y-60491000D01*
X212499600Y-59491000D02*
G75*
G03*
X211499600Y-60491000I-1J-999999D01*
G01*
X224499600Y-73491000D02*
X212499600Y-73491000D01*
X225499600Y-60491000D02*
X225499600Y-72491000D01*
X192499600Y-72491000D02*
G75*
G03*
X193499600Y-73491000I999999J-1D01*
G01*
X193499600Y-59491000D02*
G75*
G03*
X192499600Y-60491000I-1J-999999D01*
G01*
X206499586Y-60491000D02*
G75*
G03*
X205499600Y-59491000I-999993J7D01*
G01*
X205499600Y-73491000D02*
G75*
G03*
X206499600Y-72491000I-7J1000007D01*
G01*
X193499600Y-59491000D02*
X205499600Y-59491000D01*
X192499600Y-72491000D02*
X192499600Y-60491000D01*
X205499600Y-73491000D02*
X193499600Y-73491000D01*
X206499600Y-60491000D02*
X206499600Y-72491000D01*
X173499600Y-72491000D02*
G75*
G03*
X174499600Y-73491000I999999J-1D01*
G01*
X187499586Y-60491000D02*
G75*
G03*
X186499600Y-59491000I-999993J7D01*
G01*
X186499600Y-73491000D02*
G75*
G03*
X187499600Y-72491000I-7J1000007D01*
G01*
X174499600Y-59491000D02*
X186499600Y-59491000D01*
X173499600Y-72491000D02*
X173499600Y-60491000D01*
X187499600Y-60491000D02*
X187499600Y-72491000D01*
X186499600Y-73491000D02*
X174499600Y-73491000D01*
X174499600Y-59491000D02*
G75*
G03*
X173499600Y-60491000I-1J-999999D01*
G01*
X154499600Y-72491000D02*
G75*
G03*
X155499600Y-73491000I999999J-1D01*
G01*
X168499586Y-60491000D02*
G75*
G03*
X167499600Y-59491000I-999993J7D01*
G01*
X167499600Y-73491000D02*
G75*
G03*
X168499600Y-72491000I-7J1000007D01*
G01*
X155499600Y-59491000D02*
X167499600Y-59491000D01*
X154499600Y-72491000D02*
X154499600Y-60491000D01*
X167499600Y-73491000D02*
X155499600Y-73491000D01*
X168499600Y-60491000D02*
X168499600Y-72491000D01*
X155499600Y-59491000D02*
G75*
G03*
X154499600Y-60491000I-1J-999999D01*
G01*
X135499600Y-72491000D02*
G75*
G03*
X136499600Y-73491000I999999J-1D01*
G01*
X149499586Y-60491000D02*
G75*
G03*
X148499600Y-59491000I-999993J7D01*
G01*
X149499600Y-60491000D02*
X149499600Y-72491000D01*
X148499600Y-73491000D02*
G75*
G03*
X149499600Y-72491000I-7J1000007D01*
G01*
X136499600Y-59491000D02*
X148499600Y-59491000D01*
X135499600Y-72491000D02*
X135499600Y-60491000D01*
X136499600Y-59491000D02*
G75*
G03*
X135499600Y-60491000I-1J-999999D01*
G01*
X148499600Y-73491000D02*
X136499600Y-73491000D01*
X211499600Y-53491000D02*
G75*
G03*
X212499600Y-54491000I999999J-1D01*
G01*
X225499586Y-41491000D02*
G75*
G03*
X224499600Y-40491000I-999993J7D01*
G01*
X224499600Y-54491000D02*
G75*
G03*
X225499600Y-53491000I-7J1000007D01*
G01*
X224499600Y-54491000D02*
X212499600Y-54491000D01*
X212499600Y-40491000D02*
X224499600Y-40491000D01*
X211499600Y-53491000D02*
X211499600Y-41491000D01*
X225499600Y-41491000D02*
X225499600Y-53491000D01*
X212499600Y-40491000D02*
G75*
G03*
X211499600Y-41491000I-1J-999999D01*
G01*
X192499600Y-53491000D02*
G75*
G03*
X193499600Y-54491000I999999J-1D01*
G01*
X206499586Y-41491000D02*
G75*
G03*
X205499600Y-40491000I-999993J7D01*
G01*
X205499600Y-54491000D02*
X193499600Y-54491000D01*
X205499600Y-54491000D02*
G75*
G03*
X206499600Y-53491000I-7J1000007D01*
G01*
X193499600Y-40491000D02*
X205499600Y-40491000D01*
X193499600Y-40491000D02*
G75*
G03*
X192499600Y-41491000I-1J-999999D01*
G01*
X192499600Y-53491000D02*
X192499600Y-41491000D01*
X206499600Y-41491000D02*
X206499600Y-53491000D01*
X173499600Y-53491000D02*
G75*
G03*
X174499600Y-54491000I999999J-1D01*
G01*
X186499600Y-54491000D02*
G75*
G03*
X187499600Y-53491000I-7J1000007D01*
G01*
X174499600Y-40491000D02*
G75*
G03*
X173499600Y-41491000I-1J-999999D01*
G01*
X187499586Y-41491000D02*
G75*
G03*
X186499600Y-40491000I-999993J7D01*
G01*
X174499600Y-40491000D02*
X186499600Y-40491000D01*
X173499600Y-53491000D02*
X173499600Y-41491000D01*
X186499600Y-54491000D02*
X174499600Y-54491000D01*
X187499600Y-41491000D02*
X187499600Y-53491000D01*
X154499600Y-53491000D02*
G75*
G03*
X155499600Y-54491000I999999J-1D01*
G01*
X168499586Y-41491000D02*
G75*
G03*
X167499600Y-40491000I-999993J7D01*
G01*
X167499600Y-54491000D02*
G75*
G03*
X168499600Y-53491000I-7J1000007D01*
G01*
X155499600Y-40491000D02*
X167499600Y-40491000D01*
X154499600Y-53491000D02*
X154499600Y-41491000D01*
X155499600Y-40491000D02*
G75*
G03*
X154499600Y-41491000I-1J-999999D01*
G01*
X167499600Y-54491000D02*
X155499600Y-54491000D01*
X168499600Y-41491000D02*
X168499600Y-53491000D01*
X78499600Y-72491000D02*
G75*
G03*
X79499600Y-73491000I999999J-1D01*
G01*
X92499586Y-60491000D02*
G75*
G03*
X91499600Y-59491000I-999993J7D01*
G01*
X91499600Y-73491000D02*
G75*
G03*
X92499600Y-72491000I-7J1000007D01*
G01*
X78499600Y-72491000D02*
X78499600Y-60491000D01*
X79499600Y-59491000D02*
X91499600Y-59491000D01*
X91499600Y-73491000D02*
X79499600Y-73491000D01*
X92499600Y-60491000D02*
X92499600Y-72491000D01*
X79499600Y-59491000D02*
G75*
G03*
X78499600Y-60491000I-1J-999999D01*
G01*
X59499600Y-72491000D02*
G75*
G03*
X60499600Y-73491000I999999J-1D01*
G01*
X73499586Y-60491000D02*
G75*
G03*
X72499600Y-59491000I-999993J7D01*
G01*
X72499600Y-73491000D02*
G75*
G03*
X73499600Y-72491000I-7J1000007D01*
G01*
X59499600Y-72491000D02*
X59499600Y-60491000D01*
X60499600Y-59491000D02*
G75*
G03*
X59499600Y-60491000I-1J-999999D01*
G01*
X60499600Y-59491000D02*
X72499600Y-59491000D01*
X72499600Y-73491000D02*
X60499600Y-73491000D01*
X73499600Y-60491000D02*
X73499600Y-72491000D01*
X40499600Y-72491000D02*
G75*
G03*
X41499600Y-73491000I999999J-1D01*
G01*
X53499600Y-73491000D02*
G75*
G03*
X54499600Y-72491000I-7J1000007D01*
G01*
X53499600Y-73491000D02*
X41499600Y-73491000D01*
X54499586Y-60491000D02*
G75*
G03*
X53499600Y-59491000I-999993J7D01*
G01*
X41499600Y-59491000D02*
X53499600Y-59491000D01*
X40499600Y-72491000D02*
X40499600Y-60491000D01*
X54499600Y-60491000D02*
X54499600Y-72491000D01*
X41499600Y-59491000D02*
G75*
G03*
X40499600Y-60491000I-1J-999999D01*
G01*
X21499600Y-72491000D02*
G75*
G03*
X22499600Y-73491000I999999J-1D01*
G01*
X35499586Y-60491000D02*
G75*
G03*
X34499600Y-59491000I-999993J7D01*
G01*
X34499600Y-73491000D02*
G75*
G03*
X35499600Y-72491000I-7J1000007D01*
G01*
X22499600Y-59491000D02*
X34499600Y-59491000D01*
X21499600Y-72491000D02*
X21499600Y-60491000D01*
X34499600Y-73491000D02*
X22499600Y-73491000D01*
X35499600Y-60491000D02*
X35499600Y-72491000D01*
X22499600Y-59491000D02*
G75*
G03*
X21499600Y-60491000I-1J-999999D01*
G01*
X2499600Y-72491000D02*
G75*
G03*
X3499600Y-73491000I999999J-1D01*
G01*
X16499586Y-60491000D02*
G75*
G03*
X15499600Y-59491000I-999993J7D01*
G01*
X15499600Y-73491000D02*
G75*
G03*
X16499600Y-72491000I-7J1000007D01*
G01*
X3499600Y-59491000D02*
X15499600Y-59491000D01*
X2499600Y-72491000D02*
X2499600Y-60491000D01*
X15499600Y-73491000D02*
X3499600Y-73491000D01*
X16499600Y-60491000D02*
X16499600Y-72491000D01*
X3499600Y-59491000D02*
G75*
G03*
X2499600Y-60491000I-1J-999999D01*
G01*
X78499600Y-53491000D02*
G75*
G03*
X79499600Y-54491000I999999J-1D01*
G01*
X92499586Y-41491000D02*
G75*
G03*
X91499600Y-40491000I-999993J7D01*
G01*
X91499600Y-54491000D02*
G75*
G03*
X92499600Y-53491000I-7J1000007D01*
G01*
X79499600Y-40491000D02*
X91499600Y-40491000D01*
X78499600Y-53491000D02*
X78499600Y-41491000D01*
X91499600Y-54491000D02*
X79499600Y-54491000D01*
X92499600Y-41491000D02*
X92499600Y-53491000D01*
X79499600Y-40491000D02*
G75*
G03*
X78499600Y-41491000I-1J-999999D01*
G01*
X59499600Y-53491000D02*
G75*
G03*
X60499600Y-54491000I999999J-1D01*
G01*
X72499600Y-54491000D02*
G75*
G03*
X73499600Y-53491000I-7J1000007D01*
G01*
X73499586Y-41491000D02*
G75*
G03*
X72499600Y-40491000I-999993J7D01*
G01*
X60499600Y-40491000D02*
X72499600Y-40491000D01*
X59499600Y-53491000D02*
X59499600Y-41491000D01*
X72499600Y-54491000D02*
X60499600Y-54491000D01*
X73499600Y-41491000D02*
X73499600Y-53491000D01*
X60499600Y-40491000D02*
G75*
G03*
X59499600Y-41491000I-1J-999999D01*
G01*
X40499600Y-53491000D02*
G75*
G03*
X41499600Y-54491000I999999J-1D01*
G01*
X53499600Y-54491000D02*
G75*
G03*
X54499600Y-53491000I-7J1000007D01*
G01*
X54499586Y-41491000D02*
G75*
G03*
X53499600Y-40491000I-999993J7D01*
G01*
X41499600Y-40491000D02*
X53499600Y-40491000D01*
X40499600Y-53491000D02*
X40499600Y-41491000D01*
X53499600Y-54491000D02*
X41499600Y-54491000D01*
X54499600Y-41491000D02*
X54499600Y-53491000D01*
X41499600Y-40491000D02*
G75*
G03*
X40499600Y-41491000I-1J-999999D01*
G01*
X21499600Y-53491000D02*
G75*
G03*
X22499600Y-54491000I999999J-1D01*
G01*
X35499586Y-41491000D02*
G75*
G03*
X34499600Y-40491000I-999993J7D01*
G01*
X22499600Y-40491000D02*
G75*
G03*
X21499600Y-41491000I-1J-999999D01*
G01*
X34499600Y-54491000D02*
G75*
G03*
X35499600Y-53491000I-7J1000007D01*
G01*
X22499600Y-40491000D02*
X34499600Y-40491000D01*
X21499600Y-53491000D02*
X21499600Y-41491000D01*
X34499600Y-54491000D02*
X22499600Y-54491000D01*
X35499600Y-41491000D02*
X35499600Y-53491000D01*
X136499600Y-40491000D02*
G75*
G03*
X135499600Y-41491000I-1J-999999D01*
G01*
X149499600Y-41491000D02*
X149499600Y-53491000D01*
X148499600Y-54491000D02*
X136499600Y-54491000D01*
X135499600Y-53491000D02*
X135499600Y-41491000D01*
X136499600Y-40491000D02*
X148499600Y-40491000D01*
X148499600Y-54491000D02*
G75*
G03*
X149499600Y-53491000I-7J1000007D01*
G01*
X149499586Y-41491000D02*
G75*
G03*
X148499600Y-40491000I-999993J7D01*
G01*
X135499600Y-53491000D02*
G75*
G03*
X136499600Y-54491000I999999J-1D01*
G01*
X117499600Y-40491000D02*
G75*
G03*
X116499600Y-41491000I-1J-999999D01*
G01*
X130499600Y-41491000D02*
X130499600Y-53491000D01*
X129499600Y-54491000D02*
X117499600Y-54491000D01*
X116499600Y-53491000D02*
X116499600Y-41491000D01*
X117499600Y-40491000D02*
X129499600Y-40491000D01*
X129499600Y-54491000D02*
G75*
G03*
X130499600Y-53491000I-7J1000007D01*
G01*
X130499586Y-41491000D02*
G75*
G03*
X129499600Y-40491000I-999993J7D01*
G01*
X116499600Y-53491000D02*
G75*
G03*
X117499600Y-54491000I999999J-1D01*
G01*
X98499600Y-40491000D02*
G75*
G03*
X97499600Y-41491000I-1J-999999D01*
G01*
X111499600Y-41491000D02*
X111499600Y-53491000D01*
X110499600Y-54491000D02*
X98499600Y-54491000D01*
X97499600Y-53491000D02*
X97499600Y-41491000D01*
X98499600Y-40491000D02*
X110499600Y-40491000D01*
X110499600Y-54491000D02*
G75*
G03*
X111499600Y-53491000I-7J1000007D01*
G01*
X111499586Y-41491000D02*
G75*
G03*
X110499600Y-40491000I-999993J7D01*
G01*
X97499600Y-53491000D02*
G75*
G03*
X98499600Y-54491000I999999J-1D01*
G01*
X3499600Y-40491000D02*
G75*
G03*
X2499600Y-41491000I-1J-999999D01*
G01*
X16499600Y-41491000D02*
X16499600Y-53491000D01*
X15499600Y-54491000D02*
X3499600Y-54491000D01*
X2499600Y-53491000D02*
X2499600Y-41491000D01*
X3499600Y-40491000D02*
X15499600Y-40491000D01*
X15499600Y-54491000D02*
G75*
G03*
X16499600Y-53491000I-7J1000007D01*
G01*
X16499586Y-41491000D02*
G75*
G03*
X15499600Y-40491000I-999993J7D01*
G01*
X2499600Y-53491000D02*
G75*
G03*
X3499600Y-54491000I999999J-1D01*
G01*
X212499600Y-21491000D02*
G75*
G03*
X211499600Y-22491000I-1J-999999D01*
G01*
X211499600Y-34491000D02*
G75*
G03*
X212499600Y-35491000I999999J-1D01*
G01*
X225499600Y-22491000D02*
X225499600Y-34491000D01*
X224499600Y-35491000D02*
X212499600Y-35491000D01*
X211499600Y-34491000D02*
X211499600Y-22491000D01*
X212499600Y-21491000D02*
X224499600Y-21491000D01*
X224499600Y-35491000D02*
G75*
G03*
X225499600Y-34491000I-7J1000007D01*
G01*
X225499586Y-22491000D02*
G75*
G03*
X224499600Y-21491000I-999993J7D01*
G01*
X193499600Y-21491000D02*
G75*
G03*
X192499600Y-22491000I-1J-999999D01*
G01*
X206499600Y-22491000D02*
X206499600Y-34491000D01*
X205499600Y-35491000D02*
X193499600Y-35491000D01*
X192499600Y-34491000D02*
X192499600Y-22491000D01*
X193499600Y-21491000D02*
X205499600Y-21491000D01*
X205499600Y-35491000D02*
G75*
G03*
X206499600Y-34491000I-7J1000007D01*
G01*
X206499586Y-22491000D02*
G75*
G03*
X205499600Y-21491000I-999993J7D01*
G01*
X192499600Y-34491000D02*
G75*
G03*
X193499600Y-35491000I999999J-1D01*
G01*
X174499600Y-21491000D02*
G75*
G03*
X173499600Y-22491000I-1J-999999D01*
G01*
X187499600Y-22491000D02*
X187499600Y-34491000D01*
X186499600Y-35491000D02*
X174499600Y-35491000D01*
X173499600Y-34491000D02*
X173499600Y-22491000D01*
X174499600Y-21491000D02*
X186499600Y-21491000D01*
X186499600Y-35491000D02*
G75*
G03*
X187499600Y-34491000I-7J1000007D01*
G01*
X187499586Y-22491000D02*
G75*
G03*
X186499600Y-21491000I-999993J7D01*
G01*
X173499600Y-34491000D02*
G75*
G03*
X174499600Y-35491000I999999J-1D01*
G01*
X155499600Y-21491000D02*
G75*
G03*
X154499600Y-22491000I-1J-999999D01*
G01*
X168499600Y-22491000D02*
X168499600Y-34491000D01*
X167499600Y-35491000D02*
X155499600Y-35491000D01*
X154499600Y-34491000D02*
X154499600Y-22491000D01*
X155499600Y-21491000D02*
X167499600Y-21491000D01*
X167499600Y-35491000D02*
G75*
G03*
X168499600Y-34491000I-7J1000007D01*
G01*
X168499586Y-22491000D02*
G75*
G03*
X167499600Y-21491000I-999993J7D01*
G01*
X154499600Y-34491000D02*
G75*
G03*
X155499600Y-35491000I999999J-1D01*
G01*
X136499600Y-21491000D02*
G75*
G03*
X135499600Y-22491000I-1J-999999D01*
G01*
X149499600Y-22491000D02*
X149499600Y-34491000D01*
X148499600Y-35491000D02*
X136499600Y-35491000D01*
X135499600Y-34491000D02*
X135499600Y-22491000D01*
X136499600Y-21491000D02*
X148499600Y-21491000D01*
X148499600Y-35491000D02*
G75*
G03*
X149499600Y-34491000I-7J1000007D01*
G01*
X149499586Y-22491000D02*
G75*
G03*
X148499600Y-21491000I-999993J7D01*
G01*
X135499600Y-34491000D02*
G75*
G03*
X136499600Y-35491000I999999J-1D01*
G01*
X117499600Y-21491000D02*
G75*
G03*
X116499600Y-22491000I-1J-999999D01*
G01*
X130499600Y-22491000D02*
X130499600Y-34491000D01*
X129499600Y-35491000D02*
X117499600Y-35491000D01*
X116499600Y-34491000D02*
X116499600Y-22491000D01*
X117499600Y-21491000D02*
X129499600Y-21491000D01*
X129499600Y-35491000D02*
G75*
G03*
X130499600Y-34491000I-7J1000007D01*
G01*
X130499586Y-22491000D02*
G75*
G03*
X129499600Y-21491000I-999993J7D01*
G01*
X116499600Y-34491000D02*
G75*
G03*
X117499600Y-35491000I999999J-1D01*
G01*
X98499600Y-21491000D02*
G75*
G03*
X97499600Y-22491000I-1J-999999D01*
G01*
X111499600Y-22491000D02*
X111499600Y-34491000D01*
X110499600Y-35491000D02*
X98499600Y-35491000D01*
X97499600Y-34491000D02*
X97499600Y-22491000D01*
X98499600Y-21491000D02*
X110499600Y-21491000D01*
X110499600Y-35491000D02*
G75*
G03*
X111499600Y-34491000I-7J1000007D01*
G01*
X111499586Y-22491000D02*
G75*
G03*
X110499600Y-21491000I-999993J7D01*
G01*
X97499600Y-34491000D02*
G75*
G03*
X98499600Y-35491000I999999J-1D01*
G01*
X79499600Y-21491000D02*
G75*
G03*
X78499600Y-22491000I-1J-999999D01*
G01*
X91499600Y-35491000D02*
G75*
G03*
X92499600Y-34491000I-7J1000007D01*
G01*
X92499600Y-22491000D02*
X92499600Y-34491000D01*
X92499586Y-22491000D02*
G75*
G03*
X91499600Y-21491000I-999993J7D01*
G01*
X91499600Y-35491000D02*
X79499600Y-35491000D01*
X78499600Y-34491000D02*
G75*
G03*
X79499600Y-35491000I999999J-1D01*
G01*
X78499600Y-34491000D02*
X78499600Y-22491000D01*
X79499600Y-21491000D02*
X91499600Y-21491000D01*
X60499600Y-21491000D02*
G75*
G03*
X59499600Y-22491000I-1J-999999D01*
G01*
X73499600Y-22491000D02*
X73499600Y-34491000D01*
X72499600Y-35491000D02*
X60499600Y-35491000D01*
X59499600Y-34491000D02*
X59499600Y-22491000D01*
X60499600Y-21491000D02*
X72499600Y-21491000D01*
X72499600Y-35491000D02*
G75*
G03*
X73499600Y-34491000I-7J1000007D01*
G01*
X73499586Y-22491000D02*
G75*
G03*
X72499600Y-21491000I-999993J7D01*
G01*
X59499600Y-34491000D02*
G75*
G03*
X60499600Y-35491000I999999J-1D01*
G01*
X41499600Y-21491000D02*
G75*
G03*
X40499600Y-22491000I-1J-999999D01*
G01*
X54499600Y-22491000D02*
X54499600Y-34491000D01*
X53499600Y-35491000D02*
X41499600Y-35491000D01*
X40499600Y-34491000D02*
X40499600Y-22491000D01*
X41499600Y-21491000D02*
X53499600Y-21491000D01*
X53499600Y-35491000D02*
G75*
G03*
X54499600Y-34491000I-7J1000007D01*
G01*
X54499586Y-22491000D02*
G75*
G03*
X53499600Y-21491000I-999993J7D01*
G01*
X40499600Y-34491000D02*
G75*
G03*
X41499600Y-35491000I999999J-1D01*
G01*
X22499600Y-21491000D02*
G75*
G03*
X21499600Y-22491000I-1J-999999D01*
G01*
X35499600Y-22491000D02*
X35499600Y-34491000D01*
X34499600Y-35491000D02*
X22499600Y-35491000D01*
X21499600Y-34491000D02*
X21499600Y-22491000D01*
X22499600Y-21491000D02*
X34499600Y-21491000D01*
X34499600Y-35491000D02*
G75*
G03*
X35499600Y-34491000I-7J1000007D01*
G01*
X35499586Y-22491000D02*
G75*
G03*
X34499600Y-21491000I-999993J7D01*
G01*
X21499600Y-34491000D02*
G75*
G03*
X22499600Y-35491000I999999J-1D01*
G01*
X3499600Y-21491000D02*
G75*
G03*
X2499600Y-22491000I-1J-999999D01*
G01*
X16499600Y-22491000D02*
X16499600Y-34491000D01*
X15499600Y-35491000D02*
X3499600Y-35491000D01*
X2499600Y-34491000D02*
X2499600Y-22491000D01*
X3499600Y-21491000D02*
X15499600Y-21491000D01*
X15499600Y-35491000D02*
G75*
G03*
X16499600Y-34491000I-7J1000007D01*
G01*
X16499586Y-22491000D02*
G75*
G03*
X15499600Y-21491000I-999993J7D01*
G01*
X2499600Y-34491000D02*
G75*
G03*
X3499600Y-35491000I999999J-1D01*
G01*
X212499600Y-2491000D02*
G75*
G03*
X211499600Y-3491000I-1J-999999D01*
G01*
X225499600Y-3491000D02*
X225499600Y-15491000D01*
X224499600Y-16491000D02*
X212499600Y-16491000D01*
X211499600Y-15491000D02*
X211499600Y-3491000D01*
X212499600Y-2491000D02*
X224499600Y-2491000D01*
X224499600Y-16491000D02*
G75*
G03*
X225499600Y-15491000I-7J1000007D01*
G01*
X225499586Y-3491000D02*
G75*
G03*
X224499600Y-2491000I-999993J7D01*
G01*
X211499600Y-15491000D02*
G75*
G03*
X212499600Y-16491000I999999J-1D01*
G01*
X193499600Y-2491000D02*
G75*
G03*
X192499600Y-3491000I-1J-999999D01*
G01*
X206499600Y-3491000D02*
X206499600Y-15491000D01*
X205499600Y-16491000D02*
X193499600Y-16491000D01*
X192499600Y-15491000D02*
X192499600Y-3491000D01*
X193499600Y-2491000D02*
X205499600Y-2491000D01*
X205499600Y-16491000D02*
G75*
G03*
X206499600Y-15491000I-7J1000007D01*
G01*
X206499586Y-3491000D02*
G75*
G03*
X205499600Y-2491000I-999993J7D01*
G01*
X192499600Y-15491000D02*
G75*
G03*
X193499600Y-16491000I999999J-1D01*
G01*
X174499600Y-2491000D02*
G75*
G03*
X173499600Y-3491000I-1J-999999D01*
G01*
X187499600Y-3491000D02*
X187499600Y-15491000D01*
X186499600Y-16491000D02*
X174499600Y-16491000D01*
X173499600Y-15491000D02*
X173499600Y-3491000D01*
X174499600Y-2491000D02*
X186499600Y-2491000D01*
X186499600Y-16491000D02*
G75*
G03*
X187499600Y-15491000I-7J1000007D01*
G01*
X187499586Y-3491000D02*
G75*
G03*
X186499600Y-2491000I-999993J7D01*
G01*
X173499600Y-15491000D02*
G75*
G03*
X174499600Y-16491000I999999J-1D01*
G01*
X155499600Y-2491000D02*
G75*
G03*
X154499600Y-3491000I-1J-999999D01*
G01*
X168499600Y-3491000D02*
X168499600Y-15491000D01*
X167499600Y-16491000D02*
X155499600Y-16491000D01*
X154499600Y-15491000D02*
X154499600Y-3491000D01*
X155499600Y-2491000D02*
X167499600Y-2491000D01*
X167499600Y-16491000D02*
G75*
G03*
X168499600Y-15491000I-7J1000007D01*
G01*
X168499586Y-3491000D02*
G75*
G03*
X167499600Y-2491000I-999993J7D01*
G01*
X154499600Y-15491000D02*
G75*
G03*
X155499600Y-16491000I999999J-1D01*
G01*
X136499600Y-2491000D02*
G75*
G03*
X135499600Y-3491000I-1J-999999D01*
G01*
X149499600Y-3491000D02*
X149499600Y-15491000D01*
X148499600Y-16491000D02*
X136499600Y-16491000D01*
X135499600Y-15491000D02*
X135499600Y-3491000D01*
X135499600Y-15491000D02*
G75*
G03*
X136499600Y-16491000I999999J-1D01*
G01*
X136499600Y-2491000D02*
X148499600Y-2491000D01*
X148499600Y-16491000D02*
G75*
G03*
X149499600Y-15491000I-7J1000007D01*
G01*
X149499586Y-3491000D02*
G75*
G03*
X148499600Y-2491000I-999993J7D01*
G01*
X117499600Y-2491000D02*
G75*
G03*
X116499600Y-3491000I-1J-999999D01*
G01*
X130499600Y-3491000D02*
X130499600Y-15491000D01*
X129499600Y-16491000D02*
X117499600Y-16491000D01*
X116499600Y-15491000D02*
X116499600Y-3491000D01*
X117499600Y-2491000D02*
X129499600Y-2491000D01*
X129499600Y-16491000D02*
G75*
G03*
X130499600Y-15491000I-7J1000007D01*
G01*
X130499586Y-3491000D02*
G75*
G03*
X129499600Y-2491000I-999993J7D01*
G01*
X116499600Y-15491000D02*
G75*
G03*
X117499600Y-16491000I999999J-1D01*
G01*
X98499600Y-2491000D02*
G75*
G03*
X97499600Y-3491000I-1J-999999D01*
G01*
X111499600Y-3491000D02*
X111499600Y-15491000D01*
X110499600Y-16491000D02*
X98499600Y-16491000D01*
X97499600Y-15491000D02*
X97499600Y-3491000D01*
X98499600Y-2491000D02*
X110499600Y-2491000D01*
X110499600Y-16491000D02*
G75*
G03*
X111499600Y-15491000I-7J1000007D01*
G01*
X111499586Y-3491000D02*
G75*
G03*
X110499600Y-2491000I-999993J7D01*
G01*
X97499600Y-15491000D02*
G75*
G03*
X98499600Y-16491000I999999J-1D01*
G01*
X79499600Y-2491000D02*
G75*
G03*
X78499600Y-3491000I-1J-999999D01*
G01*
X92499600Y-3491000D02*
X92499600Y-15491000D01*
X91499600Y-16491000D02*
X79499600Y-16491000D01*
X78499600Y-15491000D02*
X78499600Y-3491000D01*
X79499600Y-2491000D02*
X91499600Y-2491000D01*
X91499600Y-16491000D02*
G75*
G03*
X92499600Y-15491000I-7J1000007D01*
G01*
X92499586Y-3491000D02*
G75*
G03*
X91499600Y-2491000I-999993J7D01*
G01*
X78499600Y-15491000D02*
G75*
G03*
X79499600Y-16491000I999999J-1D01*
G01*
X60499600Y-2491000D02*
G75*
G03*
X59499600Y-3491000I-1J-999999D01*
G01*
X73499600Y-3491000D02*
X73499600Y-15491000D01*
X72499600Y-16491000D02*
X60499600Y-16491000D01*
X59499600Y-15491000D02*
X59499600Y-3491000D01*
X60499600Y-2491000D02*
X72499600Y-2491000D01*
X72499600Y-16491000D02*
G75*
G03*
X73499600Y-15491000I-7J1000007D01*
G01*
X73499586Y-3491000D02*
G75*
G03*
X72499600Y-2491000I-999993J7D01*
G01*
X59499600Y-15491000D02*
G75*
G03*
X60499600Y-16491000I999999J-1D01*
G01*
X41499600Y-2491000D02*
G75*
G03*
X40499600Y-3491000I-1J-999999D01*
G01*
X54499600Y-3491000D02*
X54499600Y-15491000D01*
X53499600Y-16491000D02*
X41499600Y-16491000D01*
X40499600Y-15491000D02*
X40499600Y-3491000D01*
X40499600Y-15491000D02*
G75*
G03*
X41499600Y-16491000I999999J-1D01*
G01*
X41499600Y-2491000D02*
X53499600Y-2491000D01*
X53499600Y-16491000D02*
G75*
G03*
X54499600Y-15491000I-7J1000007D01*
G01*
X54499586Y-3491000D02*
G75*
G03*
X53499600Y-2491000I-999993J7D01*
G01*
X22499600Y-2491000D02*
G75*
G03*
X21499600Y-3491000I-1J-999999D01*
G01*
X35499600Y-3491000D02*
X35499600Y-15491000D01*
X34499600Y-16491000D02*
X22499600Y-16491000D01*
X21499600Y-15491000D02*
X21499600Y-3491000D01*
X22499600Y-2491000D02*
X34499600Y-2491000D01*
X35499586Y-3491000D02*
G75*
G03*
X34499600Y-2491000I-999993J7D01*
G01*
X34499600Y-16491000D02*
G75*
G03*
X35499600Y-15491000I-7J1000007D01*
G01*
X21499600Y-15491000D02*
G75*
G03*
X22499600Y-16491000I999999J-1D01*
G01*
X2499600Y-15491000D02*
G75*
G03*
X3499600Y-16491000I999999J-1D01*
G01*
X3499600Y-2491000D02*
G75*
G03*
X2499600Y-3491000I-1J-999999D01*
G01*
X16499600Y-3491000D02*
X16499600Y-15491000D01*
X3499600Y-2491000D02*
X15499600Y-2491000D01*
X16499586Y-3491000D02*
G75*
G03*
X15499600Y-2491000I-999993J7D01*
G01*
X15499600Y-16491000D02*
G75*
G03*
X16499600Y-15491000I-7J1000007D01*
G01*
X15499600Y-16491000D02*
X3499600Y-16491000D01*
X2499600Y-15491000D02*
X2499600Y-3491000D01*
X129462661Y-58499960D02*
X129462661Y-58720514D01*
X121462660Y-59499960D02*
G75*
G03*
X122462660Y-58499960I1J999999D01*
G01*
X130549660Y-60499960D02*
G75*
G03*
X130006160Y-59610237I-1000003J-2D01*
G01*
X123462660Y-57499960D02*
G75*
G03*
X122462660Y-58499960I-1J-999999D01*
G01*
X97499660Y-72499960D02*
G75*
G03*
X98499660Y-73499960I1000000J0D01*
G01*
X105586660Y-58499960D02*
G75*
G03*
X106586660Y-59499960I999999J-1D01*
G01*
X97499660Y-72499960D02*
X97499660Y-60499960D01*
X129462661Y-58499960D02*
G75*
G03*
X128462661Y-57499960I-1000003J-3D01*
G01*
X129549660Y-73499960D02*
X98499660Y-73499960D01*
X106586660Y-59499960D02*
X121462660Y-59499960D01*
X105586660Y-58499960D02*
G75*
G03*
X104586660Y-57499960I-999999J1D01*
G01*
X129549660Y-73499960D02*
G75*
G03*
X130549660Y-72499960I1J999999D01*
G01*
X130549660Y-60499960D02*
X130549660Y-72499960D01*
X129462660Y-58720514D02*
G75*
G03*
X130006160Y-59610237I1000100J61D01*
G01*
X99586659Y-57499960D02*
G75*
G03*
X98586659Y-58499960I-1J-999999D01*
G01*
X123462660Y-57499960D02*
X128462660Y-57499960D01*
X99586660Y-57499960D02*
X104586660Y-57499960D01*
X98043160Y-59610237D02*
G75*
G03*
X97499660Y-60499960I456500J-889723D01*
G01*
X98586659Y-58720514D02*
X98586659Y-58499960D01*
X98043160Y-59610238D02*
G75*
G03*
X98586660Y-58720514I-456360J889638D01*
G01*
D11*
X228000000Y-2500000D02*
G75*
G03*
X225500000Y0I-2500000J0D01*
G01*
X2500000Y0D02*
G75*
G03*
X0Y-2500000I0J-2500000D01*
G01*
X0Y-73500000D02*
G75*
G03*
X2500000Y-76000000I2500000J0D01*
G01*
X225500000Y-76000000D02*
G75*
G03*
X228000000Y-73500000I0J2500000D01*
G01*
X0Y-73500000D02*
X0Y-2500000D01*
X225500000Y-76000000D02*
X2500000Y-76000000D01*
X228000000Y-2500000D02*
X228000000Y-73500000D01*
X225500000Y0D02*
X2500000Y0D01*
D10*
X211499600Y-72491000D02*
G75*
G03*
X212499600Y-73491000I999999J-1D01*
G01*
X225499586Y-60491000D02*
G75*
G03*
X224499600Y-59491000I-999993J7D01*
G01*
X224499600Y-73491000D02*
G75*
G03*
X225499600Y-72491000I-7J1000007D01*
G01*
X212499600Y-59491000D02*
X224499600Y-59491000D01*
X211499600Y-72491000D02*
X211499600Y-60491000D01*
X212499600Y-59491000D02*
G75*
G03*
X211499600Y-60491000I-1J-999999D01*
G01*
X224499600Y-73491000D02*
X212499600Y-73491000D01*
X225499600Y-60491000D02*
X225499600Y-72491000D01*
X192499600Y-72491000D02*
G75*
G03*
X193499600Y-73491000I999999J-1D01*
G01*
X193499600Y-59491000D02*
G75*
G03*
X192499600Y-60491000I-1J-999999D01*
G01*
X206499586Y-60491000D02*
G75*
G03*
X205499600Y-59491000I-999993J7D01*
G01*
X205499600Y-73491000D02*
G75*
G03*
X206499600Y-72491000I-7J1000007D01*
G01*
X193499600Y-59491000D02*
X205499600Y-59491000D01*
X192499600Y-72491000D02*
X192499600Y-60491000D01*
X205499600Y-73491000D02*
X193499600Y-73491000D01*
X206499600Y-60491000D02*
X206499600Y-72491000D01*
X173499600Y-72491000D02*
G75*
G03*
X174499600Y-73491000I999999J-1D01*
G01*
X187499586Y-60491000D02*
G75*
G03*
X186499600Y-59491000I-999993J7D01*
G01*
X186499600Y-73491000D02*
G75*
G03*
X187499600Y-72491000I-7J1000007D01*
G01*
X174499600Y-59491000D02*
X186499600Y-59491000D01*
X173499600Y-72491000D02*
X173499600Y-60491000D01*
X187499600Y-60491000D02*
X187499600Y-72491000D01*
X186499600Y-73491000D02*
X174499600Y-73491000D01*
X174499600Y-59491000D02*
G75*
G03*
X173499600Y-60491000I-1J-999999D01*
G01*
X154499600Y-72491000D02*
G75*
G03*
X155499600Y-73491000I999999J-1D01*
G01*
X168499586Y-60491000D02*
G75*
G03*
X167499600Y-59491000I-999993J7D01*
G01*
X167499600Y-73491000D02*
G75*
G03*
X168499600Y-72491000I-7J1000007D01*
G01*
X155499600Y-59491000D02*
X167499600Y-59491000D01*
X154499600Y-72491000D02*
X154499600Y-60491000D01*
X167499600Y-73491000D02*
X155499600Y-73491000D01*
X168499600Y-60491000D02*
X168499600Y-72491000D01*
X155499600Y-59491000D02*
G75*
G03*
X154499600Y-60491000I-1J-999999D01*
G01*
X135499600Y-72491000D02*
G75*
G03*
X136499600Y-73491000I999999J-1D01*
G01*
X149499586Y-60491000D02*
G75*
G03*
X148499600Y-59491000I-999993J7D01*
G01*
X149499600Y-60491000D02*
X149499600Y-72491000D01*
X148499600Y-73491000D02*
G75*
G03*
X149499600Y-72491000I-7J1000007D01*
G01*
X136499600Y-59491000D02*
X148499600Y-59491000D01*
X135499600Y-72491000D02*
X135499600Y-60491000D01*
X136499600Y-59491000D02*
G75*
G03*
X135499600Y-60491000I-1J-999999D01*
G01*
X148499600Y-73491000D02*
X136499600Y-73491000D01*
X211499600Y-53491000D02*
G75*
G03*
X212499600Y-54491000I999999J-1D01*
G01*
X225499586Y-41491000D02*
G75*
G03*
X224499600Y-40491000I-999993J7D01*
G01*
X224499600Y-54491000D02*
G75*
G03*
X225499600Y-53491000I-7J1000007D01*
G01*
X224499600Y-54491000D02*
X212499600Y-54491000D01*
X212499600Y-40491000D02*
X224499600Y-40491000D01*
X211499600Y-53491000D02*
X211499600Y-41491000D01*
X225499600Y-41491000D02*
X225499600Y-53491000D01*
X212499600Y-40491000D02*
G75*
G03*
X211499600Y-41491000I-1J-999999D01*
G01*
X192499600Y-53491000D02*
G75*
G03*
X193499600Y-54491000I999999J-1D01*
G01*
X206499586Y-41491000D02*
G75*
G03*
X205499600Y-40491000I-999993J7D01*
G01*
X205499600Y-54491000D02*
X193499600Y-54491000D01*
X205499600Y-54491000D02*
G75*
G03*
X206499600Y-53491000I-7J1000007D01*
G01*
X193499600Y-40491000D02*
X205499600Y-40491000D01*
X193499600Y-40491000D02*
G75*
G03*
X192499600Y-41491000I-1J-999999D01*
G01*
X192499600Y-53491000D02*
X192499600Y-41491000D01*
X206499600Y-41491000D02*
X206499600Y-53491000D01*
X173499600Y-53491000D02*
G75*
G03*
X174499600Y-54491000I999999J-1D01*
G01*
X186499600Y-54491000D02*
G75*
G03*
X187499600Y-53491000I-7J1000007D01*
G01*
X174499600Y-40491000D02*
G75*
G03*
X173499600Y-41491000I-1J-999999D01*
G01*
X187499586Y-41491000D02*
G75*
G03*
X186499600Y-40491000I-999993J7D01*
G01*
X174499600Y-40491000D02*
X186499600Y-40491000D01*
X173499600Y-53491000D02*
X173499600Y-41491000D01*
X186499600Y-54491000D02*
X174499600Y-54491000D01*
X187499600Y-41491000D02*
X187499600Y-53491000D01*
X154499600Y-53491000D02*
G75*
G03*
X155499600Y-54491000I999999J-1D01*
G01*
X168499586Y-41491000D02*
G75*
G03*
X167499600Y-40491000I-999993J7D01*
G01*
X167499600Y-54491000D02*
G75*
G03*
X168499600Y-53491000I-7J1000007D01*
G01*
X155499600Y-40491000D02*
X167499600Y-40491000D01*
X154499600Y-53491000D02*
X154499600Y-41491000D01*
X155499600Y-40491000D02*
G75*
G03*
X154499600Y-41491000I-1J-999999D01*
G01*
X167499600Y-54491000D02*
X155499600Y-54491000D01*
X168499600Y-41491000D02*
X168499600Y-53491000D01*
X78499600Y-72491000D02*
G75*
G03*
X79499600Y-73491000I999999J-1D01*
G01*
X92499586Y-60491000D02*
G75*
G03*
X91499600Y-59491000I-999993J7D01*
G01*
X91499600Y-73491000D02*
G75*
G03*
X92499600Y-72491000I-7J1000007D01*
G01*
X78499600Y-72491000D02*
X78499600Y-60491000D01*
X79499600Y-59491000D02*
X91499600Y-59491000D01*
X91499600Y-73491000D02*
X79499600Y-73491000D01*
X92499600Y-60491000D02*
X92499600Y-72491000D01*
X79499600Y-59491000D02*
G75*
G03*
X78499600Y-60491000I-1J-999999D01*
G01*
X59499600Y-72491000D02*
G75*
G03*
X60499600Y-73491000I999999J-1D01*
G01*
X73499586Y-60491000D02*
G75*
G03*
X72499600Y-59491000I-999993J7D01*
G01*
X72499600Y-73491000D02*
G75*
G03*
X73499600Y-72491000I-7J1000007D01*
G01*
X59499600Y-72491000D02*
X59499600Y-60491000D01*
X60499600Y-59491000D02*
G75*
G03*
X59499600Y-60491000I-1J-999999D01*
G01*
X60499600Y-59491000D02*
X72499600Y-59491000D01*
X72499600Y-73491000D02*
X60499600Y-73491000D01*
X73499600Y-60491000D02*
X73499600Y-72491000D01*
X40499600Y-72491000D02*
G75*
G03*
X41499600Y-73491000I999999J-1D01*
G01*
X53499600Y-73491000D02*
G75*
G03*
X54499600Y-72491000I-7J1000007D01*
G01*
X53499600Y-73491000D02*
X41499600Y-73491000D01*
X54499586Y-60491000D02*
G75*
G03*
X53499600Y-59491000I-999993J7D01*
G01*
X41499600Y-59491000D02*
X53499600Y-59491000D01*
X40499600Y-72491000D02*
X40499600Y-60491000D01*
X54499600Y-60491000D02*
X54499600Y-72491000D01*
X41499600Y-59491000D02*
G75*
G03*
X40499600Y-60491000I-1J-999999D01*
G01*
X21499600Y-72491000D02*
G75*
G03*
X22499600Y-73491000I999999J-1D01*
G01*
X35499586Y-60491000D02*
G75*
G03*
X34499600Y-59491000I-999993J7D01*
G01*
X34499600Y-73491000D02*
G75*
G03*
X35499600Y-72491000I-7J1000007D01*
G01*
X22499600Y-59491000D02*
X34499600Y-59491000D01*
X21499600Y-72491000D02*
X21499600Y-60491000D01*
X34499600Y-73491000D02*
X22499600Y-73491000D01*
X35499600Y-60491000D02*
X35499600Y-72491000D01*
X22499600Y-59491000D02*
G75*
G03*
X21499600Y-60491000I-1J-999999D01*
G01*
X2499600Y-72491000D02*
G75*
G03*
X3499600Y-73491000I999999J-1D01*
G01*
X16499586Y-60491000D02*
G75*
G03*
X15499600Y-59491000I-999993J7D01*
G01*
X15499600Y-73491000D02*
G75*
G03*
X16499600Y-72491000I-7J1000007D01*
G01*
X3499600Y-59491000D02*
X15499600Y-59491000D01*
X2499600Y-72491000D02*
X2499600Y-60491000D01*
X15499600Y-73491000D02*
X3499600Y-73491000D01*
X16499600Y-60491000D02*
X16499600Y-72491000D01*
X3499600Y-59491000D02*
G75*
G03*
X2499600Y-60491000I-1J-999999D01*
G01*
X78499600Y-53491000D02*
G75*
G03*
X79499600Y-54491000I999999J-1D01*
G01*
X92499586Y-41491000D02*
G75*
G03*
X91499600Y-40491000I-999993J7D01*
G01*
X91499600Y-54491000D02*
G75*
G03*
X92499600Y-53491000I-7J1000007D01*
G01*
X79499600Y-40491000D02*
X91499600Y-40491000D01*
X78499600Y-53491000D02*
X78499600Y-41491000D01*
X91499600Y-54491000D02*
X79499600Y-54491000D01*
X92499600Y-41491000D02*
X92499600Y-53491000D01*
X79499600Y-40491000D02*
G75*
G03*
X78499600Y-41491000I-1J-999999D01*
G01*
X59499600Y-53491000D02*
G75*
G03*
X60499600Y-54491000I999999J-1D01*
G01*
X72499600Y-54491000D02*
G75*
G03*
X73499600Y-53491000I-7J1000007D01*
G01*
X73499586Y-41491000D02*
G75*
G03*
X72499600Y-40491000I-999993J7D01*
G01*
X60499600Y-40491000D02*
X72499600Y-40491000D01*
X59499600Y-53491000D02*
X59499600Y-41491000D01*
X72499600Y-54491000D02*
X60499600Y-54491000D01*
X73499600Y-41491000D02*
X73499600Y-53491000D01*
X60499600Y-40491000D02*
G75*
G03*
X59499600Y-41491000I-1J-999999D01*
G01*
X40499600Y-53491000D02*
G75*
G03*
X41499600Y-54491000I999999J-1D01*
G01*
X53499600Y-54491000D02*
G75*
G03*
X54499600Y-53491000I-7J1000007D01*
G01*
X54499586Y-41491000D02*
G75*
G03*
X53499600Y-40491000I-999993J7D01*
G01*
X41499600Y-40491000D02*
X53499600Y-40491000D01*
X40499600Y-53491000D02*
X40499600Y-41491000D01*
X53499600Y-54491000D02*
X41499600Y-54491000D01*
X54499600Y-41491000D02*
X54499600Y-53491000D01*
X41499600Y-40491000D02*
G75*
G03*
X40499600Y-41491000I-1J-999999D01*
G01*
X21499600Y-53491000D02*
G75*
G03*
X22499600Y-54491000I999999J-1D01*
G01*
X35499586Y-41491000D02*
G75*
G03*
X34499600Y-40491000I-999993J7D01*
G01*
X22499600Y-40491000D02*
G75*
G03*
X21499600Y-41491000I-1J-999999D01*
G01*
X34499600Y-54491000D02*
G75*
G03*
X35499600Y-53491000I-7J1000007D01*
G01*
X22499600Y-40491000D02*
X34499600Y-40491000D01*
X21499600Y-53491000D02*
X21499600Y-41491000D01*
X34499600Y-54491000D02*
X22499600Y-54491000D01*
X35499600Y-41491000D02*
X35499600Y-53491000D01*
X136499600Y-40491000D02*
G75*
G03*
X135499600Y-41491000I-1J-999999D01*
G01*
X149499600Y-41491000D02*
X149499600Y-53491000D01*
X148499600Y-54491000D02*
X136499600Y-54491000D01*
X135499600Y-53491000D02*
X135499600Y-41491000D01*
X136499600Y-40491000D02*
X148499600Y-40491000D01*
X148499600Y-54491000D02*
G75*
G03*
X149499600Y-53491000I-7J1000007D01*
G01*
X149499586Y-41491000D02*
G75*
G03*
X148499600Y-40491000I-999993J7D01*
G01*
X135499600Y-53491000D02*
G75*
G03*
X136499600Y-54491000I999999J-1D01*
G01*
X117499600Y-40491000D02*
G75*
G03*
X116499600Y-41491000I-1J-999999D01*
G01*
X130499600Y-41491000D02*
X130499600Y-53491000D01*
X129499600Y-54491000D02*
X117499600Y-54491000D01*
X116499600Y-53491000D02*
X116499600Y-41491000D01*
X117499600Y-40491000D02*
X129499600Y-40491000D01*
X129499600Y-54491000D02*
G75*
G03*
X130499600Y-53491000I-7J1000007D01*
G01*
X130499586Y-41491000D02*
G75*
G03*
X129499600Y-40491000I-999993J7D01*
G01*
X116499600Y-53491000D02*
G75*
G03*
X117499600Y-54491000I999999J-1D01*
G01*
X98499600Y-40491000D02*
G75*
G03*
X97499600Y-41491000I-1J-999999D01*
G01*
X111499600Y-41491000D02*
X111499600Y-53491000D01*
X110499600Y-54491000D02*
X98499600Y-54491000D01*
X97499600Y-53491000D02*
X97499600Y-41491000D01*
X98499600Y-40491000D02*
X110499600Y-40491000D01*
X110499600Y-54491000D02*
G75*
G03*
X111499600Y-53491000I-7J1000007D01*
G01*
X111499586Y-41491000D02*
G75*
G03*
X110499600Y-40491000I-999993J7D01*
G01*
X97499600Y-53491000D02*
G75*
G03*
X98499600Y-54491000I999999J-1D01*
G01*
X3499600Y-40491000D02*
G75*
G03*
X2499600Y-41491000I-1J-999999D01*
G01*
X16499600Y-41491000D02*
X16499600Y-53491000D01*
X15499600Y-54491000D02*
X3499600Y-54491000D01*
X2499600Y-53491000D02*
X2499600Y-41491000D01*
X3499600Y-40491000D02*
X15499600Y-40491000D01*
X15499600Y-54491000D02*
G75*
G03*
X16499600Y-53491000I-7J1000007D01*
G01*
X16499586Y-41491000D02*
G75*
G03*
X15499600Y-40491000I-999993J7D01*
G01*
X2499600Y-53491000D02*
G75*
G03*
X3499600Y-54491000I999999J-1D01*
G01*
X212499600Y-21491000D02*
G75*
G03*
X211499600Y-22491000I-1J-999999D01*
G01*
X211499600Y-34491000D02*
G75*
G03*
X212499600Y-35491000I999999J-1D01*
G01*
X225499600Y-22491000D02*
X225499600Y-34491000D01*
X224499600Y-35491000D02*
X212499600Y-35491000D01*
X211499600Y-34491000D02*
X211499600Y-22491000D01*
X212499600Y-21491000D02*
X224499600Y-21491000D01*
X224499600Y-35491000D02*
G75*
G03*
X225499600Y-34491000I-7J1000007D01*
G01*
X225499586Y-22491000D02*
G75*
G03*
X224499600Y-21491000I-999993J7D01*
G01*
X193499600Y-21491000D02*
G75*
G03*
X192499600Y-22491000I-1J-999999D01*
G01*
X206499600Y-22491000D02*
X206499600Y-34491000D01*
X205499600Y-35491000D02*
X193499600Y-35491000D01*
X192499600Y-34491000D02*
X192499600Y-22491000D01*
X193499600Y-21491000D02*
X205499600Y-21491000D01*
X205499600Y-35491000D02*
G75*
G03*
X206499600Y-34491000I-7J1000007D01*
G01*
X206499586Y-22491000D02*
G75*
G03*
X205499600Y-21491000I-999993J7D01*
G01*
X192499600Y-34491000D02*
G75*
G03*
X193499600Y-35491000I999999J-1D01*
G01*
X174499600Y-21491000D02*
G75*
G03*
X173499600Y-22491000I-1J-999999D01*
G01*
X187499600Y-22491000D02*
X187499600Y-34491000D01*
X186499600Y-35491000D02*
X174499600Y-35491000D01*
X173499600Y-34491000D02*
X173499600Y-22491000D01*
X174499600Y-21491000D02*
X186499600Y-21491000D01*
X186499600Y-35491000D02*
G75*
G03*
X187499600Y-34491000I-7J1000007D01*
G01*
X187499586Y-22491000D02*
G75*
G03*
X186499600Y-21491000I-999993J7D01*
G01*
X173499600Y-34491000D02*
G75*
G03*
X174499600Y-35491000I999999J-1D01*
G01*
X155499600Y-21491000D02*
G75*
G03*
X154499600Y-22491000I-1J-999999D01*
G01*
X168499600Y-22491000D02*
X168499600Y-34491000D01*
X167499600Y-35491000D02*
X155499600Y-35491000D01*
X154499600Y-34491000D02*
X154499600Y-22491000D01*
X155499600Y-21491000D02*
X167499600Y-21491000D01*
X167499600Y-35491000D02*
G75*
G03*
X168499600Y-34491000I-7J1000007D01*
G01*
X168499586Y-22491000D02*
G75*
G03*
X167499600Y-21491000I-999993J7D01*
G01*
X154499600Y-34491000D02*
G75*
G03*
X155499600Y-35491000I999999J-1D01*
G01*
X136499600Y-21491000D02*
G75*
G03*
X135499600Y-22491000I-1J-999999D01*
G01*
X149499600Y-22491000D02*
X149499600Y-34491000D01*
X148499600Y-35491000D02*
X136499600Y-35491000D01*
X135499600Y-34491000D02*
X135499600Y-22491000D01*
X136499600Y-21491000D02*
X148499600Y-21491000D01*
X148499600Y-35491000D02*
G75*
G03*
X149499600Y-34491000I-7J1000007D01*
G01*
X149499586Y-22491000D02*
G75*
G03*
X148499600Y-21491000I-999993J7D01*
G01*
X135499600Y-34491000D02*
G75*
G03*
X136499600Y-35491000I999999J-1D01*
G01*
X117499600Y-21491000D02*
G75*
G03*
X116499600Y-22491000I-1J-999999D01*
G01*
X130499600Y-22491000D02*
X130499600Y-34491000D01*
X129499600Y-35491000D02*
X117499600Y-35491000D01*
X116499600Y-34491000D02*
X116499600Y-22491000D01*
X117499600Y-21491000D02*
X129499600Y-21491000D01*
X129499600Y-35491000D02*
G75*
G03*
X130499600Y-34491000I-7J1000007D01*
G01*
X130499586Y-22491000D02*
G75*
G03*
X129499600Y-21491000I-999993J7D01*
G01*
X116499600Y-34491000D02*
G75*
G03*
X117499600Y-35491000I999999J-1D01*
G01*
X98499600Y-21491000D02*
G75*
G03*
X97499600Y-22491000I-1J-999999D01*
G01*
X111499600Y-22491000D02*
X111499600Y-34491000D01*
X110499600Y-35491000D02*
X98499600Y-35491000D01*
X97499600Y-34491000D02*
X97499600Y-22491000D01*
X98499600Y-21491000D02*
X110499600Y-21491000D01*
X110499600Y-35491000D02*
G75*
G03*
X111499600Y-34491000I-7J1000007D01*
G01*
X111499586Y-22491000D02*
G75*
G03*
X110499600Y-21491000I-999993J7D01*
G01*
X97499600Y-34491000D02*
G75*
G03*
X98499600Y-35491000I999999J-1D01*
G01*
X79499600Y-21491000D02*
G75*
G03*
X78499600Y-22491000I-1J-999999D01*
G01*
X91499600Y-35491000D02*
G75*
G03*
X92499600Y-34491000I-7J1000007D01*
G01*
X92499600Y-22491000D02*
X92499600Y-34491000D01*
X92499586Y-22491000D02*
G75*
G03*
X91499600Y-21491000I-999993J7D01*
G01*
X91499600Y-35491000D02*
X79499600Y-35491000D01*
X78499600Y-34491000D02*
G75*
G03*
X79499600Y-35491000I999999J-1D01*
G01*
X78499600Y-34491000D02*
X78499600Y-22491000D01*
X79499600Y-21491000D02*
X91499600Y-21491000D01*
X60499600Y-21491000D02*
G75*
G03*
X59499600Y-22491000I-1J-999999D01*
G01*
X73499600Y-22491000D02*
X73499600Y-34491000D01*
X72499600Y-35491000D02*
X60499600Y-35491000D01*
X59499600Y-34491000D02*
X59499600Y-22491000D01*
X60499600Y-21491000D02*
X72499600Y-21491000D01*
X72499600Y-35491000D02*
G75*
G03*
X73499600Y-34491000I-7J1000007D01*
G01*
X73499586Y-22491000D02*
G75*
G03*
X72499600Y-21491000I-999993J7D01*
G01*
X59499600Y-34491000D02*
G75*
G03*
X60499600Y-35491000I999999J-1D01*
G01*
X41499600Y-21491000D02*
G75*
G03*
X40499600Y-22491000I-1J-999999D01*
G01*
X54499600Y-22491000D02*
X54499600Y-34491000D01*
X53499600Y-35491000D02*
X41499600Y-35491000D01*
X40499600Y-34491000D02*
X40499600Y-22491000D01*
X41499600Y-21491000D02*
X53499600Y-21491000D01*
X53499600Y-35491000D02*
G75*
G03*
X54499600Y-34491000I-7J1000007D01*
G01*
X54499586Y-22491000D02*
G75*
G03*
X53499600Y-21491000I-999993J7D01*
G01*
X40499600Y-34491000D02*
G75*
G03*
X41499600Y-35491000I999999J-1D01*
G01*
X22499600Y-21491000D02*
G75*
G03*
X21499600Y-22491000I-1J-999999D01*
G01*
X35499600Y-22491000D02*
X35499600Y-34491000D01*
X34499600Y-35491000D02*
X22499600Y-35491000D01*
X21499600Y-34491000D02*
X21499600Y-22491000D01*
X22499600Y-21491000D02*
X34499600Y-21491000D01*
X34499600Y-35491000D02*
G75*
G03*
X35499600Y-34491000I-7J1000007D01*
G01*
X35499586Y-22491000D02*
G75*
G03*
X34499600Y-21491000I-999993J7D01*
G01*
X21499600Y-34491000D02*
G75*
G03*
X22499600Y-35491000I999999J-1D01*
G01*
X3499600Y-21491000D02*
G75*
G03*
X2499600Y-22491000I-1J-999999D01*
G01*
X16499600Y-22491000D02*
X16499600Y-34491000D01*
X15499600Y-35491000D02*
X3499600Y-35491000D01*
X2499600Y-34491000D02*
X2499600Y-22491000D01*
X3499600Y-21491000D02*
X15499600Y-21491000D01*
X15499600Y-35491000D02*
G75*
G03*
X16499600Y-34491000I-7J1000007D01*
G01*
X16499586Y-22491000D02*
G75*
G03*
X15499600Y-21491000I-999993J7D01*
G01*
X2499600Y-34491000D02*
G75*
G03*
X3499600Y-35491000I999999J-1D01*
G01*
X212499600Y-2491000D02*
G75*
G03*
X211499600Y-3491000I-1J-999999D01*
G01*
X225499600Y-3491000D02*
X225499600Y-15491000D01*
X224499600Y-16491000D02*
X212499600Y-16491000D01*
X211499600Y-15491000D02*
X211499600Y-3491000D01*
X212499600Y-2491000D02*
X224499600Y-2491000D01*
X224499600Y-16491000D02*
G75*
G03*
X225499600Y-15491000I-7J1000007D01*
G01*
X225499586Y-3491000D02*
G75*
G03*
X224499600Y-2491000I-999993J7D01*
G01*
X211499600Y-15491000D02*
G75*
G03*
X212499600Y-16491000I999999J-1D01*
G01*
X193499600Y-2491000D02*
G75*
G03*
X192499600Y-3491000I-1J-999999D01*
G01*
X206499600Y-3491000D02*
X206499600Y-15491000D01*
X205499600Y-16491000D02*
X193499600Y-16491000D01*
X192499600Y-15491000D02*
X192499600Y-3491000D01*
X193499600Y-2491000D02*
X205499600Y-2491000D01*
X205499600Y-16491000D02*
G75*
G03*
X206499600Y-15491000I-7J1000007D01*
G01*
X206499586Y-3491000D02*
G75*
G03*
X205499600Y-2491000I-999993J7D01*
G01*
X192499600Y-15491000D02*
G75*
G03*
X193499600Y-16491000I999999J-1D01*
G01*
X174499600Y-2491000D02*
G75*
G03*
X173499600Y-3491000I-1J-999999D01*
G01*
X187499600Y-3491000D02*
X187499600Y-15491000D01*
X186499600Y-16491000D02*
X174499600Y-16491000D01*
X173499600Y-15491000D02*
X173499600Y-3491000D01*
X174499600Y-2491000D02*
X186499600Y-2491000D01*
X186499600Y-16491000D02*
G75*
G03*
X187499600Y-15491000I-7J1000007D01*
G01*
X187499586Y-3491000D02*
G75*
G03*
X186499600Y-2491000I-999993J7D01*
G01*
X173499600Y-15491000D02*
G75*
G03*
X174499600Y-16491000I999999J-1D01*
G01*
X155499600Y-2491000D02*
G75*
G03*
X154499600Y-3491000I-1J-999999D01*
G01*
X168499600Y-3491000D02*
X168499600Y-15491000D01*
X167499600Y-16491000D02*
X155499600Y-16491000D01*
X154499600Y-15491000D02*
X154499600Y-3491000D01*
X155499600Y-2491000D02*
X167499600Y-2491000D01*
X167499600Y-16491000D02*
G75*
G03*
X168499600Y-15491000I-7J1000007D01*
G01*
X168499586Y-3491000D02*
G75*
G03*
X167499600Y-2491000I-999993J7D01*
G01*
X154499600Y-15491000D02*
G75*
G03*
X155499600Y-16491000I999999J-1D01*
G01*
X136499600Y-2491000D02*
G75*
G03*
X135499600Y-3491000I-1J-999999D01*
G01*
X149499600Y-3491000D02*
X149499600Y-15491000D01*
X148499600Y-16491000D02*
X136499600Y-16491000D01*
X135499600Y-15491000D02*
X135499600Y-3491000D01*
X135499600Y-15491000D02*
G75*
G03*
X136499600Y-16491000I999999J-1D01*
G01*
X136499600Y-2491000D02*
X148499600Y-2491000D01*
X148499600Y-16491000D02*
G75*
G03*
X149499600Y-15491000I-7J1000007D01*
G01*
X149499586Y-3491000D02*
G75*
G03*
X148499600Y-2491000I-999993J7D01*
G01*
X117499600Y-2491000D02*
G75*
G03*
X116499600Y-3491000I-1J-999999D01*
G01*
X130499600Y-3491000D02*
X130499600Y-15491000D01*
X129499600Y-16491000D02*
X117499600Y-16491000D01*
X116499600Y-15491000D02*
X116499600Y-3491000D01*
X117499600Y-2491000D02*
X129499600Y-2491000D01*
X129499600Y-16491000D02*
G75*
G03*
X130499600Y-15491000I-7J1000007D01*
G01*
X130499586Y-3491000D02*
G75*
G03*
X129499600Y-2491000I-999993J7D01*
G01*
X116499600Y-15491000D02*
G75*
G03*
X117499600Y-16491000I999999J-1D01*
G01*
X98499600Y-2491000D02*
G75*
G03*
X97499600Y-3491000I-1J-999999D01*
G01*
X111499600Y-3491000D02*
X111499600Y-15491000D01*
X110499600Y-16491000D02*
X98499600Y-16491000D01*
X97499600Y-15491000D02*
X97499600Y-3491000D01*
X98499600Y-2491000D02*
X110499600Y-2491000D01*
X110499600Y-16491000D02*
G75*
G03*
X111499600Y-15491000I-7J1000007D01*
G01*
X111499586Y-3491000D02*
G75*
G03*
X110499600Y-2491000I-999993J7D01*
G01*
X97499600Y-15491000D02*
G75*
G03*
X98499600Y-16491000I999999J-1D01*
G01*
X79499600Y-2491000D02*
G75*
G03*
X78499600Y-3491000I-1J-999999D01*
G01*
X92499600Y-3491000D02*
X92499600Y-15491000D01*
X91499600Y-16491000D02*
X79499600Y-16491000D01*
X78499600Y-15491000D02*
X78499600Y-3491000D01*
X79499600Y-2491000D02*
X91499600Y-2491000D01*
X91499600Y-16491000D02*
G75*
G03*
X92499600Y-15491000I-7J1000007D01*
G01*
X92499586Y-3491000D02*
G75*
G03*
X91499600Y-2491000I-999993J7D01*
G01*
X78499600Y-15491000D02*
G75*
G03*
X79499600Y-16491000I999999J-1D01*
G01*
X60499600Y-2491000D02*
G75*
G03*
X59499600Y-3491000I-1J-999999D01*
G01*
X73499600Y-3491000D02*
X73499600Y-15491000D01*
X72499600Y-16491000D02*
X60499600Y-16491000D01*
X59499600Y-15491000D02*
X59499600Y-3491000D01*
X60499600Y-2491000D02*
X72499600Y-2491000D01*
X72499600Y-16491000D02*
G75*
G03*
X73499600Y-15491000I-7J1000007D01*
G01*
X73499586Y-3491000D02*
G75*
G03*
X72499600Y-2491000I-999993J7D01*
G01*
X59499600Y-15491000D02*
G75*
G03*
X60499600Y-16491000I999999J-1D01*
G01*
X41499600Y-2491000D02*
G75*
G03*
X40499600Y-3491000I-1J-999999D01*
G01*
X54499600Y-3491000D02*
X54499600Y-15491000D01*
X53499600Y-16491000D02*
X41499600Y-16491000D01*
X40499600Y-15491000D02*
X40499600Y-3491000D01*
X40499600Y-15491000D02*
G75*
G03*
X41499600Y-16491000I999999J-1D01*
G01*
X41499600Y-2491000D02*
X53499600Y-2491000D01*
X53499600Y-16491000D02*
G75*
G03*
X54499600Y-15491000I-7J1000007D01*
G01*
X54499586Y-3491000D02*
G75*
G03*
X53499600Y-2491000I-999993J7D01*
G01*
X22499600Y-2491000D02*
G75*
G03*
X21499600Y-3491000I-1J-999999D01*
G01*
X35499600Y-3491000D02*
X35499600Y-15491000D01*
X34499600Y-16491000D02*
X22499600Y-16491000D01*
X21499600Y-15491000D02*
X21499600Y-3491000D01*
X22499600Y-2491000D02*
X34499600Y-2491000D01*
X35499586Y-3491000D02*
G75*
G03*
X34499600Y-2491000I-999993J7D01*
G01*
X34499600Y-16491000D02*
G75*
G03*
X35499600Y-15491000I-7J1000007D01*
G01*
X21499600Y-15491000D02*
G75*
G03*
X22499600Y-16491000I999999J-1D01*
G01*
X2499600Y-15491000D02*
G75*
G03*
X3499600Y-16491000I999999J-1D01*
G01*
X3499600Y-2491000D02*
G75*
G03*
X2499600Y-3491000I-1J-999999D01*
G01*
X16499600Y-3491000D02*
X16499600Y-15491000D01*
X3499600Y-2491000D02*
X15499600Y-2491000D01*
X16499586Y-3491000D02*
G75*
G03*
X15499600Y-2491000I-999993J7D01*
G01*
X15499600Y-16491000D02*
G75*
G03*
X16499600Y-15491000I-7J1000007D01*
G01*
X15499600Y-16491000D02*
X3499600Y-16491000D01*
X2499600Y-15491000D02*
X2499600Y-3491000D01*
X129462661Y-58499960D02*
X129462661Y-58720514D01*
X121462660Y-59499960D02*
G75*
G03*
X122462660Y-58499960I1J999999D01*
G01*
X130549660Y-60499960D02*
G75*
G03*
X130006160Y-59610237I-1000003J-2D01*
G01*
X123462660Y-57499960D02*
G75*
G03*
X122462660Y-58499960I-1J-999999D01*
G01*
X97499660Y-72499960D02*
G75*
G03*
X98499660Y-73499960I1000000J0D01*
G01*
X105586660Y-58499960D02*
G75*
G03*
X106586660Y-59499960I999999J-1D01*
G01*
X97499660Y-72499960D02*
X97499660Y-60499960D01*
X129462661Y-58499960D02*
G75*
G03*
X128462661Y-57499960I-1000003J-3D01*
G01*
X129549660Y-73499960D02*
X98499660Y-73499960D01*
X106586660Y-59499960D02*
X121462660Y-59499960D01*
X105586660Y-58499960D02*
G75*
G03*
X104586660Y-57499960I-999999J1D01*
G01*
X129549660Y-73499960D02*
G75*
G03*
X130549660Y-72499960I1J999999D01*
G01*
X130549660Y-60499960D02*
X130549660Y-72499960D01*
X129462660Y-58720514D02*
G75*
G03*
X130006160Y-59610237I1000100J61D01*
G01*
X99586659Y-57499960D02*
G75*
G03*
X98586659Y-58499960I-1J-999999D01*
G01*
X123462660Y-57499960D02*
X128462660Y-57499960D01*
X99586660Y-57499960D02*
X104586660Y-57499960D01*
X98043160Y-59610237D02*
G75*
G03*
X97499660Y-60499960I456500J-889723D01*
G01*
X98586659Y-58720514D02*
X98586659Y-58499960D01*
X98043160Y-59610238D02*
G75*
G03*
X98586660Y-58720514I-456360J889638D01*
G01*
D11*
X228000000Y-2500000D02*
G75*
G03*
X225500000Y0I-2500000J0D01*
G01*
X2500000Y0D02*
G75*
G03*
X0Y-2500000I0J-2500000D01*
G01*
X0Y-73500000D02*
G75*
G03*
X2500000Y-76000000I2500000J0D01*
G01*
X225500000Y-76000000D02*
G75*
G03*
X228000000Y-73500000I0J2500000D01*
G01*
X0Y-73500000D02*
X0Y-2500000D01*
X225500000Y-76000000D02*
X2500000Y-76000000D01*
X228000000Y-2500000D02*
X228000000Y-73500000D01*
X225500000Y0D02*
X2500000Y0D01*
M02*
