M48
; DRILL file {KiCad 6.0.4-6f826c9f35~116~ubuntu22.04.1} date Thu 31 Mar 2022 17:27:46 CEST
; FORMAT={-:-/ absolute / metric / decimal}
; #@! TF.CreationDate,2022-03-31T17:27:46+02:00
; #@! TF.GenerationSoftware,Kicad,Pcbnew,6.0.4-6f826c9f35~116~ubuntu22.04.1
; #@! TF.FileFunction,Plated,1,2,PTH
FMAT,2
METRIC
; #@! TA.AperFunction,Plated,PTH,ViaDrill
T1C0.400
; #@! TA.AperFunction,Plated,PTH,ComponentDrill
T2C0.400
; #@! TA.AperFunction,Plated,PTH,ViaDrill
T3C0.600
; #@! TA.AperFunction,Plated,PTH,ComponentDrill
T4C0.600
; #@! TA.AperFunction,Plated,PTH,ComponentDrill
T5C0.700
; #@! TA.AperFunction,Plated,PTH,ViaDrill
T6C0.800
; #@! TA.AperFunction,Plated,PTH,ComponentDrill
T7C0.800
; #@! TA.AperFunction,Plated,PTH,ComponentDrill
T8C0.813
; #@! TA.AperFunction,Plated,PTH,ComponentDrill
T9C1.100
; #@! TA.AperFunction,Plated,PTH,ComponentDrill
T10C1.200
; #@! TA.AperFunction,Plated,PTH,ComponentDrill
T11C1.470
; #@! TA.AperFunction,Plated,PTH,ComponentDrill
T12C2.200
%
G90
G05
T1
X54.599Y-58.63
X57.924Y-89.68
X59.024Y-128.03
X59.124Y-109.68
X61.699Y-71.156
X66.474Y-58.831
X73.374Y-75.406
X77.024Y-67.555
X77.074Y-127.956
X77.449Y-89.68
X77.449Y-109.255
X87.524Y-59.38
X88.249Y-73.23
X93.549Y-94.98
X94.974Y-109.055
X98.624Y-127.905
X102.324Y-73.48
X104.999Y-88.255
X105.749Y-95.155
X106.149Y-59.855
X113.149Y-76.13
X114.424Y-95.73
X114.849Y-127.855
X116.424Y-60.456
X133.374Y-127.081
X133.399Y-109.405
X133.499Y-96.456
X143.224Y-127.18
X149.024Y-139.005
X152.124Y-111.93
X152.299Y-74.706
X152.524Y-97.38
X154.099Y-129.405
X167.374Y-74.13
X168.299Y-79.581
X170.849Y-97.155
X171.774Y-129.481
X184.524Y-80.456
X188.328Y-95.377
X191.099Y-129.481
X193.549Y-68.331
X203.324Y-86.23
X204.449Y-66.581
X210.999Y-127.03
X211.249Y-65.855
X215.799Y-74.355
X216.049Y-57.855
X220.274Y-76.331
X221.199Y-86.53
X222.499Y-95.38
X223.624Y-65.531
X226.449Y-72.73
X228.074Y-128.005
X228.449Y-109.805
X230.599Y-55.03
X241.499Y-78.38
X244.174Y-100.23
X245.474Y-89.43
X249.174Y-128.28
T2
X227.614Y-60.045
X227.619Y-61.37
X228.464Y-60.045
X228.469Y-61.37
X229.314Y-60.045
X229.319Y-61.37
X230.164Y-60.045
X230.169Y-61.37
X231.014Y-60.045
X231.019Y-61.37
X231.864Y-60.045
X231.869Y-61.37
X232.714Y-60.045
X232.719Y-61.37
X233.569Y-60.045
X233.569Y-61.37
T3
X34.474Y-62.73
X34.474Y-74.73
X34.474Y-93.73
X34.474Y-112.73
X34.474Y-131.731
X34.474Y-148.731
X46.444Y-60.604
X51.474Y-148.731
X70.474Y-148.731
X89.474Y-148.731
X108.474Y-148.731
X122.898Y-89.688
X127.474Y-148.731
X131.28Y-78.511
X141.44Y-91.846
X142.735Y-92.68
X146.474Y-148.731
X158.966Y-61.62
X160.998Y-94.26
X160.998Y-96.164
X165.474Y-148.731
X167.349Y-76.555
X169.634Y-63.906
X175.984Y-94.132
X180.048Y-91.719
X184.474Y-148.731
X187.287Y-87.02
X188.303Y-54.381
X188.303Y-57.81
X190.589Y-54.381
X194.399Y-54.381
X198.209Y-54.381
X202.146Y-54.381
X203.474Y-148.731
X205.829Y-54.381
X219.799Y-73.304
X222.339Y-73.304
X222.474Y-148.731
X241.474Y-148.731
X258.474Y-62.73
X258.474Y-74.73
X258.474Y-93.73
X258.474Y-112.73
X258.474Y-131.731
X258.474Y-148.731
T4
X174.124Y-65.213
X174.124Y-66.713
T5
X40.094Y-61.62
X40.094Y-66.7
X42.634Y-62.89
X42.634Y-67.971
X45.174Y-64.16
X45.174Y-69.24
X47.714Y-65.43
X47.714Y-70.51
X50.254Y-61.62
X50.254Y-66.7
X52.794Y-62.89
X52.794Y-67.971
X55.334Y-64.16
X55.334Y-69.24
X57.874Y-65.43
X57.874Y-70.51
X60.414Y-61.62
X60.414Y-66.7
X62.954Y-62.89
X62.954Y-67.971
X65.494Y-64.16
X65.494Y-69.24
X68.034Y-65.43
X68.034Y-70.51
X70.574Y-61.62
X70.574Y-66.7
X73.114Y-62.89
X73.114Y-67.971
X75.654Y-64.16
X75.654Y-69.24
X78.194Y-65.43
X78.194Y-70.51
X80.734Y-61.62
X80.734Y-66.7
X83.274Y-62.89
X83.274Y-67.971
X85.814Y-64.16
X85.814Y-69.24
X88.354Y-65.43
X88.354Y-70.51
X90.894Y-61.62
X90.894Y-66.7
X93.434Y-62.89
X93.434Y-67.971
X95.974Y-64.16
X95.974Y-69.24
X98.514Y-65.43
X98.514Y-70.51
X101.054Y-61.62
X101.054Y-66.7
X103.594Y-62.89
X103.594Y-67.971
X106.134Y-64.16
X106.134Y-69.24
X108.674Y-65.43
X108.674Y-70.51
X111.214Y-61.62
X111.214Y-66.7
X113.754Y-62.89
X113.754Y-67.971
X116.294Y-64.16
X116.294Y-69.24
X118.834Y-65.43
X118.834Y-70.51
X121.374Y-61.62
X121.374Y-66.7
X123.914Y-62.89
X123.914Y-67.971
X126.454Y-64.16
X126.454Y-69.24
X128.994Y-65.43
X128.994Y-70.51
X131.534Y-61.62
X131.534Y-66.7
X134.074Y-62.89
X134.074Y-67.971
X136.614Y-64.16
X136.614Y-69.24
X139.154Y-65.43
X139.154Y-70.51
X141.694Y-61.62
X141.694Y-66.7
X144.234Y-62.89
X144.234Y-67.971
X146.774Y-64.16
X146.774Y-69.24
X149.314Y-65.43
X149.314Y-70.51
X151.854Y-61.62
X151.854Y-66.7
X154.394Y-62.89
X154.394Y-67.971
X156.934Y-64.16
X156.934Y-69.24
X159.474Y-65.43
X159.474Y-70.51
X178.016Y-64.23
X183.096Y-64.23
X213.449Y-55.27
X213.449Y-57.81
X213.449Y-60.35
X218.529Y-55.27
X218.529Y-57.81
X218.529Y-60.35
X221.069Y-55.27
X221.069Y-60.35
X223.609Y-55.27
X223.609Y-60.35
X233.134Y-65.41
X233.134Y-70.51
X237.579Y-55.27
X237.579Y-60.35
X240.119Y-55.27
X240.119Y-60.35
X242.654Y-55.275
X242.654Y-60.355
X245.194Y-55.275
X245.194Y-60.355
T6
X178.016Y-75.082
X208.369Y-67.59
X228.689Y-66.93
T7
X178.016Y-69.24
X178.016Y-71.781
X180.556Y-69.24
X180.556Y-71.781
X183.096Y-69.24
X183.096Y-71.781
X190.589Y-57.81
X190.589Y-60.31
X190.589Y-62.89
X190.589Y-70.51
X193.129Y-62.89
X193.129Y-70.51
X195.669Y-62.89
X195.669Y-70.51
X195.769Y-58.445
X198.209Y-62.89
X198.209Y-70.51
X200.649Y-58.445
X200.749Y-62.89
X200.749Y-70.51
X203.289Y-62.89
X203.289Y-70.51
X203.289Y-73.05
X205.829Y-57.81
X205.829Y-60.31
X205.829Y-62.89
X205.829Y-70.51
X208.289Y-73.05
X208.369Y-55.35
X208.369Y-60.35
X208.369Y-62.89
X208.369Y-70.51
X210.909Y-62.89
X210.909Y-70.51
X213.449Y-62.89
X213.449Y-70.51
X215.989Y-62.89
X215.989Y-70.51
X218.529Y-62.89
X218.529Y-70.51
X221.069Y-62.89
X221.069Y-70.51
X223.609Y-62.89
X223.609Y-70.51
T8
X250.473Y-59.917
X250.473Y-62.457
X250.473Y-64.997
X250.473Y-67.537
T9
X164.404Y-56.54
X164.404Y-61.04
X170.904Y-56.54
X170.904Y-61.04
X177.104Y-56.54
X177.104Y-61.04
X183.604Y-56.54
X183.604Y-61.04
T10
X41.974Y-78.331
X41.974Y-97.331
X41.974Y-116.331
X41.974Y-135.331
X46.974Y-80.43
X46.974Y-99.43
X46.974Y-118.43
X46.974Y-137.43
X60.974Y-78.331
X60.974Y-97.331
X60.974Y-116.331
X60.974Y-135.331
X65.974Y-80.43
X65.974Y-99.43
X65.974Y-118.43
X65.974Y-137.43
X79.974Y-78.331
X79.974Y-97.331
X79.974Y-116.331
X79.974Y-135.331
X84.974Y-80.43
X84.974Y-99.43
X84.974Y-118.43
X84.974Y-137.43
X98.974Y-78.331
X98.974Y-97.331
X98.974Y-116.331
X98.974Y-135.331
X103.974Y-80.43
X103.974Y-99.43
X103.974Y-118.43
X103.974Y-137.43
X117.974Y-78.331
X117.974Y-97.331
X117.974Y-116.331
X117.974Y-135.331
X122.974Y-80.43
X122.974Y-99.43
X122.974Y-118.43
X122.974Y-137.43
X136.974Y-78.331
X136.974Y-97.331
X136.974Y-116.331
X136.974Y-135.331
X141.974Y-80.43
X141.974Y-99.43
X141.974Y-118.43
X141.974Y-137.43
X146.474Y-135.331
X150.974Y-145.03
X151.474Y-137.43
X155.974Y-78.331
X155.974Y-97.331
X155.974Y-116.331
X155.974Y-147.13
X160.974Y-80.43
X160.974Y-99.43
X160.974Y-118.43
X174.974Y-78.331
X174.974Y-97.331
X174.974Y-116.331
X174.974Y-135.331
X179.974Y-80.43
X179.974Y-99.43
X179.974Y-118.43
X179.974Y-137.43
X193.974Y-78.331
X193.974Y-97.331
X193.974Y-116.331
X193.974Y-135.331
X198.974Y-80.43
X198.974Y-99.43
X198.974Y-118.43
X198.974Y-137.43
X212.974Y-78.331
X212.974Y-97.331
X212.974Y-116.331
X212.974Y-135.331
X217.974Y-80.43
X217.974Y-99.43
X217.974Y-118.43
X217.974Y-137.43
X231.974Y-78.331
X231.974Y-97.331
X231.974Y-116.331
X231.974Y-135.331
X236.974Y-80.43
X236.974Y-99.43
X236.974Y-118.43
X236.974Y-137.43
X250.974Y-78.331
X250.974Y-97.331
X250.974Y-116.331
X250.974Y-135.331
X255.974Y-80.43
X255.974Y-99.43
X255.974Y-118.43
X255.974Y-137.43
T11
X38.164Y-81.691
X38.164Y-100.691
X38.164Y-119.691
X38.164Y-138.69
X44.514Y-79.15
X44.514Y-98.15
X44.514Y-117.15
X44.514Y-136.15
X57.164Y-81.691
X57.164Y-100.691
X57.164Y-119.691
X57.164Y-138.69
X63.514Y-79.15
X63.514Y-98.15
X63.514Y-117.15
X63.514Y-136.15
X76.164Y-81.691
X76.164Y-100.691
X76.164Y-119.691
X76.164Y-138.69
X82.514Y-79.15
X82.514Y-98.15
X82.514Y-117.15
X82.514Y-136.15
X95.164Y-81.691
X95.164Y-100.691
X95.164Y-119.691
X95.164Y-138.69
X101.514Y-79.15
X101.514Y-98.15
X101.514Y-117.15
X101.514Y-136.15
X114.164Y-81.691
X114.164Y-100.691
X114.164Y-119.691
X114.164Y-138.69
X120.514Y-79.15
X120.514Y-98.15
X120.514Y-117.15
X120.514Y-136.15
X133.164Y-81.691
X133.164Y-100.691
X133.164Y-119.691
X133.164Y-138.69
X139.514Y-79.15
X139.514Y-98.15
X139.514Y-117.15
X139.514Y-136.15
X142.664Y-138.69
X149.014Y-136.15
X152.164Y-81.691
X152.164Y-100.691
X152.164Y-119.691
X153.434Y-146.31
X158.514Y-79.15
X158.514Y-98.15
X158.514Y-117.15
X159.784Y-143.77
X171.164Y-81.691
X171.164Y-100.691
X171.164Y-119.691
X171.164Y-138.69
X177.514Y-79.15
X177.514Y-98.15
X177.514Y-117.15
X177.514Y-136.15
X190.164Y-81.691
X190.164Y-100.691
X190.164Y-119.691
X190.164Y-138.69
X196.514Y-79.15
X196.514Y-98.15
X196.514Y-117.15
X196.514Y-136.15
X209.164Y-81.691
X209.164Y-100.691
X209.164Y-119.691
X209.164Y-138.69
X215.514Y-79.15
X215.514Y-98.15
X215.514Y-117.15
X215.514Y-136.15
X228.164Y-81.691
X228.164Y-100.691
X228.164Y-119.691
X228.164Y-138.69
X234.514Y-79.15
X234.514Y-98.15
X234.514Y-117.15
X234.514Y-136.15
X247.164Y-81.691
X247.164Y-100.691
X247.164Y-119.691
X247.164Y-138.69
X253.514Y-79.15
X253.514Y-98.15
X253.514Y-117.15
X253.514Y-136.15
T12
X36.474Y-56.73
X36.474Y-70.73
X51.474Y-112.73
X89.474Y-93.73
X89.474Y-131.731
X203.474Y-93.73
X203.474Y-131.731
X241.474Y-112.73
X256.474Y-56.73
X256.474Y-70.73
T4
X226.269Y-57.41G85X226.269Y-56.61
G05
X226.269Y-61.14G85X226.269Y-59.64
G05
X234.919Y-57.41G85X234.919Y-56.61
G05
X234.919Y-61.14G85X234.919Y-59.64
G05
T0
M30
