%TF.GenerationSoftware,KiCad,Pcbnew,6.0.4-6f826c9f35~116~ubuntu22.04.1*%
%TF.CreationDate,2022-03-31T17:27:37+02:00*%
%TF.ProjectId,plaid,706c6169-642e-46b6-9963-61645f706362,rev?*%
%TF.SameCoordinates,Original*%
%TF.FileFunction,Legend,Bot*%
%TF.FilePolarity,Positive*%
%FSLAX46Y46*%
G04 Gerber Fmt 4.6, Leading zero omitted, Abs format (unit mm)*
G04 Created by KiCad (PCBNEW 6.0.4-6f826c9f35~116~ubuntu22.04.1) date 2022-03-31 17:27:37*
%MOMM*%
%LPD*%
G01*
G04 APERTURE LIST*
%TA.AperFunction,Profile*%
%ADD10C,0.150000*%
%TD*%
%ADD11C,0.250000*%
%ADD12C,0.010000*%
G04 APERTURE END LIST*
D10*
X257974000Y-52730500D02*
X34974000Y-52730500D01*
X260474000Y-55230500D02*
X260474000Y-148230500D01*
X257974000Y-150730500D02*
X34974000Y-150730500D01*
X32474000Y-148230500D02*
X32474000Y-55230500D01*
X34974000Y-52730500D02*
G75*
G03*
X32474000Y-55230500I0J-2500000D01*
G01*
X260474000Y-55230500D02*
G75*
G03*
X257974000Y-52730500I-2500000J0D01*
G01*
X257974000Y-150730500D02*
G75*
G03*
X260474000Y-148230500I0J2500000D01*
G01*
X32474000Y-148230500D02*
G75*
G03*
X34974000Y-150730500I2500000J0D01*
G01*
D11*
X257404757Y-127803671D02*
X257404757Y-126303671D01*
X256833328Y-126303671D01*
X256690471Y-126375100D01*
X256619042Y-126446528D01*
X256547614Y-126589385D01*
X256547614Y-126803671D01*
X256619042Y-126946528D01*
X256690471Y-127017957D01*
X256833328Y-127089385D01*
X257404757Y-127089385D01*
X255690471Y-127803671D02*
X255833328Y-127732242D01*
X255904757Y-127589385D01*
X255904757Y-126303671D01*
X254476185Y-127803671D02*
X254476185Y-127017957D01*
X254547614Y-126875100D01*
X254690471Y-126803671D01*
X254976185Y-126803671D01*
X255119042Y-126875100D01*
X254476185Y-127732242D02*
X254619042Y-127803671D01*
X254976185Y-127803671D01*
X255119042Y-127732242D01*
X255190471Y-127589385D01*
X255190471Y-127446528D01*
X255119042Y-127303671D01*
X254976185Y-127232242D01*
X254619042Y-127232242D01*
X254476185Y-127160814D01*
X253761900Y-127803671D02*
X253761900Y-126803671D01*
X253761900Y-126303671D02*
X253833328Y-126375100D01*
X253761900Y-126446528D01*
X253690471Y-126375100D01*
X253761900Y-126303671D01*
X253761900Y-126446528D01*
X252404757Y-127803671D02*
X252404757Y-126303671D01*
X252404757Y-127732242D02*
X252547614Y-127803671D01*
X252833328Y-127803671D01*
X252976185Y-127732242D01*
X253047614Y-127660814D01*
X253119042Y-127517957D01*
X253119042Y-127089385D01*
X253047614Y-126946528D01*
X252976185Y-126875100D01*
X252833328Y-126803671D01*
X252547614Y-126803671D01*
X252404757Y-126875100D01*
X251690471Y-127232242D02*
X250547614Y-127232242D01*
X248976185Y-127660814D02*
X249047614Y-127732242D01*
X249261900Y-127803671D01*
X249404757Y-127803671D01*
X249619042Y-127732242D01*
X249761900Y-127589385D01*
X249833328Y-127446528D01*
X249904757Y-127160814D01*
X249904757Y-126946528D01*
X249833328Y-126660814D01*
X249761900Y-126517957D01*
X249619042Y-126375100D01*
X249404757Y-126303671D01*
X249261900Y-126303671D01*
X249047614Y-126375100D01*
X248976185Y-126446528D01*
X246119042Y-126232242D02*
X247404757Y-128160814D01*
X244547614Y-126232242D02*
X245833328Y-128160814D01*
X243119042Y-126303671D02*
X242261900Y-126303671D01*
X242690471Y-127803671D02*
X242690471Y-126303671D01*
X241761900Y-127803671D02*
X241761900Y-126303671D01*
X241119042Y-127803671D02*
X241119042Y-127017957D01*
X241190471Y-126875100D01*
X241333328Y-126803671D01*
X241547614Y-126803671D01*
X241690471Y-126875100D01*
X241761900Y-126946528D01*
X240404757Y-127803671D02*
X240404757Y-126803671D01*
X240404757Y-127089385D02*
X240333328Y-126946528D01*
X240261900Y-126875100D01*
X240119042Y-126803671D01*
X239976185Y-126803671D01*
X239261900Y-127803671D02*
X239404757Y-127732242D01*
X239476185Y-127660814D01*
X239547614Y-127517957D01*
X239547614Y-127089385D01*
X239476185Y-126946528D01*
X239404757Y-126875100D01*
X239261900Y-126803671D01*
X239047614Y-126803671D01*
X238904757Y-126875100D01*
X238833328Y-126946528D01*
X238761900Y-127089385D01*
X238761900Y-127517957D01*
X238833328Y-127660814D01*
X238904757Y-127732242D01*
X239047614Y-127803671D01*
X239261900Y-127803671D01*
X237476185Y-126803671D02*
X237476185Y-127803671D01*
X238119042Y-126803671D02*
X238119042Y-127589385D01*
X238047614Y-127732242D01*
X237904757Y-127803671D01*
X237690471Y-127803671D01*
X237547614Y-127732242D01*
X237476185Y-127660814D01*
X236119042Y-126803671D02*
X236119042Y-128017957D01*
X236190471Y-128160814D01*
X236261900Y-128232242D01*
X236404757Y-128303671D01*
X236619042Y-128303671D01*
X236761900Y-128232242D01*
X236119042Y-127732242D02*
X236261900Y-127803671D01*
X236547614Y-127803671D01*
X236690471Y-127732242D01*
X236761900Y-127660814D01*
X236833328Y-127517957D01*
X236833328Y-127089385D01*
X236761900Y-126946528D01*
X236690471Y-126875100D01*
X236547614Y-126803671D01*
X236261900Y-126803671D01*
X236119042Y-126875100D01*
X235404757Y-127803671D02*
X235404757Y-126303671D01*
X234761900Y-127803671D02*
X234761900Y-127017957D01*
X234833328Y-126875100D01*
X234976185Y-126803671D01*
X235190471Y-126803671D01*
X235333328Y-126875100D01*
X235404757Y-126946528D01*
X232904757Y-127803671D02*
X232904757Y-126303671D01*
X232904757Y-127017957D02*
X232047614Y-127017957D01*
X232047614Y-127803671D02*
X232047614Y-126303671D01*
X231119042Y-127803671D02*
X231261900Y-127732242D01*
X231333328Y-127660814D01*
X231404757Y-127517957D01*
X231404757Y-127089385D01*
X231333328Y-126946528D01*
X231261900Y-126875100D01*
X231119042Y-126803671D01*
X230904757Y-126803671D01*
X230761900Y-126875100D01*
X230690471Y-126946528D01*
X230619042Y-127089385D01*
X230619042Y-127517957D01*
X230690471Y-127660814D01*
X230761900Y-127732242D01*
X230904757Y-127803671D01*
X231119042Y-127803671D01*
X229761900Y-127803671D02*
X229904757Y-127732242D01*
X229976185Y-127589385D01*
X229976185Y-126303671D01*
X228619042Y-127732242D02*
X228761900Y-127803671D01*
X229047614Y-127803671D01*
X229190471Y-127732242D01*
X229261900Y-127589385D01*
X229261900Y-127017957D01*
X229190471Y-126875100D01*
X229047614Y-126803671D01*
X228761900Y-126803671D01*
X228619042Y-126875100D01*
X228547614Y-127017957D01*
X228547614Y-127160814D01*
X229261900Y-127303671D01*
X225690471Y-126232242D02*
X226976185Y-128160814D01*
X224119042Y-126232242D02*
X225404757Y-128160814D01*
X221619042Y-127803671D02*
X222119042Y-127089385D01*
X222476185Y-127803671D02*
X222476185Y-126303671D01*
X221904757Y-126303671D01*
X221761900Y-126375100D01*
X221690471Y-126446528D01*
X221619042Y-126589385D01*
X221619042Y-126803671D01*
X221690471Y-126946528D01*
X221761900Y-127017957D01*
X221904757Y-127089385D01*
X222476185Y-127089385D01*
X220404757Y-127732242D02*
X220547614Y-127803671D01*
X220833328Y-127803671D01*
X220976185Y-127732242D01*
X221047614Y-127589385D01*
X221047614Y-127017957D01*
X220976185Y-126875100D01*
X220833328Y-126803671D01*
X220547614Y-126803671D01*
X220404757Y-126875100D01*
X220333328Y-127017957D01*
X220333328Y-127160814D01*
X221047614Y-127303671D01*
X219833328Y-126803671D02*
X219476185Y-127803671D01*
X219119042Y-126803671D01*
X217761900Y-127803671D02*
X218619042Y-127803671D01*
X218190471Y-127803671D02*
X218190471Y-126303671D01*
X218333328Y-126517957D01*
X218476185Y-126660814D01*
X218619042Y-126732242D01*
X217119042Y-127660814D02*
X217047614Y-127732242D01*
X217119042Y-127803671D01*
X217190471Y-127732242D01*
X217119042Y-127660814D01*
X217119042Y-127803671D01*
X216476185Y-126446528D02*
X216404757Y-126375100D01*
X216261900Y-126303671D01*
X215904757Y-126303671D01*
X215761900Y-126375100D01*
X215690471Y-126446528D01*
X215619042Y-126589385D01*
X215619042Y-126732242D01*
X215690471Y-126946528D01*
X216547614Y-127803671D01*
X215619042Y-127803671D01*
X214976185Y-127660814D02*
X214904757Y-127732242D01*
X214976185Y-127803671D01*
X215047614Y-127732242D01*
X214976185Y-127660814D01*
X214976185Y-127803671D01*
X213619042Y-126803671D02*
X213619042Y-127803671D01*
X213976185Y-126232242D02*
X214333328Y-127303671D01*
X213404757Y-127303671D01*
X212904757Y-126446528D02*
X212833328Y-126375100D01*
X212690471Y-126303671D01*
X212333328Y-126303671D01*
X212190471Y-126375100D01*
X212119042Y-126446528D01*
X212047614Y-126589385D01*
X212047614Y-126732242D01*
X212119042Y-126946528D01*
X212976185Y-127803671D01*
X212047614Y-127803671D01*
X211404757Y-127803671D02*
X211404757Y-126303671D01*
X211047614Y-126303671D01*
X210833328Y-126375100D01*
X210690471Y-126517957D01*
X210619042Y-126660814D01*
X210547614Y-126946528D01*
X210547614Y-127160814D01*
X210619042Y-127446528D01*
X210690471Y-127589385D01*
X210833328Y-127732242D01*
X211047614Y-127803671D01*
X211404757Y-127803671D01*
X256976185Y-130790100D02*
X257047614Y-130718671D01*
X257190471Y-130504385D01*
X257261900Y-130361528D01*
X257333328Y-130147242D01*
X257404757Y-129790100D01*
X257404757Y-129504385D01*
X257333328Y-129147242D01*
X257261900Y-128932957D01*
X257190471Y-128790100D01*
X257047614Y-128575814D01*
X256976185Y-128504385D01*
X255761900Y-130147242D02*
X255904757Y-130218671D01*
X256190471Y-130218671D01*
X256333328Y-130147242D01*
X256404757Y-130075814D01*
X256476185Y-129932957D01*
X256476185Y-129504385D01*
X256404757Y-129361528D01*
X256333328Y-129290100D01*
X256190471Y-129218671D01*
X255904757Y-129218671D01*
X255761900Y-129290100D01*
X255261900Y-130790100D02*
X255190471Y-130718671D01*
X255047614Y-130504385D01*
X254976185Y-130361528D01*
X254904757Y-130147242D01*
X254833328Y-129790100D01*
X254833328Y-129504385D01*
X254904757Y-129147242D01*
X254976185Y-128932957D01*
X255047614Y-128790100D01*
X255190471Y-128575814D01*
X255261900Y-128504385D01*
X253047614Y-128861528D02*
X252976185Y-128790100D01*
X252833328Y-128718671D01*
X252476185Y-128718671D01*
X252333328Y-128790100D01*
X252261900Y-128861528D01*
X252190471Y-129004385D01*
X252190471Y-129147242D01*
X252261900Y-129361528D01*
X253119042Y-130218671D01*
X252190471Y-130218671D01*
X251261900Y-128718671D02*
X251119042Y-128718671D01*
X250976185Y-128790100D01*
X250904757Y-128861528D01*
X250833328Y-129004385D01*
X250761900Y-129290100D01*
X250761900Y-129647242D01*
X250833328Y-129932957D01*
X250904757Y-130075814D01*
X250976185Y-130147242D01*
X251119042Y-130218671D01*
X251261900Y-130218671D01*
X251404757Y-130147242D01*
X251476185Y-130075814D01*
X251547614Y-129932957D01*
X251619042Y-129647242D01*
X251619042Y-129290100D01*
X251547614Y-129004385D01*
X251476185Y-128861528D01*
X251404757Y-128790100D01*
X251261900Y-128718671D01*
X249333328Y-130218671D02*
X250190471Y-130218671D01*
X249761900Y-130218671D02*
X249761900Y-128718671D01*
X249904757Y-128932957D01*
X250047614Y-129075814D01*
X250190471Y-129147242D01*
X248619042Y-130218671D02*
X248333328Y-130218671D01*
X248190471Y-130147242D01*
X248119042Y-130075814D01*
X247976185Y-129861528D01*
X247904757Y-129575814D01*
X247904757Y-129004385D01*
X247976185Y-128861528D01*
X248047614Y-128790100D01*
X248190471Y-128718671D01*
X248476185Y-128718671D01*
X248619042Y-128790100D01*
X248690471Y-128861528D01*
X248761900Y-129004385D01*
X248761900Y-129361528D01*
X248690471Y-129504385D01*
X248619042Y-129575814D01*
X248476185Y-129647242D01*
X248190471Y-129647242D01*
X248047614Y-129575814D01*
X247976185Y-129504385D01*
X247904757Y-129361528D01*
X246333328Y-128718671D02*
X245476185Y-128718671D01*
X245904757Y-130218671D02*
X245904757Y-128718671D01*
X244333328Y-130218671D02*
X244333328Y-129432957D01*
X244404757Y-129290100D01*
X244547614Y-129218671D01*
X244833328Y-129218671D01*
X244976185Y-129290100D01*
X244333328Y-130147242D02*
X244476185Y-130218671D01*
X244833328Y-130218671D01*
X244976185Y-130147242D01*
X245047614Y-130004385D01*
X245047614Y-129861528D01*
X244976185Y-129718671D01*
X244833328Y-129647242D01*
X244476185Y-129647242D01*
X244333328Y-129575814D01*
X243619042Y-130218671D02*
X243619042Y-128718671D01*
X243476185Y-129647242D02*
X243047614Y-130218671D01*
X243047614Y-129218671D02*
X243619042Y-129790100D01*
X241761900Y-129218671D02*
X241761900Y-130218671D01*
X242404757Y-129218671D02*
X242404757Y-130004385D01*
X242333328Y-130147242D01*
X242190471Y-130218671D01*
X241976185Y-130218671D01*
X241833328Y-130147242D01*
X241761900Y-130075814D01*
X241190471Y-129218671D02*
X240833328Y-130218671D01*
X240476185Y-129218671D02*
X240833328Y-130218671D01*
X240976185Y-130575814D01*
X241047614Y-130647242D01*
X241190471Y-130718671D01*
X239261900Y-130218671D02*
X239261900Y-129432957D01*
X239333328Y-129290100D01*
X239476185Y-129218671D01*
X239761900Y-129218671D01*
X239904757Y-129290100D01*
X239261900Y-130147242D02*
X239404757Y-130218671D01*
X239761900Y-130218671D01*
X239904757Y-130147242D01*
X239976185Y-130004385D01*
X239976185Y-129861528D01*
X239904757Y-129718671D01*
X239761900Y-129647242D01*
X239404757Y-129647242D01*
X239261900Y-129575814D01*
X237404757Y-128718671D02*
X237404757Y-129932957D01*
X237333328Y-130075814D01*
X237261900Y-130147242D01*
X237119042Y-130218671D01*
X236833328Y-130218671D01*
X236690471Y-130147242D01*
X236619042Y-130075814D01*
X236547614Y-129932957D01*
X236547614Y-128718671D01*
X235833328Y-130218671D02*
X235833328Y-129218671D01*
X235833328Y-129504385D02*
X235761900Y-129361528D01*
X235690471Y-129290100D01*
X235547614Y-129218671D01*
X235404757Y-129218671D01*
X234261900Y-130218671D02*
X234261900Y-129432957D01*
X234333328Y-129290100D01*
X234476185Y-129218671D01*
X234761900Y-129218671D01*
X234904757Y-129290100D01*
X234261900Y-130147242D02*
X234404757Y-130218671D01*
X234761900Y-130218671D01*
X234904757Y-130147242D01*
X234976185Y-130004385D01*
X234976185Y-129861528D01*
X234904757Y-129718671D01*
X234761900Y-129647242D01*
X234404757Y-129647242D01*
X234261900Y-129575814D01*
X233547614Y-130218671D02*
X233547614Y-128718671D01*
X233404757Y-129647242D02*
X232976185Y-130218671D01*
X232976185Y-129218671D02*
X233547614Y-129790100D01*
X231690471Y-130218671D02*
X231690471Y-129432957D01*
X231761900Y-129290100D01*
X231904757Y-129218671D01*
X232190471Y-129218671D01*
X232333328Y-129290100D01*
X231690471Y-130147242D02*
X231833328Y-130218671D01*
X232190471Y-130218671D01*
X232333328Y-130147242D01*
X232404757Y-130004385D01*
X232404757Y-129861528D01*
X232333328Y-129718671D01*
X232190471Y-129647242D01*
X231833328Y-129647242D01*
X231690471Y-129575814D01*
X231119042Y-129218671D02*
X230833328Y-130218671D01*
X230547614Y-129504385D01*
X230261900Y-130218671D01*
X229976185Y-129218671D01*
X228761900Y-130218671D02*
X228761900Y-129432957D01*
X228833328Y-129290100D01*
X228976185Y-129218671D01*
X229261900Y-129218671D01*
X229404757Y-129290100D01*
X228761900Y-130147242D02*
X228904757Y-130218671D01*
X229261900Y-130218671D01*
X229404757Y-130147242D01*
X229476185Y-130004385D01*
X229476185Y-129861528D01*
X229404757Y-129718671D01*
X229261900Y-129647242D01*
X228904757Y-129647242D01*
X228761900Y-129575814D01*
X227976185Y-130147242D02*
X227976185Y-130218671D01*
X228047614Y-130361528D01*
X228119042Y-130432957D01*
X226190471Y-130218671D02*
X226190471Y-128718671D01*
X225833328Y-128718671D01*
X225619042Y-128790100D01*
X225476185Y-128932957D01*
X225404757Y-129075814D01*
X225333328Y-129361528D01*
X225333328Y-129575814D01*
X225404757Y-129861528D01*
X225476185Y-130004385D01*
X225619042Y-130147242D01*
X225833328Y-130218671D01*
X226190471Y-130218671D01*
X224690471Y-130218671D02*
X224690471Y-129218671D01*
X224690471Y-129361528D02*
X224619042Y-129290100D01*
X224476185Y-129218671D01*
X224261900Y-129218671D01*
X224119042Y-129290100D01*
X224047614Y-129432957D01*
X224047614Y-130218671D01*
X224047614Y-129432957D02*
X223976185Y-129290100D01*
X223833328Y-129218671D01*
X223619042Y-129218671D01*
X223476185Y-129290100D01*
X223404757Y-129432957D01*
X223404757Y-130218671D01*
X222619042Y-130218671D02*
X222333328Y-130218671D01*
X222190471Y-130147242D01*
X222119042Y-130075814D01*
X221976185Y-129861528D01*
X221904757Y-129575814D01*
X221904757Y-129004385D01*
X221976185Y-128861528D01*
X222047614Y-128790100D01*
X222190471Y-128718671D01*
X222476185Y-128718671D01*
X222619042Y-128790100D01*
X222690471Y-128861528D01*
X222761900Y-129004385D01*
X222761900Y-129361528D01*
X222690471Y-129504385D01*
X222619042Y-129575814D01*
X222476185Y-129647242D01*
X222190471Y-129647242D01*
X222047614Y-129575814D01*
X221976185Y-129504385D01*
X221904757Y-129361528D01*
X220404757Y-130218671D02*
X220904757Y-129504385D01*
X221261900Y-130218671D02*
X221261900Y-128718671D01*
X220690471Y-128718671D01*
X220547614Y-128790100D01*
X220476185Y-128861528D01*
X220404757Y-129004385D01*
X220404757Y-129218671D01*
X220476185Y-129361528D01*
X220547614Y-129432957D01*
X220690471Y-129504385D01*
X221261900Y-129504385D01*
X219190471Y-130147242D02*
X219333328Y-130218671D01*
X219619042Y-130218671D01*
X219761900Y-130147242D01*
X219833328Y-130004385D01*
X219833328Y-129432957D01*
X219761900Y-129290100D01*
X219619042Y-129218671D01*
X219333328Y-129218671D01*
X219190471Y-129290100D01*
X219119042Y-129432957D01*
X219119042Y-129575814D01*
X219833328Y-129718671D01*
X217833328Y-130147242D02*
X217976185Y-130218671D01*
X218261900Y-130218671D01*
X218404757Y-130147242D01*
X218476185Y-130075814D01*
X218547614Y-129932957D01*
X218547614Y-129504385D01*
X218476185Y-129361528D01*
X218404757Y-129290100D01*
X218261900Y-129218671D01*
X217976185Y-129218671D01*
X217833328Y-129290100D01*
X216976185Y-130218671D02*
X217119042Y-130147242D01*
X217190471Y-130075814D01*
X217261900Y-129932957D01*
X217261900Y-129504385D01*
X217190471Y-129361528D01*
X217119042Y-129290100D01*
X216976185Y-129218671D01*
X216761900Y-129218671D01*
X216619042Y-129290100D01*
X216547614Y-129361528D01*
X216476185Y-129504385D01*
X216476185Y-129932957D01*
X216547614Y-130075814D01*
X216619042Y-130147242D01*
X216761900Y-130218671D01*
X216976185Y-130218671D01*
X215833328Y-130218671D02*
X215833328Y-129218671D01*
X215833328Y-129504385D02*
X215761900Y-129361528D01*
X215690471Y-129290100D01*
X215547614Y-129218671D01*
X215404757Y-129218671D01*
X214261900Y-130218671D02*
X214261900Y-128718671D01*
X214261900Y-130147242D02*
X214404757Y-130218671D01*
X214690471Y-130218671D01*
X214833328Y-130147242D01*
X214904757Y-130075814D01*
X214976185Y-129932957D01*
X214976185Y-129504385D01*
X214904757Y-129361528D01*
X214833328Y-129290100D01*
X214690471Y-129218671D01*
X214404757Y-129218671D01*
X214261900Y-129290100D01*
X213619042Y-130147242D02*
X213476185Y-130218671D01*
X213190471Y-130218671D01*
X213047614Y-130147242D01*
X212976185Y-130004385D01*
X212976185Y-129932957D01*
X213047614Y-129790100D01*
X213190471Y-129718671D01*
X213404757Y-129718671D01*
X213547614Y-129647242D01*
X213619042Y-129504385D01*
X213619042Y-129432957D01*
X213547614Y-129290100D01*
X213404757Y-129218671D01*
X213190471Y-129218671D01*
X213047614Y-129290100D01*
X212333328Y-130075814D02*
X212261900Y-130147242D01*
X212333328Y-130218671D01*
X212404757Y-130147242D01*
X212333328Y-130075814D01*
X212333328Y-130218671D01*
X210976185Y-130147242D02*
X211119042Y-130218671D01*
X211404757Y-130218671D01*
X211547614Y-130147242D01*
X211619042Y-130075814D01*
X211690471Y-129932957D01*
X211690471Y-129504385D01*
X211619042Y-129361528D01*
X211547614Y-129290100D01*
X211404757Y-129218671D01*
X211119042Y-129218671D01*
X210976185Y-129290100D01*
X210119042Y-130218671D02*
X210261900Y-130147242D01*
X210333328Y-130075814D01*
X210404757Y-129932957D01*
X210404757Y-129504385D01*
X210333328Y-129361528D01*
X210261900Y-129290100D01*
X210119042Y-129218671D01*
X209904757Y-129218671D01*
X209761900Y-129290100D01*
X209690471Y-129361528D01*
X209619042Y-129504385D01*
X209619042Y-129932957D01*
X209690471Y-130075814D01*
X209761900Y-130147242D01*
X209904757Y-130218671D01*
X210119042Y-130218671D01*
X208976185Y-130218671D02*
X208976185Y-129218671D01*
X208976185Y-129361528D02*
X208904757Y-129290100D01*
X208761900Y-129218671D01*
X208547614Y-129218671D01*
X208404757Y-129290100D01*
X208333328Y-129432957D01*
X208333328Y-130218671D01*
X208333328Y-129432957D02*
X208261900Y-129290100D01*
X208119042Y-129218671D01*
X207904757Y-129218671D01*
X207761900Y-129290100D01*
X207690471Y-129432957D01*
X207690471Y-130218671D01*
X257404757Y-132633671D02*
X257404757Y-131133671D01*
X256904757Y-132205100D01*
X256404757Y-131133671D01*
X256404757Y-132633671D01*
X255476185Y-132633671D02*
X255619042Y-132562242D01*
X255690471Y-132490814D01*
X255761900Y-132347957D01*
X255761900Y-131919385D01*
X255690471Y-131776528D01*
X255619042Y-131705100D01*
X255476185Y-131633671D01*
X255261900Y-131633671D01*
X255119042Y-131705100D01*
X255047614Y-131776528D01*
X254976185Y-131919385D01*
X254976185Y-132347957D01*
X255047614Y-132490814D01*
X255119042Y-132562242D01*
X255261900Y-132633671D01*
X255476185Y-132633671D01*
X253690471Y-132633671D02*
X253690471Y-131133671D01*
X253690471Y-132562242D02*
X253833328Y-132633671D01*
X254119042Y-132633671D01*
X254261900Y-132562242D01*
X254333328Y-132490814D01*
X254404757Y-132347957D01*
X254404757Y-131919385D01*
X254333328Y-131776528D01*
X254261900Y-131705100D01*
X254119042Y-131633671D01*
X253833328Y-131633671D01*
X253690471Y-131705100D01*
X252976185Y-132633671D02*
X252976185Y-131633671D01*
X252976185Y-131133671D02*
X253047614Y-131205100D01*
X252976185Y-131276528D01*
X252904757Y-131205100D01*
X252976185Y-131133671D01*
X252976185Y-131276528D01*
X252476185Y-131633671D02*
X251904757Y-131633671D01*
X252261899Y-132633671D02*
X252261899Y-131347957D01*
X252190471Y-131205100D01*
X252047614Y-131133671D01*
X251904757Y-131133671D01*
X251404757Y-132633671D02*
X251404757Y-131633671D01*
X251404757Y-131133671D02*
X251476185Y-131205100D01*
X251404757Y-131276528D01*
X251333328Y-131205100D01*
X251404757Y-131133671D01*
X251404757Y-131276528D01*
X250119042Y-132562242D02*
X250261899Y-132633671D01*
X250547614Y-132633671D01*
X250690471Y-132562242D01*
X250761899Y-132419385D01*
X250761899Y-131847957D01*
X250690471Y-131705100D01*
X250547614Y-131633671D01*
X250261899Y-131633671D01*
X250119042Y-131705100D01*
X250047614Y-131847957D01*
X250047614Y-131990814D01*
X250761899Y-132133671D01*
X248761899Y-132633671D02*
X248761899Y-131133671D01*
X248761899Y-132562242D02*
X248904757Y-132633671D01*
X249190471Y-132633671D01*
X249333328Y-132562242D01*
X249404757Y-132490814D01*
X249476185Y-132347957D01*
X249476185Y-131919385D01*
X249404757Y-131776528D01*
X249333328Y-131705100D01*
X249190471Y-131633671D01*
X248904757Y-131633671D01*
X248761899Y-131705100D01*
X246904757Y-132633671D02*
X246904757Y-131133671D01*
X246904757Y-131705100D02*
X246761899Y-131633671D01*
X246476185Y-131633671D01*
X246333328Y-131705100D01*
X246261899Y-131776528D01*
X246190471Y-131919385D01*
X246190471Y-132347957D01*
X246261899Y-132490814D01*
X246333328Y-132562242D01*
X246476185Y-132633671D01*
X246761899Y-132633671D01*
X246904757Y-132562242D01*
X245690471Y-131633671D02*
X245333328Y-132633671D01*
X244976185Y-131633671D02*
X245333328Y-132633671D01*
X245476185Y-132990814D01*
X245547614Y-133062242D01*
X245690471Y-133133671D01*
X243261899Y-131633671D02*
X243261899Y-133133671D01*
X243261899Y-131705100D02*
X243119042Y-131633671D01*
X242833328Y-131633671D01*
X242690471Y-131705100D01*
X242619042Y-131776528D01*
X242547614Y-131919385D01*
X242547614Y-132347957D01*
X242619042Y-132490814D01*
X242690471Y-132562242D01*
X242833328Y-132633671D01*
X243119042Y-132633671D01*
X243261899Y-132562242D01*
X241904757Y-132633671D02*
X241904757Y-131633671D01*
X241904757Y-131133671D02*
X241976185Y-131205100D01*
X241904757Y-131276528D01*
X241833328Y-131205100D01*
X241904757Y-131133671D01*
X241904757Y-131276528D01*
X241190471Y-132633671D02*
X241190471Y-131633671D01*
X241190471Y-131133671D02*
X241261899Y-131205100D01*
X241190471Y-131276528D01*
X241119042Y-131205100D01*
X241190471Y-131133671D01*
X241190471Y-131276528D01*
X240690471Y-131633671D02*
X240119042Y-131633671D01*
X240476185Y-131133671D02*
X240476185Y-132419385D01*
X240404757Y-132562242D01*
X240261900Y-132633671D01*
X240119042Y-132633671D01*
X239761900Y-131133671D02*
X238761900Y-131133671D01*
X239404757Y-132633671D01*
X238119042Y-132633671D02*
X237833328Y-132633671D01*
X237690471Y-132562242D01*
X237619042Y-132490814D01*
X237476185Y-132276528D01*
X237404757Y-131990814D01*
X237404757Y-131419385D01*
X237476185Y-131276528D01*
X237547614Y-131205100D01*
X237690471Y-131133671D01*
X237976185Y-131133671D01*
X238119042Y-131205100D01*
X238190471Y-131276528D01*
X238261899Y-131419385D01*
X238261899Y-131776528D01*
X238190471Y-131919385D01*
X238119042Y-131990814D01*
X237976185Y-132062242D01*
X237690471Y-132062242D01*
X237547614Y-131990814D01*
X237476185Y-131919385D01*
X237404757Y-131776528D01*
X235404757Y-132633671D02*
X235547614Y-132562242D01*
X235619042Y-132490814D01*
X235690471Y-132347957D01*
X235690471Y-131919385D01*
X235619042Y-131776528D01*
X235547614Y-131705100D01*
X235404757Y-131633671D01*
X235190471Y-131633671D01*
X235047614Y-131705100D01*
X234976185Y-131776528D01*
X234904757Y-131919385D01*
X234904757Y-132347957D01*
X234976185Y-132490814D01*
X235047614Y-132562242D01*
X235190471Y-132633671D01*
X235404757Y-132633671D01*
X234476185Y-131633671D02*
X233904757Y-131633671D01*
X234261900Y-132633671D02*
X234261900Y-131347957D01*
X234190471Y-131205100D01*
X234047614Y-131133671D01*
X233904757Y-131133671D01*
X231619042Y-131633671D02*
X231619042Y-132633671D01*
X231976185Y-131062242D02*
X232333328Y-132133671D01*
X231404757Y-132133671D01*
X230904757Y-131276528D02*
X230833328Y-131205100D01*
X230690471Y-131133671D01*
X230333328Y-131133671D01*
X230190471Y-131205100D01*
X230119042Y-131276528D01*
X230047614Y-131419385D01*
X230047614Y-131562242D01*
X230119042Y-131776528D01*
X230976185Y-132633671D01*
X230047614Y-132633671D01*
X229404757Y-132633671D02*
X229404757Y-131133671D01*
X229261900Y-132062242D02*
X228833328Y-132633671D01*
X228833328Y-131633671D02*
X229404757Y-132205100D01*
X227619042Y-132562242D02*
X227761900Y-132633671D01*
X228047614Y-132633671D01*
X228190471Y-132562242D01*
X228261900Y-132419385D01*
X228261900Y-131847957D01*
X228190471Y-131705100D01*
X228047614Y-131633671D01*
X227761900Y-131633671D01*
X227619042Y-131705100D01*
X227547614Y-131847957D01*
X227547614Y-131990814D01*
X228261900Y-132133671D01*
X226333328Y-132562242D02*
X226476185Y-132633671D01*
X226761900Y-132633671D01*
X226904757Y-132562242D01*
X226976185Y-132419385D01*
X226976185Y-131847957D01*
X226904757Y-131705100D01*
X226761900Y-131633671D01*
X226476185Y-131633671D01*
X226333328Y-131705100D01*
X226261900Y-131847957D01*
X226261900Y-131990814D01*
X226976185Y-132133671D01*
X225619042Y-132633671D02*
X225619042Y-131133671D01*
X225619042Y-131705100D02*
X225476185Y-131633671D01*
X225190471Y-131633671D01*
X225047614Y-131705100D01*
X224976185Y-131776528D01*
X224904757Y-131919385D01*
X224904757Y-132347957D01*
X224976185Y-132490814D01*
X225047614Y-132562242D01*
X225190471Y-132633671D01*
X225476185Y-132633671D01*
X225619042Y-132562242D01*
X224333328Y-132562242D02*
X224190471Y-132633671D01*
X223904757Y-132633671D01*
X223761900Y-132562242D01*
X223690471Y-132419385D01*
X223690471Y-132347957D01*
X223761900Y-132205100D01*
X223904757Y-132133671D01*
X224119042Y-132133671D01*
X224261900Y-132062242D01*
X224333328Y-131919385D01*
X224333328Y-131847957D01*
X224261900Y-131705100D01*
X224119042Y-131633671D01*
X223904757Y-131633671D01*
X223761900Y-131705100D01*
X223047614Y-132490814D02*
X222976185Y-132562242D01*
X223047614Y-132633671D01*
X223119042Y-132562242D01*
X223047614Y-132490814D01*
X223047614Y-132633671D01*
X221761900Y-132562242D02*
X221904757Y-132633671D01*
X222190471Y-132633671D01*
X222333328Y-132562242D01*
X222404757Y-132419385D01*
X222404757Y-131847957D01*
X222333328Y-131705100D01*
X222190471Y-131633671D01*
X221904757Y-131633671D01*
X221761900Y-131705100D01*
X221690471Y-131847957D01*
X221690471Y-131990814D01*
X222404757Y-132133671D01*
X220404757Y-131633671D02*
X220404757Y-132633671D01*
X221047614Y-131633671D02*
X221047614Y-132419385D01*
X220976185Y-132562242D01*
X220833328Y-132633671D01*
X220619042Y-132633671D01*
X220476185Y-132562242D01*
X220404757Y-132490814D01*
G36*
X92173120Y-54107684D02*
G01*
X92182064Y-54269224D01*
X92190030Y-54569376D01*
X92196729Y-54987942D01*
X92201872Y-55504727D01*
X92205170Y-56099534D01*
X92206333Y-56752167D01*
X92206333Y-59419167D01*
X91444333Y-59419167D01*
X91444333Y-56524336D01*
X90957500Y-56796651D01*
X90823127Y-56874673D01*
X90387204Y-57159542D01*
X89969018Y-57473870D01*
X89636651Y-57767611D01*
X89606193Y-57794826D01*
X89521391Y-57817153D01*
X89412560Y-57740605D01*
X89243794Y-57544820D01*
X89145538Y-57411042D01*
X89049381Y-57235459D01*
X89042743Y-57140453D01*
X89511795Y-56765581D01*
X90509952Y-56129532D01*
X91141903Y-55787273D01*
X91292560Y-56015720D01*
X91329369Y-56070766D01*
X91384581Y-56136863D01*
X91418278Y-56123414D01*
X91435808Y-56007974D01*
X91442524Y-55768095D01*
X91443775Y-55381330D01*
X91440711Y-55137890D01*
X91424094Y-54805016D01*
X91395971Y-54569049D01*
X91359666Y-54466166D01*
X91319858Y-54437974D01*
X91283458Y-54344947D01*
X91409929Y-54258813D01*
X91702501Y-54176849D01*
X91862066Y-54143203D01*
X92070490Y-54101470D01*
X92168167Y-54085166D01*
X92173120Y-54107684D01*
G37*
D12*
X92173120Y-54107684D02*
X92182064Y-54269224D01*
X92190030Y-54569376D01*
X92196729Y-54987942D01*
X92201872Y-55504727D01*
X92205170Y-56099534D01*
X92206333Y-56752167D01*
X92206333Y-59419167D01*
X91444333Y-59419167D01*
X91444333Y-56524336D01*
X90957500Y-56796651D01*
X90823127Y-56874673D01*
X90387204Y-57159542D01*
X89969018Y-57473870D01*
X89636651Y-57767611D01*
X89606193Y-57794826D01*
X89521391Y-57817153D01*
X89412560Y-57740605D01*
X89243794Y-57544820D01*
X89145538Y-57411042D01*
X89049381Y-57235459D01*
X89042743Y-57140453D01*
X89511795Y-56765581D01*
X90509952Y-56129532D01*
X91141903Y-55787273D01*
X91292560Y-56015720D01*
X91329369Y-56070766D01*
X91384581Y-56136863D01*
X91418278Y-56123414D01*
X91435808Y-56007974D01*
X91442524Y-55768095D01*
X91443775Y-55381330D01*
X91440711Y-55137890D01*
X91424094Y-54805016D01*
X91395971Y-54569049D01*
X91359666Y-54466166D01*
X91319858Y-54437974D01*
X91283458Y-54344947D01*
X91409929Y-54258813D01*
X91702501Y-54176849D01*
X91862066Y-54143203D01*
X92070490Y-54101470D01*
X92168167Y-54085166D01*
X92173120Y-54107684D01*
G36*
X104567666Y-54931833D02*
G01*
X101435000Y-54931833D01*
X101435000Y-54254500D01*
X104567666Y-54254500D01*
X104567666Y-54931833D01*
G37*
X104567666Y-54931833D02*
X101435000Y-54931833D01*
X101435000Y-54254500D01*
X104567666Y-54254500D01*
X104567666Y-54931833D01*
G36*
X88982758Y-54375851D02*
G01*
X89054570Y-54446464D01*
X89082649Y-54527317D01*
X89015105Y-54630554D01*
X88836446Y-54801208D01*
X88721034Y-54904646D01*
X88573878Y-55010421D01*
X88464482Y-55022337D01*
X88339762Y-54957052D01*
X88149304Y-54832259D01*
X88336318Y-54644840D01*
X88370233Y-54610978D01*
X88595750Y-54399922D01*
X88749541Y-54300148D01*
X88866809Y-54297007D01*
X88982758Y-54375851D01*
G37*
X88982758Y-54375851D02*
X89054570Y-54446464D01*
X89082649Y-54527317D01*
X89015105Y-54630554D01*
X88836446Y-54801208D01*
X88721034Y-54904646D01*
X88573878Y-55010421D01*
X88464482Y-55022337D01*
X88339762Y-54957052D01*
X88149304Y-54832259D01*
X88336318Y-54644840D01*
X88370233Y-54610978D01*
X88595750Y-54399922D01*
X88749541Y-54300148D01*
X88866809Y-54297007D01*
X88982758Y-54375851D01*
G36*
X89624836Y-54744588D02*
G01*
X89733202Y-54810363D01*
X89917523Y-54939467D01*
X89643762Y-55226164D01*
X89617747Y-55253418D01*
X89443537Y-55429132D01*
X89331850Y-55500968D01*
X89232506Y-55484343D01*
X89095329Y-55394676D01*
X88990532Y-55314941D01*
X88962215Y-55233167D01*
X89061141Y-55119510D01*
X89230061Y-54958538D01*
X89409733Y-54801900D01*
X89529169Y-54736175D01*
X89624836Y-54744588D01*
G37*
X89624836Y-54744588D02*
X89733202Y-54810363D01*
X89917523Y-54939467D01*
X89643762Y-55226164D01*
X89617747Y-55253418D01*
X89443537Y-55429132D01*
X89331850Y-55500968D01*
X89232506Y-55484343D01*
X89095329Y-55394676D01*
X88990532Y-55314941D01*
X88962215Y-55233167D01*
X89061141Y-55119510D01*
X89230061Y-54958538D01*
X89409733Y-54801900D01*
X89529169Y-54736175D01*
X89624836Y-54744588D01*
G36*
X109499500Y-54659650D02*
G01*
X111510333Y-54683799D01*
X111510333Y-55439833D01*
X107942922Y-55439833D01*
X108000644Y-55630333D01*
X108185440Y-56089903D01*
X108519993Y-56666050D01*
X108949011Y-57239945D01*
X109439862Y-57772951D01*
X109959914Y-58226435D01*
X110476537Y-58561760D01*
X111009075Y-58840023D01*
X110645871Y-59128773D01*
X110496681Y-59244110D01*
X110321283Y-59369351D01*
X110232445Y-59418345D01*
X110213875Y-59411768D01*
X110083762Y-59335538D01*
X109864207Y-59191884D01*
X109590293Y-59003471D01*
X109176017Y-58689055D01*
X108568587Y-58107792D01*
X108057612Y-57436248D01*
X107611409Y-56636530D01*
X107453353Y-56310114D01*
X107272407Y-55936441D01*
X107121368Y-55624546D01*
X107022180Y-55419743D01*
X106868914Y-55103319D01*
X107178790Y-54869410D01*
X107488666Y-54635500D01*
X109499500Y-54659650D01*
G37*
X109499500Y-54659650D02*
X111510333Y-54683799D01*
X111510333Y-55439833D01*
X107942922Y-55439833D01*
X108000644Y-55630333D01*
X108185440Y-56089903D01*
X108519993Y-56666050D01*
X108949011Y-57239945D01*
X109439862Y-57772951D01*
X109959914Y-58226435D01*
X110476537Y-58561760D01*
X111009075Y-58840023D01*
X110645871Y-59128773D01*
X110496681Y-59244110D01*
X110321283Y-59369351D01*
X110232445Y-59418345D01*
X110213875Y-59411768D01*
X110083762Y-59335538D01*
X109864207Y-59191884D01*
X109590293Y-59003471D01*
X109176017Y-58689055D01*
X108568587Y-58107792D01*
X108057612Y-57436248D01*
X107611409Y-56636530D01*
X107453353Y-56310114D01*
X107272407Y-55936441D01*
X107121368Y-55624546D01*
X107022180Y-55419743D01*
X106868914Y-55103319D01*
X107178790Y-54869410D01*
X107488666Y-54635500D01*
X109499500Y-54659650D01*
G36*
X43777000Y-58557447D02*
G01*
X43512842Y-58779722D01*
X43438210Y-58841759D01*
X43291159Y-58941041D01*
X43176748Y-58943283D01*
X43026008Y-58859835D01*
X42972212Y-58824822D01*
X42589962Y-58546378D01*
X42174465Y-58202194D01*
X41760132Y-57824817D01*
X41381374Y-57446792D01*
X41072601Y-57100664D01*
X40868223Y-56818979D01*
X40872894Y-56710781D01*
X40944247Y-56529893D01*
X41052194Y-56336334D01*
X41164696Y-56187171D01*
X41249716Y-56139469D01*
X41315671Y-56197607D01*
X41459763Y-56354747D01*
X41644843Y-56572763D01*
X41655546Y-56585676D01*
X41861317Y-56812074D01*
X42115351Y-57062957D01*
X42384486Y-57309051D01*
X42635563Y-57521079D01*
X42835421Y-57669765D01*
X42950899Y-57725833D01*
X42953148Y-57725391D01*
X42980030Y-57635377D01*
X42999422Y-57411822D01*
X43011640Y-57087928D01*
X43017003Y-56696899D01*
X43015826Y-56271938D01*
X43008427Y-55846249D01*
X42995124Y-55453034D01*
X42976233Y-55125498D01*
X42952071Y-54896843D01*
X42922956Y-54800274D01*
X42886604Y-54771379D01*
X42894713Y-54691351D01*
X43060363Y-54617831D01*
X43374833Y-54555539D01*
X43777000Y-54498124D01*
X43777000Y-58557447D01*
G37*
X43777000Y-58557447D02*
X43512842Y-58779722D01*
X43438210Y-58841759D01*
X43291159Y-58941041D01*
X43176748Y-58943283D01*
X43026008Y-58859835D01*
X42972212Y-58824822D01*
X42589962Y-58546378D01*
X42174465Y-58202194D01*
X41760132Y-57824817D01*
X41381374Y-57446792D01*
X41072601Y-57100664D01*
X40868223Y-56818979D01*
X40872894Y-56710781D01*
X40944247Y-56529893D01*
X41052194Y-56336334D01*
X41164696Y-56187171D01*
X41249716Y-56139469D01*
X41315671Y-56197607D01*
X41459763Y-56354747D01*
X41644843Y-56572763D01*
X41655546Y-56585676D01*
X41861317Y-56812074D01*
X42115351Y-57062957D01*
X42384486Y-57309051D01*
X42635563Y-57521079D01*
X42835421Y-57669765D01*
X42950899Y-57725833D01*
X42953148Y-57725391D01*
X42980030Y-57635377D01*
X42999422Y-57411822D01*
X43011640Y-57087928D01*
X43017003Y-56696899D01*
X43015826Y-56271938D01*
X43008427Y-55846249D01*
X42995124Y-55453034D01*
X42976233Y-55125498D01*
X42952071Y-54896843D01*
X42922956Y-54800274D01*
X42886604Y-54771379D01*
X42894713Y-54691351D01*
X43060363Y-54617831D01*
X43374833Y-54555539D01*
X43777000Y-54498124D01*
X43777000Y-58557447D01*
G36*
X74691787Y-54514630D02*
G01*
X74786431Y-54535779D01*
X75031677Y-54558672D01*
X75390458Y-54576851D01*
X75832060Y-54588842D01*
X76325767Y-54593167D01*
X77813000Y-54593167D01*
X77813000Y-55355167D01*
X75261589Y-55355167D01*
X75319092Y-55545667D01*
X75377010Y-55707557D01*
X75620235Y-56172063D01*
X75972173Y-56669364D01*
X76402791Y-57166635D01*
X76882057Y-57631049D01*
X77379941Y-58029780D01*
X77866409Y-58330002D01*
X78470151Y-58637837D01*
X78169100Y-58938889D01*
X78027698Y-59077978D01*
X77913623Y-59158467D01*
X77794249Y-59172676D01*
X77634785Y-59115088D01*
X77400442Y-58980185D01*
X77056430Y-58762452D01*
X76759736Y-58552691D01*
X76416749Y-58278449D01*
X76105052Y-58001334D01*
X75613911Y-57532865D01*
X75210622Y-57904492D01*
X75026154Y-58080619D01*
X74712160Y-58398648D01*
X74433682Y-58699476D01*
X74241317Y-58911597D01*
X74082201Y-59075842D01*
X73998580Y-59147923D01*
X73961734Y-59137220D01*
X73837595Y-59033762D01*
X73673843Y-58853601D01*
X73410557Y-58534190D01*
X73971739Y-57968676D01*
X74075125Y-57865733D01*
X74368954Y-57584299D01*
X74641866Y-57336978D01*
X74845749Y-57167850D01*
X75158578Y-56932539D01*
X74746842Y-56122686D01*
X74615231Y-55870635D01*
X74435928Y-55547765D01*
X74284536Y-55298036D01*
X74184189Y-55160988D01*
X74128931Y-55102218D01*
X74087382Y-55011999D01*
X74136614Y-54902905D01*
X74289156Y-54722618D01*
X74426554Y-54581535D01*
X74569161Y-54494130D01*
X74691787Y-54514630D01*
G37*
X74691787Y-54514630D02*
X74786431Y-54535779D01*
X75031677Y-54558672D01*
X75390458Y-54576851D01*
X75832060Y-54588842D01*
X76325767Y-54593167D01*
X77813000Y-54593167D01*
X77813000Y-55355167D01*
X75261589Y-55355167D01*
X75319092Y-55545667D01*
X75377010Y-55707557D01*
X75620235Y-56172063D01*
X75972173Y-56669364D01*
X76402791Y-57166635D01*
X76882057Y-57631049D01*
X77379941Y-58029780D01*
X77866409Y-58330002D01*
X78470151Y-58637837D01*
X78169100Y-58938889D01*
X78027698Y-59077978D01*
X77913623Y-59158467D01*
X77794249Y-59172676D01*
X77634785Y-59115088D01*
X77400442Y-58980185D01*
X77056430Y-58762452D01*
X76759736Y-58552691D01*
X76416749Y-58278449D01*
X76105052Y-58001334D01*
X75613911Y-57532865D01*
X75210622Y-57904492D01*
X75026154Y-58080619D01*
X74712160Y-58398648D01*
X74433682Y-58699476D01*
X74241317Y-58911597D01*
X74082201Y-59075842D01*
X73998580Y-59147923D01*
X73961734Y-59137220D01*
X73837595Y-59033762D01*
X73673843Y-58853601D01*
X73410557Y-58534190D01*
X73971739Y-57968676D01*
X74075125Y-57865733D01*
X74368954Y-57584299D01*
X74641866Y-57336978D01*
X74845749Y-57167850D01*
X75158578Y-56932539D01*
X74746842Y-56122686D01*
X74615231Y-55870635D01*
X74435928Y-55547765D01*
X74284536Y-55298036D01*
X74184189Y-55160988D01*
X74128931Y-55102218D01*
X74087382Y-55011999D01*
X74136614Y-54902905D01*
X74289156Y-54722618D01*
X74426554Y-54581535D01*
X74569161Y-54494130D01*
X74691787Y-54514630D01*
G36*
X54963811Y-56762524D02*
G01*
X55194426Y-56983468D01*
X54789294Y-57502817D01*
X54763259Y-57536321D01*
X54555431Y-57812679D01*
X54383760Y-58055404D01*
X54283190Y-58215305D01*
X54182218Y-58408444D01*
X53935169Y-58232530D01*
X53911300Y-58215317D01*
X53735972Y-58075270D01*
X53635969Y-57972232D01*
X53628770Y-57944953D01*
X53681583Y-57790668D01*
X53836708Y-57550137D01*
X54078212Y-57245994D01*
X54390162Y-56900874D01*
X54733196Y-56541581D01*
X54963811Y-56762524D01*
G37*
X54963811Y-56762524D02*
X55194426Y-56983468D01*
X54789294Y-57502817D01*
X54763259Y-57536321D01*
X54555431Y-57812679D01*
X54383760Y-58055404D01*
X54283190Y-58215305D01*
X54182218Y-58408444D01*
X53935169Y-58232530D01*
X53911300Y-58215317D01*
X53735972Y-58075270D01*
X53635969Y-57972232D01*
X53628770Y-57944953D01*
X53681583Y-57790668D01*
X53836708Y-57550137D01*
X54078212Y-57245994D01*
X54390162Y-56900874D01*
X54733196Y-56541581D01*
X54963811Y-56762524D01*
G36*
X57728531Y-56682811D02*
G01*
X57831459Y-56833796D01*
X57978117Y-57050438D01*
X58098236Y-57213582D01*
X58356480Y-57517898D01*
X58622528Y-57789043D01*
X59008380Y-58144709D01*
X58652857Y-58357803D01*
X58529789Y-58431035D01*
X58356397Y-58531819D01*
X58281469Y-58571699D01*
X58268110Y-58559723D01*
X58171503Y-58451791D01*
X58003576Y-58255724D01*
X57789727Y-58001000D01*
X57714329Y-57910643D01*
X57479831Y-57631887D01*
X57279659Y-57397071D01*
X57150612Y-57249466D01*
X57069864Y-57154204D01*
X57048526Y-57070398D01*
X57129634Y-56980521D01*
X57332622Y-56840957D01*
X57453542Y-56763507D01*
X57623159Y-56666186D01*
X57698715Y-56639991D01*
X57728531Y-56682811D01*
G37*
X57728531Y-56682811D02*
X57831459Y-56833796D01*
X57978117Y-57050438D01*
X58098236Y-57213582D01*
X58356480Y-57517898D01*
X58622528Y-57789043D01*
X59008380Y-58144709D01*
X58652857Y-58357803D01*
X58529789Y-58431035D01*
X58356397Y-58531819D01*
X58281469Y-58571699D01*
X58268110Y-58559723D01*
X58171503Y-58451791D01*
X58003576Y-58255724D01*
X57789727Y-58001000D01*
X57714329Y-57910643D01*
X57479831Y-57631887D01*
X57279659Y-57397071D01*
X57150612Y-57249466D01*
X57069864Y-57154204D01*
X57048526Y-57070398D01*
X57129634Y-56980521D01*
X57332622Y-56840957D01*
X57453542Y-56763507D01*
X57623159Y-56666186D01*
X57698715Y-56639991D01*
X57728531Y-56682811D01*
G36*
X56496272Y-54197057D02*
G01*
X56542280Y-54276749D01*
X56559239Y-54453121D01*
X56561666Y-54762500D01*
X56561666Y-55355167D01*
X58509000Y-55355167D01*
X58509000Y-56032500D01*
X56557256Y-56032500D01*
X56580628Y-57323667D01*
X56604000Y-58614833D01*
X56963943Y-58614833D01*
X57058654Y-58616713D01*
X57248382Y-58635520D01*
X57323776Y-58667993D01*
X57320694Y-58686648D01*
X57274600Y-58826672D01*
X57190833Y-59039070D01*
X57057999Y-59356986D01*
X56589429Y-59308625D01*
X56387075Y-59285810D01*
X56171755Y-59243892D01*
X56016758Y-59168771D01*
X55912171Y-59037759D01*
X55848081Y-58828169D01*
X55814575Y-58517312D01*
X55801742Y-58082499D01*
X55799666Y-57501044D01*
X55799666Y-56032500D01*
X53852333Y-56032500D01*
X53852333Y-55355167D01*
X55799666Y-55355167D01*
X55799666Y-54894497D01*
X55795226Y-54744663D01*
X55759171Y-54492809D01*
X55693833Y-54367125D01*
X55684669Y-54311371D01*
X55808880Y-54254081D01*
X56034964Y-54206890D01*
X56328833Y-54179850D01*
X56406700Y-54177718D01*
X56496272Y-54197057D01*
G37*
X56496272Y-54197057D02*
X56542280Y-54276749D01*
X56559239Y-54453121D01*
X56561666Y-54762500D01*
X56561666Y-55355167D01*
X58509000Y-55355167D01*
X58509000Y-56032500D01*
X56557256Y-56032500D01*
X56580628Y-57323667D01*
X56604000Y-58614833D01*
X56963943Y-58614833D01*
X57058654Y-58616713D01*
X57248382Y-58635520D01*
X57323776Y-58667993D01*
X57320694Y-58686648D01*
X57274600Y-58826672D01*
X57190833Y-59039070D01*
X57057999Y-59356986D01*
X56589429Y-59308625D01*
X56387075Y-59285810D01*
X56171755Y-59243892D01*
X56016758Y-59168771D01*
X55912171Y-59037759D01*
X55848081Y-58828169D01*
X55814575Y-58517312D01*
X55801742Y-58082499D01*
X55799666Y-57501044D01*
X55799666Y-56032500D01*
X53852333Y-56032500D01*
X53852333Y-55355167D01*
X55799666Y-55355167D01*
X55799666Y-54894497D01*
X55795226Y-54744663D01*
X55759171Y-54492809D01*
X55693833Y-54367125D01*
X55684669Y-54311371D01*
X55808880Y-54254081D01*
X56034964Y-54206890D01*
X56328833Y-54179850D01*
X56406700Y-54177718D01*
X56496272Y-54197057D01*
G36*
X45343333Y-55672667D02*
G01*
X45343449Y-55779991D01*
X45348674Y-56219011D01*
X45365491Y-56537478D01*
X45399148Y-56775880D01*
X45454891Y-56974706D01*
X45537969Y-57174445D01*
X45547418Y-57194822D01*
X45769660Y-57596445D01*
X46041438Y-57920223D01*
X46418042Y-58232635D01*
X46730750Y-58462487D01*
X46375708Y-58716743D01*
X46222531Y-58820560D01*
X46035809Y-58903693D01*
X45872336Y-58883948D01*
X45689534Y-58751197D01*
X45444831Y-58495314D01*
X45249922Y-58261152D01*
X44925836Y-57739345D01*
X44705124Y-57148819D01*
X44579080Y-56462254D01*
X44539000Y-55652329D01*
X44538920Y-55607228D01*
X44526342Y-55178135D01*
X44491678Y-54908966D01*
X44434020Y-54792279D01*
X44414229Y-54731467D01*
X44530015Y-54672075D01*
X44751623Y-54625464D01*
X45047000Y-54601606D01*
X45343333Y-54593167D01*
X45343333Y-55672667D01*
G37*
X45343333Y-55672667D02*
X45343449Y-55779991D01*
X45348674Y-56219011D01*
X45365491Y-56537478D01*
X45399148Y-56775880D01*
X45454891Y-56974706D01*
X45537969Y-57174445D01*
X45547418Y-57194822D01*
X45769660Y-57596445D01*
X46041438Y-57920223D01*
X46418042Y-58232635D01*
X46730750Y-58462487D01*
X46375708Y-58716743D01*
X46222531Y-58820560D01*
X46035809Y-58903693D01*
X45872336Y-58883948D01*
X45689534Y-58751197D01*
X45444831Y-58495314D01*
X45249922Y-58261152D01*
X44925836Y-57739345D01*
X44705124Y-57148819D01*
X44579080Y-56462254D01*
X44539000Y-55652329D01*
X44538920Y-55607228D01*
X44526342Y-55178135D01*
X44491678Y-54908966D01*
X44434020Y-54792279D01*
X44414229Y-54731467D01*
X44530015Y-54672075D01*
X44751623Y-54625464D01*
X45047000Y-54601606D01*
X45343333Y-54593167D01*
X45343333Y-55672667D01*
G36*
X52328333Y-57217833D02*
G01*
X47587000Y-57217833D01*
X47587000Y-56371167D01*
X52328333Y-56371167D01*
X52328333Y-57217833D01*
G37*
X52328333Y-57217833D02*
X47587000Y-57217833D01*
X47587000Y-56371167D01*
X52328333Y-56371167D01*
X52328333Y-57217833D01*
G36*
X64859000Y-57217833D02*
G01*
X60117666Y-57217833D01*
X60117666Y-56371167D01*
X64859000Y-56371167D01*
X64859000Y-57217833D01*
G37*
X64859000Y-57217833D02*
X60117666Y-57217833D01*
X60117666Y-56371167D01*
X64859000Y-56371167D01*
X64859000Y-57217833D01*
G36*
X82263929Y-56180667D02*
G01*
X82364434Y-56375639D01*
X82649953Y-56927846D01*
X82928073Y-57463518D01*
X83181322Y-57949123D01*
X83392228Y-58351128D01*
X83543317Y-58636000D01*
X83917868Y-59334500D01*
X83241575Y-59334500D01*
X82336738Y-57577667D01*
X82236232Y-57382694D01*
X81950713Y-56830487D01*
X81672593Y-56294815D01*
X81419344Y-55809210D01*
X81208438Y-55407205D01*
X81057350Y-55122333D01*
X80682798Y-54423833D01*
X81359092Y-54423833D01*
X82263929Y-56180667D01*
G37*
X82263929Y-56180667D02*
X82364434Y-56375639D01*
X82649953Y-56927846D01*
X82928073Y-57463518D01*
X83181322Y-57949123D01*
X83392228Y-58351128D01*
X83543317Y-58636000D01*
X83917868Y-59334500D01*
X83241575Y-59334500D01*
X82336738Y-57577667D01*
X82236232Y-57382694D01*
X81950713Y-56830487D01*
X81672593Y-56294815D01*
X81419344Y-55809210D01*
X81208438Y-55407205D01*
X81057350Y-55122333D01*
X80682798Y-54423833D01*
X81359092Y-54423833D01*
X82263929Y-56180667D01*
G36*
X98399226Y-55941414D02*
G01*
X98610220Y-56000632D01*
X98740818Y-56048886D01*
X98788580Y-56106104D01*
X98748096Y-56188543D01*
X98654652Y-56385087D01*
X98531960Y-56646333D01*
X98419225Y-56879492D01*
X98322410Y-57062899D01*
X98273702Y-57133167D01*
X98258543Y-57131967D01*
X98122205Y-57094338D01*
X97939149Y-57024719D01*
X97778570Y-56951391D01*
X97709666Y-56902638D01*
X97737974Y-56817956D01*
X97819149Y-56620421D01*
X97934665Y-56356644D01*
X98057371Y-56107275D01*
X98181241Y-55933685D01*
X98281197Y-55901918D01*
X98399226Y-55941414D01*
G37*
X98399226Y-55941414D02*
X98610220Y-56000632D01*
X98740818Y-56048886D01*
X98788580Y-56106104D01*
X98748096Y-56188543D01*
X98654652Y-56385087D01*
X98531960Y-56646333D01*
X98419225Y-56879492D01*
X98322410Y-57062899D01*
X98273702Y-57133167D01*
X98258543Y-57131967D01*
X98122205Y-57094338D01*
X97939149Y-57024719D01*
X97778570Y-56951391D01*
X97709666Y-56902638D01*
X97737974Y-56817956D01*
X97819149Y-56620421D01*
X97934665Y-56356644D01*
X98057371Y-56107275D01*
X98181241Y-55933685D01*
X98281197Y-55901918D01*
X98399226Y-55941414D01*
G36*
X95505193Y-55693265D02*
G01*
X95582198Y-55879220D01*
X95651997Y-56141759D01*
X95655867Y-56159987D01*
X95903971Y-56921630D01*
X96299117Y-57616276D01*
X96825052Y-58220889D01*
X97465524Y-58712431D01*
X97969084Y-59023246D01*
X97738868Y-59263539D01*
X97693390Y-59309843D01*
X97540457Y-59448166D01*
X97449140Y-59503833D01*
X97430608Y-59499864D01*
X97292840Y-59422784D01*
X97073405Y-59268497D01*
X96807717Y-59064793D01*
X96531186Y-58839461D01*
X96279226Y-58620292D01*
X96087247Y-58435076D01*
X96055709Y-58400841D01*
X95771945Y-58028406D01*
X95486829Y-57555533D01*
X95232403Y-57040228D01*
X95040710Y-56540500D01*
X94973706Y-56342612D01*
X94880092Y-56104679D01*
X94809437Y-55969008D01*
X94787549Y-55923954D01*
X94841414Y-55834541D01*
X95042190Y-55730909D01*
X95107104Y-55705350D01*
X95321545Y-55642643D01*
X95456269Y-55636050D01*
X95505193Y-55693265D01*
G37*
X95505193Y-55693265D02*
X95582198Y-55879220D01*
X95651997Y-56141759D01*
X95655867Y-56159987D01*
X95903971Y-56921630D01*
X96299117Y-57616276D01*
X96825052Y-58220889D01*
X97465524Y-58712431D01*
X97969084Y-59023246D01*
X97738868Y-59263539D01*
X97693390Y-59309843D01*
X97540457Y-59448166D01*
X97449140Y-59503833D01*
X97430608Y-59499864D01*
X97292840Y-59422784D01*
X97073405Y-59268497D01*
X96807717Y-59064793D01*
X96531186Y-58839461D01*
X96279226Y-58620292D01*
X96087247Y-58435076D01*
X96055709Y-58400841D01*
X95771945Y-58028406D01*
X95486829Y-57555533D01*
X95232403Y-57040228D01*
X95040710Y-56540500D01*
X94973706Y-56342612D01*
X94880092Y-56104679D01*
X94809437Y-55969008D01*
X94787549Y-55923954D01*
X94841414Y-55834541D01*
X95042190Y-55730909D01*
X95107104Y-55705350D01*
X95321545Y-55642643D01*
X95456269Y-55636050D01*
X95505193Y-55693265D01*
G36*
X69177000Y-58557447D02*
G01*
X68912842Y-58779722D01*
X68838210Y-58841759D01*
X68691159Y-58941041D01*
X68576748Y-58943283D01*
X68426008Y-58859835D01*
X68372212Y-58824822D01*
X67989962Y-58546378D01*
X67574465Y-58202194D01*
X67160132Y-57824817D01*
X66781374Y-57446792D01*
X66472601Y-57100664D01*
X66268223Y-56818979D01*
X66272894Y-56710781D01*
X66344247Y-56529893D01*
X66452194Y-56336334D01*
X66564696Y-56187171D01*
X66649716Y-56139469D01*
X66715671Y-56197607D01*
X66859763Y-56354747D01*
X67044843Y-56572763D01*
X67055546Y-56585676D01*
X67261317Y-56812074D01*
X67515351Y-57062957D01*
X67784486Y-57309051D01*
X68035563Y-57521079D01*
X68235421Y-57669765D01*
X68350899Y-57725833D01*
X68353148Y-57725391D01*
X68380030Y-57635377D01*
X68399422Y-57411822D01*
X68411640Y-57087928D01*
X68417003Y-56696899D01*
X68415826Y-56271938D01*
X68408427Y-55846249D01*
X68395124Y-55453034D01*
X68376233Y-55125498D01*
X68352071Y-54896843D01*
X68322956Y-54800274D01*
X68286604Y-54771379D01*
X68294713Y-54691351D01*
X68460363Y-54617831D01*
X68774833Y-54555539D01*
X69177000Y-54498124D01*
X69177000Y-58557447D01*
G37*
X69177000Y-58557447D02*
X68912842Y-58779722D01*
X68838210Y-58841759D01*
X68691159Y-58941041D01*
X68576748Y-58943283D01*
X68426008Y-58859835D01*
X68372212Y-58824822D01*
X67989962Y-58546378D01*
X67574465Y-58202194D01*
X67160132Y-57824817D01*
X66781374Y-57446792D01*
X66472601Y-57100664D01*
X66268223Y-56818979D01*
X66272894Y-56710781D01*
X66344247Y-56529893D01*
X66452194Y-56336334D01*
X66564696Y-56187171D01*
X66649716Y-56139469D01*
X66715671Y-56197607D01*
X66859763Y-56354747D01*
X67044843Y-56572763D01*
X67055546Y-56585676D01*
X67261317Y-56812074D01*
X67515351Y-57062957D01*
X67784486Y-57309051D01*
X68035563Y-57521079D01*
X68235421Y-57669765D01*
X68350899Y-57725833D01*
X68353148Y-57725391D01*
X68380030Y-57635377D01*
X68399422Y-57411822D01*
X68411640Y-57087928D01*
X68417003Y-56696899D01*
X68415826Y-56271938D01*
X68408427Y-55846249D01*
X68395124Y-55453034D01*
X68376233Y-55125498D01*
X68352071Y-54896843D01*
X68322956Y-54800274D01*
X68286604Y-54771379D01*
X68294713Y-54691351D01*
X68460363Y-54617831D01*
X68774833Y-54555539D01*
X69177000Y-54498124D01*
X69177000Y-58557447D01*
G36*
X97239939Y-55630050D02*
G01*
X97298824Y-55650099D01*
X97460856Y-55735311D01*
X97505350Y-55814862D01*
X97467556Y-55902484D01*
X97380202Y-56111304D01*
X97269583Y-56379469D01*
X97075254Y-56853439D01*
X96823757Y-56747693D01*
X96817096Y-56744864D01*
X96634676Y-56644262D01*
X96541599Y-56549963D01*
X96549672Y-56462605D01*
X96613849Y-56258035D01*
X96722014Y-55996928D01*
X96933090Y-55535876D01*
X97239939Y-55630050D01*
G37*
X97239939Y-55630050D02*
X97298824Y-55650099D01*
X97460856Y-55735311D01*
X97505350Y-55814862D01*
X97467556Y-55902484D01*
X97380202Y-56111304D01*
X97269583Y-56379469D01*
X97075254Y-56853439D01*
X96823757Y-56747693D01*
X96817096Y-56744864D01*
X96634676Y-56644262D01*
X96541599Y-56549963D01*
X96549672Y-56462605D01*
X96613849Y-56258035D01*
X96722014Y-55996928D01*
X96933090Y-55535876D01*
X97239939Y-55630050D01*
G36*
X70743333Y-55672667D02*
G01*
X70743449Y-55779991D01*
X70748674Y-56219011D01*
X70765491Y-56537478D01*
X70799148Y-56775880D01*
X70854891Y-56974706D01*
X70937969Y-57174445D01*
X70947418Y-57194822D01*
X71169660Y-57596445D01*
X71441438Y-57920223D01*
X71818042Y-58232635D01*
X72130750Y-58462487D01*
X71775708Y-58716743D01*
X71622531Y-58820560D01*
X71435809Y-58903693D01*
X71272336Y-58883948D01*
X71089534Y-58751197D01*
X70844831Y-58495314D01*
X70649922Y-58261152D01*
X70325836Y-57739345D01*
X70105124Y-57148819D01*
X69979080Y-56462254D01*
X69939000Y-55652329D01*
X69938920Y-55607228D01*
X69926342Y-55178135D01*
X69891678Y-54908966D01*
X69834020Y-54792279D01*
X69814229Y-54731467D01*
X69930015Y-54672075D01*
X70151623Y-54625464D01*
X70447000Y-54601606D01*
X70743333Y-54593167D01*
X70743333Y-55672667D01*
G37*
X70743333Y-55672667D02*
X70743449Y-55779991D01*
X70748674Y-56219011D01*
X70765491Y-56537478D01*
X70799148Y-56775880D01*
X70854891Y-56974706D01*
X70937969Y-57174445D01*
X70947418Y-57194822D01*
X71169660Y-57596445D01*
X71441438Y-57920223D01*
X71818042Y-58232635D01*
X72130750Y-58462487D01*
X71775708Y-58716743D01*
X71622531Y-58820560D01*
X71435809Y-58903693D01*
X71272336Y-58883948D01*
X71089534Y-58751197D01*
X70844831Y-58495314D01*
X70649922Y-58261152D01*
X70325836Y-57739345D01*
X70105124Y-57148819D01*
X69979080Y-56462254D01*
X69939000Y-55652329D01*
X69938920Y-55607228D01*
X69926342Y-55178135D01*
X69891678Y-54908966D01*
X69834020Y-54792279D01*
X69814229Y-54731467D01*
X69930015Y-54672075D01*
X70151623Y-54625464D01*
X70447000Y-54601606D01*
X70743333Y-54593167D01*
X70743333Y-55672667D01*
G36*
X107069182Y-54554682D02*
G01*
X107058156Y-54565470D01*
X106863791Y-54704987D01*
X106684333Y-54762500D01*
X106538395Y-54726578D01*
X106325745Y-54574734D01*
X106159069Y-54356005D01*
X106110649Y-54191856D01*
X106353352Y-54191856D01*
X106434201Y-54386160D01*
X106505173Y-54447436D01*
X106684333Y-54508500D01*
X106788916Y-54490518D01*
X106941530Y-54366633D01*
X107007486Y-54172400D01*
X106975052Y-53964074D01*
X106832500Y-53797913D01*
X106661424Y-53755841D01*
X106497078Y-53832221D01*
X106384349Y-53992385D01*
X106353352Y-54191856D01*
X106110649Y-54191856D01*
X106091666Y-54127500D01*
X106125193Y-53971137D01*
X106266915Y-53743298D01*
X106471061Y-53564717D01*
X106684333Y-53492500D01*
X106830272Y-53528421D01*
X107042921Y-53680266D01*
X107209597Y-53898994D01*
X107277000Y-54127500D01*
X107276877Y-54135172D01*
X107265820Y-54172400D01*
X107213568Y-54348335D01*
X107069182Y-54554682D01*
G37*
X107069182Y-54554682D02*
X107058156Y-54565470D01*
X106863791Y-54704987D01*
X106684333Y-54762500D01*
X106538395Y-54726578D01*
X106325745Y-54574734D01*
X106159069Y-54356005D01*
X106110649Y-54191856D01*
X106353352Y-54191856D01*
X106434201Y-54386160D01*
X106505173Y-54447436D01*
X106684333Y-54508500D01*
X106788916Y-54490518D01*
X106941530Y-54366633D01*
X107007486Y-54172400D01*
X106975052Y-53964074D01*
X106832500Y-53797913D01*
X106661424Y-53755841D01*
X106497078Y-53832221D01*
X106384349Y-53992385D01*
X106353352Y-54191856D01*
X106110649Y-54191856D01*
X106091666Y-54127500D01*
X106125193Y-53971137D01*
X106266915Y-53743298D01*
X106471061Y-53564717D01*
X106684333Y-53492500D01*
X106830272Y-53528421D01*
X107042921Y-53680266D01*
X107209597Y-53898994D01*
X107277000Y-54127500D01*
X107276877Y-54135172D01*
X107265820Y-54172400D01*
X107213568Y-54348335D01*
X107069182Y-54554682D01*
G36*
X85057929Y-56180667D02*
G01*
X85158434Y-56375639D01*
X85443953Y-56927846D01*
X85722073Y-57463518D01*
X85975322Y-57949123D01*
X86186228Y-58351128D01*
X86337317Y-58636000D01*
X86711868Y-59334500D01*
X86035575Y-59334500D01*
X85130738Y-57577667D01*
X85030232Y-57382694D01*
X84744713Y-56830487D01*
X84466593Y-56294815D01*
X84213344Y-55809210D01*
X84002438Y-55407205D01*
X83851350Y-55122333D01*
X83476798Y-54423833D01*
X84153092Y-54423833D01*
X85057929Y-56180667D01*
G37*
X85057929Y-56180667D02*
X85158434Y-56375639D01*
X85443953Y-56927846D01*
X85722073Y-57463518D01*
X85975322Y-57949123D01*
X86186228Y-58351128D01*
X86337317Y-58636000D01*
X86711868Y-59334500D01*
X86035575Y-59334500D01*
X85130738Y-57577667D01*
X85030232Y-57382694D01*
X84744713Y-56830487D01*
X84466593Y-56294815D01*
X84213344Y-55809210D01*
X84002438Y-55407205D01*
X83851350Y-55122333D01*
X83476798Y-54423833D01*
X84153092Y-54423833D01*
X85057929Y-56180667D01*
G36*
X101218786Y-55686475D02*
G01*
X101301231Y-55716963D01*
X101545315Y-55744041D01*
X101951658Y-55763254D01*
X102522563Y-55774706D01*
X103260330Y-55778500D01*
X105245000Y-55778500D01*
X105245000Y-56452398D01*
X103507003Y-56475282D01*
X101769005Y-56498167D01*
X101989755Y-56941020D01*
X102218868Y-57322646D01*
X102571216Y-57766270D01*
X102984084Y-58182229D01*
X103423078Y-58539744D01*
X103853800Y-58808035D01*
X104241857Y-58956324D01*
X104500479Y-59013127D01*
X104180345Y-59340974D01*
X103860210Y-59668822D01*
X103269335Y-59353494D01*
X103014727Y-59206817D01*
X102323043Y-58679684D01*
X101736289Y-58024220D01*
X101264638Y-57251093D01*
X101167523Y-57059279D01*
X100993355Y-56733692D01*
X100842745Y-56474054D01*
X100740283Y-56323847D01*
X100676670Y-56245658D01*
X100644879Y-56151821D01*
X100706083Y-56044279D01*
X100875564Y-55871989D01*
X100954295Y-55799516D01*
X101126846Y-55679975D01*
X101218786Y-55686475D01*
G37*
X101218786Y-55686475D02*
X101301231Y-55716963D01*
X101545315Y-55744041D01*
X101951658Y-55763254D01*
X102522563Y-55774706D01*
X103260330Y-55778500D01*
X105245000Y-55778500D01*
X105245000Y-56452398D01*
X103507003Y-56475282D01*
X101769005Y-56498167D01*
X101989755Y-56941020D01*
X102218868Y-57322646D01*
X102571216Y-57766270D01*
X102984084Y-58182229D01*
X103423078Y-58539744D01*
X103853800Y-58808035D01*
X104241857Y-58956324D01*
X104500479Y-59013127D01*
X104180345Y-59340974D01*
X103860210Y-59668822D01*
X103269335Y-59353494D01*
X103014727Y-59206817D01*
X102323043Y-58679684D01*
X101736289Y-58024220D01*
X101264638Y-57251093D01*
X101167523Y-57059279D01*
X100993355Y-56733692D01*
X100842745Y-56474054D01*
X100740283Y-56323847D01*
X100676670Y-56245658D01*
X100644879Y-56151821D01*
X100706083Y-56044279D01*
X100875564Y-55871989D01*
X100954295Y-55799516D01*
X101126846Y-55679975D01*
X101218786Y-55686475D01*
G36*
X52097828Y-93375301D02*
G01*
X52130512Y-93398905D01*
X52176650Y-93443087D01*
X52212619Y-93508745D01*
X52239684Y-93614360D01*
X52259112Y-93778415D01*
X52272168Y-94019392D01*
X52280118Y-94355773D01*
X52284230Y-94806042D01*
X52285768Y-95388678D01*
X52286000Y-96122167D01*
X52285949Y-96576423D01*
X52285095Y-97218216D01*
X52282183Y-97720119D01*
X52275948Y-98100615D01*
X52265122Y-98378185D01*
X52248440Y-98571312D01*
X52224636Y-98698478D01*
X52192443Y-98778165D01*
X52150596Y-98828856D01*
X52097828Y-98869032D01*
X51923190Y-98964238D01*
X51673245Y-98980371D01*
X51439333Y-98831500D01*
X51437159Y-98829318D01*
X51389365Y-98773687D01*
X51351657Y-98701252D01*
X51322843Y-98592949D01*
X51301731Y-98429709D01*
X51287130Y-98192469D01*
X51277848Y-97862160D01*
X51272694Y-97419718D01*
X51270475Y-96846075D01*
X51270000Y-96122167D01*
X51270000Y-96089548D01*
X51270523Y-95372123D01*
X51272838Y-94804189D01*
X51278137Y-94366680D01*
X51287612Y-94040528D01*
X51302455Y-93806670D01*
X51323857Y-93646037D01*
X51353009Y-93539564D01*
X51391104Y-93468185D01*
X51439333Y-93412833D01*
X51586649Y-93299277D01*
X51828700Y-93255102D01*
X52097828Y-93375301D01*
G37*
X52097828Y-93375301D02*
X52130512Y-93398905D01*
X52176650Y-93443087D01*
X52212619Y-93508745D01*
X52239684Y-93614360D01*
X52259112Y-93778415D01*
X52272168Y-94019392D01*
X52280118Y-94355773D01*
X52284230Y-94806042D01*
X52285768Y-95388678D01*
X52286000Y-96122167D01*
X52285949Y-96576423D01*
X52285095Y-97218216D01*
X52282183Y-97720119D01*
X52275948Y-98100615D01*
X52265122Y-98378185D01*
X52248440Y-98571312D01*
X52224636Y-98698478D01*
X52192443Y-98778165D01*
X52150596Y-98828856D01*
X52097828Y-98869032D01*
X51923190Y-98964238D01*
X51673245Y-98980371D01*
X51439333Y-98831500D01*
X51437159Y-98829318D01*
X51389365Y-98773687D01*
X51351657Y-98701252D01*
X51322843Y-98592949D01*
X51301731Y-98429709D01*
X51287130Y-98192469D01*
X51277848Y-97862160D01*
X51272694Y-97419718D01*
X51270475Y-96846075D01*
X51270000Y-96122167D01*
X51270000Y-96089548D01*
X51270523Y-95372123D01*
X51272838Y-94804189D01*
X51278137Y-94366680D01*
X51287612Y-94040528D01*
X51302455Y-93806670D01*
X51323857Y-93646037D01*
X51353009Y-93539564D01*
X51391104Y-93468185D01*
X51439333Y-93412833D01*
X51586649Y-93299277D01*
X51828700Y-93255102D01*
X52097828Y-93375301D01*
G36*
X70658280Y-83932950D02*
G01*
X70781014Y-83953649D01*
X70877439Y-84009177D01*
X70950726Y-84116346D01*
X71004042Y-84291969D01*
X71040558Y-84552858D01*
X71063443Y-84915827D01*
X71075865Y-85397688D01*
X71080994Y-86015255D01*
X71082000Y-86785339D01*
X71081594Y-87448035D01*
X71079471Y-88023685D01*
X71074394Y-88467110D01*
X71065126Y-88797642D01*
X71050432Y-89034613D01*
X71029075Y-89197353D01*
X70999819Y-89305194D01*
X70961428Y-89377465D01*
X70912666Y-89433500D01*
X70685963Y-89571428D01*
X70424223Y-89587708D01*
X70199047Y-89469786D01*
X70191872Y-89462127D01*
X70155240Y-89399802D01*
X70126325Y-89293784D01*
X70104254Y-89126125D01*
X70088154Y-88878877D01*
X70077152Y-88534094D01*
X70070374Y-88073827D01*
X70066948Y-87480129D01*
X70066000Y-86735052D01*
X70066491Y-86313984D01*
X70070572Y-85595369D01*
X70079160Y-85028040D01*
X70092706Y-84600006D01*
X70111661Y-84299276D01*
X70136476Y-84113860D01*
X70167600Y-84031766D01*
X70168325Y-84031048D01*
X70320897Y-83959775D01*
X70543799Y-83930167D01*
X70658280Y-83932950D01*
G37*
X70658280Y-83932950D02*
X70781014Y-83953649D01*
X70877439Y-84009177D01*
X70950726Y-84116346D01*
X71004042Y-84291969D01*
X71040558Y-84552858D01*
X71063443Y-84915827D01*
X71075865Y-85397688D01*
X71080994Y-86015255D01*
X71082000Y-86785339D01*
X71081594Y-87448035D01*
X71079471Y-88023685D01*
X71074394Y-88467110D01*
X71065126Y-88797642D01*
X71050432Y-89034613D01*
X71029075Y-89197353D01*
X70999819Y-89305194D01*
X70961428Y-89377465D01*
X70912666Y-89433500D01*
X70685963Y-89571428D01*
X70424223Y-89587708D01*
X70199047Y-89469786D01*
X70191872Y-89462127D01*
X70155240Y-89399802D01*
X70126325Y-89293784D01*
X70104254Y-89126125D01*
X70088154Y-88878877D01*
X70077152Y-88534094D01*
X70070374Y-88073827D01*
X70066948Y-87480129D01*
X70066000Y-86735052D01*
X70066491Y-86313984D01*
X70070572Y-85595369D01*
X70079160Y-85028040D01*
X70092706Y-84600006D01*
X70111661Y-84299276D01*
X70136476Y-84113860D01*
X70167600Y-84031766D01*
X70168325Y-84031048D01*
X70320897Y-83959775D01*
X70543799Y-83930167D01*
X70658280Y-83932950D01*
G36*
X52525697Y-86769991D02*
G01*
X53001238Y-86853570D01*
X53178817Y-86904046D01*
X53951703Y-87226026D01*
X54659416Y-87685479D01*
X55281684Y-88261037D01*
X55798233Y-88931333D01*
X56188790Y-89674999D01*
X56433081Y-90470667D01*
X56531339Y-90957500D01*
X57116051Y-90957500D01*
X57142799Y-90957520D01*
X57431435Y-90966379D01*
X57638146Y-91009257D01*
X57787443Y-91112226D01*
X57903838Y-91301360D01*
X58011842Y-91602733D01*
X58135966Y-92042419D01*
X58171877Y-92170048D01*
X58263926Y-92451390D01*
X58338888Y-92614191D01*
X58386874Y-92635086D01*
X58390035Y-92628234D01*
X58434768Y-92496490D01*
X58517956Y-92227059D01*
X58633138Y-91841739D01*
X58773855Y-91362329D01*
X58933646Y-90810629D01*
X59106050Y-90208436D01*
X59133171Y-90113420D01*
X59306838Y-89516624D01*
X59470440Y-88973353D01*
X59616968Y-88505544D01*
X59739410Y-88135136D01*
X59830755Y-87884066D01*
X59883992Y-87774270D01*
X59923361Y-87741246D01*
X60148074Y-87663562D01*
X60401687Y-87685531D01*
X60599340Y-87803667D01*
X60606542Y-87814045D01*
X60669357Y-87959917D01*
X60768713Y-88242755D01*
X60897595Y-88640438D01*
X61048990Y-89130843D01*
X61215884Y-89691849D01*
X61391262Y-90301333D01*
X61432554Y-90446877D01*
X61601636Y-91035526D01*
X61756339Y-91562776D01*
X61890462Y-92008279D01*
X61997803Y-92351688D01*
X62072161Y-92572656D01*
X62107333Y-92650833D01*
X62111768Y-92646342D01*
X62156739Y-92532660D01*
X62239433Y-92280987D01*
X62353648Y-91911670D01*
X62493183Y-91445057D01*
X62651836Y-90901495D01*
X62823405Y-90301333D01*
X62856933Y-90183252D01*
X63031243Y-89581248D01*
X63195740Y-89031910D01*
X63343412Y-88557361D01*
X63467242Y-88179723D01*
X63560218Y-87921117D01*
X63615326Y-87803667D01*
X63652878Y-87766955D01*
X63871010Y-87671604D01*
X64124802Y-87672399D01*
X64329392Y-87772987D01*
X64392208Y-87884529D01*
X64489254Y-88128070D01*
X64603585Y-88463178D01*
X64721623Y-88852487D01*
X64798172Y-89120751D01*
X64964050Y-89701802D01*
X65092667Y-90145833D01*
X65191421Y-90471176D01*
X65267713Y-90696166D01*
X65328944Y-90839136D01*
X65382511Y-90918421D01*
X65435816Y-90952354D01*
X65496258Y-90959269D01*
X65571236Y-90957500D01*
X65705644Y-90945385D01*
X65789857Y-90882994D01*
X65849332Y-90731389D01*
X65910160Y-90451628D01*
X65951393Y-90275122D01*
X66142997Y-89724080D01*
X66418763Y-89149534D01*
X66745518Y-88615216D01*
X67090086Y-88184858D01*
X67417302Y-87875224D01*
X68127192Y-87364969D01*
X68905009Y-86990799D01*
X69005247Y-86953706D01*
X69317669Y-86847008D01*
X69507533Y-86817725D01*
X69603216Y-86879082D01*
X69633092Y-87044304D01*
X69625540Y-87326618D01*
X69600333Y-87844403D01*
X69177000Y-88003265D01*
X68988330Y-88085851D01*
X68644743Y-88273564D01*
X68332356Y-88482337D01*
X68031454Y-88735035D01*
X67530117Y-89302828D01*
X67168764Y-89931493D01*
X66945165Y-90601421D01*
X66857094Y-91293003D01*
X66902323Y-91986632D01*
X67078624Y-92662699D01*
X67383770Y-93301596D01*
X67815533Y-93883716D01*
X68371686Y-94389449D01*
X69050000Y-94799187D01*
X69119789Y-94832515D01*
X69361915Y-94939333D01*
X69575029Y-95007045D01*
X69808707Y-95044480D01*
X70112525Y-95060466D01*
X70536058Y-95063833D01*
X70776805Y-95063323D01*
X71123711Y-95055630D01*
X71379444Y-95030546D01*
X71594915Y-94977881D01*
X71821034Y-94887444D01*
X72108710Y-94749046D01*
X72280110Y-94659037D01*
X72937717Y-94198214D01*
X73483362Y-93615432D01*
X73901277Y-92926722D01*
X73935589Y-92853813D01*
X74045123Y-92602912D01*
X74114449Y-92384956D01*
X74152683Y-92149386D01*
X74168940Y-91845643D01*
X74172333Y-91423167D01*
X74172196Y-91304981D01*
X74166472Y-90916546D01*
X74145633Y-90634352D01*
X74100564Y-90407837D01*
X74022150Y-90186443D01*
X73901277Y-89919611D01*
X73895862Y-89908229D01*
X73482745Y-89235147D01*
X72941912Y-88659064D01*
X72296297Y-88200050D01*
X71568833Y-87878179D01*
X71539744Y-87866370D01*
X71466601Y-87786778D01*
X71430403Y-87617660D01*
X71420666Y-87319490D01*
X71421045Y-87197689D01*
X71434877Y-86970573D01*
X71490538Y-86849402D01*
X71617305Y-86822297D01*
X71844453Y-86877380D01*
X72201258Y-87002772D01*
X72383343Y-87073359D01*
X73142031Y-87473099D01*
X73811288Y-88001036D01*
X74372970Y-88637437D01*
X74808931Y-89362565D01*
X75101026Y-90156685D01*
X75176919Y-90552132D01*
X75226154Y-91138138D01*
X75223222Y-91756753D01*
X75169011Y-92343128D01*
X75064408Y-92832415D01*
X74887661Y-93305321D01*
X74479513Y-94043577D01*
X73947987Y-94702636D01*
X73315217Y-95260870D01*
X72603339Y-95696650D01*
X71834490Y-95988347D01*
X71736471Y-96011885D01*
X71294746Y-96076780D01*
X70769394Y-96108223D01*
X70222766Y-96105947D01*
X69717214Y-96069684D01*
X69315088Y-95999166D01*
X68497082Y-95698434D01*
X67754899Y-95256185D01*
X67110765Y-94689591D01*
X66578902Y-94013705D01*
X66173530Y-93243576D01*
X65908871Y-92394255D01*
X65822611Y-91992040D01*
X65225742Y-91958314D01*
X64944689Y-91934510D01*
X64669756Y-91878116D01*
X64532270Y-91791772D01*
X64510191Y-91753198D01*
X64432062Y-91561714D01*
X64333769Y-91271013D01*
X64231368Y-90927228D01*
X64185492Y-90767241D01*
X64094087Y-90474119D01*
X64020471Y-90271456D01*
X63977368Y-90195883D01*
X63976421Y-90196216D01*
X63938705Y-90284059D01*
X63862558Y-90512825D01*
X63754352Y-90861578D01*
X63620456Y-91309380D01*
X63467243Y-91835294D01*
X63301083Y-92418383D01*
X63177343Y-92857526D01*
X62990879Y-93517517D01*
X62840550Y-94039897D01*
X62719488Y-94440715D01*
X62620826Y-94736020D01*
X62537696Y-94941862D01*
X62463229Y-95074289D01*
X62390557Y-95149351D01*
X62312812Y-95183096D01*
X62223127Y-95191574D01*
X62114632Y-95190833D01*
X62078777Y-95190484D01*
X61825104Y-95151271D01*
X61693234Y-95038753D01*
X61678308Y-95003736D01*
X61614549Y-94817646D01*
X61516230Y-94505486D01*
X61391212Y-94093024D01*
X61247359Y-93606024D01*
X61092533Y-93070253D01*
X61046099Y-92907920D01*
X60882888Y-92338491D01*
X60726589Y-91794834D01*
X60587081Y-91311215D01*
X60474244Y-90921903D01*
X60397959Y-90661167D01*
X60222696Y-90068500D01*
X59526254Y-92500411D01*
X59470328Y-92694917D01*
X59293238Y-93300606D01*
X59128165Y-93850367D01*
X58981835Y-94322772D01*
X58860970Y-94696394D01*
X58772297Y-94949805D01*
X58722539Y-95061577D01*
X58599284Y-95141050D01*
X58371446Y-95186048D01*
X58137123Y-95168210D01*
X57977117Y-95085000D01*
X57929108Y-94987403D01*
X57843287Y-94754847D01*
X57736778Y-94429170D01*
X57622393Y-94047833D01*
X57532012Y-93733072D01*
X57369678Y-93167618D01*
X57244403Y-92737561D01*
X57148641Y-92424510D01*
X57074850Y-92210076D01*
X57015482Y-92075868D01*
X56962995Y-92003497D01*
X56909842Y-91974572D01*
X56848479Y-91970703D01*
X56771361Y-91973500D01*
X56695124Y-91976298D01*
X56543353Y-92034747D01*
X56470122Y-92206333D01*
X56322267Y-92779553D01*
X56095765Y-93405898D01*
X55808731Y-93949003D01*
X55439313Y-94456577D01*
X55214229Y-94706104D01*
X54707062Y-95156235D01*
X54141872Y-95540716D01*
X53563437Y-95831043D01*
X53016540Y-95998713D01*
X52709333Y-96056345D01*
X52709333Y-95536265D01*
X52710217Y-95421096D01*
X52726894Y-95166524D01*
X52772574Y-95028395D01*
X52857500Y-94967385D01*
X53490425Y-94694258D01*
X54138443Y-94251442D01*
X54681236Y-93688560D01*
X55103035Y-93022420D01*
X55388072Y-92269833D01*
X55464743Y-91900418D01*
X55492806Y-91178881D01*
X55369189Y-90474766D01*
X55105268Y-89807821D01*
X54712422Y-89197789D01*
X54202026Y-88664418D01*
X53585459Y-88227454D01*
X52874097Y-87906642D01*
X52380968Y-87785913D01*
X51675746Y-87744165D01*
X50967397Y-87836784D01*
X50308740Y-88060599D01*
X50055698Y-88190209D01*
X49419684Y-88632582D01*
X48895163Y-89177739D01*
X48493700Y-89804806D01*
X48226862Y-90492907D01*
X48106217Y-91221166D01*
X48143330Y-91968707D01*
X48152680Y-92024592D01*
X48367649Y-92781589D01*
X48727265Y-93464592D01*
X49217046Y-94055855D01*
X49822507Y-94537630D01*
X50529166Y-94892171D01*
X50931333Y-95044505D01*
X50931333Y-96059656D01*
X50613833Y-96008371D01*
X50479442Y-95981248D01*
X49978140Y-95806274D01*
X49440833Y-95522864D01*
X48911387Y-95156671D01*
X48433666Y-94733350D01*
X48169908Y-94448264D01*
X47714076Y-93822252D01*
X47386540Y-93137425D01*
X47163237Y-92348613D01*
X47096329Y-91935142D01*
X47078498Y-91088900D01*
X47213272Y-90266748D01*
X47489399Y-89486710D01*
X47895628Y-88766809D01*
X48420705Y-88125072D01*
X49053379Y-87579521D01*
X49782396Y-87148182D01*
X50596506Y-86849079D01*
X50855353Y-86795182D01*
X51383154Y-86740667D01*
X51963135Y-86732313D01*
X52525697Y-86769991D01*
G37*
X52525697Y-86769991D02*
X53001238Y-86853570D01*
X53178817Y-86904046D01*
X53951703Y-87226026D01*
X54659416Y-87685479D01*
X55281684Y-88261037D01*
X55798233Y-88931333D01*
X56188790Y-89674999D01*
X56433081Y-90470667D01*
X56531339Y-90957500D01*
X57116051Y-90957500D01*
X57142799Y-90957520D01*
X57431435Y-90966379D01*
X57638146Y-91009257D01*
X57787443Y-91112226D01*
X57903838Y-91301360D01*
X58011842Y-91602733D01*
X58135966Y-92042419D01*
X58171877Y-92170048D01*
X58263926Y-92451390D01*
X58338888Y-92614191D01*
X58386874Y-92635086D01*
X58390035Y-92628234D01*
X58434768Y-92496490D01*
X58517956Y-92227059D01*
X58633138Y-91841739D01*
X58773855Y-91362329D01*
X58933646Y-90810629D01*
X59106050Y-90208436D01*
X59133171Y-90113420D01*
X59306838Y-89516624D01*
X59470440Y-88973353D01*
X59616968Y-88505544D01*
X59739410Y-88135136D01*
X59830755Y-87884066D01*
X59883992Y-87774270D01*
X59923361Y-87741246D01*
X60148074Y-87663562D01*
X60401687Y-87685531D01*
X60599340Y-87803667D01*
X60606542Y-87814045D01*
X60669357Y-87959917D01*
X60768713Y-88242755D01*
X60897595Y-88640438D01*
X61048990Y-89130843D01*
X61215884Y-89691849D01*
X61391262Y-90301333D01*
X61432554Y-90446877D01*
X61601636Y-91035526D01*
X61756339Y-91562776D01*
X61890462Y-92008279D01*
X61997803Y-92351688D01*
X62072161Y-92572656D01*
X62107333Y-92650833D01*
X62111768Y-92646342D01*
X62156739Y-92532660D01*
X62239433Y-92280987D01*
X62353648Y-91911670D01*
X62493183Y-91445057D01*
X62651836Y-90901495D01*
X62823405Y-90301333D01*
X62856933Y-90183252D01*
X63031243Y-89581248D01*
X63195740Y-89031910D01*
X63343412Y-88557361D01*
X63467242Y-88179723D01*
X63560218Y-87921117D01*
X63615326Y-87803667D01*
X63652878Y-87766955D01*
X63871010Y-87671604D01*
X64124802Y-87672399D01*
X64329392Y-87772987D01*
X64392208Y-87884529D01*
X64489254Y-88128070D01*
X64603585Y-88463178D01*
X64721623Y-88852487D01*
X64798172Y-89120751D01*
X64964050Y-89701802D01*
X65092667Y-90145833D01*
X65191421Y-90471176D01*
X65267713Y-90696166D01*
X65328944Y-90839136D01*
X65382511Y-90918421D01*
X65435816Y-90952354D01*
X65496258Y-90959269D01*
X65571236Y-90957500D01*
X65705644Y-90945385D01*
X65789857Y-90882994D01*
X65849332Y-90731389D01*
X65910160Y-90451628D01*
X65951393Y-90275122D01*
X66142997Y-89724080D01*
X66418763Y-89149534D01*
X66745518Y-88615216D01*
X67090086Y-88184858D01*
X67417302Y-87875224D01*
X68127192Y-87364969D01*
X68905009Y-86990799D01*
X69005247Y-86953706D01*
X69317669Y-86847008D01*
X69507533Y-86817725D01*
X69603216Y-86879082D01*
X69633092Y-87044304D01*
X69625540Y-87326618D01*
X69600333Y-87844403D01*
X69177000Y-88003265D01*
X68988330Y-88085851D01*
X68644743Y-88273564D01*
X68332356Y-88482337D01*
X68031454Y-88735035D01*
X67530117Y-89302828D01*
X67168764Y-89931493D01*
X66945165Y-90601421D01*
X66857094Y-91293003D01*
X66902323Y-91986632D01*
X67078624Y-92662699D01*
X67383770Y-93301596D01*
X67815533Y-93883716D01*
X68371686Y-94389449D01*
X69050000Y-94799187D01*
X69119789Y-94832515D01*
X69361915Y-94939333D01*
X69575029Y-95007045D01*
X69808707Y-95044480D01*
X70112525Y-95060466D01*
X70536058Y-95063833D01*
X70776805Y-95063323D01*
X71123711Y-95055630D01*
X71379444Y-95030546D01*
X71594915Y-94977881D01*
X71821034Y-94887444D01*
X72108710Y-94749046D01*
X72280110Y-94659037D01*
X72937717Y-94198214D01*
X73483362Y-93615432D01*
X73901277Y-92926722D01*
X73935589Y-92853813D01*
X74045123Y-92602912D01*
X74114449Y-92384956D01*
X74152683Y-92149386D01*
X74168940Y-91845643D01*
X74172333Y-91423167D01*
X74172196Y-91304981D01*
X74166472Y-90916546D01*
X74145633Y-90634352D01*
X74100564Y-90407837D01*
X74022150Y-90186443D01*
X73901277Y-89919611D01*
X73895862Y-89908229D01*
X73482745Y-89235147D01*
X72941912Y-88659064D01*
X72296297Y-88200050D01*
X71568833Y-87878179D01*
X71539744Y-87866370D01*
X71466601Y-87786778D01*
X71430403Y-87617660D01*
X71420666Y-87319490D01*
X71421045Y-87197689D01*
X71434877Y-86970573D01*
X71490538Y-86849402D01*
X71617305Y-86822297D01*
X71844453Y-86877380D01*
X72201258Y-87002772D01*
X72383343Y-87073359D01*
X73142031Y-87473099D01*
X73811288Y-88001036D01*
X74372970Y-88637437D01*
X74808931Y-89362565D01*
X75101026Y-90156685D01*
X75176919Y-90552132D01*
X75226154Y-91138138D01*
X75223222Y-91756753D01*
X75169011Y-92343128D01*
X75064408Y-92832415D01*
X74887661Y-93305321D01*
X74479513Y-94043577D01*
X73947987Y-94702636D01*
X73315217Y-95260870D01*
X72603339Y-95696650D01*
X71834490Y-95988347D01*
X71736471Y-96011885D01*
X71294746Y-96076780D01*
X70769394Y-96108223D01*
X70222766Y-96105947D01*
X69717214Y-96069684D01*
X69315088Y-95999166D01*
X68497082Y-95698434D01*
X67754899Y-95256185D01*
X67110765Y-94689591D01*
X66578902Y-94013705D01*
X66173530Y-93243576D01*
X65908871Y-92394255D01*
X65822611Y-91992040D01*
X65225742Y-91958314D01*
X64944689Y-91934510D01*
X64669756Y-91878116D01*
X64532270Y-91791772D01*
X64510191Y-91753198D01*
X64432062Y-91561714D01*
X64333769Y-91271013D01*
X64231368Y-90927228D01*
X64185492Y-90767241D01*
X64094087Y-90474119D01*
X64020471Y-90271456D01*
X63977368Y-90195883D01*
X63976421Y-90196216D01*
X63938705Y-90284059D01*
X63862558Y-90512825D01*
X63754352Y-90861578D01*
X63620456Y-91309380D01*
X63467243Y-91835294D01*
X63301083Y-92418383D01*
X63177343Y-92857526D01*
X62990879Y-93517517D01*
X62840550Y-94039897D01*
X62719488Y-94440715D01*
X62620826Y-94736020D01*
X62537696Y-94941862D01*
X62463229Y-95074289D01*
X62390557Y-95149351D01*
X62312812Y-95183096D01*
X62223127Y-95191574D01*
X62114632Y-95190833D01*
X62078777Y-95190484D01*
X61825104Y-95151271D01*
X61693234Y-95038753D01*
X61678308Y-95003736D01*
X61614549Y-94817646D01*
X61516230Y-94505486D01*
X61391212Y-94093024D01*
X61247359Y-93606024D01*
X61092533Y-93070253D01*
X61046099Y-92907920D01*
X60882888Y-92338491D01*
X60726589Y-91794834D01*
X60587081Y-91311215D01*
X60474244Y-90921903D01*
X60397959Y-90661167D01*
X60222696Y-90068500D01*
X59526254Y-92500411D01*
X59470328Y-92694917D01*
X59293238Y-93300606D01*
X59128165Y-93850367D01*
X58981835Y-94322772D01*
X58860970Y-94696394D01*
X58772297Y-94949805D01*
X58722539Y-95061577D01*
X58599284Y-95141050D01*
X58371446Y-95186048D01*
X58137123Y-95168210D01*
X57977117Y-95085000D01*
X57929108Y-94987403D01*
X57843287Y-94754847D01*
X57736778Y-94429170D01*
X57622393Y-94047833D01*
X57532012Y-93733072D01*
X57369678Y-93167618D01*
X57244403Y-92737561D01*
X57148641Y-92424510D01*
X57074850Y-92210076D01*
X57015482Y-92075868D01*
X56962995Y-92003497D01*
X56909842Y-91974572D01*
X56848479Y-91970703D01*
X56771361Y-91973500D01*
X56695124Y-91976298D01*
X56543353Y-92034747D01*
X56470122Y-92206333D01*
X56322267Y-92779553D01*
X56095765Y-93405898D01*
X55808731Y-93949003D01*
X55439313Y-94456577D01*
X55214229Y-94706104D01*
X54707062Y-95156235D01*
X54141872Y-95540716D01*
X53563437Y-95831043D01*
X53016540Y-95998713D01*
X52709333Y-96056345D01*
X52709333Y-95536265D01*
X52710217Y-95421096D01*
X52726894Y-95166524D01*
X52772574Y-95028395D01*
X52857500Y-94967385D01*
X53490425Y-94694258D01*
X54138443Y-94251442D01*
X54681236Y-93688560D01*
X55103035Y-93022420D01*
X55388072Y-92269833D01*
X55464743Y-91900418D01*
X55492806Y-91178881D01*
X55369189Y-90474766D01*
X55105268Y-89807821D01*
X54712422Y-89197789D01*
X54202026Y-88664418D01*
X53585459Y-88227454D01*
X52874097Y-87906642D01*
X52380968Y-87785913D01*
X51675746Y-87744165D01*
X50967397Y-87836784D01*
X50308740Y-88060599D01*
X50055698Y-88190209D01*
X49419684Y-88632582D01*
X48895163Y-89177739D01*
X48493700Y-89804806D01*
X48226862Y-90492907D01*
X48106217Y-91221166D01*
X48143330Y-91968707D01*
X48152680Y-92024592D01*
X48367649Y-92781589D01*
X48727265Y-93464592D01*
X49217046Y-94055855D01*
X49822507Y-94537630D01*
X50529166Y-94892171D01*
X50931333Y-95044505D01*
X50931333Y-96059656D01*
X50613833Y-96008371D01*
X50479442Y-95981248D01*
X49978140Y-95806274D01*
X49440833Y-95522864D01*
X48911387Y-95156671D01*
X48433666Y-94733350D01*
X48169908Y-94448264D01*
X47714076Y-93822252D01*
X47386540Y-93137425D01*
X47163237Y-92348613D01*
X47096329Y-91935142D01*
X47078498Y-91088900D01*
X47213272Y-90266748D01*
X47489399Y-89486710D01*
X47895628Y-88766809D01*
X48420705Y-88125072D01*
X49053379Y-87579521D01*
X49782396Y-87148182D01*
X50596506Y-86849079D01*
X50855353Y-86795182D01*
X51383154Y-86740667D01*
X51963135Y-86732313D01*
X52525697Y-86769991D01*
G36*
X254666850Y-94970700D02*
G01*
X253663550Y-94970700D01*
X253663550Y-88969950D01*
X252920600Y-88969950D01*
X252920600Y-94970700D01*
X251910950Y-94970700D01*
X251910950Y-91967150D01*
X249917050Y-91967150D01*
X249917050Y-94970930D01*
X248750238Y-94969055D01*
X248746627Y-94969050D01*
X248601717Y-94968834D01*
X248468926Y-94968656D01*
X248347688Y-94968494D01*
X248237436Y-94968324D01*
X248137602Y-94968124D01*
X248047620Y-94967872D01*
X247966922Y-94967544D01*
X247894942Y-94967119D01*
X247831113Y-94966573D01*
X247774868Y-94965884D01*
X247725639Y-94965030D01*
X247682861Y-94963988D01*
X247645966Y-94962735D01*
X247614386Y-94961248D01*
X247587556Y-94959506D01*
X247564909Y-94957485D01*
X247545876Y-94955163D01*
X247529892Y-94952517D01*
X247516389Y-94949525D01*
X247504801Y-94946164D01*
X247494560Y-94942411D01*
X247485100Y-94938245D01*
X247475853Y-94933641D01*
X247466253Y-94928579D01*
X247455733Y-94923034D01*
X247443725Y-94916985D01*
X247412752Y-94900555D01*
X247348007Y-94856164D01*
X247291714Y-94802583D01*
X247244380Y-94740429D01*
X247206509Y-94670320D01*
X247178608Y-94592875D01*
X247164325Y-94542075D01*
X247162684Y-91254362D01*
X247161042Y-87966650D01*
X248170800Y-87966650D01*
X248170800Y-93961050D01*
X248913541Y-93961050D01*
X248915382Y-92667237D01*
X248915475Y-92602228D01*
X248915690Y-92456323D01*
X248915901Y-92322368D01*
X248916114Y-92199837D01*
X248916332Y-92088201D01*
X248916563Y-91986933D01*
X248916810Y-91895505D01*
X248917080Y-91813390D01*
X248917377Y-91740060D01*
X248917707Y-91674987D01*
X248918075Y-91617644D01*
X248918487Y-91567504D01*
X248918947Y-91524038D01*
X248919461Y-91486720D01*
X248920035Y-91455021D01*
X248920673Y-91428414D01*
X248921381Y-91406371D01*
X248922164Y-91388365D01*
X248923028Y-91373868D01*
X248923978Y-91362352D01*
X248925018Y-91353291D01*
X248926155Y-91346155D01*
X248927393Y-91340419D01*
X248928739Y-91335553D01*
X248929668Y-91332526D01*
X248959635Y-91255705D01*
X248999273Y-91186209D01*
X249047811Y-91124760D01*
X249104477Y-91072080D01*
X249168499Y-91028891D01*
X249239104Y-90995916D01*
X249315520Y-90973877D01*
X249319727Y-90973090D01*
X249327569Y-90971964D01*
X249337560Y-90970932D01*
X249350228Y-90969990D01*
X249366100Y-90969134D01*
X249385704Y-90968360D01*
X249409567Y-90967664D01*
X249438217Y-90967041D01*
X249472181Y-90966489D01*
X249511987Y-90966002D01*
X249558163Y-90965578D01*
X249611236Y-90965211D01*
X249671733Y-90964898D01*
X249740183Y-90964636D01*
X249817112Y-90964419D01*
X249903048Y-90964244D01*
X249998519Y-90964107D01*
X250104052Y-90964003D01*
X250220176Y-90963930D01*
X250347416Y-90963883D01*
X250486302Y-90963857D01*
X250637359Y-90963850D01*
X251910654Y-90963850D01*
X251912425Y-89676387D01*
X251914195Y-88388925D01*
X251928186Y-88339718D01*
X251938307Y-88308577D01*
X251959128Y-88258158D01*
X251983959Y-88209746D01*
X252010246Y-88168664D01*
X252019821Y-88156135D01*
X252069093Y-88103373D01*
X252127987Y-88056247D01*
X252194480Y-88016207D01*
X252266550Y-87984707D01*
X252307825Y-87969825D01*
X253487338Y-87968139D01*
X254666850Y-87966454D01*
X254666850Y-94970700D01*
G37*
X254666850Y-94970700D02*
X253663550Y-94970700D01*
X253663550Y-88969950D01*
X252920600Y-88969950D01*
X252920600Y-94970700D01*
X251910950Y-94970700D01*
X251910950Y-91967150D01*
X249917050Y-91967150D01*
X249917050Y-94970930D01*
X248750238Y-94969055D01*
X248746627Y-94969050D01*
X248601717Y-94968834D01*
X248468926Y-94968656D01*
X248347688Y-94968494D01*
X248237436Y-94968324D01*
X248137602Y-94968124D01*
X248047620Y-94967872D01*
X247966922Y-94967544D01*
X247894942Y-94967119D01*
X247831113Y-94966573D01*
X247774868Y-94965884D01*
X247725639Y-94965030D01*
X247682861Y-94963988D01*
X247645966Y-94962735D01*
X247614386Y-94961248D01*
X247587556Y-94959506D01*
X247564909Y-94957485D01*
X247545876Y-94955163D01*
X247529892Y-94952517D01*
X247516389Y-94949525D01*
X247504801Y-94946164D01*
X247494560Y-94942411D01*
X247485100Y-94938245D01*
X247475853Y-94933641D01*
X247466253Y-94928579D01*
X247455733Y-94923034D01*
X247443725Y-94916985D01*
X247412752Y-94900555D01*
X247348007Y-94856164D01*
X247291714Y-94802583D01*
X247244380Y-94740429D01*
X247206509Y-94670320D01*
X247178608Y-94592875D01*
X247164325Y-94542075D01*
X247162684Y-91254362D01*
X247161042Y-87966650D01*
X248170800Y-87966650D01*
X248170800Y-93961050D01*
X248913541Y-93961050D01*
X248915382Y-92667237D01*
X248915475Y-92602228D01*
X248915690Y-92456323D01*
X248915901Y-92322368D01*
X248916114Y-92199837D01*
X248916332Y-92088201D01*
X248916563Y-91986933D01*
X248916810Y-91895505D01*
X248917080Y-91813390D01*
X248917377Y-91740060D01*
X248917707Y-91674987D01*
X248918075Y-91617644D01*
X248918487Y-91567504D01*
X248918947Y-91524038D01*
X248919461Y-91486720D01*
X248920035Y-91455021D01*
X248920673Y-91428414D01*
X248921381Y-91406371D01*
X248922164Y-91388365D01*
X248923028Y-91373868D01*
X248923978Y-91362352D01*
X248925018Y-91353291D01*
X248926155Y-91346155D01*
X248927393Y-91340419D01*
X248928739Y-91335553D01*
X248929668Y-91332526D01*
X248959635Y-91255705D01*
X248999273Y-91186209D01*
X249047811Y-91124760D01*
X249104477Y-91072080D01*
X249168499Y-91028891D01*
X249239104Y-90995916D01*
X249315520Y-90973877D01*
X249319727Y-90973090D01*
X249327569Y-90971964D01*
X249337560Y-90970932D01*
X249350228Y-90969990D01*
X249366100Y-90969134D01*
X249385704Y-90968360D01*
X249409567Y-90967664D01*
X249438217Y-90967041D01*
X249472181Y-90966489D01*
X249511987Y-90966002D01*
X249558163Y-90965578D01*
X249611236Y-90965211D01*
X249671733Y-90964898D01*
X249740183Y-90964636D01*
X249817112Y-90964419D01*
X249903048Y-90964244D01*
X249998519Y-90964107D01*
X250104052Y-90964003D01*
X250220176Y-90963930D01*
X250347416Y-90963883D01*
X250486302Y-90963857D01*
X250637359Y-90963850D01*
X251910654Y-90963850D01*
X251912425Y-89676387D01*
X251914195Y-88388925D01*
X251928186Y-88339718D01*
X251938307Y-88308577D01*
X251959128Y-88258158D01*
X251983959Y-88209746D01*
X252010246Y-88168664D01*
X252019821Y-88156135D01*
X252069093Y-88103373D01*
X252127987Y-88056247D01*
X252194480Y-88016207D01*
X252266550Y-87984707D01*
X252307825Y-87969825D01*
X253487338Y-87968139D01*
X254666850Y-87966454D01*
X254666850Y-94970700D01*
M02*
