M48
; DRILL file {KiCad 6.0.4-6f826c9f35~116~ubuntu22.04.1} date Wed 06 Apr 2022 02:05:03 CEST
; FORMAT={-:-/ absolute / metric / decimal}
; #@! TF.CreationDate,2022-04-06T02:05:03+02:00
; #@! TF.GenerationSoftware,Kicad,Pcbnew,6.0.4-6f826c9f35~116~ubuntu22.04.1
; #@! TF.FileFunction,NonPlated,1,2,NPTH
FMAT,2
METRIC
; #@! TA.AperFunction,NonPlated,NPTH,ComponentDrill
T1C1.700
; #@! TA.AperFunction,NonPlated,NPTH,ComponentDrill
T2C1.750
; #@! TA.AperFunction,NonPlated,NPTH,ComponentDrill
T3C3.048
; #@! TA.AperFunction,NonPlated,NPTH,ComponentDrill
T4C3.988
%
G90
G05
T1
X36.474Y-84.23
X36.474Y-103.23
X36.474Y-122.23
X36.474Y-141.231
X47.474Y-84.23
X47.474Y-103.23
X47.474Y-122.23
X47.474Y-141.231
X55.474Y-84.23
X55.474Y-103.23
X55.474Y-122.23
X55.474Y-141.231
X66.474Y-84.23
X66.474Y-103.23
X66.474Y-122.23
X66.474Y-141.231
X74.474Y-84.23
X74.474Y-103.23
X74.474Y-122.23
X74.474Y-141.231
X85.474Y-84.23
X85.474Y-103.23
X85.474Y-122.23
X85.474Y-141.231
X93.474Y-84.23
X93.474Y-103.23
X93.474Y-122.23
X93.474Y-141.231
X104.474Y-84.23
X104.474Y-103.23
X104.474Y-122.23
X104.474Y-141.231
X112.474Y-84.23
X112.474Y-103.23
X112.474Y-122.23
X112.474Y-141.231
X123.474Y-84.23
X123.474Y-103.23
X123.474Y-122.23
X123.474Y-141.231
X131.474Y-84.23
X131.474Y-103.23
X131.474Y-122.23
X131.474Y-141.231
X142.474Y-84.23
X142.474Y-103.23
X142.474Y-122.23
X142.474Y-141.231
X150.474Y-84.23
X150.474Y-103.23
X150.474Y-122.23
X150.474Y-141.231
X161.474Y-84.23
X161.474Y-103.23
X161.474Y-122.23
X161.474Y-141.231
X169.474Y-84.23
X169.474Y-103.23
X169.474Y-122.23
X169.474Y-141.231
X180.474Y-84.23
X180.474Y-103.23
X180.474Y-122.23
X180.474Y-141.231
X188.474Y-84.23
X188.474Y-103.23
X188.474Y-122.23
X188.474Y-141.231
X199.474Y-84.23
X199.474Y-103.23
X199.474Y-122.23
X199.474Y-141.231
X207.474Y-84.23
X207.474Y-103.23
X207.474Y-122.23
X207.474Y-141.231
X218.474Y-84.23
X218.474Y-103.23
X218.474Y-122.23
X218.474Y-141.231
X226.474Y-84.23
X226.474Y-103.23
X226.474Y-122.23
X226.474Y-141.231
X237.474Y-84.23
X237.474Y-103.23
X237.474Y-122.23
X237.474Y-141.231
X245.474Y-84.23
X245.474Y-103.23
X245.474Y-122.23
X245.474Y-141.231
X256.474Y-84.23
X256.474Y-103.23
X256.474Y-122.23
X256.474Y-141.231
T2
X36.894Y-84.23
X36.894Y-103.23
X36.894Y-122.23
X36.894Y-141.231
X47.054Y-84.23
X47.054Y-103.23
X47.054Y-122.23
X47.054Y-141.231
X55.894Y-84.23
X55.894Y-103.23
X55.894Y-122.23
X55.894Y-141.231
X66.054Y-84.23
X66.054Y-103.23
X66.054Y-122.23
X66.054Y-141.231
X74.894Y-84.23
X74.894Y-103.23
X74.894Y-122.23
X74.894Y-141.231
X85.054Y-84.23
X85.054Y-103.23
X85.054Y-122.23
X85.054Y-141.231
X93.894Y-84.23
X93.894Y-103.23
X93.894Y-122.23
X93.894Y-141.231
X104.054Y-84.23
X104.054Y-103.23
X104.054Y-122.23
X104.054Y-141.231
X112.894Y-84.23
X112.894Y-103.23
X112.894Y-122.23
X112.894Y-141.231
X123.054Y-84.23
X123.054Y-103.23
X123.054Y-122.23
X123.054Y-141.231
X131.894Y-84.23
X131.894Y-103.23
X131.894Y-122.23
X131.894Y-141.231
X141.394Y-141.231
X142.054Y-84.23
X142.054Y-103.23
X142.054Y-122.23
X142.054Y-141.231
X150.894Y-84.23
X150.894Y-103.23
X150.894Y-122.23
X150.894Y-141.231
X151.554Y-141.231
X161.054Y-84.23
X161.054Y-103.23
X161.054Y-122.23
X161.054Y-141.231
X169.894Y-84.23
X169.894Y-103.23
X169.894Y-122.23
X169.894Y-141.231
X180.054Y-84.23
X180.054Y-103.23
X180.054Y-122.23
X180.054Y-141.231
X188.894Y-84.23
X188.894Y-103.23
X188.894Y-122.23
X188.894Y-141.231
X199.054Y-84.23
X199.054Y-103.23
X199.054Y-122.23
X199.054Y-141.231
X207.894Y-84.23
X207.894Y-103.23
X207.894Y-122.23
X207.894Y-141.231
X218.054Y-84.23
X218.054Y-103.23
X218.054Y-122.23
X218.054Y-141.231
X226.894Y-84.23
X226.894Y-103.23
X226.894Y-122.23
X226.894Y-141.231
X237.054Y-84.23
X237.054Y-103.23
X237.054Y-122.23
X237.054Y-141.231
X245.894Y-84.23
X245.894Y-103.23
X245.894Y-122.23
X245.894Y-141.231
X256.054Y-84.23
X256.054Y-103.23
X256.054Y-122.23
X256.054Y-141.231
T3
X134.568Y-148.215
X158.38Y-148.215
T4
X41.974Y-84.23
X41.974Y-103.23
X41.974Y-122.23
X41.974Y-141.231
X60.974Y-84.23
X60.974Y-103.23
X60.974Y-122.23
X60.974Y-141.231
X79.974Y-84.23
X79.974Y-103.23
X79.974Y-122.23
X79.974Y-141.231
X98.974Y-84.23
X98.974Y-103.23
X98.974Y-122.23
X98.974Y-141.231
X117.974Y-84.23
X117.974Y-103.23
X117.974Y-122.23
X117.974Y-141.231
X134.568Y-132.975
X136.974Y-84.23
X136.974Y-103.23
X136.974Y-122.23
X136.974Y-141.231
X146.474Y-141.231
X155.974Y-84.23
X155.974Y-103.23
X155.974Y-122.23
X155.974Y-141.231
X158.38Y-132.975
X174.974Y-84.23
X174.974Y-103.23
X174.974Y-122.23
X174.974Y-141.231
X193.974Y-84.23
X193.974Y-103.23
X193.974Y-122.23
X193.974Y-141.231
X212.974Y-84.23
X212.974Y-103.23
X212.974Y-122.23
X212.974Y-141.231
X231.974Y-84.23
X231.974Y-103.23
X231.974Y-122.23
X231.974Y-141.231
X250.974Y-84.23
X250.974Y-103.23
X250.974Y-122.23
X250.974Y-141.231
T0
M30
