M48
; DRILL file {KiCad 6.0.4-6f826c9f35~116~ubuntu22.04.1} date Wed 06 Apr 2022 02:05:03 CEST
; FORMAT={-:-/ absolute / metric / decimal}
; #@! TF.CreationDate,2022-04-06T02:05:03+02:00
; #@! TF.GenerationSoftware,Kicad,Pcbnew,6.0.4-6f826c9f35~116~ubuntu22.04.1
; #@! TF.FileFunction,Plated,1,2,PTH
FMAT,2
METRIC
; #@! TA.AperFunction,Plated,PTH,ViaDrill
T1C0.400
; #@! TA.AperFunction,Plated,PTH,ComponentDrill
T2C0.400
; #@! TA.AperFunction,Plated,PTH,ViaDrill
T3C0.600
; #@! TA.AperFunction,Plated,PTH,ComponentDrill
T4C0.600
; #@! TA.AperFunction,Plated,PTH,ComponentDrill
T5C0.700
; #@! TA.AperFunction,Plated,PTH,ViaDrill
T6C0.800
; #@! TA.AperFunction,Plated,PTH,ComponentDrill
T7C0.800
; #@! TA.AperFunction,Plated,PTH,ComponentDrill
T8C0.813
; #@! TA.AperFunction,Plated,PTH,ComponentDrill
T9C1.100
; #@! TA.AperFunction,Plated,PTH,ComponentDrill
T10C1.200
; #@! TA.AperFunction,Plated,PTH,ComponentDrill
T11C1.470
; #@! TA.AperFunction,Plated,PTH,ComponentDrill
T12C2.200
%
G90
G05
T1
X46.449Y-60.155
X46.894Y-114.971
X53.924Y-59.18
X58.849Y-90.505
X59.024Y-128.03
X59.124Y-109.68
X59.374Y-60.155
X61.699Y-71.156
X69.399Y-59.355
X73.899Y-75.18
X77.074Y-127.956
X77.099Y-60.155
X77.449Y-90.18
X77.449Y-109.255
X78.649Y-68.18
X83.149Y-59.855
X88.224Y-68.055
X94.974Y-109.055
X96.107Y-80.138
X96.499Y-77.73
X97.924Y-59.855
X98.624Y-127.905
X102.324Y-60.18
X102.474Y-81.855
X104.599Y-87.78
X105.899Y-60.155
X106.899Y-96.206
X113.149Y-76.13
X114.249Y-96.03
X114.849Y-127.855
X117.049Y-60.105
X117.674Y-67.505
X120.324Y-60.206
X128.349Y-60.405
X131.049Y-97.255
X132.149Y-76.255
X133.374Y-127.081
X133.399Y-109.405
X137.624Y-67.305
X140.649Y-60.206
X143.224Y-127.18
X152.124Y-111.93
X152.299Y-74.706
X152.524Y-97.38
X154.099Y-129.405
X166.614Y-73.59
X168.299Y-79.581
X171.374Y-96.905
X171.774Y-129.481
X182.864Y-68.17
X184.524Y-80.456
X186.064Y-64.281
X187.234Y-66.38
X188.328Y-95.377
X191.099Y-129.481
X193.549Y-68.331
X204.449Y-66.581
X204.799Y-85.655
X211.674Y-127.405
X215.799Y-74.355
X220.274Y-76.331
X222.499Y-95.38
X223.549Y-85.905
X223.624Y-65.531
X226.449Y-72.73
X227.799Y-128.456
X228.449Y-109.805
X230.599Y-55.03
X241.499Y-78.38
X243.899Y-57.755
X245.474Y-89.43
X249.174Y-128.28
T2
X227.614Y-60.045
X227.619Y-61.37
X228.464Y-60.045
X228.469Y-61.37
X229.314Y-60.045
X229.319Y-61.37
X230.164Y-60.045
X230.169Y-61.37
X231.014Y-60.045
X231.019Y-61.37
X231.864Y-60.045
X231.869Y-61.37
X232.714Y-60.045
X232.719Y-61.37
X233.569Y-60.045
X233.569Y-61.37
T3
X34.474Y-62.73
X34.474Y-74.73
X34.474Y-93.73
X34.474Y-112.73
X34.474Y-131.731
X34.474Y-148.731
X51.474Y-148.731
X70.474Y-148.731
X89.474Y-148.731
X108.474Y-148.731
X122.898Y-89.688
X127.474Y-148.731
X141.907Y-91.698
X142.757Y-92.548
X146.464Y-148.97
X161.498Y-94.156
X162.348Y-95.006
X165.474Y-148.731
X167.349Y-76.555
X178.574Y-94.131
X180.504Y-91.726
X184.306Y-87.012
X184.474Y-148.731
X188.303Y-54.381
X188.303Y-57.81
X190.589Y-54.381
X194.399Y-54.381
X198.209Y-54.381
X202.146Y-54.381
X203.474Y-148.731
X205.829Y-54.381
X219.799Y-73.304
X222.339Y-73.304
X222.474Y-148.731
X241.474Y-148.731
X258.474Y-62.73
X258.474Y-74.73
X258.474Y-93.73
X258.474Y-112.73
X258.474Y-131.731
X258.474Y-148.731
T4
X179.806Y-68.23
X181.306Y-68.23
T5
X40.094Y-61.62
X40.094Y-66.7
X42.634Y-62.89
X42.634Y-67.971
X45.174Y-64.16
X45.174Y-69.24
X47.714Y-65.43
X47.714Y-70.51
X50.254Y-61.62
X50.254Y-66.7
X52.794Y-62.89
X52.794Y-67.971
X55.334Y-64.16
X55.334Y-69.24
X57.874Y-65.43
X57.874Y-70.51
X60.414Y-61.62
X60.414Y-66.7
X62.954Y-62.89
X62.954Y-67.971
X65.494Y-64.16
X65.494Y-69.24
X68.034Y-65.43
X68.034Y-70.51
X70.574Y-61.62
X70.574Y-66.7
X73.114Y-62.89
X73.114Y-67.971
X75.654Y-64.16
X75.654Y-69.24
X78.194Y-65.43
X78.194Y-70.51
X80.734Y-61.62
X80.734Y-66.7
X83.274Y-62.89
X83.274Y-67.971
X85.814Y-64.16
X85.814Y-69.24
X88.354Y-65.43
X88.354Y-70.51
X90.894Y-61.62
X90.894Y-66.7
X93.434Y-62.89
X93.434Y-67.971
X95.974Y-64.16
X95.974Y-69.24
X98.514Y-65.43
X98.514Y-70.51
X101.054Y-61.62
X101.054Y-66.7
X103.594Y-62.89
X103.594Y-67.971
X106.134Y-64.16
X106.134Y-69.24
X108.674Y-65.43
X108.674Y-70.51
X111.214Y-61.62
X111.214Y-66.7
X113.754Y-62.89
X113.754Y-67.971
X116.294Y-64.16
X116.294Y-69.24
X118.834Y-65.43
X118.834Y-70.51
X121.374Y-61.62
X121.374Y-66.7
X123.914Y-62.89
X123.914Y-67.971
X126.454Y-64.16
X126.454Y-69.24
X128.994Y-65.43
X128.994Y-70.51
X131.534Y-61.62
X131.534Y-66.7
X134.074Y-62.89
X134.074Y-67.971
X136.614Y-64.16
X136.614Y-69.24
X139.154Y-65.43
X139.154Y-70.51
X141.694Y-61.62
X141.694Y-66.7
X144.234Y-62.89
X144.234Y-67.971
X146.774Y-64.16
X146.774Y-69.24
X149.314Y-65.43
X149.314Y-70.51
X151.854Y-61.62
X151.854Y-66.7
X154.394Y-62.89
X154.394Y-67.971
X156.934Y-64.16
X156.934Y-69.24
X159.474Y-65.43
X159.474Y-70.51
X178.016Y-64.23
X183.096Y-64.23
X213.449Y-55.27
X213.449Y-57.81
X213.449Y-60.35
X218.529Y-55.27
X218.529Y-57.81
X218.529Y-60.35
X221.069Y-55.27
X221.069Y-60.35
X223.609Y-55.27
X223.609Y-60.35
X232.699Y-65.406
X232.699Y-70.505
X237.579Y-55.27
X237.579Y-60.35
X240.119Y-55.27
X240.119Y-60.35
X242.654Y-55.275
X242.654Y-60.355
X245.194Y-55.275
X245.194Y-60.355
T6
X187.294Y-74.26
X208.369Y-67.59
X232.724Y-67.59
T7
X165.114Y-66.555
X165.114Y-69.096
X167.654Y-66.555
X167.654Y-69.096
X170.194Y-66.555
X170.194Y-69.096
X190.589Y-57.81
X190.589Y-60.31
X190.589Y-62.89
X190.589Y-70.51
X193.129Y-62.89
X193.129Y-70.51
X195.669Y-62.89
X195.669Y-70.51
X195.769Y-58.445
X198.209Y-62.89
X198.209Y-70.51
X200.649Y-58.445
X200.749Y-62.89
X200.749Y-70.51
X203.289Y-62.89
X203.289Y-70.51
X203.289Y-73.05
X205.829Y-57.81
X205.829Y-60.31
X205.829Y-62.89
X205.829Y-70.51
X208.289Y-73.05
X208.369Y-55.35
X208.369Y-60.35
X208.369Y-62.89
X208.369Y-70.51
X210.909Y-62.89
X210.909Y-70.51
X213.449Y-62.89
X213.449Y-70.51
X215.989Y-62.89
X215.989Y-70.51
X218.529Y-62.89
X218.529Y-70.51
X221.069Y-62.89
X221.069Y-70.51
X223.609Y-62.89
X223.609Y-70.51
T8
X250.473Y-59.917
X250.473Y-62.457
X250.473Y-64.997
X250.473Y-67.537
T9
X164.404Y-56.54
X164.404Y-61.04
X170.904Y-56.54
X170.904Y-61.04
X177.104Y-56.54
X177.104Y-61.04
X183.604Y-56.54
X183.604Y-61.04
T10
X41.974Y-78.331
X41.974Y-97.331
X41.974Y-116.331
X41.974Y-135.331
X46.974Y-80.43
X46.974Y-99.43
X46.974Y-118.43
X46.974Y-137.43
X60.974Y-78.331
X60.974Y-97.331
X60.974Y-116.331
X60.974Y-135.331
X65.974Y-80.43
X65.974Y-99.43
X65.974Y-118.43
X65.974Y-137.43
X79.974Y-78.331
X79.974Y-97.331
X79.974Y-116.331
X79.974Y-135.331
X84.974Y-80.43
X84.974Y-99.43
X84.974Y-118.43
X84.974Y-137.43
X98.974Y-78.331
X98.974Y-97.331
X98.974Y-116.331
X98.974Y-135.331
X103.974Y-80.43
X103.974Y-99.43
X103.974Y-118.43
X103.974Y-137.43
X117.974Y-78.331
X117.974Y-97.331
X117.974Y-116.331
X117.974Y-135.331
X122.974Y-80.43
X122.974Y-99.43
X122.974Y-118.43
X122.974Y-137.43
X131.974Y-145.03
X136.974Y-78.331
X136.974Y-97.331
X136.974Y-116.331
X136.974Y-147.13
X141.474Y-145.03
X141.974Y-80.43
X141.974Y-99.43
X141.974Y-118.43
X146.474Y-147.13
X150.974Y-145.03
X155.974Y-78.331
X155.974Y-97.331
X155.974Y-116.331
X155.974Y-147.13
X160.974Y-80.43
X160.974Y-99.43
X160.974Y-118.43
X174.974Y-78.331
X174.974Y-97.331
X174.974Y-116.331
X174.974Y-135.331
X179.974Y-80.43
X179.974Y-99.43
X179.974Y-118.43
X179.974Y-137.43
X193.974Y-78.331
X193.974Y-97.331
X193.974Y-116.331
X193.974Y-135.331
X198.974Y-80.43
X198.974Y-99.43
X198.974Y-118.43
X198.974Y-137.43
X212.974Y-78.331
X212.974Y-97.331
X212.974Y-116.331
X212.974Y-135.331
X217.974Y-80.43
X217.974Y-99.43
X217.974Y-118.43
X217.974Y-137.43
X231.974Y-78.331
X231.974Y-97.331
X231.974Y-116.331
X231.974Y-135.331
X236.974Y-80.43
X236.974Y-99.43
X236.974Y-118.43
X236.974Y-137.43
X250.974Y-78.331
X250.974Y-97.331
X250.974Y-116.331
X250.974Y-135.331
X255.974Y-80.43
X255.974Y-99.43
X255.974Y-118.43
X255.974Y-137.43
T11
X38.164Y-81.691
X38.164Y-100.691
X38.164Y-119.691
X38.164Y-138.69
X44.514Y-79.15
X44.514Y-98.15
X44.514Y-117.15
X44.514Y-136.15
X57.164Y-81.691
X57.164Y-100.691
X57.164Y-119.691
X57.164Y-138.69
X63.514Y-79.15
X63.514Y-98.15
X63.514Y-117.15
X63.514Y-136.15
X76.164Y-81.691
X76.164Y-100.691
X76.164Y-119.691
X76.164Y-138.69
X82.514Y-79.15
X82.514Y-98.15
X82.514Y-117.15
X82.514Y-136.15
X95.164Y-81.691
X95.164Y-100.691
X95.164Y-119.691
X95.164Y-138.69
X101.514Y-79.15
X101.514Y-98.15
X101.514Y-117.15
X101.514Y-136.15
X114.164Y-81.691
X114.164Y-100.691
X114.164Y-119.691
X114.164Y-138.69
X120.514Y-79.15
X120.514Y-98.15
X120.514Y-117.15
X120.514Y-136.15
X133.164Y-81.691
X133.164Y-100.691
X133.164Y-119.691
X133.164Y-138.69
X139.514Y-79.15
X139.514Y-98.15
X139.514Y-117.15
X139.514Y-136.15
X142.664Y-138.69
X149.014Y-136.15
X152.164Y-81.691
X152.164Y-100.691
X152.164Y-119.691
X152.164Y-138.69
X158.514Y-79.15
X158.514Y-98.15
X158.514Y-117.15
X158.514Y-136.15
X171.164Y-81.691
X171.164Y-100.691
X171.164Y-119.691
X171.164Y-138.69
X177.514Y-79.15
X177.514Y-98.15
X177.514Y-117.15
X177.514Y-136.15
X190.164Y-81.691
X190.164Y-100.691
X190.164Y-119.691
X190.164Y-138.69
X196.514Y-79.15
X196.514Y-98.15
X196.514Y-117.15
X196.514Y-136.15
X209.164Y-81.691
X209.164Y-100.691
X209.164Y-119.691
X209.164Y-138.69
X215.514Y-79.15
X215.514Y-98.15
X215.514Y-117.15
X215.514Y-136.15
X228.164Y-81.691
X228.164Y-100.691
X228.164Y-119.691
X228.164Y-138.69
X234.514Y-79.15
X234.514Y-98.15
X234.514Y-117.15
X234.514Y-136.15
X247.164Y-81.691
X247.164Y-100.691
X247.164Y-119.691
X247.164Y-138.69
X253.514Y-79.15
X253.514Y-98.15
X253.514Y-117.15
X253.514Y-136.15
T12
X36.474Y-56.73
X36.474Y-70.73
X51.474Y-112.73
X89.474Y-93.73
X89.474Y-131.731
X203.474Y-93.73
X203.474Y-131.731
X241.474Y-112.73
X256.474Y-56.73
X256.474Y-70.73
T4
G00X226.269Y-57.41
M15
G01X226.269Y-56.61
M16
G05
G00X226.269Y-61.14
M15
G01X226.269Y-59.64
M16
G05
G00X234.919Y-57.41
M15
G01X234.919Y-56.61
M16
G05
G00X234.919Y-61.14
M15
G01X234.919Y-59.64
M16
G05
T0
M30
