%FSLAX45Y45*%
G04 Gerber Fmt 4.5, Leading zero omitted, Abs format (unit mm)*
G04 Created by KiCad (PCBNEW 6.0.4-6f826c9f35~116~ubuntu22.04.1) date 2022-04-06 02:05:02*
%MOMM*%
%LPD*%
G01*
G04 APERTURE LIST*
%TA.AperFunction,Profile*%
%ADD10C,0.150000*%
%TD*%
%ADD11C,0.200000*%
%ADD12C,0.170000*%
%ADD13C,0.175000*%
%ADD14C,0.304800*%
%ADD15C,0.398780*%
G04 APERTURE END LIST*
D10*
X25797400Y-5273050D02*
X3497400Y-5273050D01*
X26047400Y-5523050D02*
X26047400Y-14823050D01*
X25797400Y-15073050D02*
X3497400Y-15073050D01*
X3247400Y-14823050D02*
X3247400Y-5523050D01*
X3497400Y-5273050D02*
G75*
G03*
X3247400Y-5523050I0J-250000D01*
G01*
X26047400Y-5523050D02*
G75*
G03*
X25797400Y-5273050I-250000J0D01*
G01*
X25797400Y-15073050D02*
G75*
G03*
X26047400Y-14823050I0J250000D01*
G01*
X3247400Y-14823050D02*
G75*
G03*
X3497400Y-15073050I250000J0D01*
G01*
D11*
D12*
X3562400Y-8338050D02*
X3732400Y-8508050D01*
X3732400Y-8338050D02*
X3562400Y-8508050D01*
X3562400Y-10238050D02*
X3732400Y-10408050D01*
X3732400Y-10238050D02*
X3562400Y-10408050D01*
X3562400Y-12138050D02*
X3732400Y-12308050D01*
X3732400Y-12138050D02*
X3562400Y-12308050D01*
X3562400Y-14038050D02*
X3732400Y-14208050D01*
X3732400Y-14038050D02*
X3562400Y-14208050D01*
X4662400Y-8338050D02*
X4832400Y-8508050D01*
X4832400Y-8338050D02*
X4662400Y-8508050D01*
X4662400Y-10238050D02*
X4832400Y-10408050D01*
X4832400Y-10238050D02*
X4662400Y-10408050D01*
X4662400Y-12138050D02*
X4832400Y-12308050D01*
X4832400Y-12138050D02*
X4662400Y-12308050D01*
X4662400Y-14038050D02*
X4832400Y-14208050D01*
X4832400Y-14038050D02*
X4662400Y-14208050D01*
X5462400Y-8338050D02*
X5632400Y-8508050D01*
X5632400Y-8338050D02*
X5462400Y-8508050D01*
X5462400Y-10238050D02*
X5632400Y-10408050D01*
X5632400Y-10238050D02*
X5462400Y-10408050D01*
X5462400Y-12138050D02*
X5632400Y-12308050D01*
X5632400Y-12138050D02*
X5462400Y-12308050D01*
X5462400Y-14038050D02*
X5632400Y-14208050D01*
X5632400Y-14038050D02*
X5462400Y-14208050D01*
X6562400Y-8338050D02*
X6732400Y-8508050D01*
X6732400Y-8338050D02*
X6562400Y-8508050D01*
X6562400Y-10238050D02*
X6732400Y-10408050D01*
X6732400Y-10238050D02*
X6562400Y-10408050D01*
X6562400Y-12138050D02*
X6732400Y-12308050D01*
X6732400Y-12138050D02*
X6562400Y-12308050D01*
X6562400Y-14038050D02*
X6732400Y-14208050D01*
X6732400Y-14038050D02*
X6562400Y-14208050D01*
X7362400Y-8338050D02*
X7532400Y-8508050D01*
X7532400Y-8338050D02*
X7362400Y-8508050D01*
X7362400Y-10238050D02*
X7532400Y-10408050D01*
X7532400Y-10238050D02*
X7362400Y-10408050D01*
X7362400Y-12138050D02*
X7532400Y-12308050D01*
X7532400Y-12138050D02*
X7362400Y-12308050D01*
X7362400Y-14038050D02*
X7532400Y-14208050D01*
X7532400Y-14038050D02*
X7362400Y-14208050D01*
X8462400Y-8338050D02*
X8632400Y-8508050D01*
X8632400Y-8338050D02*
X8462400Y-8508050D01*
X8462400Y-10238050D02*
X8632400Y-10408050D01*
X8632400Y-10238050D02*
X8462400Y-10408050D01*
X8462400Y-12138050D02*
X8632400Y-12308050D01*
X8632400Y-12138050D02*
X8462400Y-12308050D01*
X8462400Y-14038050D02*
X8632400Y-14208050D01*
X8632400Y-14038050D02*
X8462400Y-14208050D01*
X9262400Y-8338050D02*
X9432400Y-8508050D01*
X9432400Y-8338050D02*
X9262400Y-8508050D01*
X9262400Y-10238050D02*
X9432400Y-10408050D01*
X9432400Y-10238050D02*
X9262400Y-10408050D01*
X9262400Y-12138050D02*
X9432400Y-12308050D01*
X9432400Y-12138050D02*
X9262400Y-12308050D01*
X9262400Y-14038050D02*
X9432400Y-14208050D01*
X9432400Y-14038050D02*
X9262400Y-14208050D01*
X10362400Y-8338050D02*
X10532400Y-8508050D01*
X10532400Y-8338050D02*
X10362400Y-8508050D01*
X10362400Y-10238050D02*
X10532400Y-10408050D01*
X10532400Y-10238050D02*
X10362400Y-10408050D01*
X10362400Y-12138050D02*
X10532400Y-12308050D01*
X10532400Y-12138050D02*
X10362400Y-12308050D01*
X10362400Y-14038050D02*
X10532400Y-14208050D01*
X10532400Y-14038050D02*
X10362400Y-14208050D01*
X11162400Y-8338050D02*
X11332400Y-8508050D01*
X11332400Y-8338050D02*
X11162400Y-8508050D01*
X11162400Y-10238050D02*
X11332400Y-10408050D01*
X11332400Y-10238050D02*
X11162400Y-10408050D01*
X11162400Y-12138050D02*
X11332400Y-12308050D01*
X11332400Y-12138050D02*
X11162400Y-12308050D01*
X11162400Y-14038050D02*
X11332400Y-14208050D01*
X11332400Y-14038050D02*
X11162400Y-14208050D01*
X12262400Y-8338050D02*
X12432400Y-8508050D01*
X12432400Y-8338050D02*
X12262400Y-8508050D01*
X12262400Y-10238050D02*
X12432400Y-10408050D01*
X12432400Y-10238050D02*
X12262400Y-10408050D01*
X12262400Y-12138050D02*
X12432400Y-12308050D01*
X12432400Y-12138050D02*
X12262400Y-12308050D01*
X12262400Y-14038050D02*
X12432400Y-14208050D01*
X12432400Y-14038050D02*
X12262400Y-14208050D01*
X13062400Y-8338050D02*
X13232400Y-8508050D01*
X13232400Y-8338050D02*
X13062400Y-8508050D01*
X13062400Y-10238050D02*
X13232400Y-10408050D01*
X13232400Y-10238050D02*
X13062400Y-10408050D01*
X13062400Y-12138050D02*
X13232400Y-12308050D01*
X13232400Y-12138050D02*
X13062400Y-12308050D01*
X13062400Y-14038050D02*
X13232400Y-14208050D01*
X13232400Y-14038050D02*
X13062400Y-14208050D01*
X14162400Y-8338050D02*
X14332400Y-8508050D01*
X14332400Y-8338050D02*
X14162400Y-8508050D01*
X14162400Y-10238050D02*
X14332400Y-10408050D01*
X14332400Y-10238050D02*
X14162400Y-10408050D01*
X14162400Y-12138050D02*
X14332400Y-12308050D01*
X14332400Y-12138050D02*
X14162400Y-12308050D01*
X14162400Y-14038050D02*
X14332400Y-14208050D01*
X14332400Y-14038050D02*
X14162400Y-14208050D01*
X14962400Y-8338050D02*
X15132400Y-8508050D01*
X15132400Y-8338050D02*
X14962400Y-8508050D01*
X14962400Y-10238050D02*
X15132400Y-10408050D01*
X15132400Y-10238050D02*
X14962400Y-10408050D01*
X14962400Y-12138050D02*
X15132400Y-12308050D01*
X15132400Y-12138050D02*
X14962400Y-12308050D01*
X14962400Y-14038050D02*
X15132400Y-14208050D01*
X15132400Y-14038050D02*
X14962400Y-14208050D01*
X16062400Y-8338050D02*
X16232400Y-8508050D01*
X16232400Y-8338050D02*
X16062400Y-8508050D01*
X16062400Y-10238050D02*
X16232400Y-10408050D01*
X16232400Y-10238050D02*
X16062400Y-10408050D01*
X16062400Y-12138050D02*
X16232400Y-12308050D01*
X16232400Y-12138050D02*
X16062400Y-12308050D01*
X16062400Y-14038050D02*
X16232400Y-14208050D01*
X16232400Y-14038050D02*
X16062400Y-14208050D01*
X16862400Y-8338050D02*
X17032400Y-8508050D01*
X17032400Y-8338050D02*
X16862400Y-8508050D01*
X16862400Y-10238050D02*
X17032400Y-10408050D01*
X17032400Y-10238050D02*
X16862400Y-10408050D01*
X16862400Y-12138050D02*
X17032400Y-12308050D01*
X17032400Y-12138050D02*
X16862400Y-12308050D01*
X16862400Y-14038050D02*
X17032400Y-14208050D01*
X17032400Y-14038050D02*
X16862400Y-14208050D01*
X17962400Y-8338050D02*
X18132400Y-8508050D01*
X18132400Y-8338050D02*
X17962400Y-8508050D01*
X17962400Y-10238050D02*
X18132400Y-10408050D01*
X18132400Y-10238050D02*
X17962400Y-10408050D01*
X17962400Y-12138050D02*
X18132400Y-12308050D01*
X18132400Y-12138050D02*
X17962400Y-12308050D01*
X17962400Y-14038050D02*
X18132400Y-14208050D01*
X18132400Y-14038050D02*
X17962400Y-14208050D01*
X18762400Y-8338050D02*
X18932400Y-8508050D01*
X18932400Y-8338050D02*
X18762400Y-8508050D01*
X18762400Y-10238050D02*
X18932400Y-10408050D01*
X18932400Y-10238050D02*
X18762400Y-10408050D01*
X18762400Y-12138050D02*
X18932400Y-12308050D01*
X18932400Y-12138050D02*
X18762400Y-12308050D01*
X18762400Y-14038050D02*
X18932400Y-14208050D01*
X18932400Y-14038050D02*
X18762400Y-14208050D01*
X19862400Y-8338050D02*
X20032400Y-8508050D01*
X20032400Y-8338050D02*
X19862400Y-8508050D01*
X19862400Y-10238050D02*
X20032400Y-10408050D01*
X20032400Y-10238050D02*
X19862400Y-10408050D01*
X19862400Y-12138050D02*
X20032400Y-12308050D01*
X20032400Y-12138050D02*
X19862400Y-12308050D01*
X19862400Y-14038050D02*
X20032400Y-14208050D01*
X20032400Y-14038050D02*
X19862400Y-14208050D01*
X20662400Y-8338050D02*
X20832400Y-8508050D01*
X20832400Y-8338050D02*
X20662400Y-8508050D01*
X20662400Y-10238050D02*
X20832400Y-10408050D01*
X20832400Y-10238050D02*
X20662400Y-10408050D01*
X20662400Y-12138050D02*
X20832400Y-12308050D01*
X20832400Y-12138050D02*
X20662400Y-12308050D01*
X20662400Y-14038050D02*
X20832400Y-14208050D01*
X20832400Y-14038050D02*
X20662400Y-14208050D01*
X21762400Y-8338050D02*
X21932400Y-8508050D01*
X21932400Y-8338050D02*
X21762400Y-8508050D01*
X21762400Y-10238050D02*
X21932400Y-10408050D01*
X21932400Y-10238050D02*
X21762400Y-10408050D01*
X21762400Y-12138050D02*
X21932400Y-12308050D01*
X21932400Y-12138050D02*
X21762400Y-12308050D01*
X21762400Y-14038050D02*
X21932400Y-14208050D01*
X21932400Y-14038050D02*
X21762400Y-14208050D01*
X22562400Y-8338050D02*
X22732400Y-8508050D01*
X22732400Y-8338050D02*
X22562400Y-8508050D01*
X22562400Y-10238050D02*
X22732400Y-10408050D01*
X22732400Y-10238050D02*
X22562400Y-10408050D01*
X22562400Y-12138050D02*
X22732400Y-12308050D01*
X22732400Y-12138050D02*
X22562400Y-12308050D01*
X22562400Y-14038050D02*
X22732400Y-14208050D01*
X22732400Y-14038050D02*
X22562400Y-14208050D01*
X23662400Y-8338050D02*
X23832400Y-8508050D01*
X23832400Y-8338050D02*
X23662400Y-8508050D01*
X23662400Y-10238050D02*
X23832400Y-10408050D01*
X23832400Y-10238050D02*
X23662400Y-10408050D01*
X23662400Y-12138050D02*
X23832400Y-12308050D01*
X23832400Y-12138050D02*
X23662400Y-12308050D01*
X23662400Y-14038050D02*
X23832400Y-14208050D01*
X23832400Y-14038050D02*
X23662400Y-14208050D01*
X24462400Y-8338050D02*
X24632400Y-8508050D01*
X24632400Y-8338050D02*
X24462400Y-8508050D01*
X24462400Y-10238050D02*
X24632400Y-10408050D01*
X24632400Y-10238050D02*
X24462400Y-10408050D01*
X24462400Y-12138050D02*
X24632400Y-12308050D01*
X24632400Y-12138050D02*
X24462400Y-12308050D01*
X24462400Y-14038050D02*
X24632400Y-14208050D01*
X24632400Y-14038050D02*
X24462400Y-14208050D01*
X25562400Y-8338050D02*
X25732400Y-8508050D01*
X25732400Y-8338050D02*
X25562400Y-8508050D01*
X25562400Y-10238050D02*
X25732400Y-10408050D01*
X25732400Y-10238050D02*
X25562400Y-10408050D01*
X25562400Y-12138050D02*
X25732400Y-12308050D01*
X25732400Y-12138050D02*
X25562400Y-12308050D01*
X25562400Y-14038050D02*
X25732400Y-14208050D01*
X25732400Y-14038050D02*
X25562400Y-14208050D01*
D13*
X3776900Y-8423050D02*
G75*
G03*
X3776900Y-8423050I-87500J0D01*
G01*
X3776900Y-10323050D02*
G75*
G03*
X3776900Y-10323050I-87500J0D01*
G01*
X3776900Y-12223050D02*
G75*
G03*
X3776900Y-12223050I-87500J0D01*
G01*
X3776900Y-14123050D02*
G75*
G03*
X3776900Y-14123050I-87500J0D01*
G01*
X4792900Y-8423050D02*
G75*
G03*
X4792900Y-8423050I-87500J0D01*
G01*
X4792900Y-10323050D02*
G75*
G03*
X4792900Y-10323050I-87500J0D01*
G01*
X4792900Y-12223050D02*
G75*
G03*
X4792900Y-12223050I-87500J0D01*
G01*
X4792900Y-14123050D02*
G75*
G03*
X4792900Y-14123050I-87500J0D01*
G01*
X5676900Y-8423050D02*
G75*
G03*
X5676900Y-8423050I-87500J0D01*
G01*
X5676900Y-10323050D02*
G75*
G03*
X5676900Y-10323050I-87500J0D01*
G01*
X5676900Y-12223050D02*
G75*
G03*
X5676900Y-12223050I-87500J0D01*
G01*
X5676900Y-14123050D02*
G75*
G03*
X5676900Y-14123050I-87500J0D01*
G01*
X6692900Y-8423050D02*
G75*
G03*
X6692900Y-8423050I-87500J0D01*
G01*
X6692900Y-10323050D02*
G75*
G03*
X6692900Y-10323050I-87500J0D01*
G01*
X6692900Y-12223050D02*
G75*
G03*
X6692900Y-12223050I-87500J0D01*
G01*
X6692900Y-14123050D02*
G75*
G03*
X6692900Y-14123050I-87500J0D01*
G01*
X7576900Y-8423050D02*
G75*
G03*
X7576900Y-8423050I-87500J0D01*
G01*
X7576900Y-10323050D02*
G75*
G03*
X7576900Y-10323050I-87500J0D01*
G01*
X7576900Y-12223050D02*
G75*
G03*
X7576900Y-12223050I-87500J0D01*
G01*
X7576900Y-14123050D02*
G75*
G03*
X7576900Y-14123050I-87500J0D01*
G01*
X8592900Y-8423050D02*
G75*
G03*
X8592900Y-8423050I-87500J0D01*
G01*
X8592900Y-10323050D02*
G75*
G03*
X8592900Y-10323050I-87500J0D01*
G01*
X8592900Y-12223050D02*
G75*
G03*
X8592900Y-12223050I-87500J0D01*
G01*
X8592900Y-14123050D02*
G75*
G03*
X8592900Y-14123050I-87500J0D01*
G01*
X9476900Y-8423050D02*
G75*
G03*
X9476900Y-8423050I-87500J0D01*
G01*
X9476900Y-10323050D02*
G75*
G03*
X9476900Y-10323050I-87500J0D01*
G01*
X9476900Y-12223050D02*
G75*
G03*
X9476900Y-12223050I-87500J0D01*
G01*
X9476900Y-14123050D02*
G75*
G03*
X9476900Y-14123050I-87500J0D01*
G01*
X10492900Y-8423050D02*
G75*
G03*
X10492900Y-8423050I-87500J0D01*
G01*
X10492900Y-10323050D02*
G75*
G03*
X10492900Y-10323050I-87500J0D01*
G01*
X10492900Y-12223050D02*
G75*
G03*
X10492900Y-12223050I-87500J0D01*
G01*
X10492900Y-14123050D02*
G75*
G03*
X10492900Y-14123050I-87500J0D01*
G01*
X11376900Y-8423050D02*
G75*
G03*
X11376900Y-8423050I-87500J0D01*
G01*
X11376900Y-10323050D02*
G75*
G03*
X11376900Y-10323050I-87500J0D01*
G01*
X11376900Y-12223050D02*
G75*
G03*
X11376900Y-12223050I-87500J0D01*
G01*
X11376900Y-14123050D02*
G75*
G03*
X11376900Y-14123050I-87500J0D01*
G01*
X12392900Y-8423050D02*
G75*
G03*
X12392900Y-8423050I-87500J0D01*
G01*
X12392900Y-10323050D02*
G75*
G03*
X12392900Y-10323050I-87500J0D01*
G01*
X12392900Y-12223050D02*
G75*
G03*
X12392900Y-12223050I-87500J0D01*
G01*
X12392900Y-14123050D02*
G75*
G03*
X12392900Y-14123050I-87500J0D01*
G01*
X13276900Y-8423050D02*
G75*
G03*
X13276900Y-8423050I-87500J0D01*
G01*
X13276900Y-10323050D02*
G75*
G03*
X13276900Y-10323050I-87500J0D01*
G01*
X13276900Y-12223050D02*
G75*
G03*
X13276900Y-12223050I-87500J0D01*
G01*
X13276900Y-14123050D02*
G75*
G03*
X13276900Y-14123050I-87500J0D01*
G01*
X14226900Y-14123050D02*
G75*
G03*
X14226900Y-14123050I-87500J0D01*
G01*
X14292900Y-8423050D02*
G75*
G03*
X14292900Y-8423050I-87500J0D01*
G01*
X14292900Y-10323050D02*
G75*
G03*
X14292900Y-10323050I-87500J0D01*
G01*
X14292900Y-12223050D02*
G75*
G03*
X14292900Y-12223050I-87500J0D01*
G01*
X14292900Y-14123050D02*
G75*
G03*
X14292900Y-14123050I-87500J0D01*
G01*
X15176900Y-8423050D02*
G75*
G03*
X15176900Y-8423050I-87500J0D01*
G01*
X15176900Y-10323050D02*
G75*
G03*
X15176900Y-10323050I-87500J0D01*
G01*
X15176900Y-12223050D02*
G75*
G03*
X15176900Y-12223050I-87500J0D01*
G01*
X15176900Y-14123050D02*
G75*
G03*
X15176900Y-14123050I-87500J0D01*
G01*
X15242900Y-14123050D02*
G75*
G03*
X15242900Y-14123050I-87500J0D01*
G01*
X16192900Y-8423050D02*
G75*
G03*
X16192900Y-8423050I-87500J0D01*
G01*
X16192900Y-10323050D02*
G75*
G03*
X16192900Y-10323050I-87500J0D01*
G01*
X16192900Y-12223050D02*
G75*
G03*
X16192900Y-12223050I-87500J0D01*
G01*
X16192900Y-14123050D02*
G75*
G03*
X16192900Y-14123050I-87500J0D01*
G01*
X17076900Y-8423050D02*
G75*
G03*
X17076900Y-8423050I-87500J0D01*
G01*
X17076900Y-10323050D02*
G75*
G03*
X17076900Y-10323050I-87500J0D01*
G01*
X17076900Y-12223050D02*
G75*
G03*
X17076900Y-12223050I-87500J0D01*
G01*
X17076900Y-14123050D02*
G75*
G03*
X17076900Y-14123050I-87500J0D01*
G01*
X18092900Y-8423050D02*
G75*
G03*
X18092900Y-8423050I-87500J0D01*
G01*
X18092900Y-10323050D02*
G75*
G03*
X18092900Y-10323050I-87500J0D01*
G01*
X18092900Y-12223050D02*
G75*
G03*
X18092900Y-12223050I-87500J0D01*
G01*
X18092900Y-14123050D02*
G75*
G03*
X18092900Y-14123050I-87500J0D01*
G01*
X18976900Y-8423050D02*
G75*
G03*
X18976900Y-8423050I-87500J0D01*
G01*
X18976900Y-10323050D02*
G75*
G03*
X18976900Y-10323050I-87500J0D01*
G01*
X18976900Y-12223050D02*
G75*
G03*
X18976900Y-12223050I-87500J0D01*
G01*
X18976900Y-14123050D02*
G75*
G03*
X18976900Y-14123050I-87500J0D01*
G01*
X19992900Y-8423050D02*
G75*
G03*
X19992900Y-8423050I-87500J0D01*
G01*
X19992900Y-10323050D02*
G75*
G03*
X19992900Y-10323050I-87500J0D01*
G01*
X19992900Y-12223050D02*
G75*
G03*
X19992900Y-12223050I-87500J0D01*
G01*
X19992900Y-14123050D02*
G75*
G03*
X19992900Y-14123050I-87500J0D01*
G01*
X20876900Y-8423050D02*
G75*
G03*
X20876900Y-8423050I-87500J0D01*
G01*
X20876900Y-10323050D02*
G75*
G03*
X20876900Y-10323050I-87500J0D01*
G01*
X20876900Y-12223050D02*
G75*
G03*
X20876900Y-12223050I-87500J0D01*
G01*
X20876900Y-14123050D02*
G75*
G03*
X20876900Y-14123050I-87500J0D01*
G01*
X21892900Y-8423050D02*
G75*
G03*
X21892900Y-8423050I-87500J0D01*
G01*
X21892900Y-10323050D02*
G75*
G03*
X21892900Y-10323050I-87500J0D01*
G01*
X21892900Y-12223050D02*
G75*
G03*
X21892900Y-12223050I-87500J0D01*
G01*
X21892900Y-14123050D02*
G75*
G03*
X21892900Y-14123050I-87500J0D01*
G01*
X22776900Y-8423050D02*
G75*
G03*
X22776900Y-8423050I-87500J0D01*
G01*
X22776900Y-10323050D02*
G75*
G03*
X22776900Y-10323050I-87500J0D01*
G01*
X22776900Y-12223050D02*
G75*
G03*
X22776900Y-12223050I-87500J0D01*
G01*
X22776900Y-14123050D02*
G75*
G03*
X22776900Y-14123050I-87500J0D01*
G01*
X23792900Y-8423050D02*
G75*
G03*
X23792900Y-8423050I-87500J0D01*
G01*
X23792900Y-10323050D02*
G75*
G03*
X23792900Y-10323050I-87500J0D01*
G01*
X23792900Y-12223050D02*
G75*
G03*
X23792900Y-12223050I-87500J0D01*
G01*
X23792900Y-14123050D02*
G75*
G03*
X23792900Y-14123050I-87500J0D01*
G01*
X24676900Y-8423050D02*
G75*
G03*
X24676900Y-8423050I-87500J0D01*
G01*
X24676900Y-10323050D02*
G75*
G03*
X24676900Y-10323050I-87500J0D01*
G01*
X24676900Y-12223050D02*
G75*
G03*
X24676900Y-12223050I-87500J0D01*
G01*
X24676900Y-14123050D02*
G75*
G03*
X24676900Y-14123050I-87500J0D01*
G01*
X25692900Y-8423050D02*
G75*
G03*
X25692900Y-8423050I-87500J0D01*
G01*
X25692900Y-10323050D02*
G75*
G03*
X25692900Y-10323050I-87500J0D01*
G01*
X25692900Y-12223050D02*
G75*
G03*
X25692900Y-12223050I-87500J0D01*
G01*
X25692900Y-14123050D02*
G75*
G03*
X25692900Y-14123050I-87500J0D01*
G01*
D14*
X13456775Y-14669150D02*
X13456775Y-14973950D01*
X13304375Y-14821550D02*
X13609175Y-14821550D01*
X15838025Y-14669150D02*
X15838025Y-14973950D01*
X15685625Y-14821550D02*
X15990425Y-14821550D01*
D15*
X4338391Y-8564041D02*
X4338391Y-8282059D01*
X4056409Y-8282059D01*
X4056409Y-8564041D01*
X4338391Y-8564041D01*
X4338391Y-10464041D02*
X4338391Y-10182059D01*
X4056409Y-10182059D01*
X4056409Y-10464041D01*
X4338391Y-10464041D01*
X4338391Y-12364041D02*
X4338391Y-12082059D01*
X4056409Y-12082059D01*
X4056409Y-12364041D01*
X4338391Y-12364041D01*
X4338391Y-14264041D02*
X4338391Y-13982059D01*
X4056409Y-13982059D01*
X4056409Y-14264041D01*
X4338391Y-14264041D01*
X6238391Y-8564041D02*
X6238391Y-8282059D01*
X5956409Y-8282059D01*
X5956409Y-8564041D01*
X6238391Y-8564041D01*
X6238391Y-10464041D02*
X6238391Y-10182059D01*
X5956409Y-10182059D01*
X5956409Y-10464041D01*
X6238391Y-10464041D01*
X6238391Y-12364041D02*
X6238391Y-12082059D01*
X5956409Y-12082059D01*
X5956409Y-12364041D01*
X6238391Y-12364041D01*
X6238391Y-14264041D02*
X6238391Y-13982059D01*
X5956409Y-13982059D01*
X5956409Y-14264041D01*
X6238391Y-14264041D01*
X8138391Y-8564041D02*
X8138391Y-8282059D01*
X7856409Y-8282059D01*
X7856409Y-8564041D01*
X8138391Y-8564041D01*
X8138391Y-10464041D02*
X8138391Y-10182059D01*
X7856409Y-10182059D01*
X7856409Y-10464041D01*
X8138391Y-10464041D01*
X8138391Y-12364041D02*
X8138391Y-12082059D01*
X7856409Y-12082059D01*
X7856409Y-12364041D01*
X8138391Y-12364041D01*
X8138391Y-14264041D02*
X8138391Y-13982059D01*
X7856409Y-13982059D01*
X7856409Y-14264041D01*
X8138391Y-14264041D01*
X10038391Y-8564041D02*
X10038391Y-8282059D01*
X9756409Y-8282059D01*
X9756409Y-8564041D01*
X10038391Y-8564041D01*
X10038391Y-10464041D02*
X10038391Y-10182059D01*
X9756409Y-10182059D01*
X9756409Y-10464041D01*
X10038391Y-10464041D01*
X10038391Y-12364041D02*
X10038391Y-12082059D01*
X9756409Y-12082059D01*
X9756409Y-12364041D01*
X10038391Y-12364041D01*
X10038391Y-14264041D02*
X10038391Y-13982059D01*
X9756409Y-13982059D01*
X9756409Y-14264041D01*
X10038391Y-14264041D01*
X11938391Y-8564041D02*
X11938391Y-8282059D01*
X11656409Y-8282059D01*
X11656409Y-8564041D01*
X11938391Y-8564041D01*
X11938391Y-10464041D02*
X11938391Y-10182059D01*
X11656409Y-10182059D01*
X11656409Y-10464041D01*
X11938391Y-10464041D01*
X11938391Y-12364041D02*
X11938391Y-12082059D01*
X11656409Y-12082059D01*
X11656409Y-12364041D01*
X11938391Y-12364041D01*
X11938391Y-14264041D02*
X11938391Y-13982059D01*
X11656409Y-13982059D01*
X11656409Y-14264041D01*
X11938391Y-14264041D01*
X13597766Y-13438541D02*
X13597766Y-13156559D01*
X13315784Y-13156559D01*
X13315784Y-13438541D01*
X13597766Y-13438541D01*
X13838391Y-8564041D02*
X13838391Y-8282059D01*
X13556409Y-8282059D01*
X13556409Y-8564041D01*
X13838391Y-8564041D01*
X13838391Y-10464041D02*
X13838391Y-10182059D01*
X13556409Y-10182059D01*
X13556409Y-10464041D01*
X13838391Y-10464041D01*
X13838391Y-12364041D02*
X13838391Y-12082059D01*
X13556409Y-12082059D01*
X13556409Y-12364041D01*
X13838391Y-12364041D01*
X13838391Y-14264041D02*
X13838391Y-13982059D01*
X13556409Y-13982059D01*
X13556409Y-14264041D01*
X13838391Y-14264041D01*
X14788391Y-14264041D02*
X14788391Y-13982059D01*
X14506409Y-13982059D01*
X14506409Y-14264041D01*
X14788391Y-14264041D01*
X15738391Y-8564041D02*
X15738391Y-8282059D01*
X15456409Y-8282059D01*
X15456409Y-8564041D01*
X15738391Y-8564041D01*
X15738391Y-10464041D02*
X15738391Y-10182059D01*
X15456409Y-10182059D01*
X15456409Y-10464041D01*
X15738391Y-10464041D01*
X15738391Y-12364041D02*
X15738391Y-12082059D01*
X15456409Y-12082059D01*
X15456409Y-12364041D01*
X15738391Y-12364041D01*
X15738391Y-14264041D02*
X15738391Y-13982059D01*
X15456409Y-13982059D01*
X15456409Y-14264041D01*
X15738391Y-14264041D01*
X15979016Y-13438541D02*
X15979016Y-13156559D01*
X15697034Y-13156559D01*
X15697034Y-13438541D01*
X15979016Y-13438541D01*
X17638391Y-8564041D02*
X17638391Y-8282059D01*
X17356409Y-8282059D01*
X17356409Y-8564041D01*
X17638391Y-8564041D01*
X17638391Y-10464041D02*
X17638391Y-10182059D01*
X17356409Y-10182059D01*
X17356409Y-10464041D01*
X17638391Y-10464041D01*
X17638391Y-12364041D02*
X17638391Y-12082059D01*
X17356409Y-12082059D01*
X17356409Y-12364041D01*
X17638391Y-12364041D01*
X17638391Y-14264041D02*
X17638391Y-13982059D01*
X17356409Y-13982059D01*
X17356409Y-14264041D01*
X17638391Y-14264041D01*
X19538391Y-8564041D02*
X19538391Y-8282059D01*
X19256409Y-8282059D01*
X19256409Y-8564041D01*
X19538391Y-8564041D01*
X19538391Y-10464041D02*
X19538391Y-10182059D01*
X19256409Y-10182059D01*
X19256409Y-10464041D01*
X19538391Y-10464041D01*
X19538391Y-12364041D02*
X19538391Y-12082059D01*
X19256409Y-12082059D01*
X19256409Y-12364041D01*
X19538391Y-12364041D01*
X19538391Y-14264041D02*
X19538391Y-13982059D01*
X19256409Y-13982059D01*
X19256409Y-14264041D01*
X19538391Y-14264041D01*
X21438391Y-8564041D02*
X21438391Y-8282059D01*
X21156409Y-8282059D01*
X21156409Y-8564041D01*
X21438391Y-8564041D01*
X21438391Y-10464041D02*
X21438391Y-10182059D01*
X21156409Y-10182059D01*
X21156409Y-10464041D01*
X21438391Y-10464041D01*
X21438391Y-12364041D02*
X21438391Y-12082059D01*
X21156409Y-12082059D01*
X21156409Y-12364041D01*
X21438391Y-12364041D01*
X21438391Y-14264041D02*
X21438391Y-13982059D01*
X21156409Y-13982059D01*
X21156409Y-14264041D01*
X21438391Y-14264041D01*
X23338391Y-8564041D02*
X23338391Y-8282059D01*
X23056409Y-8282059D01*
X23056409Y-8564041D01*
X23338391Y-8564041D01*
X23338391Y-10464041D02*
X23338391Y-10182059D01*
X23056409Y-10182059D01*
X23056409Y-10464041D01*
X23338391Y-10464041D01*
X23338391Y-12364041D02*
X23338391Y-12082059D01*
X23056409Y-12082059D01*
X23056409Y-12364041D01*
X23338391Y-12364041D01*
X23338391Y-14264041D02*
X23338391Y-13982059D01*
X23056409Y-13982059D01*
X23056409Y-14264041D01*
X23338391Y-14264041D01*
X25238391Y-8564041D02*
X25238391Y-8282059D01*
X24956409Y-8282059D01*
X24956409Y-8564041D01*
X25238391Y-8564041D01*
X25238391Y-10464041D02*
X25238391Y-10182059D01*
X24956409Y-10182059D01*
X24956409Y-10464041D01*
X25238391Y-10464041D01*
X25238391Y-12364041D02*
X25238391Y-12082059D01*
X24956409Y-12082059D01*
X24956409Y-12364041D01*
X25238391Y-12364041D01*
X25238391Y-14264041D02*
X25238391Y-13982059D01*
X24956409Y-13982059D01*
X24956409Y-14264041D01*
X25238391Y-14264041D01*
D11*
X3497519Y-15391026D02*
X3497519Y-15191026D01*
X3545138Y-15191026D01*
X3573709Y-15200550D01*
X3592757Y-15219598D01*
X3602281Y-15238645D01*
X3611805Y-15276740D01*
X3611805Y-15305312D01*
X3602281Y-15343407D01*
X3592757Y-15362455D01*
X3573709Y-15381502D01*
X3545138Y-15391026D01*
X3497519Y-15391026D01*
X3697519Y-15391026D02*
X3697519Y-15257693D01*
X3697519Y-15295788D02*
X3707043Y-15276740D01*
X3716567Y-15267217D01*
X3735614Y-15257693D01*
X3754662Y-15257693D01*
X3821328Y-15391026D02*
X3821328Y-15257693D01*
X3821328Y-15191026D02*
X3811805Y-15200550D01*
X3821328Y-15210074D01*
X3830852Y-15200550D01*
X3821328Y-15191026D01*
X3821328Y-15210074D01*
X3945138Y-15391026D02*
X3926090Y-15381502D01*
X3916567Y-15362455D01*
X3916567Y-15191026D01*
X4049900Y-15391026D02*
X4030852Y-15381502D01*
X4021328Y-15362455D01*
X4021328Y-15191026D01*
X4278471Y-15391026D02*
X4278471Y-15191026D01*
X4345138Y-15333883D01*
X4411805Y-15191026D01*
X4411805Y-15391026D01*
X4592757Y-15391026D02*
X4592757Y-15286264D01*
X4583233Y-15267217D01*
X4564186Y-15257693D01*
X4526090Y-15257693D01*
X4507043Y-15267217D01*
X4592757Y-15381502D02*
X4573710Y-15391026D01*
X4526090Y-15391026D01*
X4507043Y-15381502D01*
X4497519Y-15362455D01*
X4497519Y-15343407D01*
X4507043Y-15324359D01*
X4526090Y-15314836D01*
X4573710Y-15314836D01*
X4592757Y-15305312D01*
X4687995Y-15257693D02*
X4687995Y-15457693D01*
X4687995Y-15267217D02*
X4707043Y-15257693D01*
X4745138Y-15257693D01*
X4764186Y-15267217D01*
X4773710Y-15276740D01*
X4783233Y-15295788D01*
X4783233Y-15352931D01*
X4773710Y-15371978D01*
X4764186Y-15381502D01*
X4745138Y-15391026D01*
X4707043Y-15391026D01*
X4687995Y-15381502D01*
X4868948Y-15371978D02*
X4878471Y-15381502D01*
X4868948Y-15391026D01*
X4859424Y-15381502D01*
X4868948Y-15371978D01*
X4868948Y-15391026D01*
X4868948Y-15267217D02*
X4878471Y-15276740D01*
X4868948Y-15286264D01*
X4859424Y-15276740D01*
X4868948Y-15267217D01*
X4868948Y-15286264D01*
D12*
X3069900Y-15635550D02*
X3239900Y-15805550D01*
X3239900Y-15635550D02*
X3069900Y-15805550D01*
D11*
X3602281Y-15811026D02*
X3487995Y-15811026D01*
X3545138Y-15811026D02*
X3545138Y-15611026D01*
X3526090Y-15639598D01*
X3507043Y-15658645D01*
X3487995Y-15668169D01*
X3687995Y-15791978D02*
X3697519Y-15801502D01*
X3687995Y-15811026D01*
X3678471Y-15801502D01*
X3687995Y-15791978D01*
X3687995Y-15811026D01*
X3764186Y-15611026D02*
X3897519Y-15611026D01*
X3811805Y-15811026D01*
X4011805Y-15611026D02*
X4030852Y-15611026D01*
X4049900Y-15620550D01*
X4059424Y-15630074D01*
X4068948Y-15649121D01*
X4078471Y-15687217D01*
X4078471Y-15734836D01*
X4068948Y-15772931D01*
X4059424Y-15791978D01*
X4049900Y-15801502D01*
X4030852Y-15811026D01*
X4011805Y-15811026D01*
X3992757Y-15801502D01*
X3983233Y-15791978D01*
X3973709Y-15772931D01*
X3964186Y-15734836D01*
X3964186Y-15687217D01*
X3973709Y-15649121D01*
X3983233Y-15630074D01*
X3992757Y-15620550D01*
X4011805Y-15611026D01*
X4202281Y-15611026D02*
X4221329Y-15611026D01*
X4240376Y-15620550D01*
X4249900Y-15630074D01*
X4259424Y-15649121D01*
X4268948Y-15687217D01*
X4268948Y-15734836D01*
X4259424Y-15772931D01*
X4249900Y-15791978D01*
X4240376Y-15801502D01*
X4221329Y-15811026D01*
X4202281Y-15811026D01*
X4183233Y-15801502D01*
X4173709Y-15791978D01*
X4164186Y-15772931D01*
X4154662Y-15734836D01*
X4154662Y-15687217D01*
X4164186Y-15649121D01*
X4173709Y-15630074D01*
X4183233Y-15620550D01*
X4202281Y-15611026D01*
X4354662Y-15811026D02*
X4354662Y-15677693D01*
X4354662Y-15696740D02*
X4364186Y-15687217D01*
X4383233Y-15677693D01*
X4411805Y-15677693D01*
X4430852Y-15687217D01*
X4440376Y-15706264D01*
X4440376Y-15811026D01*
X4440376Y-15706264D02*
X4449900Y-15687217D01*
X4468948Y-15677693D01*
X4497519Y-15677693D01*
X4516567Y-15687217D01*
X4526090Y-15706264D01*
X4526090Y-15811026D01*
X4621329Y-15811026D02*
X4621329Y-15677693D01*
X4621329Y-15696740D02*
X4630852Y-15687217D01*
X4649900Y-15677693D01*
X4678471Y-15677693D01*
X4697519Y-15687217D01*
X4707043Y-15706264D01*
X4707043Y-15811026D01*
X4707043Y-15706264D02*
X4716567Y-15687217D01*
X4735614Y-15677693D01*
X4764186Y-15677693D01*
X4783233Y-15687217D01*
X4792757Y-15706264D01*
X4792757Y-15811026D01*
X5183233Y-15601502D02*
X5011805Y-15858645D01*
X5440376Y-15611026D02*
X5459424Y-15611026D01*
X5478471Y-15620550D01*
X5487995Y-15630074D01*
X5497519Y-15649121D01*
X5507043Y-15687217D01*
X5507043Y-15734836D01*
X5497519Y-15772931D01*
X5487995Y-15791978D01*
X5478471Y-15801502D01*
X5459424Y-15811026D01*
X5440376Y-15811026D01*
X5421329Y-15801502D01*
X5411805Y-15791978D01*
X5402281Y-15772931D01*
X5392757Y-15734836D01*
X5392757Y-15687217D01*
X5402281Y-15649121D01*
X5411805Y-15630074D01*
X5421329Y-15620550D01*
X5440376Y-15611026D01*
X5592757Y-15791978D02*
X5602281Y-15801502D01*
X5592757Y-15811026D01*
X5583233Y-15801502D01*
X5592757Y-15791978D01*
X5592757Y-15811026D01*
X5726090Y-15611026D02*
X5745138Y-15611026D01*
X5764186Y-15620550D01*
X5773709Y-15630074D01*
X5783233Y-15649121D01*
X5792757Y-15687217D01*
X5792757Y-15734836D01*
X5783233Y-15772931D01*
X5773709Y-15791978D01*
X5764186Y-15801502D01*
X5745138Y-15811026D01*
X5726090Y-15811026D01*
X5707043Y-15801502D01*
X5697519Y-15791978D01*
X5687995Y-15772931D01*
X5678471Y-15734836D01*
X5678471Y-15687217D01*
X5687995Y-15649121D01*
X5697519Y-15630074D01*
X5707043Y-15620550D01*
X5726090Y-15611026D01*
X5964186Y-15611026D02*
X5926090Y-15611026D01*
X5907043Y-15620550D01*
X5897519Y-15630074D01*
X5878471Y-15658645D01*
X5868948Y-15696740D01*
X5868948Y-15772931D01*
X5878471Y-15791978D01*
X5887995Y-15801502D01*
X5907043Y-15811026D01*
X5945138Y-15811026D01*
X5964186Y-15801502D01*
X5973709Y-15791978D01*
X5983233Y-15772931D01*
X5983233Y-15725312D01*
X5973709Y-15706264D01*
X5964186Y-15696740D01*
X5945138Y-15687217D01*
X5907043Y-15687217D01*
X5887995Y-15696740D01*
X5878471Y-15706264D01*
X5868948Y-15725312D01*
X6154662Y-15611026D02*
X6116567Y-15611026D01*
X6097519Y-15620550D01*
X6087995Y-15630074D01*
X6068948Y-15658645D01*
X6059424Y-15696740D01*
X6059424Y-15772931D01*
X6068948Y-15791978D01*
X6078471Y-15801502D01*
X6097519Y-15811026D01*
X6135614Y-15811026D01*
X6154662Y-15801502D01*
X6164186Y-15791978D01*
X6173709Y-15772931D01*
X6173709Y-15725312D01*
X6164186Y-15706264D01*
X6154662Y-15696740D01*
X6135614Y-15687217D01*
X6097519Y-15687217D01*
X6078471Y-15696740D01*
X6068948Y-15706264D01*
X6059424Y-15725312D01*
X6268948Y-15811026D02*
X6307043Y-15811026D01*
X6326090Y-15801502D01*
X6335614Y-15791978D01*
X6354662Y-15763407D01*
X6364186Y-15725312D01*
X6364186Y-15649121D01*
X6354662Y-15630074D01*
X6345138Y-15620550D01*
X6326090Y-15611026D01*
X6287995Y-15611026D01*
X6268948Y-15620550D01*
X6259424Y-15630074D01*
X6249900Y-15649121D01*
X6249900Y-15696740D01*
X6259424Y-15715788D01*
X6268948Y-15725312D01*
X6287995Y-15734836D01*
X6326090Y-15734836D01*
X6345138Y-15725312D01*
X6354662Y-15715788D01*
X6364186Y-15696740D01*
X6440376Y-15611026D02*
X6440376Y-15649121D01*
X6516567Y-15611026D02*
X6516567Y-15649121D01*
X6811805Y-15887217D02*
X6802281Y-15877693D01*
X6783233Y-15849121D01*
X6773709Y-15830074D01*
X6764186Y-15801502D01*
X6754662Y-15753883D01*
X6754662Y-15715788D01*
X6764186Y-15668169D01*
X6773709Y-15639598D01*
X6783233Y-15620550D01*
X6802281Y-15591978D01*
X6811805Y-15582455D01*
X6897519Y-15811026D02*
X6935614Y-15811026D01*
X6954662Y-15801502D01*
X6964186Y-15791978D01*
X6983233Y-15763407D01*
X6992757Y-15725312D01*
X6992757Y-15649121D01*
X6983233Y-15630074D01*
X6973709Y-15620550D01*
X6954662Y-15611026D01*
X6916567Y-15611026D01*
X6897519Y-15620550D01*
X6887995Y-15630074D01*
X6878471Y-15649121D01*
X6878471Y-15696740D01*
X6887995Y-15715788D01*
X6897519Y-15725312D01*
X6916567Y-15734836D01*
X6954662Y-15734836D01*
X6973709Y-15725312D01*
X6983233Y-15715788D01*
X6992757Y-15696740D01*
X7164186Y-15611026D02*
X7126090Y-15611026D01*
X7107043Y-15620550D01*
X7097519Y-15630074D01*
X7078471Y-15658645D01*
X7068948Y-15696740D01*
X7068948Y-15772931D01*
X7078471Y-15791978D01*
X7087995Y-15801502D01*
X7107043Y-15811026D01*
X7145138Y-15811026D01*
X7164186Y-15801502D01*
X7173709Y-15791978D01*
X7183233Y-15772931D01*
X7183233Y-15725312D01*
X7173709Y-15706264D01*
X7164186Y-15696740D01*
X7145138Y-15687217D01*
X7107043Y-15687217D01*
X7087995Y-15696740D01*
X7078471Y-15706264D01*
X7068948Y-15725312D01*
X7421328Y-15811026D02*
X7421328Y-15611026D01*
X7507043Y-15811026D02*
X7507043Y-15706264D01*
X7497519Y-15687217D01*
X7478471Y-15677693D01*
X7449900Y-15677693D01*
X7430852Y-15687217D01*
X7421328Y-15696740D01*
X7630852Y-15811026D02*
X7611805Y-15801502D01*
X7602281Y-15791978D01*
X7592757Y-15772931D01*
X7592757Y-15715788D01*
X7602281Y-15696740D01*
X7611805Y-15687217D01*
X7630852Y-15677693D01*
X7659424Y-15677693D01*
X7678471Y-15687217D01*
X7687995Y-15696740D01*
X7697519Y-15715788D01*
X7697519Y-15772931D01*
X7687995Y-15791978D01*
X7678471Y-15801502D01*
X7659424Y-15811026D01*
X7630852Y-15811026D01*
X7811805Y-15811026D02*
X7792757Y-15801502D01*
X7783233Y-15782455D01*
X7783233Y-15611026D01*
X7964186Y-15801502D02*
X7945138Y-15811026D01*
X7907043Y-15811026D01*
X7887995Y-15801502D01*
X7878471Y-15782455D01*
X7878471Y-15706264D01*
X7887995Y-15687217D01*
X7907043Y-15677693D01*
X7945138Y-15677693D01*
X7964186Y-15687217D01*
X7973709Y-15706264D01*
X7973709Y-15725312D01*
X7878471Y-15744359D01*
X8049900Y-15801502D02*
X8068948Y-15811026D01*
X8107043Y-15811026D01*
X8126090Y-15801502D01*
X8135614Y-15782455D01*
X8135614Y-15772931D01*
X8126090Y-15753883D01*
X8107043Y-15744359D01*
X8078471Y-15744359D01*
X8059424Y-15734836D01*
X8049900Y-15715788D01*
X8049900Y-15706264D01*
X8059424Y-15687217D01*
X8078471Y-15677693D01*
X8107043Y-15677693D01*
X8126090Y-15687217D01*
X8202281Y-15887217D02*
X8211805Y-15877693D01*
X8230852Y-15849121D01*
X8240376Y-15830074D01*
X8249900Y-15801502D01*
X8259424Y-15753883D01*
X8259424Y-15715788D01*
X8249900Y-15668169D01*
X8240376Y-15639598D01*
X8230852Y-15620550D01*
X8211805Y-15591978D01*
X8202281Y-15582455D01*
X8564186Y-15887217D02*
X8554662Y-15877693D01*
X8535614Y-15849121D01*
X8526090Y-15830074D01*
X8516567Y-15801502D01*
X8507043Y-15753883D01*
X8507043Y-15715788D01*
X8516567Y-15668169D01*
X8526090Y-15639598D01*
X8535614Y-15620550D01*
X8554662Y-15591978D01*
X8564186Y-15582455D01*
X8640376Y-15677693D02*
X8640376Y-15811026D01*
X8640376Y-15696740D02*
X8649900Y-15687217D01*
X8668948Y-15677693D01*
X8697519Y-15677693D01*
X8716567Y-15687217D01*
X8726090Y-15706264D01*
X8726090Y-15811026D01*
X8849900Y-15811026D02*
X8830852Y-15801502D01*
X8821329Y-15791978D01*
X8811805Y-15772931D01*
X8811805Y-15715788D01*
X8821329Y-15696740D01*
X8830852Y-15687217D01*
X8849900Y-15677693D01*
X8878471Y-15677693D01*
X8897519Y-15687217D01*
X8907043Y-15696740D01*
X8916567Y-15715788D01*
X8916567Y-15772931D01*
X8907043Y-15791978D01*
X8897519Y-15801502D01*
X8878471Y-15811026D01*
X8849900Y-15811026D01*
X8973710Y-15677693D02*
X9049900Y-15677693D01*
X9002281Y-15611026D02*
X9002281Y-15782455D01*
X9011805Y-15801502D01*
X9030852Y-15811026D01*
X9049900Y-15811026D01*
X9268948Y-15677693D02*
X9268948Y-15877693D01*
X9268948Y-15687217D02*
X9287995Y-15677693D01*
X9326090Y-15677693D01*
X9345138Y-15687217D01*
X9354662Y-15696740D01*
X9364186Y-15715788D01*
X9364186Y-15772931D01*
X9354662Y-15791978D01*
X9345138Y-15801502D01*
X9326090Y-15811026D01*
X9287995Y-15811026D01*
X9268948Y-15801502D01*
X9478471Y-15811026D02*
X9459424Y-15801502D01*
X9449900Y-15782455D01*
X9449900Y-15611026D01*
X9640376Y-15811026D02*
X9640376Y-15706264D01*
X9630852Y-15687217D01*
X9611805Y-15677693D01*
X9573710Y-15677693D01*
X9554662Y-15687217D01*
X9640376Y-15801502D02*
X9621329Y-15811026D01*
X9573710Y-15811026D01*
X9554662Y-15801502D01*
X9545138Y-15782455D01*
X9545138Y-15763407D01*
X9554662Y-15744359D01*
X9573710Y-15734836D01*
X9621329Y-15734836D01*
X9640376Y-15725312D01*
X9707043Y-15677693D02*
X9783233Y-15677693D01*
X9735614Y-15611026D02*
X9735614Y-15782455D01*
X9745138Y-15801502D01*
X9764186Y-15811026D01*
X9783233Y-15811026D01*
X9926090Y-15801502D02*
X9907043Y-15811026D01*
X9868948Y-15811026D01*
X9849900Y-15801502D01*
X9840376Y-15782455D01*
X9840376Y-15706264D01*
X9849900Y-15687217D01*
X9868948Y-15677693D01*
X9907043Y-15677693D01*
X9926090Y-15687217D01*
X9935614Y-15706264D01*
X9935614Y-15725312D01*
X9840376Y-15744359D01*
X10107043Y-15811026D02*
X10107043Y-15611026D01*
X10107043Y-15801502D02*
X10087995Y-15811026D01*
X10049900Y-15811026D01*
X10030852Y-15801502D01*
X10021329Y-15791978D01*
X10011805Y-15772931D01*
X10011805Y-15715788D01*
X10021329Y-15696740D01*
X10030852Y-15687217D01*
X10049900Y-15677693D01*
X10087995Y-15677693D01*
X10107043Y-15687217D01*
X10183233Y-15887217D02*
X10192757Y-15877693D01*
X10211805Y-15849121D01*
X10221329Y-15830074D01*
X10230852Y-15801502D01*
X10240376Y-15753883D01*
X10240376Y-15715788D01*
X10230852Y-15668169D01*
X10221329Y-15639598D01*
X10211805Y-15620550D01*
X10192757Y-15591978D01*
X10183233Y-15582455D01*
D13*
X3239900Y-16010550D02*
G75*
G03*
X3239900Y-16010550I-87500J0D01*
G01*
D11*
X3602281Y-16101026D02*
X3487995Y-16101026D01*
X3545138Y-16101026D02*
X3545138Y-15901026D01*
X3526090Y-15929598D01*
X3507043Y-15948645D01*
X3487995Y-15958169D01*
X3687995Y-16081978D02*
X3697519Y-16091502D01*
X3687995Y-16101026D01*
X3678471Y-16091502D01*
X3687995Y-16081978D01*
X3687995Y-16101026D01*
X3764186Y-15901026D02*
X3897519Y-15901026D01*
X3811805Y-16101026D01*
X4068948Y-15901026D02*
X3973709Y-15901026D01*
X3964186Y-15996264D01*
X3973709Y-15986740D01*
X3992757Y-15977217D01*
X4040376Y-15977217D01*
X4059424Y-15986740D01*
X4068948Y-15996264D01*
X4078471Y-16015312D01*
X4078471Y-16062931D01*
X4068948Y-16081978D01*
X4059424Y-16091502D01*
X4040376Y-16101026D01*
X3992757Y-16101026D01*
X3973709Y-16091502D01*
X3964186Y-16081978D01*
X4202281Y-15901026D02*
X4221329Y-15901026D01*
X4240376Y-15910550D01*
X4249900Y-15920074D01*
X4259424Y-15939121D01*
X4268948Y-15977217D01*
X4268948Y-16024836D01*
X4259424Y-16062931D01*
X4249900Y-16081978D01*
X4240376Y-16091502D01*
X4221329Y-16101026D01*
X4202281Y-16101026D01*
X4183233Y-16091502D01*
X4173709Y-16081978D01*
X4164186Y-16062931D01*
X4154662Y-16024836D01*
X4154662Y-15977217D01*
X4164186Y-15939121D01*
X4173709Y-15920074D01*
X4183233Y-15910550D01*
X4202281Y-15901026D01*
X4354662Y-16101026D02*
X4354662Y-15967693D01*
X4354662Y-15986740D02*
X4364186Y-15977217D01*
X4383233Y-15967693D01*
X4411805Y-15967693D01*
X4430852Y-15977217D01*
X4440376Y-15996264D01*
X4440376Y-16101026D01*
X4440376Y-15996264D02*
X4449900Y-15977217D01*
X4468948Y-15967693D01*
X4497519Y-15967693D01*
X4516567Y-15977217D01*
X4526090Y-15996264D01*
X4526090Y-16101026D01*
X4621329Y-16101026D02*
X4621329Y-15967693D01*
X4621329Y-15986740D02*
X4630852Y-15977217D01*
X4649900Y-15967693D01*
X4678471Y-15967693D01*
X4697519Y-15977217D01*
X4707043Y-15996264D01*
X4707043Y-16101026D01*
X4707043Y-15996264D02*
X4716567Y-15977217D01*
X4735614Y-15967693D01*
X4764186Y-15967693D01*
X4783233Y-15977217D01*
X4792757Y-15996264D01*
X4792757Y-16101026D01*
X5183233Y-15891502D02*
X5011805Y-16148645D01*
X5440376Y-15901026D02*
X5459424Y-15901026D01*
X5478471Y-15910550D01*
X5487995Y-15920074D01*
X5497519Y-15939121D01*
X5507043Y-15977217D01*
X5507043Y-16024836D01*
X5497519Y-16062931D01*
X5487995Y-16081978D01*
X5478471Y-16091502D01*
X5459424Y-16101026D01*
X5440376Y-16101026D01*
X5421329Y-16091502D01*
X5411805Y-16081978D01*
X5402281Y-16062931D01*
X5392757Y-16024836D01*
X5392757Y-15977217D01*
X5402281Y-15939121D01*
X5411805Y-15920074D01*
X5421329Y-15910550D01*
X5440376Y-15901026D01*
X5592757Y-16081978D02*
X5602281Y-16091502D01*
X5592757Y-16101026D01*
X5583233Y-16091502D01*
X5592757Y-16081978D01*
X5592757Y-16101026D01*
X5726090Y-15901026D02*
X5745138Y-15901026D01*
X5764186Y-15910550D01*
X5773709Y-15920074D01*
X5783233Y-15939121D01*
X5792757Y-15977217D01*
X5792757Y-16024836D01*
X5783233Y-16062931D01*
X5773709Y-16081978D01*
X5764186Y-16091502D01*
X5745138Y-16101026D01*
X5726090Y-16101026D01*
X5707043Y-16091502D01*
X5697519Y-16081978D01*
X5687995Y-16062931D01*
X5678471Y-16024836D01*
X5678471Y-15977217D01*
X5687995Y-15939121D01*
X5697519Y-15920074D01*
X5707043Y-15910550D01*
X5726090Y-15901026D01*
X5964186Y-15901026D02*
X5926090Y-15901026D01*
X5907043Y-15910550D01*
X5897519Y-15920074D01*
X5878471Y-15948645D01*
X5868948Y-15986740D01*
X5868948Y-16062931D01*
X5878471Y-16081978D01*
X5887995Y-16091502D01*
X5907043Y-16101026D01*
X5945138Y-16101026D01*
X5964186Y-16091502D01*
X5973709Y-16081978D01*
X5983233Y-16062931D01*
X5983233Y-16015312D01*
X5973709Y-15996264D01*
X5964186Y-15986740D01*
X5945138Y-15977217D01*
X5907043Y-15977217D01*
X5887995Y-15986740D01*
X5878471Y-15996264D01*
X5868948Y-16015312D01*
X6097519Y-15986740D02*
X6078471Y-15977217D01*
X6068948Y-15967693D01*
X6059424Y-15948645D01*
X6059424Y-15939121D01*
X6068948Y-15920074D01*
X6078471Y-15910550D01*
X6097519Y-15901026D01*
X6135614Y-15901026D01*
X6154662Y-15910550D01*
X6164186Y-15920074D01*
X6173709Y-15939121D01*
X6173709Y-15948645D01*
X6164186Y-15967693D01*
X6154662Y-15977217D01*
X6135614Y-15986740D01*
X6097519Y-15986740D01*
X6078471Y-15996264D01*
X6068948Y-16005788D01*
X6059424Y-16024836D01*
X6059424Y-16062931D01*
X6068948Y-16081978D01*
X6078471Y-16091502D01*
X6097519Y-16101026D01*
X6135614Y-16101026D01*
X6154662Y-16091502D01*
X6164186Y-16081978D01*
X6173709Y-16062931D01*
X6173709Y-16024836D01*
X6164186Y-16005788D01*
X6154662Y-15996264D01*
X6135614Y-15986740D01*
X6268948Y-16101026D02*
X6307043Y-16101026D01*
X6326090Y-16091502D01*
X6335614Y-16081978D01*
X6354662Y-16053407D01*
X6364186Y-16015312D01*
X6364186Y-15939121D01*
X6354662Y-15920074D01*
X6345138Y-15910550D01*
X6326090Y-15901026D01*
X6287995Y-15901026D01*
X6268948Y-15910550D01*
X6259424Y-15920074D01*
X6249900Y-15939121D01*
X6249900Y-15986740D01*
X6259424Y-16005788D01*
X6268948Y-16015312D01*
X6287995Y-16024836D01*
X6326090Y-16024836D01*
X6345138Y-16015312D01*
X6354662Y-16005788D01*
X6364186Y-15986740D01*
X6440376Y-15901026D02*
X6440376Y-15939121D01*
X6516567Y-15901026D02*
X6516567Y-15939121D01*
X6811805Y-16177217D02*
X6802281Y-16167693D01*
X6783233Y-16139121D01*
X6773709Y-16120074D01*
X6764186Y-16091502D01*
X6754662Y-16043883D01*
X6754662Y-16005788D01*
X6764186Y-15958169D01*
X6773709Y-15929598D01*
X6783233Y-15910550D01*
X6802281Y-15881978D01*
X6811805Y-15872455D01*
X6897519Y-16101026D02*
X6935614Y-16101026D01*
X6954662Y-16091502D01*
X6964186Y-16081978D01*
X6983233Y-16053407D01*
X6992757Y-16015312D01*
X6992757Y-15939121D01*
X6983233Y-15920074D01*
X6973709Y-15910550D01*
X6954662Y-15901026D01*
X6916567Y-15901026D01*
X6897519Y-15910550D01*
X6887995Y-15920074D01*
X6878471Y-15939121D01*
X6878471Y-15986740D01*
X6887995Y-16005788D01*
X6897519Y-16015312D01*
X6916567Y-16024836D01*
X6954662Y-16024836D01*
X6973709Y-16015312D01*
X6983233Y-16005788D01*
X6992757Y-15986740D01*
X7107043Y-15986740D02*
X7087995Y-15977217D01*
X7078471Y-15967693D01*
X7068948Y-15948645D01*
X7068948Y-15939121D01*
X7078471Y-15920074D01*
X7087995Y-15910550D01*
X7107043Y-15901026D01*
X7145138Y-15901026D01*
X7164186Y-15910550D01*
X7173709Y-15920074D01*
X7183233Y-15939121D01*
X7183233Y-15948645D01*
X7173709Y-15967693D01*
X7164186Y-15977217D01*
X7145138Y-15986740D01*
X7107043Y-15986740D01*
X7087995Y-15996264D01*
X7078471Y-16005788D01*
X7068948Y-16024836D01*
X7068948Y-16062931D01*
X7078471Y-16081978D01*
X7087995Y-16091502D01*
X7107043Y-16101026D01*
X7145138Y-16101026D01*
X7164186Y-16091502D01*
X7173709Y-16081978D01*
X7183233Y-16062931D01*
X7183233Y-16024836D01*
X7173709Y-16005788D01*
X7164186Y-15996264D01*
X7145138Y-15986740D01*
X7421328Y-16101026D02*
X7421328Y-15901026D01*
X7507043Y-16101026D02*
X7507043Y-15996264D01*
X7497519Y-15977217D01*
X7478471Y-15967693D01*
X7449900Y-15967693D01*
X7430852Y-15977217D01*
X7421328Y-15986740D01*
X7630852Y-16101026D02*
X7611805Y-16091502D01*
X7602281Y-16081978D01*
X7592757Y-16062931D01*
X7592757Y-16005788D01*
X7602281Y-15986740D01*
X7611805Y-15977217D01*
X7630852Y-15967693D01*
X7659424Y-15967693D01*
X7678471Y-15977217D01*
X7687995Y-15986740D01*
X7697519Y-16005788D01*
X7697519Y-16062931D01*
X7687995Y-16081978D01*
X7678471Y-16091502D01*
X7659424Y-16101026D01*
X7630852Y-16101026D01*
X7811805Y-16101026D02*
X7792757Y-16091502D01*
X7783233Y-16072455D01*
X7783233Y-15901026D01*
X7964186Y-16091502D02*
X7945138Y-16101026D01*
X7907043Y-16101026D01*
X7887995Y-16091502D01*
X7878471Y-16072455D01*
X7878471Y-15996264D01*
X7887995Y-15977217D01*
X7907043Y-15967693D01*
X7945138Y-15967693D01*
X7964186Y-15977217D01*
X7973709Y-15996264D01*
X7973709Y-16015312D01*
X7878471Y-16034359D01*
X8049900Y-16091502D02*
X8068948Y-16101026D01*
X8107043Y-16101026D01*
X8126090Y-16091502D01*
X8135614Y-16072455D01*
X8135614Y-16062931D01*
X8126090Y-16043883D01*
X8107043Y-16034359D01*
X8078471Y-16034359D01*
X8059424Y-16024836D01*
X8049900Y-16005788D01*
X8049900Y-15996264D01*
X8059424Y-15977217D01*
X8078471Y-15967693D01*
X8107043Y-15967693D01*
X8126090Y-15977217D01*
X8202281Y-16177217D02*
X8211805Y-16167693D01*
X8230852Y-16139121D01*
X8240376Y-16120074D01*
X8249900Y-16091502D01*
X8259424Y-16043883D01*
X8259424Y-16005788D01*
X8249900Y-15958169D01*
X8240376Y-15929598D01*
X8230852Y-15910550D01*
X8211805Y-15881978D01*
X8202281Y-15872455D01*
X8564186Y-16177217D02*
X8554662Y-16167693D01*
X8535614Y-16139121D01*
X8526090Y-16120074D01*
X8516567Y-16091502D01*
X8507043Y-16043883D01*
X8507043Y-16005788D01*
X8516567Y-15958169D01*
X8526090Y-15929598D01*
X8535614Y-15910550D01*
X8554662Y-15881978D01*
X8564186Y-15872455D01*
X8640376Y-15967693D02*
X8640376Y-16101026D01*
X8640376Y-15986740D02*
X8649900Y-15977217D01*
X8668948Y-15967693D01*
X8697519Y-15967693D01*
X8716567Y-15977217D01*
X8726090Y-15996264D01*
X8726090Y-16101026D01*
X8849900Y-16101026D02*
X8830852Y-16091502D01*
X8821329Y-16081978D01*
X8811805Y-16062931D01*
X8811805Y-16005788D01*
X8821329Y-15986740D01*
X8830852Y-15977217D01*
X8849900Y-15967693D01*
X8878471Y-15967693D01*
X8897519Y-15977217D01*
X8907043Y-15986740D01*
X8916567Y-16005788D01*
X8916567Y-16062931D01*
X8907043Y-16081978D01*
X8897519Y-16091502D01*
X8878471Y-16101026D01*
X8849900Y-16101026D01*
X8973710Y-15967693D02*
X9049900Y-15967693D01*
X9002281Y-15901026D02*
X9002281Y-16072455D01*
X9011805Y-16091502D01*
X9030852Y-16101026D01*
X9049900Y-16101026D01*
X9268948Y-15967693D02*
X9268948Y-16167693D01*
X9268948Y-15977217D02*
X9287995Y-15967693D01*
X9326090Y-15967693D01*
X9345138Y-15977217D01*
X9354662Y-15986740D01*
X9364186Y-16005788D01*
X9364186Y-16062931D01*
X9354662Y-16081978D01*
X9345138Y-16091502D01*
X9326090Y-16101026D01*
X9287995Y-16101026D01*
X9268948Y-16091502D01*
X9478471Y-16101026D02*
X9459424Y-16091502D01*
X9449900Y-16072455D01*
X9449900Y-15901026D01*
X9640376Y-16101026D02*
X9640376Y-15996264D01*
X9630852Y-15977217D01*
X9611805Y-15967693D01*
X9573710Y-15967693D01*
X9554662Y-15977217D01*
X9640376Y-16091502D02*
X9621329Y-16101026D01*
X9573710Y-16101026D01*
X9554662Y-16091502D01*
X9545138Y-16072455D01*
X9545138Y-16053407D01*
X9554662Y-16034359D01*
X9573710Y-16024836D01*
X9621329Y-16024836D01*
X9640376Y-16015312D01*
X9707043Y-15967693D02*
X9783233Y-15967693D01*
X9735614Y-15901026D02*
X9735614Y-16072455D01*
X9745138Y-16091502D01*
X9764186Y-16101026D01*
X9783233Y-16101026D01*
X9926090Y-16091502D02*
X9907043Y-16101026D01*
X9868948Y-16101026D01*
X9849900Y-16091502D01*
X9840376Y-16072455D01*
X9840376Y-15996264D01*
X9849900Y-15977217D01*
X9868948Y-15967693D01*
X9907043Y-15967693D01*
X9926090Y-15977217D01*
X9935614Y-15996264D01*
X9935614Y-16015312D01*
X9840376Y-16034359D01*
X10107043Y-16101026D02*
X10107043Y-15901026D01*
X10107043Y-16091502D02*
X10087995Y-16101026D01*
X10049900Y-16101026D01*
X10030852Y-16091502D01*
X10021329Y-16081978D01*
X10011805Y-16062931D01*
X10011805Y-16005788D01*
X10021329Y-15986740D01*
X10030852Y-15977217D01*
X10049900Y-15967693D01*
X10087995Y-15967693D01*
X10107043Y-15977217D01*
X10183233Y-16177217D02*
X10192757Y-16167693D01*
X10211805Y-16139121D01*
X10221329Y-16120074D01*
X10230852Y-16091502D01*
X10240376Y-16043883D01*
X10240376Y-16005788D01*
X10230852Y-15958169D01*
X10221329Y-15929598D01*
X10211805Y-15910550D01*
X10192757Y-15881978D01*
X10183233Y-15872455D01*
X3139900Y-16205550D02*
X3139900Y-16405550D01*
X3039900Y-16305550D02*
X3239900Y-16305550D01*
X3478471Y-16196026D02*
X3602281Y-16196026D01*
X3535614Y-16272217D01*
X3564186Y-16272217D01*
X3583233Y-16281740D01*
X3592757Y-16291264D01*
X3602281Y-16310312D01*
X3602281Y-16357931D01*
X3592757Y-16376978D01*
X3583233Y-16386502D01*
X3564186Y-16396026D01*
X3507043Y-16396026D01*
X3487995Y-16386502D01*
X3478471Y-16376978D01*
X3687995Y-16376978D02*
X3697519Y-16386502D01*
X3687995Y-16396026D01*
X3678471Y-16386502D01*
X3687995Y-16376978D01*
X3687995Y-16396026D01*
X3821328Y-16196026D02*
X3840376Y-16196026D01*
X3859424Y-16205550D01*
X3868948Y-16215074D01*
X3878471Y-16234121D01*
X3887995Y-16272217D01*
X3887995Y-16319836D01*
X3878471Y-16357931D01*
X3868948Y-16376978D01*
X3859424Y-16386502D01*
X3840376Y-16396026D01*
X3821328Y-16396026D01*
X3802281Y-16386502D01*
X3792757Y-16376978D01*
X3783233Y-16357931D01*
X3773709Y-16319836D01*
X3773709Y-16272217D01*
X3783233Y-16234121D01*
X3792757Y-16215074D01*
X3802281Y-16205550D01*
X3821328Y-16196026D01*
X4059424Y-16262693D02*
X4059424Y-16396026D01*
X4011805Y-16186502D02*
X3964186Y-16329359D01*
X4087995Y-16329359D01*
X4192757Y-16281740D02*
X4173709Y-16272217D01*
X4164186Y-16262693D01*
X4154662Y-16243645D01*
X4154662Y-16234121D01*
X4164186Y-16215074D01*
X4173709Y-16205550D01*
X4192757Y-16196026D01*
X4230852Y-16196026D01*
X4249900Y-16205550D01*
X4259424Y-16215074D01*
X4268948Y-16234121D01*
X4268948Y-16243645D01*
X4259424Y-16262693D01*
X4249900Y-16272217D01*
X4230852Y-16281740D01*
X4192757Y-16281740D01*
X4173709Y-16291264D01*
X4164186Y-16300788D01*
X4154662Y-16319836D01*
X4154662Y-16357931D01*
X4164186Y-16376978D01*
X4173709Y-16386502D01*
X4192757Y-16396026D01*
X4230852Y-16396026D01*
X4249900Y-16386502D01*
X4259424Y-16376978D01*
X4268948Y-16357931D01*
X4268948Y-16319836D01*
X4259424Y-16300788D01*
X4249900Y-16291264D01*
X4230852Y-16281740D01*
X4354662Y-16396026D02*
X4354662Y-16262693D01*
X4354662Y-16281740D02*
X4364186Y-16272217D01*
X4383233Y-16262693D01*
X4411805Y-16262693D01*
X4430852Y-16272217D01*
X4440376Y-16291264D01*
X4440376Y-16396026D01*
X4440376Y-16291264D02*
X4449900Y-16272217D01*
X4468948Y-16262693D01*
X4497519Y-16262693D01*
X4516567Y-16272217D01*
X4526090Y-16291264D01*
X4526090Y-16396026D01*
X4621329Y-16396026D02*
X4621329Y-16262693D01*
X4621329Y-16281740D02*
X4630852Y-16272217D01*
X4649900Y-16262693D01*
X4678471Y-16262693D01*
X4697519Y-16272217D01*
X4707043Y-16291264D01*
X4707043Y-16396026D01*
X4707043Y-16291264D02*
X4716567Y-16272217D01*
X4735614Y-16262693D01*
X4764186Y-16262693D01*
X4783233Y-16272217D01*
X4792757Y-16291264D01*
X4792757Y-16396026D01*
X5183233Y-16186502D02*
X5011805Y-16443645D01*
X5440376Y-16196026D02*
X5459424Y-16196026D01*
X5478471Y-16205550D01*
X5487995Y-16215074D01*
X5497519Y-16234121D01*
X5507043Y-16272217D01*
X5507043Y-16319836D01*
X5497519Y-16357931D01*
X5487995Y-16376978D01*
X5478471Y-16386502D01*
X5459424Y-16396026D01*
X5440376Y-16396026D01*
X5421329Y-16386502D01*
X5411805Y-16376978D01*
X5402281Y-16357931D01*
X5392757Y-16319836D01*
X5392757Y-16272217D01*
X5402281Y-16234121D01*
X5411805Y-16215074D01*
X5421329Y-16205550D01*
X5440376Y-16196026D01*
X5592757Y-16376978D02*
X5602281Y-16386502D01*
X5592757Y-16396026D01*
X5583233Y-16386502D01*
X5592757Y-16376978D01*
X5592757Y-16396026D01*
X5792757Y-16396026D02*
X5678471Y-16396026D01*
X5735614Y-16396026D02*
X5735614Y-16196026D01*
X5716567Y-16224598D01*
X5697519Y-16243645D01*
X5678471Y-16253169D01*
X5868948Y-16215074D02*
X5878471Y-16205550D01*
X5897519Y-16196026D01*
X5945138Y-16196026D01*
X5964186Y-16205550D01*
X5973709Y-16215074D01*
X5983233Y-16234121D01*
X5983233Y-16253169D01*
X5973709Y-16281740D01*
X5859424Y-16396026D01*
X5983233Y-16396026D01*
X6107043Y-16196026D02*
X6126090Y-16196026D01*
X6145138Y-16205550D01*
X6154662Y-16215074D01*
X6164186Y-16234121D01*
X6173709Y-16272217D01*
X6173709Y-16319836D01*
X6164186Y-16357931D01*
X6154662Y-16376978D01*
X6145138Y-16386502D01*
X6126090Y-16396026D01*
X6107043Y-16396026D01*
X6087995Y-16386502D01*
X6078471Y-16376978D01*
X6068948Y-16357931D01*
X6059424Y-16319836D01*
X6059424Y-16272217D01*
X6068948Y-16234121D01*
X6078471Y-16215074D01*
X6087995Y-16205550D01*
X6107043Y-16196026D01*
X6297519Y-16196026D02*
X6316567Y-16196026D01*
X6335614Y-16205550D01*
X6345138Y-16215074D01*
X6354662Y-16234121D01*
X6364186Y-16272217D01*
X6364186Y-16319836D01*
X6354662Y-16357931D01*
X6345138Y-16376978D01*
X6335614Y-16386502D01*
X6316567Y-16396026D01*
X6297519Y-16396026D01*
X6278471Y-16386502D01*
X6268948Y-16376978D01*
X6259424Y-16357931D01*
X6249900Y-16319836D01*
X6249900Y-16272217D01*
X6259424Y-16234121D01*
X6268948Y-16215074D01*
X6278471Y-16205550D01*
X6297519Y-16196026D01*
X6440376Y-16196026D02*
X6440376Y-16234121D01*
X6516567Y-16196026D02*
X6516567Y-16234121D01*
X6811805Y-16472217D02*
X6802281Y-16462693D01*
X6783233Y-16434121D01*
X6773709Y-16415074D01*
X6764186Y-16386502D01*
X6754662Y-16338883D01*
X6754662Y-16300788D01*
X6764186Y-16253169D01*
X6773709Y-16224598D01*
X6783233Y-16205550D01*
X6802281Y-16176978D01*
X6811805Y-16167455D01*
X6878471Y-16215074D02*
X6887995Y-16205550D01*
X6907043Y-16196026D01*
X6954662Y-16196026D01*
X6973709Y-16205550D01*
X6983233Y-16215074D01*
X6992757Y-16234121D01*
X6992757Y-16253169D01*
X6983233Y-16281740D01*
X6868948Y-16396026D01*
X6992757Y-16396026D01*
X7230852Y-16396026D02*
X7230852Y-16196026D01*
X7316567Y-16396026D02*
X7316567Y-16291264D01*
X7307043Y-16272217D01*
X7287995Y-16262693D01*
X7259424Y-16262693D01*
X7240376Y-16272217D01*
X7230852Y-16281740D01*
X7440376Y-16396026D02*
X7421328Y-16386502D01*
X7411805Y-16376978D01*
X7402281Y-16357931D01*
X7402281Y-16300788D01*
X7411805Y-16281740D01*
X7421328Y-16272217D01*
X7440376Y-16262693D01*
X7468948Y-16262693D01*
X7487995Y-16272217D01*
X7497519Y-16281740D01*
X7507043Y-16300788D01*
X7507043Y-16357931D01*
X7497519Y-16376978D01*
X7487995Y-16386502D01*
X7468948Y-16396026D01*
X7440376Y-16396026D01*
X7621328Y-16396026D02*
X7602281Y-16386502D01*
X7592757Y-16367455D01*
X7592757Y-16196026D01*
X7773709Y-16386502D02*
X7754662Y-16396026D01*
X7716567Y-16396026D01*
X7697519Y-16386502D01*
X7687995Y-16367455D01*
X7687995Y-16291264D01*
X7697519Y-16272217D01*
X7716567Y-16262693D01*
X7754662Y-16262693D01*
X7773709Y-16272217D01*
X7783233Y-16291264D01*
X7783233Y-16310312D01*
X7687995Y-16329359D01*
X7859424Y-16386502D02*
X7878471Y-16396026D01*
X7916567Y-16396026D01*
X7935614Y-16386502D01*
X7945138Y-16367455D01*
X7945138Y-16357931D01*
X7935614Y-16338883D01*
X7916567Y-16329359D01*
X7887995Y-16329359D01*
X7868948Y-16319836D01*
X7859424Y-16300788D01*
X7859424Y-16291264D01*
X7868948Y-16272217D01*
X7887995Y-16262693D01*
X7916567Y-16262693D01*
X7935614Y-16272217D01*
X8011805Y-16472217D02*
X8021328Y-16462693D01*
X8040376Y-16434121D01*
X8049900Y-16415074D01*
X8059424Y-16386502D01*
X8068948Y-16338883D01*
X8068948Y-16300788D01*
X8059424Y-16253169D01*
X8049900Y-16224598D01*
X8040376Y-16205550D01*
X8021328Y-16176978D01*
X8011805Y-16167455D01*
X8373709Y-16472217D02*
X8364186Y-16462693D01*
X8345138Y-16434121D01*
X8335614Y-16415074D01*
X8326090Y-16386502D01*
X8316567Y-16338883D01*
X8316567Y-16300788D01*
X8326090Y-16253169D01*
X8335614Y-16224598D01*
X8345138Y-16205550D01*
X8364186Y-16176978D01*
X8373709Y-16167455D01*
X8449900Y-16262693D02*
X8449900Y-16396026D01*
X8449900Y-16281740D02*
X8459424Y-16272217D01*
X8478471Y-16262693D01*
X8507043Y-16262693D01*
X8526090Y-16272217D01*
X8535614Y-16291264D01*
X8535614Y-16396026D01*
X8659424Y-16396026D02*
X8640376Y-16386502D01*
X8630852Y-16376978D01*
X8621329Y-16357931D01*
X8621329Y-16300788D01*
X8630852Y-16281740D01*
X8640376Y-16272217D01*
X8659424Y-16262693D01*
X8687995Y-16262693D01*
X8707043Y-16272217D01*
X8716567Y-16281740D01*
X8726090Y-16300788D01*
X8726090Y-16357931D01*
X8716567Y-16376978D01*
X8707043Y-16386502D01*
X8687995Y-16396026D01*
X8659424Y-16396026D01*
X8783233Y-16262693D02*
X8859424Y-16262693D01*
X8811805Y-16196026D02*
X8811805Y-16367455D01*
X8821329Y-16386502D01*
X8840376Y-16396026D01*
X8859424Y-16396026D01*
X9078471Y-16262693D02*
X9078471Y-16462693D01*
X9078471Y-16272217D02*
X9097519Y-16262693D01*
X9135614Y-16262693D01*
X9154662Y-16272217D01*
X9164186Y-16281740D01*
X9173710Y-16300788D01*
X9173710Y-16357931D01*
X9164186Y-16376978D01*
X9154662Y-16386502D01*
X9135614Y-16396026D01*
X9097519Y-16396026D01*
X9078471Y-16386502D01*
X9287995Y-16396026D02*
X9268948Y-16386502D01*
X9259424Y-16367455D01*
X9259424Y-16196026D01*
X9449900Y-16396026D02*
X9449900Y-16291264D01*
X9440376Y-16272217D01*
X9421329Y-16262693D01*
X9383233Y-16262693D01*
X9364186Y-16272217D01*
X9449900Y-16386502D02*
X9430852Y-16396026D01*
X9383233Y-16396026D01*
X9364186Y-16386502D01*
X9354662Y-16367455D01*
X9354662Y-16348407D01*
X9364186Y-16329359D01*
X9383233Y-16319836D01*
X9430852Y-16319836D01*
X9449900Y-16310312D01*
X9516567Y-16262693D02*
X9592757Y-16262693D01*
X9545138Y-16196026D02*
X9545138Y-16367455D01*
X9554662Y-16386502D01*
X9573710Y-16396026D01*
X9592757Y-16396026D01*
X9735614Y-16386502D02*
X9716567Y-16396026D01*
X9678471Y-16396026D01*
X9659424Y-16386502D01*
X9649900Y-16367455D01*
X9649900Y-16291264D01*
X9659424Y-16272217D01*
X9678471Y-16262693D01*
X9716567Y-16262693D01*
X9735614Y-16272217D01*
X9745138Y-16291264D01*
X9745138Y-16310312D01*
X9649900Y-16329359D01*
X9916567Y-16396026D02*
X9916567Y-16196026D01*
X9916567Y-16386502D02*
X9897519Y-16396026D01*
X9859424Y-16396026D01*
X9840376Y-16386502D01*
X9830852Y-16376978D01*
X9821329Y-16357931D01*
X9821329Y-16300788D01*
X9830852Y-16281740D01*
X9840376Y-16272217D01*
X9859424Y-16262693D01*
X9897519Y-16262693D01*
X9916567Y-16272217D01*
X9992757Y-16472217D02*
X10002281Y-16462693D01*
X10021329Y-16434121D01*
X10030852Y-16415074D01*
X10040376Y-16386502D01*
X10049900Y-16338883D01*
X10049900Y-16300788D01*
X10040376Y-16253169D01*
X10030852Y-16224598D01*
X10021329Y-16205550D01*
X10002281Y-16176978D01*
X9992757Y-16167455D01*
X3210611Y-16696261D02*
X3210611Y-16554839D01*
X3069189Y-16554839D01*
X3069189Y-16696261D01*
X3210611Y-16696261D01*
X3478471Y-16516026D02*
X3602281Y-16516026D01*
X3535614Y-16592217D01*
X3564186Y-16592217D01*
X3583233Y-16601740D01*
X3592757Y-16611264D01*
X3602281Y-16630312D01*
X3602281Y-16677931D01*
X3592757Y-16696978D01*
X3583233Y-16706502D01*
X3564186Y-16716026D01*
X3507043Y-16716026D01*
X3487995Y-16706502D01*
X3478471Y-16696978D01*
X3687995Y-16696978D02*
X3697519Y-16706502D01*
X3687995Y-16716026D01*
X3678471Y-16706502D01*
X3687995Y-16696978D01*
X3687995Y-16716026D01*
X3792757Y-16716026D02*
X3830852Y-16716026D01*
X3849900Y-16706502D01*
X3859424Y-16696978D01*
X3878471Y-16668407D01*
X3887995Y-16630312D01*
X3887995Y-16554121D01*
X3878471Y-16535074D01*
X3868948Y-16525550D01*
X3849900Y-16516026D01*
X3811805Y-16516026D01*
X3792757Y-16525550D01*
X3783233Y-16535074D01*
X3773709Y-16554121D01*
X3773709Y-16601740D01*
X3783233Y-16620788D01*
X3792757Y-16630312D01*
X3811805Y-16639836D01*
X3849900Y-16639836D01*
X3868948Y-16630312D01*
X3878471Y-16620788D01*
X3887995Y-16601740D01*
X4002281Y-16601740D02*
X3983233Y-16592217D01*
X3973709Y-16582693D01*
X3964186Y-16563645D01*
X3964186Y-16554121D01*
X3973709Y-16535074D01*
X3983233Y-16525550D01*
X4002281Y-16516026D01*
X4040376Y-16516026D01*
X4059424Y-16525550D01*
X4068948Y-16535074D01*
X4078471Y-16554121D01*
X4078471Y-16563645D01*
X4068948Y-16582693D01*
X4059424Y-16592217D01*
X4040376Y-16601740D01*
X4002281Y-16601740D01*
X3983233Y-16611264D01*
X3973709Y-16620788D01*
X3964186Y-16639836D01*
X3964186Y-16677931D01*
X3973709Y-16696978D01*
X3983233Y-16706502D01*
X4002281Y-16716026D01*
X4040376Y-16716026D01*
X4059424Y-16706502D01*
X4068948Y-16696978D01*
X4078471Y-16677931D01*
X4078471Y-16639836D01*
X4068948Y-16620788D01*
X4059424Y-16611264D01*
X4040376Y-16601740D01*
X4192757Y-16601740D02*
X4173709Y-16592217D01*
X4164186Y-16582693D01*
X4154662Y-16563645D01*
X4154662Y-16554121D01*
X4164186Y-16535074D01*
X4173709Y-16525550D01*
X4192757Y-16516026D01*
X4230852Y-16516026D01*
X4249900Y-16525550D01*
X4259424Y-16535074D01*
X4268948Y-16554121D01*
X4268948Y-16563645D01*
X4259424Y-16582693D01*
X4249900Y-16592217D01*
X4230852Y-16601740D01*
X4192757Y-16601740D01*
X4173709Y-16611264D01*
X4164186Y-16620788D01*
X4154662Y-16639836D01*
X4154662Y-16677931D01*
X4164186Y-16696978D01*
X4173709Y-16706502D01*
X4192757Y-16716026D01*
X4230852Y-16716026D01*
X4249900Y-16706502D01*
X4259424Y-16696978D01*
X4268948Y-16677931D01*
X4268948Y-16639836D01*
X4259424Y-16620788D01*
X4249900Y-16611264D01*
X4230852Y-16601740D01*
X4354662Y-16716026D02*
X4354662Y-16582693D01*
X4354662Y-16601740D02*
X4364186Y-16592217D01*
X4383233Y-16582693D01*
X4411805Y-16582693D01*
X4430852Y-16592217D01*
X4440376Y-16611264D01*
X4440376Y-16716026D01*
X4440376Y-16611264D02*
X4449900Y-16592217D01*
X4468948Y-16582693D01*
X4497519Y-16582693D01*
X4516567Y-16592217D01*
X4526090Y-16611264D01*
X4526090Y-16716026D01*
X4621329Y-16716026D02*
X4621329Y-16582693D01*
X4621329Y-16601740D02*
X4630852Y-16592217D01*
X4649900Y-16582693D01*
X4678471Y-16582693D01*
X4697519Y-16592217D01*
X4707043Y-16611264D01*
X4707043Y-16716026D01*
X4707043Y-16611264D02*
X4716567Y-16592217D01*
X4735614Y-16582693D01*
X4764186Y-16582693D01*
X4783233Y-16592217D01*
X4792757Y-16611264D01*
X4792757Y-16716026D01*
X5183233Y-16506502D02*
X5011805Y-16763645D01*
X5440376Y-16516026D02*
X5459424Y-16516026D01*
X5478471Y-16525550D01*
X5487995Y-16535074D01*
X5497519Y-16554121D01*
X5507043Y-16592217D01*
X5507043Y-16639836D01*
X5497519Y-16677931D01*
X5487995Y-16696978D01*
X5478471Y-16706502D01*
X5459424Y-16716026D01*
X5440376Y-16716026D01*
X5421329Y-16706502D01*
X5411805Y-16696978D01*
X5402281Y-16677931D01*
X5392757Y-16639836D01*
X5392757Y-16592217D01*
X5402281Y-16554121D01*
X5411805Y-16535074D01*
X5421329Y-16525550D01*
X5440376Y-16516026D01*
X5592757Y-16696978D02*
X5602281Y-16706502D01*
X5592757Y-16716026D01*
X5583233Y-16706502D01*
X5592757Y-16696978D01*
X5592757Y-16716026D01*
X5792757Y-16716026D02*
X5678471Y-16716026D01*
X5735614Y-16716026D02*
X5735614Y-16516026D01*
X5716567Y-16544598D01*
X5697519Y-16563645D01*
X5678471Y-16573169D01*
X5973709Y-16516026D02*
X5878471Y-16516026D01*
X5868948Y-16611264D01*
X5878471Y-16601740D01*
X5897519Y-16592217D01*
X5945138Y-16592217D01*
X5964186Y-16601740D01*
X5973709Y-16611264D01*
X5983233Y-16630312D01*
X5983233Y-16677931D01*
X5973709Y-16696978D01*
X5964186Y-16706502D01*
X5945138Y-16716026D01*
X5897519Y-16716026D01*
X5878471Y-16706502D01*
X5868948Y-16696978D01*
X6049900Y-16516026D02*
X6183233Y-16516026D01*
X6097519Y-16716026D01*
X6297519Y-16516026D02*
X6316567Y-16516026D01*
X6335614Y-16525550D01*
X6345138Y-16535074D01*
X6354662Y-16554121D01*
X6364186Y-16592217D01*
X6364186Y-16639836D01*
X6354662Y-16677931D01*
X6345138Y-16696978D01*
X6335614Y-16706502D01*
X6316567Y-16716026D01*
X6297519Y-16716026D01*
X6278471Y-16706502D01*
X6268948Y-16696978D01*
X6259424Y-16677931D01*
X6249900Y-16639836D01*
X6249900Y-16592217D01*
X6259424Y-16554121D01*
X6268948Y-16535074D01*
X6278471Y-16525550D01*
X6297519Y-16516026D01*
X6440376Y-16516026D02*
X6440376Y-16554121D01*
X6516567Y-16516026D02*
X6516567Y-16554121D01*
X6811805Y-16792217D02*
X6802281Y-16782693D01*
X6783233Y-16754121D01*
X6773709Y-16735074D01*
X6764186Y-16706502D01*
X6754662Y-16658883D01*
X6754662Y-16620788D01*
X6764186Y-16573169D01*
X6773709Y-16544598D01*
X6783233Y-16525550D01*
X6802281Y-16496978D01*
X6811805Y-16487455D01*
X6983233Y-16516026D02*
X6887995Y-16516026D01*
X6878471Y-16611264D01*
X6887995Y-16601740D01*
X6907043Y-16592217D01*
X6954662Y-16592217D01*
X6973709Y-16601740D01*
X6983233Y-16611264D01*
X6992757Y-16630312D01*
X6992757Y-16677931D01*
X6983233Y-16696978D01*
X6973709Y-16706502D01*
X6954662Y-16716026D01*
X6907043Y-16716026D01*
X6887995Y-16706502D01*
X6878471Y-16696978D01*
X7183233Y-16716026D02*
X7068948Y-16716026D01*
X7126090Y-16716026D02*
X7126090Y-16516026D01*
X7107043Y-16544598D01*
X7087995Y-16563645D01*
X7068948Y-16573169D01*
X7421328Y-16716026D02*
X7421328Y-16516026D01*
X7507043Y-16716026D02*
X7507043Y-16611264D01*
X7497519Y-16592217D01*
X7478471Y-16582693D01*
X7449900Y-16582693D01*
X7430852Y-16592217D01*
X7421328Y-16601740D01*
X7630852Y-16716026D02*
X7611805Y-16706502D01*
X7602281Y-16696978D01*
X7592757Y-16677931D01*
X7592757Y-16620788D01*
X7602281Y-16601740D01*
X7611805Y-16592217D01*
X7630852Y-16582693D01*
X7659424Y-16582693D01*
X7678471Y-16592217D01*
X7687995Y-16601740D01*
X7697519Y-16620788D01*
X7697519Y-16677931D01*
X7687995Y-16696978D01*
X7678471Y-16706502D01*
X7659424Y-16716026D01*
X7630852Y-16716026D01*
X7811805Y-16716026D02*
X7792757Y-16706502D01*
X7783233Y-16687455D01*
X7783233Y-16516026D01*
X7964186Y-16706502D02*
X7945138Y-16716026D01*
X7907043Y-16716026D01*
X7887995Y-16706502D01*
X7878471Y-16687455D01*
X7878471Y-16611264D01*
X7887995Y-16592217D01*
X7907043Y-16582693D01*
X7945138Y-16582693D01*
X7964186Y-16592217D01*
X7973709Y-16611264D01*
X7973709Y-16630312D01*
X7878471Y-16649359D01*
X8049900Y-16706502D02*
X8068948Y-16716026D01*
X8107043Y-16716026D01*
X8126090Y-16706502D01*
X8135614Y-16687455D01*
X8135614Y-16677931D01*
X8126090Y-16658883D01*
X8107043Y-16649359D01*
X8078471Y-16649359D01*
X8059424Y-16639836D01*
X8049900Y-16620788D01*
X8049900Y-16611264D01*
X8059424Y-16592217D01*
X8078471Y-16582693D01*
X8107043Y-16582693D01*
X8126090Y-16592217D01*
X8202281Y-16792217D02*
X8211805Y-16782693D01*
X8230852Y-16754121D01*
X8240376Y-16735074D01*
X8249900Y-16706502D01*
X8259424Y-16658883D01*
X8259424Y-16620788D01*
X8249900Y-16573169D01*
X8240376Y-16544598D01*
X8230852Y-16525550D01*
X8211805Y-16496978D01*
X8202281Y-16487455D01*
X8564186Y-16792217D02*
X8554662Y-16782693D01*
X8535614Y-16754121D01*
X8526090Y-16735074D01*
X8516567Y-16706502D01*
X8507043Y-16658883D01*
X8507043Y-16620788D01*
X8516567Y-16573169D01*
X8526090Y-16544598D01*
X8535614Y-16525550D01*
X8554662Y-16496978D01*
X8564186Y-16487455D01*
X8640376Y-16582693D02*
X8640376Y-16716026D01*
X8640376Y-16601740D02*
X8649900Y-16592217D01*
X8668948Y-16582693D01*
X8697519Y-16582693D01*
X8716567Y-16592217D01*
X8726090Y-16611264D01*
X8726090Y-16716026D01*
X8849900Y-16716026D02*
X8830852Y-16706502D01*
X8821329Y-16696978D01*
X8811805Y-16677931D01*
X8811805Y-16620788D01*
X8821329Y-16601740D01*
X8830852Y-16592217D01*
X8849900Y-16582693D01*
X8878471Y-16582693D01*
X8897519Y-16592217D01*
X8907043Y-16601740D01*
X8916567Y-16620788D01*
X8916567Y-16677931D01*
X8907043Y-16696978D01*
X8897519Y-16706502D01*
X8878471Y-16716026D01*
X8849900Y-16716026D01*
X8973710Y-16582693D02*
X9049900Y-16582693D01*
X9002281Y-16516026D02*
X9002281Y-16687455D01*
X9011805Y-16706502D01*
X9030852Y-16716026D01*
X9049900Y-16716026D01*
X9268948Y-16582693D02*
X9268948Y-16782693D01*
X9268948Y-16592217D02*
X9287995Y-16582693D01*
X9326090Y-16582693D01*
X9345138Y-16592217D01*
X9354662Y-16601740D01*
X9364186Y-16620788D01*
X9364186Y-16677931D01*
X9354662Y-16696978D01*
X9345138Y-16706502D01*
X9326090Y-16716026D01*
X9287995Y-16716026D01*
X9268948Y-16706502D01*
X9478471Y-16716026D02*
X9459424Y-16706502D01*
X9449900Y-16687455D01*
X9449900Y-16516026D01*
X9640376Y-16716026D02*
X9640376Y-16611264D01*
X9630852Y-16592217D01*
X9611805Y-16582693D01*
X9573710Y-16582693D01*
X9554662Y-16592217D01*
X9640376Y-16706502D02*
X9621329Y-16716026D01*
X9573710Y-16716026D01*
X9554662Y-16706502D01*
X9545138Y-16687455D01*
X9545138Y-16668407D01*
X9554662Y-16649359D01*
X9573710Y-16639836D01*
X9621329Y-16639836D01*
X9640376Y-16630312D01*
X9707043Y-16582693D02*
X9783233Y-16582693D01*
X9735614Y-16516026D02*
X9735614Y-16687455D01*
X9745138Y-16706502D01*
X9764186Y-16716026D01*
X9783233Y-16716026D01*
X9926090Y-16706502D02*
X9907043Y-16716026D01*
X9868948Y-16716026D01*
X9849900Y-16706502D01*
X9840376Y-16687455D01*
X9840376Y-16611264D01*
X9849900Y-16592217D01*
X9868948Y-16582693D01*
X9907043Y-16582693D01*
X9926090Y-16592217D01*
X9935614Y-16611264D01*
X9935614Y-16630312D01*
X9840376Y-16649359D01*
X10107043Y-16716026D02*
X10107043Y-16516026D01*
X10107043Y-16706502D02*
X10087995Y-16716026D01*
X10049900Y-16716026D01*
X10030852Y-16706502D01*
X10021329Y-16696978D01*
X10011805Y-16677931D01*
X10011805Y-16620788D01*
X10021329Y-16601740D01*
X10030852Y-16592217D01*
X10049900Y-16582693D01*
X10087995Y-16582693D01*
X10107043Y-16592217D01*
X10183233Y-16792217D02*
X10192757Y-16782693D01*
X10211805Y-16754121D01*
X10221329Y-16735074D01*
X10230852Y-16706502D01*
X10240376Y-16658883D01*
X10240376Y-16620788D01*
X10230852Y-16573169D01*
X10221329Y-16544598D01*
X10211805Y-16525550D01*
X10192757Y-16496978D01*
X10183233Y-16487455D01*
M02*
