%FSLAX45Y45*%
G04 Gerber Fmt 4.5, Leading zero omitted, Abs format (unit mm)*
G04 Created by KiCad (PCBNEW 6.0.4-6f826c9f35~116~ubuntu22.04.1) date 2022-04-06 02:05:02*
%MOMM*%
%LPD*%
G01*
G04 APERTURE LIST*
%TA.AperFunction,Profile*%
%ADD10C,0.150000*%
%TD*%
%ADD11C,0.200000*%
%ADD12C,0.040000*%
%ADD13C,0.060000*%
%ADD14C,0.070000*%
%ADD15C,0.080000*%
%ADD16C,0.081280*%
%ADD17C,0.110000*%
%ADD18C,0.120000*%
%ADD19C,0.147000*%
%ADD20C,0.220000*%
G04 APERTURE END LIST*
D10*
X25797400Y-5273050D02*
X3497400Y-5273050D01*
X26047400Y-5523050D02*
X26047400Y-14823050D01*
X25797400Y-15073050D02*
X3497400Y-15073050D01*
X3247400Y-14823050D02*
X3247400Y-5523050D01*
X3497400Y-5273050D02*
G75*
G03*
X3247400Y-5523050I0J-250000D01*
G01*
X26047400Y-5523050D02*
G75*
G03*
X25797400Y-5273050I-250000J0D01*
G01*
X25797400Y-15073050D02*
G75*
G03*
X26047400Y-14823050I0J250000D01*
G01*
X3247400Y-14823050D02*
G75*
G03*
X3497400Y-15073050I250000J0D01*
G01*
D11*
D12*
X4624900Y-5995550D02*
X4664900Y-6035550D01*
X4664900Y-5995550D02*
X4624900Y-6035550D01*
X4669400Y-11477050D02*
X4709400Y-11517050D01*
X4709400Y-11477050D02*
X4669400Y-11517050D01*
X5372400Y-5898050D02*
X5412400Y-5938050D01*
X5412400Y-5898050D02*
X5372400Y-5938050D01*
X5864900Y-9030550D02*
X5904900Y-9070550D01*
X5904900Y-9030550D02*
X5864900Y-9070550D01*
X5882400Y-12783050D02*
X5922400Y-12823050D01*
X5922400Y-12783050D02*
X5882400Y-12823050D01*
X5892400Y-10948050D02*
X5932400Y-10988050D01*
X5932400Y-10948050D02*
X5892400Y-10988050D01*
X5917400Y-5995550D02*
X5957400Y-6035550D01*
X5957400Y-5995550D02*
X5917400Y-6035550D01*
X6149900Y-7095550D02*
X6189900Y-7135550D01*
X6189900Y-7095550D02*
X6149900Y-7135550D01*
X6919900Y-5915550D02*
X6959900Y-5955550D01*
X6959900Y-5915550D02*
X6919900Y-5955550D01*
X7369900Y-7498050D02*
X7409900Y-7538050D01*
X7409900Y-7498050D02*
X7369900Y-7538050D01*
X7687400Y-12775550D02*
X7727400Y-12815550D01*
X7727400Y-12775550D02*
X7687400Y-12815550D01*
X7689900Y-5995550D02*
X7729900Y-6035550D01*
X7729900Y-5995550D02*
X7689900Y-6035550D01*
X7724900Y-8998050D02*
X7764900Y-9038050D01*
X7764900Y-8998050D02*
X7724900Y-9038050D01*
X7724900Y-10905550D02*
X7764900Y-10945550D01*
X7764900Y-10905550D02*
X7724900Y-10945550D01*
X7844900Y-6798050D02*
X7884900Y-6838050D01*
X7884900Y-6798050D02*
X7844900Y-6838050D01*
X8294900Y-5965550D02*
X8334900Y-6005550D01*
X8334900Y-5965550D02*
X8294900Y-6005550D01*
X8802400Y-6785550D02*
X8842400Y-6825550D01*
X8842400Y-6785550D02*
X8802400Y-6825550D01*
X9477400Y-10885550D02*
X9517400Y-10925550D01*
X9517400Y-10885550D02*
X9477400Y-10925550D01*
X9590652Y-7993802D02*
X9630652Y-8033802D01*
X9630652Y-7993802D02*
X9590652Y-8033802D01*
X9629900Y-7753050D02*
X9669900Y-7793050D01*
X9669900Y-7753050D02*
X9629900Y-7793050D01*
X9772400Y-5965550D02*
X9812400Y-6005550D01*
X9812400Y-5965550D02*
X9772400Y-6005550D01*
X9842400Y-12770550D02*
X9882400Y-12810550D01*
X9882400Y-12770550D02*
X9842400Y-12810550D01*
X10212400Y-5998050D02*
X10252400Y-6038050D01*
X10252400Y-5998050D02*
X10212400Y-6038050D01*
X10227400Y-8165550D02*
X10267400Y-8205550D01*
X10267400Y-8165550D02*
X10227400Y-8205550D01*
X10439900Y-8758050D02*
X10479900Y-8798050D01*
X10479900Y-8758050D02*
X10439900Y-8798050D01*
X10569900Y-5995550D02*
X10609900Y-6035550D01*
X10609900Y-5995550D02*
X10569900Y-6035550D01*
X10669900Y-9600550D02*
X10709900Y-9640550D01*
X10709900Y-9600550D02*
X10669900Y-9640550D01*
X11294900Y-7593050D02*
X11334900Y-7633050D01*
X11334900Y-7593050D02*
X11294900Y-7633050D01*
X11404900Y-9583050D02*
X11444900Y-9623050D01*
X11444900Y-9583050D02*
X11404900Y-9623050D01*
X11464900Y-12765550D02*
X11504900Y-12805550D01*
X11504900Y-12765550D02*
X11464900Y-12805550D01*
X11684900Y-5990550D02*
X11724900Y-6030550D01*
X11724900Y-5990550D02*
X11684900Y-6030550D01*
X11747400Y-6730550D02*
X11787400Y-6770550D01*
X11787400Y-6730550D02*
X11747400Y-6770550D01*
X12012400Y-6000550D02*
X12052400Y-6040550D01*
X12052400Y-6000550D02*
X12012400Y-6040550D01*
X12814900Y-6020550D02*
X12854900Y-6060550D01*
X12854900Y-6020550D02*
X12814900Y-6060550D01*
X13084900Y-9705550D02*
X13124900Y-9745550D01*
X13124900Y-9705550D02*
X13084900Y-9745550D01*
X13194900Y-7605550D02*
X13234900Y-7645550D01*
X13234900Y-7605550D02*
X13194900Y-7645550D01*
X13317400Y-12688050D02*
X13357400Y-12728050D01*
X13357400Y-12688050D02*
X13317400Y-12728050D01*
X13319900Y-10920550D02*
X13359900Y-10960550D01*
X13359900Y-10920550D02*
X13319900Y-10960550D01*
X13742400Y-6710550D02*
X13782400Y-6750550D01*
X13782400Y-6710550D02*
X13742400Y-6750550D01*
X14044900Y-6000550D02*
X14084900Y-6040550D01*
X14084900Y-6000550D02*
X14044900Y-6040550D01*
X14302400Y-12698050D02*
X14342400Y-12738050D01*
X14342400Y-12698050D02*
X14302400Y-12738050D01*
X15192400Y-11173050D02*
X15232400Y-11213050D01*
X15232400Y-11173050D02*
X15192400Y-11213050D01*
X15209900Y-7450550D02*
X15249900Y-7490550D01*
X15249900Y-7450550D02*
X15209900Y-7490550D01*
X15232400Y-9718050D02*
X15272400Y-9758050D01*
X15272400Y-9718050D02*
X15232400Y-9758050D01*
X15389900Y-12920550D02*
X15429900Y-12960550D01*
X15429900Y-12920550D02*
X15389900Y-12960550D01*
X16641400Y-7339050D02*
X16681400Y-7379050D01*
X16681400Y-7339050D02*
X16641400Y-7379050D01*
X16809900Y-7938050D02*
X16849900Y-7978050D01*
X16849900Y-7938050D02*
X16809900Y-7978050D01*
X17117400Y-9670550D02*
X17157400Y-9710550D01*
X17157400Y-9670550D02*
X17117400Y-9710550D01*
X17157400Y-12928050D02*
X17197400Y-12968050D01*
X17197400Y-12928050D02*
X17157400Y-12968050D01*
X18266400Y-6797050D02*
X18306400Y-6837050D01*
X18306400Y-6797050D02*
X18266400Y-6837050D01*
X18432400Y-8025550D02*
X18472400Y-8065550D01*
X18472400Y-8025550D02*
X18432400Y-8065550D01*
X18586400Y-6408050D02*
X18626400Y-6448050D01*
X18626400Y-6408050D02*
X18586400Y-6448050D01*
X18703400Y-6618050D02*
X18743400Y-6658050D01*
X18743400Y-6618050D02*
X18703400Y-6658050D01*
X18812840Y-9517710D02*
X18852840Y-9557710D01*
X18852840Y-9517710D02*
X18812840Y-9557710D01*
X19089900Y-12928050D02*
X19129900Y-12968050D01*
X19129900Y-12928050D02*
X19089900Y-12968050D01*
X19334900Y-6813050D02*
X19374900Y-6853050D01*
X19374900Y-6813050D02*
X19334900Y-6853050D01*
X20424900Y-6638050D02*
X20464900Y-6678050D01*
X20464900Y-6638050D02*
X20424900Y-6678050D01*
X20459900Y-8545550D02*
X20499900Y-8585550D01*
X20499900Y-8545550D02*
X20459900Y-8585550D01*
X21147400Y-12720550D02*
X21187400Y-12760550D01*
X21187400Y-12720550D02*
X21147400Y-12760550D01*
X21559900Y-7415550D02*
X21599900Y-7455550D01*
X21599900Y-7415550D02*
X21559900Y-7455550D01*
X22007400Y-7613050D02*
X22047400Y-7653050D01*
X22047400Y-7613050D02*
X22007400Y-7653050D01*
X22229900Y-9518050D02*
X22269900Y-9558050D01*
X22269900Y-9518050D02*
X22229900Y-9558050D01*
X22334900Y-8570550D02*
X22374900Y-8610550D01*
X22374900Y-8570550D02*
X22334900Y-8610550D01*
X22342400Y-6533050D02*
X22382400Y-6573050D01*
X22382400Y-6533050D02*
X22342400Y-6573050D01*
X22624900Y-7253050D02*
X22664900Y-7293050D01*
X22664900Y-7253050D02*
X22624900Y-7293050D01*
X22759900Y-12825550D02*
X22799900Y-12865550D01*
X22799900Y-12825550D02*
X22759900Y-12865550D01*
X22824900Y-10960550D02*
X22864900Y-11000550D01*
X22864900Y-10960550D02*
X22824900Y-11000550D01*
X23039900Y-5483050D02*
X23079900Y-5523050D01*
X23079900Y-5483050D02*
X23039900Y-5523050D01*
X24129900Y-7818050D02*
X24169900Y-7858050D01*
X24169900Y-7818050D02*
X24129900Y-7858050D01*
X24369900Y-5755550D02*
X24409900Y-5795550D01*
X24409900Y-5755550D02*
X24369900Y-5795550D01*
X24527400Y-8923050D02*
X24567400Y-8963050D01*
X24567400Y-8923050D02*
X24527400Y-8963050D01*
X24897400Y-12808050D02*
X24937400Y-12848050D01*
X24937400Y-12808050D02*
X24897400Y-12848050D01*
X22781400Y-6004550D02*
G75*
G03*
X22781400Y-6004550I-20000J0D01*
G01*
X22781900Y-6137050D02*
G75*
G03*
X22781900Y-6137050I-20000J0D01*
G01*
X22866400Y-6004550D02*
G75*
G03*
X22866400Y-6004550I-20000J0D01*
G01*
X22866900Y-6137050D02*
G75*
G03*
X22866900Y-6137050I-20000J0D01*
G01*
X22951400Y-6004550D02*
G75*
G03*
X22951400Y-6004550I-20000J0D01*
G01*
X22951900Y-6137050D02*
G75*
G03*
X22951900Y-6137050I-20000J0D01*
G01*
X23036400Y-6004550D02*
G75*
G03*
X23036400Y-6004550I-20000J0D01*
G01*
X23036900Y-6137050D02*
G75*
G03*
X23036900Y-6137050I-20000J0D01*
G01*
X23121400Y-6004550D02*
G75*
G03*
X23121400Y-6004550I-20000J0D01*
G01*
X23121900Y-6137050D02*
G75*
G03*
X23121900Y-6137050I-20000J0D01*
G01*
X23206400Y-6004550D02*
G75*
G03*
X23206400Y-6004550I-20000J0D01*
G01*
X23206900Y-6137050D02*
G75*
G03*
X23206900Y-6137050I-20000J0D01*
G01*
X23291400Y-6004550D02*
G75*
G03*
X23291400Y-6004550I-20000J0D01*
G01*
X23291900Y-6137050D02*
G75*
G03*
X23291900Y-6137050I-20000J0D01*
G01*
X23376900Y-6004550D02*
G75*
G03*
X23376900Y-6004550I-20000J0D01*
G01*
X23376900Y-6137050D02*
G75*
G03*
X23376900Y-6137050I-20000J0D01*
G01*
D13*
X3447400Y-6243050D02*
X3447400Y-6303050D01*
X3417400Y-6273050D02*
X3477400Y-6273050D01*
X3447400Y-7443050D02*
X3447400Y-7503050D01*
X3417400Y-7473050D02*
X3477400Y-7473050D01*
X3447400Y-9343050D02*
X3447400Y-9403050D01*
X3417400Y-9373050D02*
X3477400Y-9373050D01*
X3447400Y-11243050D02*
X3447400Y-11303050D01*
X3417400Y-11273050D02*
X3477400Y-11273050D01*
X3447400Y-13143050D02*
X3447400Y-13203050D01*
X3417400Y-13173050D02*
X3477400Y-13173050D01*
X3447400Y-14843050D02*
X3447400Y-14903050D01*
X3417400Y-14873050D02*
X3477400Y-14873050D01*
X5147400Y-14843050D02*
X5147400Y-14903050D01*
X5117400Y-14873050D02*
X5177400Y-14873050D01*
X7047400Y-14843050D02*
X7047400Y-14903050D01*
X7017400Y-14873050D02*
X7077400Y-14873050D01*
X8947400Y-14843050D02*
X8947400Y-14903050D01*
X8917400Y-14873050D02*
X8977400Y-14873050D01*
X10847400Y-14843050D02*
X10847400Y-14903050D01*
X10817400Y-14873050D02*
X10877400Y-14873050D01*
X12289800Y-8938750D02*
X12289800Y-8998750D01*
X12259800Y-8968750D02*
X12319800Y-8968750D01*
X12747400Y-14843050D02*
X12747400Y-14903050D01*
X12717400Y-14873050D02*
X12777400Y-14873050D01*
X14190671Y-9139779D02*
X14190671Y-9199779D01*
X14160671Y-9169779D02*
X14220671Y-9169779D01*
X14275671Y-9224779D02*
X14275671Y-9284779D01*
X14245671Y-9254779D02*
X14305671Y-9254779D01*
X14646400Y-14867050D02*
X14646400Y-14927050D01*
X14616400Y-14897050D02*
X14676400Y-14897050D01*
X16149831Y-9385619D02*
X16149831Y-9445619D01*
X16119831Y-9415619D02*
X16179831Y-9415619D01*
X16234831Y-9470619D02*
X16234831Y-9530619D01*
X16204831Y-9500619D02*
X16264831Y-9500619D01*
X16547400Y-14843050D02*
X16547400Y-14903050D01*
X16517400Y-14873050D02*
X16577400Y-14873050D01*
X16734900Y-7625550D02*
X16734900Y-7685550D01*
X16704900Y-7655550D02*
X16764900Y-7655550D01*
X17857400Y-9383100D02*
X17857400Y-9443100D01*
X17827400Y-9413100D02*
X17887400Y-9413100D01*
X18050381Y-9142569D02*
X18050381Y-9202569D01*
X18020381Y-9172569D02*
X18080381Y-9172569D01*
X18430569Y-8671219D02*
X18430569Y-8731219D01*
X18400569Y-8701219D02*
X18460569Y-8701219D01*
X18447400Y-14843050D02*
X18447400Y-14903050D01*
X18417400Y-14873050D02*
X18477400Y-14873050D01*
X18830300Y-5408150D02*
X18830300Y-5468150D01*
X18800300Y-5438150D02*
X18860300Y-5438150D01*
X18830300Y-5751050D02*
X18830300Y-5811050D01*
X18800300Y-5781050D02*
X18860300Y-5781050D01*
X19058900Y-5408150D02*
X19058900Y-5468150D01*
X19028900Y-5438150D02*
X19088900Y-5438150D01*
X19439900Y-5408150D02*
X19439900Y-5468150D01*
X19409900Y-5438150D02*
X19469900Y-5438150D01*
X19820900Y-5408150D02*
X19820900Y-5468150D01*
X19790900Y-5438150D02*
X19850900Y-5438150D01*
X20214600Y-5408150D02*
X20214600Y-5468150D01*
X20184600Y-5438150D02*
X20244600Y-5438150D01*
X20347400Y-14843050D02*
X20347400Y-14903050D01*
X20317400Y-14873050D02*
X20377400Y-14873050D01*
X20582900Y-5408150D02*
X20582900Y-5468150D01*
X20552900Y-5438150D02*
X20612900Y-5438150D01*
X21979900Y-7300450D02*
X21979900Y-7360450D01*
X21949900Y-7330450D02*
X22009900Y-7330450D01*
X22233900Y-7300450D02*
X22233900Y-7360450D01*
X22203900Y-7330450D02*
X22263900Y-7330450D01*
X22247400Y-14843050D02*
X22247400Y-14903050D01*
X22217400Y-14873050D02*
X22277400Y-14873050D01*
X24147400Y-14843050D02*
X24147400Y-14903050D01*
X24117400Y-14873050D02*
X24177400Y-14873050D01*
X25847400Y-6243050D02*
X25847400Y-6303050D01*
X25817400Y-6273050D02*
X25877400Y-6273050D01*
X25847400Y-7443050D02*
X25847400Y-7503050D01*
X25817400Y-7473050D02*
X25877400Y-7473050D01*
X25847400Y-9343050D02*
X25847400Y-9403050D01*
X25817400Y-9373050D02*
X25877400Y-9373050D01*
X25847400Y-11243050D02*
X25847400Y-11303050D01*
X25817400Y-11273050D02*
X25877400Y-11273050D01*
X25847400Y-13143050D02*
X25847400Y-13203050D01*
X25817400Y-13173050D02*
X25877400Y-13173050D01*
X25847400Y-14843050D02*
X25847400Y-14903050D01*
X25817400Y-14873050D02*
X25877400Y-14873050D01*
X18001813Y-6844263D02*
X18001813Y-6801837D01*
X17959387Y-6801837D01*
X17959387Y-6844263D01*
X18001813Y-6844263D01*
X18151813Y-6844263D02*
X18151813Y-6801837D01*
X18109387Y-6801837D01*
X18109387Y-6844263D01*
X18151813Y-6844263D01*
X22648113Y-5722263D02*
X22648113Y-5679837D01*
X22605687Y-5679837D01*
X22605687Y-5722263D01*
X22648113Y-5722263D01*
D11*
X22646900Y-5741050D02*
X22646900Y-5661050D01*
X22606900Y-5741050D02*
X22606900Y-5661050D01*
X22646900Y-5661050D02*
G75*
G03*
X22606900Y-5661050I-20000J0D01*
G01*
X22606900Y-5741050D02*
G75*
G03*
X22646900Y-5741050I20000J0D01*
G01*
D13*
X22648113Y-6060263D02*
X22648113Y-6017837D01*
X22605687Y-6017837D01*
X22605687Y-6060263D01*
X22648113Y-6060263D01*
D11*
X22646900Y-6114050D02*
X22646900Y-5964050D01*
X22606900Y-6114050D02*
X22606900Y-5964050D01*
X22646900Y-5964050D02*
G75*
G03*
X22606900Y-5964050I-20000J0D01*
G01*
X22606900Y-6114050D02*
G75*
G03*
X22646900Y-6114050I20000J0D01*
G01*
D13*
X23513113Y-5722263D02*
X23513113Y-5679837D01*
X23470687Y-5679837D01*
X23470687Y-5722263D01*
X23513113Y-5722263D01*
D11*
X23511900Y-5741050D02*
X23511900Y-5661050D01*
X23471900Y-5741050D02*
X23471900Y-5661050D01*
X23511900Y-5661050D02*
G75*
G03*
X23471900Y-5661050I-20000J0D01*
G01*
X23471900Y-5741050D02*
G75*
G03*
X23511900Y-5741050I20000J0D01*
G01*
D13*
X23513113Y-6060263D02*
X23513113Y-6017837D01*
X23470687Y-6017837D01*
X23470687Y-6060263D01*
X23513113Y-6060263D01*
D11*
X23511900Y-6114050D02*
X23511900Y-5964050D01*
X23471900Y-6114050D02*
X23471900Y-5964050D01*
X23511900Y-5964050D02*
G75*
G03*
X23471900Y-5964050I-20000J0D01*
G01*
X23471900Y-6114050D02*
G75*
G03*
X23511900Y-6114050I20000J0D01*
G01*
D14*
X4009400Y-6197050D02*
X4044400Y-6162050D01*
X4009400Y-6127050D01*
X3974400Y-6162050D01*
X4009400Y-6197050D01*
X4009400Y-6705050D02*
X4044400Y-6670050D01*
X4009400Y-6635050D01*
X3974400Y-6670050D01*
X4009400Y-6705050D01*
X4263400Y-6324050D02*
X4298400Y-6289050D01*
X4263400Y-6254050D01*
X4228400Y-6289050D01*
X4263400Y-6324050D01*
X4263400Y-6832050D02*
X4298400Y-6797050D01*
X4263400Y-6762050D01*
X4228400Y-6797050D01*
X4263400Y-6832050D01*
X4517400Y-6451050D02*
X4552400Y-6416050D01*
X4517400Y-6381050D01*
X4482400Y-6416050D01*
X4517400Y-6451050D01*
X4517400Y-6959050D02*
X4552400Y-6924050D01*
X4517400Y-6889050D01*
X4482400Y-6924050D01*
X4517400Y-6959050D01*
X4771400Y-6578050D02*
X4806400Y-6543050D01*
X4771400Y-6508050D01*
X4736400Y-6543050D01*
X4771400Y-6578050D01*
X4771400Y-7086050D02*
X4806400Y-7051050D01*
X4771400Y-7016050D01*
X4736400Y-7051050D01*
X4771400Y-7086050D01*
X5025400Y-6197050D02*
X5060400Y-6162050D01*
X5025400Y-6127050D01*
X4990400Y-6162050D01*
X5025400Y-6197050D01*
X5025400Y-6705050D02*
X5060400Y-6670050D01*
X5025400Y-6635050D01*
X4990400Y-6670050D01*
X5025400Y-6705050D01*
X5279400Y-6324050D02*
X5314400Y-6289050D01*
X5279400Y-6254050D01*
X5244400Y-6289050D01*
X5279400Y-6324050D01*
X5279400Y-6832050D02*
X5314400Y-6797050D01*
X5279400Y-6762050D01*
X5244400Y-6797050D01*
X5279400Y-6832050D01*
X5533400Y-6451050D02*
X5568400Y-6416050D01*
X5533400Y-6381050D01*
X5498400Y-6416050D01*
X5533400Y-6451050D01*
X5533400Y-6959050D02*
X5568400Y-6924050D01*
X5533400Y-6889050D01*
X5498400Y-6924050D01*
X5533400Y-6959050D01*
X5787400Y-6578050D02*
X5822400Y-6543050D01*
X5787400Y-6508050D01*
X5752400Y-6543050D01*
X5787400Y-6578050D01*
X5787400Y-7086050D02*
X5822400Y-7051050D01*
X5787400Y-7016050D01*
X5752400Y-7051050D01*
X5787400Y-7086050D01*
X6041400Y-6197050D02*
X6076400Y-6162050D01*
X6041400Y-6127050D01*
X6006400Y-6162050D01*
X6041400Y-6197050D01*
X6041400Y-6705050D02*
X6076400Y-6670050D01*
X6041400Y-6635050D01*
X6006400Y-6670050D01*
X6041400Y-6705050D01*
X6295400Y-6324050D02*
X6330400Y-6289050D01*
X6295400Y-6254050D01*
X6260400Y-6289050D01*
X6295400Y-6324050D01*
X6295400Y-6832050D02*
X6330400Y-6797050D01*
X6295400Y-6762050D01*
X6260400Y-6797050D01*
X6295400Y-6832050D01*
X6549400Y-6451050D02*
X6584400Y-6416050D01*
X6549400Y-6381050D01*
X6514400Y-6416050D01*
X6549400Y-6451050D01*
X6549400Y-6959050D02*
X6584400Y-6924050D01*
X6549400Y-6889050D01*
X6514400Y-6924050D01*
X6549400Y-6959050D01*
X6803400Y-6578050D02*
X6838400Y-6543050D01*
X6803400Y-6508050D01*
X6768400Y-6543050D01*
X6803400Y-6578050D01*
X6803400Y-7086050D02*
X6838400Y-7051050D01*
X6803400Y-7016050D01*
X6768400Y-7051050D01*
X6803400Y-7086050D01*
X7057400Y-6197050D02*
X7092400Y-6162050D01*
X7057400Y-6127050D01*
X7022400Y-6162050D01*
X7057400Y-6197050D01*
X7057400Y-6705050D02*
X7092400Y-6670050D01*
X7057400Y-6635050D01*
X7022400Y-6670050D01*
X7057400Y-6705050D01*
X7311400Y-6324050D02*
X7346400Y-6289050D01*
X7311400Y-6254050D01*
X7276400Y-6289050D01*
X7311400Y-6324050D01*
X7311400Y-6832050D02*
X7346400Y-6797050D01*
X7311400Y-6762050D01*
X7276400Y-6797050D01*
X7311400Y-6832050D01*
X7565400Y-6451050D02*
X7600400Y-6416050D01*
X7565400Y-6381050D01*
X7530400Y-6416050D01*
X7565400Y-6451050D01*
X7565400Y-6959050D02*
X7600400Y-6924050D01*
X7565400Y-6889050D01*
X7530400Y-6924050D01*
X7565400Y-6959050D01*
X7819400Y-6578050D02*
X7854400Y-6543050D01*
X7819400Y-6508050D01*
X7784400Y-6543050D01*
X7819400Y-6578050D01*
X7819400Y-7086050D02*
X7854400Y-7051050D01*
X7819400Y-7016050D01*
X7784400Y-7051050D01*
X7819400Y-7086050D01*
X8073400Y-6197050D02*
X8108400Y-6162050D01*
X8073400Y-6127050D01*
X8038400Y-6162050D01*
X8073400Y-6197050D01*
X8073400Y-6705050D02*
X8108400Y-6670050D01*
X8073400Y-6635050D01*
X8038400Y-6670050D01*
X8073400Y-6705050D01*
X8327400Y-6324050D02*
X8362400Y-6289050D01*
X8327400Y-6254050D01*
X8292400Y-6289050D01*
X8327400Y-6324050D01*
X8327400Y-6832050D02*
X8362400Y-6797050D01*
X8327400Y-6762050D01*
X8292400Y-6797050D01*
X8327400Y-6832050D01*
X8581400Y-6451050D02*
X8616400Y-6416050D01*
X8581400Y-6381050D01*
X8546400Y-6416050D01*
X8581400Y-6451050D01*
X8581400Y-6959050D02*
X8616400Y-6924050D01*
X8581400Y-6889050D01*
X8546400Y-6924050D01*
X8581400Y-6959050D01*
X8835400Y-6578050D02*
X8870400Y-6543050D01*
X8835400Y-6508050D01*
X8800400Y-6543050D01*
X8835400Y-6578050D01*
X8835400Y-7086050D02*
X8870400Y-7051050D01*
X8835400Y-7016050D01*
X8800400Y-7051050D01*
X8835400Y-7086050D01*
X9089400Y-6197050D02*
X9124400Y-6162050D01*
X9089400Y-6127050D01*
X9054400Y-6162050D01*
X9089400Y-6197050D01*
X9089400Y-6705050D02*
X9124400Y-6670050D01*
X9089400Y-6635050D01*
X9054400Y-6670050D01*
X9089400Y-6705050D01*
X9343400Y-6324050D02*
X9378400Y-6289050D01*
X9343400Y-6254050D01*
X9308400Y-6289050D01*
X9343400Y-6324050D01*
X9343400Y-6832050D02*
X9378400Y-6797050D01*
X9343400Y-6762050D01*
X9308400Y-6797050D01*
X9343400Y-6832050D01*
X9597400Y-6451050D02*
X9632400Y-6416050D01*
X9597400Y-6381050D01*
X9562400Y-6416050D01*
X9597400Y-6451050D01*
X9597400Y-6959050D02*
X9632400Y-6924050D01*
X9597400Y-6889050D01*
X9562400Y-6924050D01*
X9597400Y-6959050D01*
X9851400Y-6578050D02*
X9886400Y-6543050D01*
X9851400Y-6508050D01*
X9816400Y-6543050D01*
X9851400Y-6578050D01*
X9851400Y-7086050D02*
X9886400Y-7051050D01*
X9851400Y-7016050D01*
X9816400Y-7051050D01*
X9851400Y-7086050D01*
X10105400Y-6197050D02*
X10140400Y-6162050D01*
X10105400Y-6127050D01*
X10070400Y-6162050D01*
X10105400Y-6197050D01*
X10105400Y-6705050D02*
X10140400Y-6670050D01*
X10105400Y-6635050D01*
X10070400Y-6670050D01*
X10105400Y-6705050D01*
X10359400Y-6324050D02*
X10394400Y-6289050D01*
X10359400Y-6254050D01*
X10324400Y-6289050D01*
X10359400Y-6324050D01*
X10359400Y-6832050D02*
X10394400Y-6797050D01*
X10359400Y-6762050D01*
X10324400Y-6797050D01*
X10359400Y-6832050D01*
X10613400Y-6451050D02*
X10648400Y-6416050D01*
X10613400Y-6381050D01*
X10578400Y-6416050D01*
X10613400Y-6451050D01*
X10613400Y-6959050D02*
X10648400Y-6924050D01*
X10613400Y-6889050D01*
X10578400Y-6924050D01*
X10613400Y-6959050D01*
X10867400Y-6578050D02*
X10902400Y-6543050D01*
X10867400Y-6508050D01*
X10832400Y-6543050D01*
X10867400Y-6578050D01*
X10867400Y-7086050D02*
X10902400Y-7051050D01*
X10867400Y-7016050D01*
X10832400Y-7051050D01*
X10867400Y-7086050D01*
X11121400Y-6197050D02*
X11156400Y-6162050D01*
X11121400Y-6127050D01*
X11086400Y-6162050D01*
X11121400Y-6197050D01*
X11121400Y-6705050D02*
X11156400Y-6670050D01*
X11121400Y-6635050D01*
X11086400Y-6670050D01*
X11121400Y-6705050D01*
X11375400Y-6324050D02*
X11410400Y-6289050D01*
X11375400Y-6254050D01*
X11340400Y-6289050D01*
X11375400Y-6324050D01*
X11375400Y-6832050D02*
X11410400Y-6797050D01*
X11375400Y-6762050D01*
X11340400Y-6797050D01*
X11375400Y-6832050D01*
X11629400Y-6451050D02*
X11664400Y-6416050D01*
X11629400Y-6381050D01*
X11594400Y-6416050D01*
X11629400Y-6451050D01*
X11629400Y-6959050D02*
X11664400Y-6924050D01*
X11629400Y-6889050D01*
X11594400Y-6924050D01*
X11629400Y-6959050D01*
X11883400Y-6578050D02*
X11918400Y-6543050D01*
X11883400Y-6508050D01*
X11848400Y-6543050D01*
X11883400Y-6578050D01*
X11883400Y-7086050D02*
X11918400Y-7051050D01*
X11883400Y-7016050D01*
X11848400Y-7051050D01*
X11883400Y-7086050D01*
X12137400Y-6197050D02*
X12172400Y-6162050D01*
X12137400Y-6127050D01*
X12102400Y-6162050D01*
X12137400Y-6197050D01*
X12137400Y-6705050D02*
X12172400Y-6670050D01*
X12137400Y-6635050D01*
X12102400Y-6670050D01*
X12137400Y-6705050D01*
X12391400Y-6324050D02*
X12426400Y-6289050D01*
X12391400Y-6254050D01*
X12356400Y-6289050D01*
X12391400Y-6324050D01*
X12391400Y-6832050D02*
X12426400Y-6797050D01*
X12391400Y-6762050D01*
X12356400Y-6797050D01*
X12391400Y-6832050D01*
X12645400Y-6451050D02*
X12680400Y-6416050D01*
X12645400Y-6381050D01*
X12610400Y-6416050D01*
X12645400Y-6451050D01*
X12645400Y-6959050D02*
X12680400Y-6924050D01*
X12645400Y-6889050D01*
X12610400Y-6924050D01*
X12645400Y-6959050D01*
X12899400Y-6578050D02*
X12934400Y-6543050D01*
X12899400Y-6508050D01*
X12864400Y-6543050D01*
X12899400Y-6578050D01*
X12899400Y-7086050D02*
X12934400Y-7051050D01*
X12899400Y-7016050D01*
X12864400Y-7051050D01*
X12899400Y-7086050D01*
X13153400Y-6197050D02*
X13188400Y-6162050D01*
X13153400Y-6127050D01*
X13118400Y-6162050D01*
X13153400Y-6197050D01*
X13153400Y-6705050D02*
X13188400Y-6670050D01*
X13153400Y-6635050D01*
X13118400Y-6670050D01*
X13153400Y-6705050D01*
X13407400Y-6324050D02*
X13442400Y-6289050D01*
X13407400Y-6254050D01*
X13372400Y-6289050D01*
X13407400Y-6324050D01*
X13407400Y-6832050D02*
X13442400Y-6797050D01*
X13407400Y-6762050D01*
X13372400Y-6797050D01*
X13407400Y-6832050D01*
X13661400Y-6451050D02*
X13696400Y-6416050D01*
X13661400Y-6381050D01*
X13626400Y-6416050D01*
X13661400Y-6451050D01*
X13661400Y-6959050D02*
X13696400Y-6924050D01*
X13661400Y-6889050D01*
X13626400Y-6924050D01*
X13661400Y-6959050D01*
X13915400Y-6578050D02*
X13950400Y-6543050D01*
X13915400Y-6508050D01*
X13880400Y-6543050D01*
X13915400Y-6578050D01*
X13915400Y-7086050D02*
X13950400Y-7051050D01*
X13915400Y-7016050D01*
X13880400Y-7051050D01*
X13915400Y-7086050D01*
X14169400Y-6197050D02*
X14204400Y-6162050D01*
X14169400Y-6127050D01*
X14134400Y-6162050D01*
X14169400Y-6197050D01*
X14169400Y-6705050D02*
X14204400Y-6670050D01*
X14169400Y-6635050D01*
X14134400Y-6670050D01*
X14169400Y-6705050D01*
X14423400Y-6324050D02*
X14458400Y-6289050D01*
X14423400Y-6254050D01*
X14388400Y-6289050D01*
X14423400Y-6324050D01*
X14423400Y-6832050D02*
X14458400Y-6797050D01*
X14423400Y-6762050D01*
X14388400Y-6797050D01*
X14423400Y-6832050D01*
X14677400Y-6451050D02*
X14712400Y-6416050D01*
X14677400Y-6381050D01*
X14642400Y-6416050D01*
X14677400Y-6451050D01*
X14677400Y-6959050D02*
X14712400Y-6924050D01*
X14677400Y-6889050D01*
X14642400Y-6924050D01*
X14677400Y-6959050D01*
X14931400Y-6578050D02*
X14966400Y-6543050D01*
X14931400Y-6508050D01*
X14896400Y-6543050D01*
X14931400Y-6578050D01*
X14931400Y-7086050D02*
X14966400Y-7051050D01*
X14931400Y-7016050D01*
X14896400Y-7051050D01*
X14931400Y-7086050D01*
X15185400Y-6197050D02*
X15220400Y-6162050D01*
X15185400Y-6127050D01*
X15150400Y-6162050D01*
X15185400Y-6197050D01*
X15185400Y-6705050D02*
X15220400Y-6670050D01*
X15185400Y-6635050D01*
X15150400Y-6670050D01*
X15185400Y-6705050D01*
X15439400Y-6324050D02*
X15474400Y-6289050D01*
X15439400Y-6254050D01*
X15404400Y-6289050D01*
X15439400Y-6324050D01*
X15439400Y-6832050D02*
X15474400Y-6797050D01*
X15439400Y-6762050D01*
X15404400Y-6797050D01*
X15439400Y-6832050D01*
X15693400Y-6451050D02*
X15728400Y-6416050D01*
X15693400Y-6381050D01*
X15658400Y-6416050D01*
X15693400Y-6451050D01*
X15693400Y-6959050D02*
X15728400Y-6924050D01*
X15693400Y-6889050D01*
X15658400Y-6924050D01*
X15693400Y-6959050D01*
X15947400Y-6578050D02*
X15982400Y-6543050D01*
X15947400Y-6508050D01*
X15912400Y-6543050D01*
X15947400Y-6578050D01*
X15947400Y-7086050D02*
X15982400Y-7051050D01*
X15947400Y-7016050D01*
X15912400Y-7051050D01*
X15947400Y-7086050D01*
X17801600Y-6458050D02*
X17836600Y-6423050D01*
X17801600Y-6388050D01*
X17766600Y-6423050D01*
X17801600Y-6458050D01*
X18309600Y-6458050D02*
X18344600Y-6423050D01*
X18309600Y-6388050D01*
X18274600Y-6423050D01*
X18309600Y-6458050D01*
X21344900Y-5562050D02*
X21379900Y-5527050D01*
X21344900Y-5492050D01*
X21309900Y-5527050D01*
X21344900Y-5562050D01*
X21344900Y-5816050D02*
X21379900Y-5781050D01*
X21344900Y-5746050D01*
X21309900Y-5781050D01*
X21344900Y-5816050D01*
X21344900Y-6070050D02*
X21379900Y-6035050D01*
X21344900Y-6000050D01*
X21309900Y-6035050D01*
X21344900Y-6070050D01*
X21852900Y-5562050D02*
X21887900Y-5527050D01*
X21852900Y-5492050D01*
X21817900Y-5527050D01*
X21852900Y-5562050D01*
X21852900Y-5816050D02*
X21887900Y-5781050D01*
X21852900Y-5746050D01*
X21817900Y-5781050D01*
X21852900Y-5816050D01*
X21852900Y-6070050D02*
X21887900Y-6035050D01*
X21852900Y-6000050D01*
X21817900Y-6035050D01*
X21852900Y-6070050D01*
X22106900Y-5562050D02*
X22141900Y-5527050D01*
X22106900Y-5492050D01*
X22071900Y-5527050D01*
X22106900Y-5562050D01*
X22106900Y-6070050D02*
X22141900Y-6035050D01*
X22106900Y-6000050D01*
X22071900Y-6035050D01*
X22106900Y-6070050D01*
X22360900Y-5562050D02*
X22395900Y-5527050D01*
X22360900Y-5492050D01*
X22325900Y-5527050D01*
X22360900Y-5562050D01*
X22360900Y-6070050D02*
X22395900Y-6035050D01*
X22360900Y-6000050D01*
X22325900Y-6035050D01*
X22360900Y-6070050D01*
X23269900Y-6575550D02*
X23304900Y-6540550D01*
X23269900Y-6505550D01*
X23234900Y-6540550D01*
X23269900Y-6575550D01*
X23269900Y-7085550D02*
X23304900Y-7050550D01*
X23269900Y-7015550D01*
X23234900Y-7050550D01*
X23269900Y-7085550D01*
X23757900Y-5562050D02*
X23792900Y-5527050D01*
X23757900Y-5492050D01*
X23722900Y-5527050D01*
X23757900Y-5562050D01*
X23757900Y-6070050D02*
X23792900Y-6035050D01*
X23757900Y-6000050D01*
X23722900Y-6035050D01*
X23757900Y-6070050D01*
X24011900Y-5562050D02*
X24046900Y-5527050D01*
X24011900Y-5492050D01*
X23976900Y-5527050D01*
X24011900Y-5562050D01*
X24011900Y-6070050D02*
X24046900Y-6035050D01*
X24011900Y-6000050D01*
X23976900Y-6035050D01*
X24011900Y-6070050D01*
X24265440Y-5562510D02*
X24300440Y-5527510D01*
X24265440Y-5492510D01*
X24230440Y-5527510D01*
X24265440Y-5562510D01*
X24265440Y-6070510D02*
X24300440Y-6035510D01*
X24265440Y-6000510D01*
X24230440Y-6035510D01*
X24265440Y-6070510D01*
X24519440Y-5562510D02*
X24554440Y-5527510D01*
X24519440Y-5492510D01*
X24484440Y-5527510D01*
X24519440Y-5562510D01*
X24519440Y-6070510D02*
X24554440Y-6035510D01*
X24519440Y-6000510D01*
X24484440Y-6035510D01*
X24519440Y-6070510D01*
D15*
X18689400Y-7386000D02*
X18769400Y-7466000D01*
X18769400Y-7386000D02*
X18689400Y-7466000D01*
X18769400Y-7426000D02*
G75*
G03*
X18769400Y-7426000I-40000J0D01*
G01*
X20796900Y-6718950D02*
X20876900Y-6798950D01*
X20876900Y-6718950D02*
X20796900Y-6798950D01*
X20876900Y-6758950D02*
G75*
G03*
X20876900Y-6758950I-40000J0D01*
G01*
X23232400Y-6719050D02*
X23312400Y-6799050D01*
X23312400Y-6719050D02*
X23232400Y-6799050D01*
X23312400Y-6759050D02*
G75*
G03*
X23312400Y-6759050I-40000J0D01*
G01*
X16471400Y-6615550D02*
X16551400Y-6695550D01*
X16551400Y-6615550D02*
X16471400Y-6695550D01*
X16511400Y-6615550D02*
X16511400Y-6695550D01*
X16471400Y-6655550D02*
X16551400Y-6655550D01*
X16471400Y-6869550D02*
X16551400Y-6949550D01*
X16551400Y-6869550D02*
X16471400Y-6949550D01*
X16511400Y-6869550D02*
X16511400Y-6949550D01*
X16471400Y-6909550D02*
X16551400Y-6909550D01*
X16725400Y-6615550D02*
X16805400Y-6695550D01*
X16805400Y-6615550D02*
X16725400Y-6695550D01*
X16765400Y-6615550D02*
X16765400Y-6695550D01*
X16725400Y-6655550D02*
X16805400Y-6655550D01*
X16725400Y-6869550D02*
X16805400Y-6949550D01*
X16805400Y-6869550D02*
X16725400Y-6949550D01*
X16765400Y-6869550D02*
X16765400Y-6949550D01*
X16725400Y-6909550D02*
X16805400Y-6909550D01*
X16979400Y-6615550D02*
X17059400Y-6695550D01*
X17059400Y-6615550D02*
X16979400Y-6695550D01*
X17019400Y-6615550D02*
X17019400Y-6695550D01*
X16979400Y-6655550D02*
X17059400Y-6655550D01*
X16979400Y-6869550D02*
X17059400Y-6949550D01*
X17059400Y-6869550D02*
X16979400Y-6949550D01*
X17019400Y-6869550D02*
X17019400Y-6949550D01*
X16979400Y-6909550D02*
X17059400Y-6909550D01*
X19018900Y-5741050D02*
X19098900Y-5821050D01*
X19098900Y-5741050D02*
X19018900Y-5821050D01*
X19058900Y-5741050D02*
X19058900Y-5821050D01*
X19018900Y-5781050D02*
X19098900Y-5781050D01*
X19018900Y-5991050D02*
X19098900Y-6071050D01*
X19098900Y-5991050D02*
X19018900Y-6071050D01*
X19058900Y-5991050D02*
X19058900Y-6071050D01*
X19018900Y-6031050D02*
X19098900Y-6031050D01*
X19018900Y-6249050D02*
X19098900Y-6329050D01*
X19098900Y-6249050D02*
X19018900Y-6329050D01*
X19058900Y-6249050D02*
X19058900Y-6329050D01*
X19018900Y-6289050D02*
X19098900Y-6289050D01*
X19018900Y-7011050D02*
X19098900Y-7091050D01*
X19098900Y-7011050D02*
X19018900Y-7091050D01*
X19058900Y-7011050D02*
X19058900Y-7091050D01*
X19018900Y-7051050D02*
X19098900Y-7051050D01*
X19272900Y-6249050D02*
X19352900Y-6329050D01*
X19352900Y-6249050D02*
X19272900Y-6329050D01*
X19312900Y-6249050D02*
X19312900Y-6329050D01*
X19272900Y-6289050D02*
X19352900Y-6289050D01*
X19272900Y-7011050D02*
X19352900Y-7091050D01*
X19352900Y-7011050D02*
X19272900Y-7091050D01*
X19312900Y-7011050D02*
X19312900Y-7091050D01*
X19272900Y-7051050D02*
X19352900Y-7051050D01*
X19526900Y-6249050D02*
X19606900Y-6329050D01*
X19606900Y-6249050D02*
X19526900Y-6329050D01*
X19566900Y-6249050D02*
X19566900Y-6329050D01*
X19526900Y-6289050D02*
X19606900Y-6289050D01*
X19526900Y-7011050D02*
X19606900Y-7091050D01*
X19606900Y-7011050D02*
X19526900Y-7091050D01*
X19566900Y-7011050D02*
X19566900Y-7091050D01*
X19526900Y-7051050D02*
X19606900Y-7051050D01*
X19536900Y-5804550D02*
X19616900Y-5884550D01*
X19616900Y-5804550D02*
X19536900Y-5884550D01*
X19576900Y-5804550D02*
X19576900Y-5884550D01*
X19536900Y-5844550D02*
X19616900Y-5844550D01*
X19780900Y-6249050D02*
X19860900Y-6329050D01*
X19860900Y-6249050D02*
X19780900Y-6329050D01*
X19820900Y-6249050D02*
X19820900Y-6329050D01*
X19780900Y-6289050D02*
X19860900Y-6289050D01*
X19780900Y-7011050D02*
X19860900Y-7091050D01*
X19860900Y-7011050D02*
X19780900Y-7091050D01*
X19820900Y-7011050D02*
X19820900Y-7091050D01*
X19780900Y-7051050D02*
X19860900Y-7051050D01*
X20024900Y-5804550D02*
X20104900Y-5884550D01*
X20104900Y-5804550D02*
X20024900Y-5884550D01*
X20064900Y-5804550D02*
X20064900Y-5884550D01*
X20024900Y-5844550D02*
X20104900Y-5844550D01*
X20034900Y-6249050D02*
X20114900Y-6329050D01*
X20114900Y-6249050D02*
X20034900Y-6329050D01*
X20074900Y-6249050D02*
X20074900Y-6329050D01*
X20034900Y-6289050D02*
X20114900Y-6289050D01*
X20034900Y-7011050D02*
X20114900Y-7091050D01*
X20114900Y-7011050D02*
X20034900Y-7091050D01*
X20074900Y-7011050D02*
X20074900Y-7091050D01*
X20034900Y-7051050D02*
X20114900Y-7051050D01*
X20288900Y-6249050D02*
X20368900Y-6329050D01*
X20368900Y-6249050D02*
X20288900Y-6329050D01*
X20328900Y-6249050D02*
X20328900Y-6329050D01*
X20288900Y-6289050D02*
X20368900Y-6289050D01*
X20288900Y-7011050D02*
X20368900Y-7091050D01*
X20368900Y-7011050D02*
X20288900Y-7091050D01*
X20328900Y-7011050D02*
X20328900Y-7091050D01*
X20288900Y-7051050D02*
X20368900Y-7051050D01*
X20288900Y-7265050D02*
X20368900Y-7345050D01*
X20368900Y-7265050D02*
X20288900Y-7345050D01*
X20328900Y-7265050D02*
X20328900Y-7345050D01*
X20288900Y-7305050D02*
X20368900Y-7305050D01*
X20542900Y-5741050D02*
X20622900Y-5821050D01*
X20622900Y-5741050D02*
X20542900Y-5821050D01*
X20582900Y-5741050D02*
X20582900Y-5821050D01*
X20542900Y-5781050D02*
X20622900Y-5781050D01*
X20542900Y-5991050D02*
X20622900Y-6071050D01*
X20622900Y-5991050D02*
X20542900Y-6071050D01*
X20582900Y-5991050D02*
X20582900Y-6071050D01*
X20542900Y-6031050D02*
X20622900Y-6031050D01*
X20542900Y-6249050D02*
X20622900Y-6329050D01*
X20622900Y-6249050D02*
X20542900Y-6329050D01*
X20582900Y-6249050D02*
X20582900Y-6329050D01*
X20542900Y-6289050D02*
X20622900Y-6289050D01*
X20542900Y-7011050D02*
X20622900Y-7091050D01*
X20622900Y-7011050D02*
X20542900Y-7091050D01*
X20582900Y-7011050D02*
X20582900Y-7091050D01*
X20542900Y-7051050D02*
X20622900Y-7051050D01*
X20788900Y-7265050D02*
X20868900Y-7345050D01*
X20868900Y-7265050D02*
X20788900Y-7345050D01*
X20828900Y-7265050D02*
X20828900Y-7345050D01*
X20788900Y-7305050D02*
X20868900Y-7305050D01*
X20796900Y-5495050D02*
X20876900Y-5575050D01*
X20876900Y-5495050D02*
X20796900Y-5575050D01*
X20836900Y-5495050D02*
X20836900Y-5575050D01*
X20796900Y-5535050D02*
X20876900Y-5535050D01*
X20796900Y-5995050D02*
X20876900Y-6075050D01*
X20876900Y-5995050D02*
X20796900Y-6075050D01*
X20836900Y-5995050D02*
X20836900Y-6075050D01*
X20796900Y-6035050D02*
X20876900Y-6035050D01*
X20796900Y-6249050D02*
X20876900Y-6329050D01*
X20876900Y-6249050D02*
X20796900Y-6329050D01*
X20836900Y-6249050D02*
X20836900Y-6329050D01*
X20796900Y-6289050D02*
X20876900Y-6289050D01*
X20796900Y-7011050D02*
X20876900Y-7091050D01*
X20876900Y-7011050D02*
X20796900Y-7091050D01*
X20836900Y-7011050D02*
X20836900Y-7091050D01*
X20796900Y-7051050D02*
X20876900Y-7051050D01*
X21050900Y-6249050D02*
X21130900Y-6329050D01*
X21130900Y-6249050D02*
X21050900Y-6329050D01*
X21090900Y-6249050D02*
X21090900Y-6329050D01*
X21050900Y-6289050D02*
X21130900Y-6289050D01*
X21050900Y-7011050D02*
X21130900Y-7091050D01*
X21130900Y-7011050D02*
X21050900Y-7091050D01*
X21090900Y-7011050D02*
X21090900Y-7091050D01*
X21050900Y-7051050D02*
X21130900Y-7051050D01*
X21304900Y-6249050D02*
X21384900Y-6329050D01*
X21384900Y-6249050D02*
X21304900Y-6329050D01*
X21344900Y-6249050D02*
X21344900Y-6329050D01*
X21304900Y-6289050D02*
X21384900Y-6289050D01*
X21304900Y-7011050D02*
X21384900Y-7091050D01*
X21384900Y-7011050D02*
X21304900Y-7091050D01*
X21344900Y-7011050D02*
X21344900Y-7091050D01*
X21304900Y-7051050D02*
X21384900Y-7051050D01*
X21558900Y-6249050D02*
X21638900Y-6329050D01*
X21638900Y-6249050D02*
X21558900Y-6329050D01*
X21598900Y-6249050D02*
X21598900Y-6329050D01*
X21558900Y-6289050D02*
X21638900Y-6289050D01*
X21558900Y-7011050D02*
X21638900Y-7091050D01*
X21638900Y-7011050D02*
X21558900Y-7091050D01*
X21598900Y-7011050D02*
X21598900Y-7091050D01*
X21558900Y-7051050D02*
X21638900Y-7051050D01*
X21812900Y-6249050D02*
X21892900Y-6329050D01*
X21892900Y-6249050D02*
X21812900Y-6329050D01*
X21852900Y-6249050D02*
X21852900Y-6329050D01*
X21812900Y-6289050D02*
X21892900Y-6289050D01*
X21812900Y-7011050D02*
X21892900Y-7091050D01*
X21892900Y-7011050D02*
X21812900Y-7091050D01*
X21852900Y-7011050D02*
X21852900Y-7091050D01*
X21812900Y-7051050D02*
X21892900Y-7051050D01*
X22066900Y-6249050D02*
X22146900Y-6329050D01*
X22146900Y-6249050D02*
X22066900Y-6329050D01*
X22106900Y-6249050D02*
X22106900Y-6329050D01*
X22066900Y-6289050D02*
X22146900Y-6289050D01*
X22066900Y-7011050D02*
X22146900Y-7091050D01*
X22146900Y-7011050D02*
X22066900Y-7091050D01*
X22106900Y-7011050D02*
X22106900Y-7091050D01*
X22066900Y-7051050D02*
X22146900Y-7051050D01*
X22320900Y-6249050D02*
X22400900Y-6329050D01*
X22400900Y-6249050D02*
X22320900Y-6329050D01*
X22360900Y-6249050D02*
X22360900Y-6329050D01*
X22320900Y-6289050D02*
X22400900Y-6289050D01*
X22320900Y-7011050D02*
X22400900Y-7091050D01*
X22400900Y-7011050D02*
X22320900Y-7091050D01*
X22360900Y-7011050D02*
X22360900Y-7091050D01*
X22320900Y-7051050D02*
X22400900Y-7051050D01*
D16*
X25006700Y-5951070D02*
X25087980Y-6032350D01*
X25087980Y-5951070D02*
X25006700Y-6032350D01*
X25076077Y-6020447D02*
X25076077Y-5962973D01*
X25018603Y-5962973D01*
X25018603Y-6020447D01*
X25076077Y-6020447D01*
X25006700Y-6205070D02*
X25087980Y-6286350D01*
X25087980Y-6205070D02*
X25006700Y-6286350D01*
X25076077Y-6274447D02*
X25076077Y-6216973D01*
X25018603Y-6216973D01*
X25018603Y-6274447D01*
X25076077Y-6274447D01*
X25006700Y-6459070D02*
X25087980Y-6540350D01*
X25087980Y-6459070D02*
X25006700Y-6540350D01*
X25076077Y-6528447D02*
X25076077Y-6470973D01*
X25018603Y-6470973D01*
X25018603Y-6528447D01*
X25076077Y-6528447D01*
X25006700Y-6713070D02*
X25087980Y-6794350D01*
X25087980Y-6713070D02*
X25006700Y-6794350D01*
X25076077Y-6782447D02*
X25076077Y-6724973D01*
X25018603Y-6724973D01*
X25018603Y-6782447D01*
X25076077Y-6782447D01*
D17*
X16385400Y-5599050D02*
X16495400Y-5709050D01*
X16495400Y-5599050D02*
X16385400Y-5709050D01*
X16440400Y-5709050D02*
X16495400Y-5654050D01*
X16440400Y-5599050D01*
X16385400Y-5654050D01*
X16440400Y-5709050D01*
X16385400Y-6049050D02*
X16495400Y-6159050D01*
X16495400Y-6049050D02*
X16385400Y-6159050D01*
X16440400Y-6159050D02*
X16495400Y-6104050D01*
X16440400Y-6049050D01*
X16385400Y-6104050D01*
X16440400Y-6159050D01*
X17035400Y-5599050D02*
X17145400Y-5709050D01*
X17145400Y-5599050D02*
X17035400Y-5709050D01*
X17090400Y-5709050D02*
X17145400Y-5654050D01*
X17090400Y-5599050D01*
X17035400Y-5654050D01*
X17090400Y-5709050D01*
X17035400Y-6049050D02*
X17145400Y-6159050D01*
X17145400Y-6049050D02*
X17035400Y-6159050D01*
X17090400Y-6159050D02*
X17145400Y-6104050D01*
X17090400Y-6049050D01*
X17035400Y-6104050D01*
X17090400Y-6159050D01*
X17655400Y-5599050D02*
X17765400Y-5709050D01*
X17765400Y-5599050D02*
X17655400Y-5709050D01*
X17710400Y-5709050D02*
X17765400Y-5654050D01*
X17710400Y-5599050D01*
X17655400Y-5654050D01*
X17710400Y-5709050D01*
X17655400Y-6049050D02*
X17765400Y-6159050D01*
X17765400Y-6049050D02*
X17655400Y-6159050D01*
X17710400Y-6159050D02*
X17765400Y-6104050D01*
X17710400Y-6049050D01*
X17655400Y-6104050D01*
X17710400Y-6159050D01*
X18305400Y-5599050D02*
X18415400Y-5709050D01*
X18415400Y-5599050D02*
X18305400Y-5709050D01*
X18360400Y-5709050D02*
X18415400Y-5654050D01*
X18360400Y-5599050D01*
X18305400Y-5654050D01*
X18360400Y-5709050D01*
X18305400Y-6049050D02*
X18415400Y-6159050D01*
X18415400Y-6049050D02*
X18305400Y-6159050D01*
X18360400Y-6159050D02*
X18415400Y-6104050D01*
X18360400Y-6049050D01*
X18305400Y-6104050D01*
X18360400Y-6159050D01*
D18*
X4197400Y-7773050D02*
X4197400Y-7893050D01*
X4137400Y-7833050D02*
X4257400Y-7833050D01*
X4257400Y-7833050D02*
G75*
G03*
X4257400Y-7833050I-60000J0D01*
G01*
X4197400Y-9673050D02*
X4197400Y-9793050D01*
X4137400Y-9733050D02*
X4257400Y-9733050D01*
X4257400Y-9733050D02*
G75*
G03*
X4257400Y-9733050I-60000J0D01*
G01*
X4197400Y-11573050D02*
X4197400Y-11693050D01*
X4137400Y-11633050D02*
X4257400Y-11633050D01*
X4257400Y-11633050D02*
G75*
G03*
X4257400Y-11633050I-60000J0D01*
G01*
X4197400Y-13473050D02*
X4197400Y-13593050D01*
X4137400Y-13533050D02*
X4257400Y-13533050D01*
X4257400Y-13533050D02*
G75*
G03*
X4257400Y-13533050I-60000J0D01*
G01*
X4697400Y-7983050D02*
X4697400Y-8103050D01*
X4637400Y-8043050D02*
X4757400Y-8043050D01*
X4757400Y-8043050D02*
G75*
G03*
X4757400Y-8043050I-60000J0D01*
G01*
X4697400Y-9883050D02*
X4697400Y-10003050D01*
X4637400Y-9943050D02*
X4757400Y-9943050D01*
X4757400Y-9943050D02*
G75*
G03*
X4757400Y-9943050I-60000J0D01*
G01*
X4697400Y-11783050D02*
X4697400Y-11903050D01*
X4637400Y-11843050D02*
X4757400Y-11843050D01*
X4757400Y-11843050D02*
G75*
G03*
X4757400Y-11843050I-60000J0D01*
G01*
X4697400Y-13683050D02*
X4697400Y-13803050D01*
X4637400Y-13743050D02*
X4757400Y-13743050D01*
X4757400Y-13743050D02*
G75*
G03*
X4757400Y-13743050I-60000J0D01*
G01*
X6097400Y-7773050D02*
X6097400Y-7893050D01*
X6037400Y-7833050D02*
X6157400Y-7833050D01*
X6157400Y-7833050D02*
G75*
G03*
X6157400Y-7833050I-60000J0D01*
G01*
X6097400Y-9673050D02*
X6097400Y-9793050D01*
X6037400Y-9733050D02*
X6157400Y-9733050D01*
X6157400Y-9733050D02*
G75*
G03*
X6157400Y-9733050I-60000J0D01*
G01*
X6097400Y-11573050D02*
X6097400Y-11693050D01*
X6037400Y-11633050D02*
X6157400Y-11633050D01*
X6157400Y-11633050D02*
G75*
G03*
X6157400Y-11633050I-60000J0D01*
G01*
X6097400Y-13473050D02*
X6097400Y-13593050D01*
X6037400Y-13533050D02*
X6157400Y-13533050D01*
X6157400Y-13533050D02*
G75*
G03*
X6157400Y-13533050I-60000J0D01*
G01*
X6597400Y-7983050D02*
X6597400Y-8103050D01*
X6537400Y-8043050D02*
X6657400Y-8043050D01*
X6657400Y-8043050D02*
G75*
G03*
X6657400Y-8043050I-60000J0D01*
G01*
X6597400Y-9883050D02*
X6597400Y-10003050D01*
X6537400Y-9943050D02*
X6657400Y-9943050D01*
X6657400Y-9943050D02*
G75*
G03*
X6657400Y-9943050I-60000J0D01*
G01*
X6597400Y-11783050D02*
X6597400Y-11903050D01*
X6537400Y-11843050D02*
X6657400Y-11843050D01*
X6657400Y-11843050D02*
G75*
G03*
X6657400Y-11843050I-60000J0D01*
G01*
X6597400Y-13683050D02*
X6597400Y-13803050D01*
X6537400Y-13743050D02*
X6657400Y-13743050D01*
X6657400Y-13743050D02*
G75*
G03*
X6657400Y-13743050I-60000J0D01*
G01*
X7997400Y-7773050D02*
X7997400Y-7893050D01*
X7937400Y-7833050D02*
X8057400Y-7833050D01*
X8057400Y-7833050D02*
G75*
G03*
X8057400Y-7833050I-60000J0D01*
G01*
X7997400Y-9673050D02*
X7997400Y-9793050D01*
X7937400Y-9733050D02*
X8057400Y-9733050D01*
X8057400Y-9733050D02*
G75*
G03*
X8057400Y-9733050I-60000J0D01*
G01*
X7997400Y-11573050D02*
X7997400Y-11693050D01*
X7937400Y-11633050D02*
X8057400Y-11633050D01*
X8057400Y-11633050D02*
G75*
G03*
X8057400Y-11633050I-60000J0D01*
G01*
X7997400Y-13473050D02*
X7997400Y-13593050D01*
X7937400Y-13533050D02*
X8057400Y-13533050D01*
X8057400Y-13533050D02*
G75*
G03*
X8057400Y-13533050I-60000J0D01*
G01*
X8497400Y-7983050D02*
X8497400Y-8103050D01*
X8437400Y-8043050D02*
X8557400Y-8043050D01*
X8557400Y-8043050D02*
G75*
G03*
X8557400Y-8043050I-60000J0D01*
G01*
X8497400Y-9883050D02*
X8497400Y-10003050D01*
X8437400Y-9943050D02*
X8557400Y-9943050D01*
X8557400Y-9943050D02*
G75*
G03*
X8557400Y-9943050I-60000J0D01*
G01*
X8497400Y-11783050D02*
X8497400Y-11903050D01*
X8437400Y-11843050D02*
X8557400Y-11843050D01*
X8557400Y-11843050D02*
G75*
G03*
X8557400Y-11843050I-60000J0D01*
G01*
X8497400Y-13683050D02*
X8497400Y-13803050D01*
X8437400Y-13743050D02*
X8557400Y-13743050D01*
X8557400Y-13743050D02*
G75*
G03*
X8557400Y-13743050I-60000J0D01*
G01*
X9897400Y-7773050D02*
X9897400Y-7893050D01*
X9837400Y-7833050D02*
X9957400Y-7833050D01*
X9957400Y-7833050D02*
G75*
G03*
X9957400Y-7833050I-60000J0D01*
G01*
X9897400Y-9673050D02*
X9897400Y-9793050D01*
X9837400Y-9733050D02*
X9957400Y-9733050D01*
X9957400Y-9733050D02*
G75*
G03*
X9957400Y-9733050I-60000J0D01*
G01*
X9897400Y-11573050D02*
X9897400Y-11693050D01*
X9837400Y-11633050D02*
X9957400Y-11633050D01*
X9957400Y-11633050D02*
G75*
G03*
X9957400Y-11633050I-60000J0D01*
G01*
X9897400Y-13473050D02*
X9897400Y-13593050D01*
X9837400Y-13533050D02*
X9957400Y-13533050D01*
X9957400Y-13533050D02*
G75*
G03*
X9957400Y-13533050I-60000J0D01*
G01*
X10397400Y-7983050D02*
X10397400Y-8103050D01*
X10337400Y-8043050D02*
X10457400Y-8043050D01*
X10457400Y-8043050D02*
G75*
G03*
X10457400Y-8043050I-60000J0D01*
G01*
X10397400Y-9883050D02*
X10397400Y-10003050D01*
X10337400Y-9943050D02*
X10457400Y-9943050D01*
X10457400Y-9943050D02*
G75*
G03*
X10457400Y-9943050I-60000J0D01*
G01*
X10397400Y-11783050D02*
X10397400Y-11903050D01*
X10337400Y-11843050D02*
X10457400Y-11843050D01*
X10457400Y-11843050D02*
G75*
G03*
X10457400Y-11843050I-60000J0D01*
G01*
X10397400Y-13683050D02*
X10397400Y-13803050D01*
X10337400Y-13743050D02*
X10457400Y-13743050D01*
X10457400Y-13743050D02*
G75*
G03*
X10457400Y-13743050I-60000J0D01*
G01*
X11797400Y-7773050D02*
X11797400Y-7893050D01*
X11737400Y-7833050D02*
X11857400Y-7833050D01*
X11857400Y-7833050D02*
G75*
G03*
X11857400Y-7833050I-60000J0D01*
G01*
X11797400Y-9673050D02*
X11797400Y-9793050D01*
X11737400Y-9733050D02*
X11857400Y-9733050D01*
X11857400Y-9733050D02*
G75*
G03*
X11857400Y-9733050I-60000J0D01*
G01*
X11797400Y-11573050D02*
X11797400Y-11693050D01*
X11737400Y-11633050D02*
X11857400Y-11633050D01*
X11857400Y-11633050D02*
G75*
G03*
X11857400Y-11633050I-60000J0D01*
G01*
X11797400Y-13473050D02*
X11797400Y-13593050D01*
X11737400Y-13533050D02*
X11857400Y-13533050D01*
X11857400Y-13533050D02*
G75*
G03*
X11857400Y-13533050I-60000J0D01*
G01*
X12297400Y-7983050D02*
X12297400Y-8103050D01*
X12237400Y-8043050D02*
X12357400Y-8043050D01*
X12357400Y-8043050D02*
G75*
G03*
X12357400Y-8043050I-60000J0D01*
G01*
X12297400Y-9883050D02*
X12297400Y-10003050D01*
X12237400Y-9943050D02*
X12357400Y-9943050D01*
X12357400Y-9943050D02*
G75*
G03*
X12357400Y-9943050I-60000J0D01*
G01*
X12297400Y-11783050D02*
X12297400Y-11903050D01*
X12237400Y-11843050D02*
X12357400Y-11843050D01*
X12357400Y-11843050D02*
G75*
G03*
X12357400Y-11843050I-60000J0D01*
G01*
X12297400Y-13683050D02*
X12297400Y-13803050D01*
X12237400Y-13743050D02*
X12357400Y-13743050D01*
X12357400Y-13743050D02*
G75*
G03*
X12357400Y-13743050I-60000J0D01*
G01*
X13197400Y-14443050D02*
X13197400Y-14563050D01*
X13137400Y-14503050D02*
X13257400Y-14503050D01*
X13257400Y-14503050D02*
G75*
G03*
X13257400Y-14503050I-60000J0D01*
G01*
X13697400Y-7773050D02*
X13697400Y-7893050D01*
X13637400Y-7833050D02*
X13757400Y-7833050D01*
X13757400Y-7833050D02*
G75*
G03*
X13757400Y-7833050I-60000J0D01*
G01*
X13697400Y-9673050D02*
X13697400Y-9793050D01*
X13637400Y-9733050D02*
X13757400Y-9733050D01*
X13757400Y-9733050D02*
G75*
G03*
X13757400Y-9733050I-60000J0D01*
G01*
X13697400Y-11573050D02*
X13697400Y-11693050D01*
X13637400Y-11633050D02*
X13757400Y-11633050D01*
X13757400Y-11633050D02*
G75*
G03*
X13757400Y-11633050I-60000J0D01*
G01*
X13697400Y-14653050D02*
X13697400Y-14773050D01*
X13637400Y-14713050D02*
X13757400Y-14713050D01*
X13757400Y-14713050D02*
G75*
G03*
X13757400Y-14713050I-60000J0D01*
G01*
X14147400Y-14443050D02*
X14147400Y-14563050D01*
X14087400Y-14503050D02*
X14207400Y-14503050D01*
X14207400Y-14503050D02*
G75*
G03*
X14207400Y-14503050I-60000J0D01*
G01*
X14197400Y-7983050D02*
X14197400Y-8103050D01*
X14137400Y-8043050D02*
X14257400Y-8043050D01*
X14257400Y-8043050D02*
G75*
G03*
X14257400Y-8043050I-60000J0D01*
G01*
X14197400Y-9883050D02*
X14197400Y-10003050D01*
X14137400Y-9943050D02*
X14257400Y-9943050D01*
X14257400Y-9943050D02*
G75*
G03*
X14257400Y-9943050I-60000J0D01*
G01*
X14197400Y-11783050D02*
X14197400Y-11903050D01*
X14137400Y-11843050D02*
X14257400Y-11843050D01*
X14257400Y-11843050D02*
G75*
G03*
X14257400Y-11843050I-60000J0D01*
G01*
X14647400Y-14653050D02*
X14647400Y-14773050D01*
X14587400Y-14713050D02*
X14707400Y-14713050D01*
X14707400Y-14713050D02*
G75*
G03*
X14707400Y-14713050I-60000J0D01*
G01*
X15097400Y-14443050D02*
X15097400Y-14563050D01*
X15037400Y-14503050D02*
X15157400Y-14503050D01*
X15157400Y-14503050D02*
G75*
G03*
X15157400Y-14503050I-60000J0D01*
G01*
X15597400Y-7773050D02*
X15597400Y-7893050D01*
X15537400Y-7833050D02*
X15657400Y-7833050D01*
X15657400Y-7833050D02*
G75*
G03*
X15657400Y-7833050I-60000J0D01*
G01*
X15597400Y-9673050D02*
X15597400Y-9793050D01*
X15537400Y-9733050D02*
X15657400Y-9733050D01*
X15657400Y-9733050D02*
G75*
G03*
X15657400Y-9733050I-60000J0D01*
G01*
X15597400Y-11573050D02*
X15597400Y-11693050D01*
X15537400Y-11633050D02*
X15657400Y-11633050D01*
X15657400Y-11633050D02*
G75*
G03*
X15657400Y-11633050I-60000J0D01*
G01*
X15597400Y-14653050D02*
X15597400Y-14773050D01*
X15537400Y-14713050D02*
X15657400Y-14713050D01*
X15657400Y-14713050D02*
G75*
G03*
X15657400Y-14713050I-60000J0D01*
G01*
X16097400Y-7983050D02*
X16097400Y-8103050D01*
X16037400Y-8043050D02*
X16157400Y-8043050D01*
X16157400Y-8043050D02*
G75*
G03*
X16157400Y-8043050I-60000J0D01*
G01*
X16097400Y-9883050D02*
X16097400Y-10003050D01*
X16037400Y-9943050D02*
X16157400Y-9943050D01*
X16157400Y-9943050D02*
G75*
G03*
X16157400Y-9943050I-60000J0D01*
G01*
X16097400Y-11783050D02*
X16097400Y-11903050D01*
X16037400Y-11843050D02*
X16157400Y-11843050D01*
X16157400Y-11843050D02*
G75*
G03*
X16157400Y-11843050I-60000J0D01*
G01*
X17497400Y-7773050D02*
X17497400Y-7893050D01*
X17437400Y-7833050D02*
X17557400Y-7833050D01*
X17557400Y-7833050D02*
G75*
G03*
X17557400Y-7833050I-60000J0D01*
G01*
X17497400Y-9673050D02*
X17497400Y-9793050D01*
X17437400Y-9733050D02*
X17557400Y-9733050D01*
X17557400Y-9733050D02*
G75*
G03*
X17557400Y-9733050I-60000J0D01*
G01*
X17497400Y-11573050D02*
X17497400Y-11693050D01*
X17437400Y-11633050D02*
X17557400Y-11633050D01*
X17557400Y-11633050D02*
G75*
G03*
X17557400Y-11633050I-60000J0D01*
G01*
X17497400Y-13473050D02*
X17497400Y-13593050D01*
X17437400Y-13533050D02*
X17557400Y-13533050D01*
X17557400Y-13533050D02*
G75*
G03*
X17557400Y-13533050I-60000J0D01*
G01*
X17997400Y-7983050D02*
X17997400Y-8103050D01*
X17937400Y-8043050D02*
X18057400Y-8043050D01*
X18057400Y-8043050D02*
G75*
G03*
X18057400Y-8043050I-60000J0D01*
G01*
X17997400Y-9883050D02*
X17997400Y-10003050D01*
X17937400Y-9943050D02*
X18057400Y-9943050D01*
X18057400Y-9943050D02*
G75*
G03*
X18057400Y-9943050I-60000J0D01*
G01*
X17997400Y-11783050D02*
X17997400Y-11903050D01*
X17937400Y-11843050D02*
X18057400Y-11843050D01*
X18057400Y-11843050D02*
G75*
G03*
X18057400Y-11843050I-60000J0D01*
G01*
X17997400Y-13683050D02*
X17997400Y-13803050D01*
X17937400Y-13743050D02*
X18057400Y-13743050D01*
X18057400Y-13743050D02*
G75*
G03*
X18057400Y-13743050I-60000J0D01*
G01*
X19397400Y-7773050D02*
X19397400Y-7893050D01*
X19337400Y-7833050D02*
X19457400Y-7833050D01*
X19457400Y-7833050D02*
G75*
G03*
X19457400Y-7833050I-60000J0D01*
G01*
X19397400Y-9673050D02*
X19397400Y-9793050D01*
X19337400Y-9733050D02*
X19457400Y-9733050D01*
X19457400Y-9733050D02*
G75*
G03*
X19457400Y-9733050I-60000J0D01*
G01*
X19397400Y-11573050D02*
X19397400Y-11693050D01*
X19337400Y-11633050D02*
X19457400Y-11633050D01*
X19457400Y-11633050D02*
G75*
G03*
X19457400Y-11633050I-60000J0D01*
G01*
X19397400Y-13473050D02*
X19397400Y-13593050D01*
X19337400Y-13533050D02*
X19457400Y-13533050D01*
X19457400Y-13533050D02*
G75*
G03*
X19457400Y-13533050I-60000J0D01*
G01*
X19897400Y-7983050D02*
X19897400Y-8103050D01*
X19837400Y-8043050D02*
X19957400Y-8043050D01*
X19957400Y-8043050D02*
G75*
G03*
X19957400Y-8043050I-60000J0D01*
G01*
X19897400Y-9883050D02*
X19897400Y-10003050D01*
X19837400Y-9943050D02*
X19957400Y-9943050D01*
X19957400Y-9943050D02*
G75*
G03*
X19957400Y-9943050I-60000J0D01*
G01*
X19897400Y-11783050D02*
X19897400Y-11903050D01*
X19837400Y-11843050D02*
X19957400Y-11843050D01*
X19957400Y-11843050D02*
G75*
G03*
X19957400Y-11843050I-60000J0D01*
G01*
X19897400Y-13683050D02*
X19897400Y-13803050D01*
X19837400Y-13743050D02*
X19957400Y-13743050D01*
X19957400Y-13743050D02*
G75*
G03*
X19957400Y-13743050I-60000J0D01*
G01*
X21297400Y-7773050D02*
X21297400Y-7893050D01*
X21237400Y-7833050D02*
X21357400Y-7833050D01*
X21357400Y-7833050D02*
G75*
G03*
X21357400Y-7833050I-60000J0D01*
G01*
X21297400Y-9673050D02*
X21297400Y-9793050D01*
X21237400Y-9733050D02*
X21357400Y-9733050D01*
X21357400Y-9733050D02*
G75*
G03*
X21357400Y-9733050I-60000J0D01*
G01*
X21297400Y-11573050D02*
X21297400Y-11693050D01*
X21237400Y-11633050D02*
X21357400Y-11633050D01*
X21357400Y-11633050D02*
G75*
G03*
X21357400Y-11633050I-60000J0D01*
G01*
X21297400Y-13473050D02*
X21297400Y-13593050D01*
X21237400Y-13533050D02*
X21357400Y-13533050D01*
X21357400Y-13533050D02*
G75*
G03*
X21357400Y-13533050I-60000J0D01*
G01*
X21797400Y-7983050D02*
X21797400Y-8103050D01*
X21737400Y-8043050D02*
X21857400Y-8043050D01*
X21857400Y-8043050D02*
G75*
G03*
X21857400Y-8043050I-60000J0D01*
G01*
X21797400Y-9883050D02*
X21797400Y-10003050D01*
X21737400Y-9943050D02*
X21857400Y-9943050D01*
X21857400Y-9943050D02*
G75*
G03*
X21857400Y-9943050I-60000J0D01*
G01*
X21797400Y-11783050D02*
X21797400Y-11903050D01*
X21737400Y-11843050D02*
X21857400Y-11843050D01*
X21857400Y-11843050D02*
G75*
G03*
X21857400Y-11843050I-60000J0D01*
G01*
X21797400Y-13683050D02*
X21797400Y-13803050D01*
X21737400Y-13743050D02*
X21857400Y-13743050D01*
X21857400Y-13743050D02*
G75*
G03*
X21857400Y-13743050I-60000J0D01*
G01*
X23197400Y-7773050D02*
X23197400Y-7893050D01*
X23137400Y-7833050D02*
X23257400Y-7833050D01*
X23257400Y-7833050D02*
G75*
G03*
X23257400Y-7833050I-60000J0D01*
G01*
X23197400Y-9673050D02*
X23197400Y-9793050D01*
X23137400Y-9733050D02*
X23257400Y-9733050D01*
X23257400Y-9733050D02*
G75*
G03*
X23257400Y-9733050I-60000J0D01*
G01*
X23197400Y-11573050D02*
X23197400Y-11693050D01*
X23137400Y-11633050D02*
X23257400Y-11633050D01*
X23257400Y-11633050D02*
G75*
G03*
X23257400Y-11633050I-60000J0D01*
G01*
X23197400Y-13473050D02*
X23197400Y-13593050D01*
X23137400Y-13533050D02*
X23257400Y-13533050D01*
X23257400Y-13533050D02*
G75*
G03*
X23257400Y-13533050I-60000J0D01*
G01*
X23697400Y-7983050D02*
X23697400Y-8103050D01*
X23637400Y-8043050D02*
X23757400Y-8043050D01*
X23757400Y-8043050D02*
G75*
G03*
X23757400Y-8043050I-60000J0D01*
G01*
X23697400Y-9883050D02*
X23697400Y-10003050D01*
X23637400Y-9943050D02*
X23757400Y-9943050D01*
X23757400Y-9943050D02*
G75*
G03*
X23757400Y-9943050I-60000J0D01*
G01*
X23697400Y-11783050D02*
X23697400Y-11903050D01*
X23637400Y-11843050D02*
X23757400Y-11843050D01*
X23757400Y-11843050D02*
G75*
G03*
X23757400Y-11843050I-60000J0D01*
G01*
X23697400Y-13683050D02*
X23697400Y-13803050D01*
X23637400Y-13743050D02*
X23757400Y-13743050D01*
X23757400Y-13743050D02*
G75*
G03*
X23757400Y-13743050I-60000J0D01*
G01*
X25097400Y-7773050D02*
X25097400Y-7893050D01*
X25037400Y-7833050D02*
X25157400Y-7833050D01*
X25157400Y-7833050D02*
G75*
G03*
X25157400Y-7833050I-60000J0D01*
G01*
X25097400Y-9673050D02*
X25097400Y-9793050D01*
X25037400Y-9733050D02*
X25157400Y-9733050D01*
X25157400Y-9733050D02*
G75*
G03*
X25157400Y-9733050I-60000J0D01*
G01*
X25097400Y-11573050D02*
X25097400Y-11693050D01*
X25037400Y-11633050D02*
X25157400Y-11633050D01*
X25157400Y-11633050D02*
G75*
G03*
X25157400Y-11633050I-60000J0D01*
G01*
X25097400Y-13473050D02*
X25097400Y-13593050D01*
X25037400Y-13533050D02*
X25157400Y-13533050D01*
X25157400Y-13533050D02*
G75*
G03*
X25157400Y-13533050I-60000J0D01*
G01*
X25597400Y-7983050D02*
X25597400Y-8103050D01*
X25537400Y-8043050D02*
X25657400Y-8043050D01*
X25657400Y-8043050D02*
G75*
G03*
X25657400Y-8043050I-60000J0D01*
G01*
X25597400Y-9883050D02*
X25597400Y-10003050D01*
X25537400Y-9943050D02*
X25657400Y-9943050D01*
X25657400Y-9943050D02*
G75*
G03*
X25657400Y-9943050I-60000J0D01*
G01*
X25597400Y-11783050D02*
X25597400Y-11903050D01*
X25537400Y-11843050D02*
X25657400Y-11843050D01*
X25657400Y-11843050D02*
G75*
G03*
X25657400Y-11843050I-60000J0D01*
G01*
X25597400Y-13683050D02*
X25597400Y-13803050D01*
X25537400Y-13743050D02*
X25657400Y-13743050D01*
X25657400Y-13743050D02*
G75*
G03*
X25657400Y-13743050I-60000J0D01*
G01*
D19*
X3868373Y-8221023D02*
X3868373Y-8117077D01*
X3764427Y-8117077D01*
X3764427Y-8221023D01*
X3868373Y-8221023D01*
X3889900Y-8169050D02*
G75*
G03*
X3889900Y-8169050I-73500J0D01*
G01*
X3868373Y-10121023D02*
X3868373Y-10017077D01*
X3764427Y-10017077D01*
X3764427Y-10121023D01*
X3868373Y-10121023D01*
X3889900Y-10069050D02*
G75*
G03*
X3889900Y-10069050I-73500J0D01*
G01*
X3868373Y-12021023D02*
X3868373Y-11917077D01*
X3764427Y-11917077D01*
X3764427Y-12021023D01*
X3868373Y-12021023D01*
X3889900Y-11969050D02*
G75*
G03*
X3889900Y-11969050I-73500J0D01*
G01*
X3868373Y-13921023D02*
X3868373Y-13817077D01*
X3764427Y-13817077D01*
X3764427Y-13921023D01*
X3868373Y-13921023D01*
X3889900Y-13869050D02*
G75*
G03*
X3889900Y-13869050I-73500J0D01*
G01*
X4503373Y-7967023D02*
X4503373Y-7863077D01*
X4399427Y-7863077D01*
X4399427Y-7967023D01*
X4503373Y-7967023D01*
X4524900Y-7915050D02*
G75*
G03*
X4524900Y-7915050I-73500J0D01*
G01*
X4503373Y-9867023D02*
X4503373Y-9763077D01*
X4399427Y-9763077D01*
X4399427Y-9867023D01*
X4503373Y-9867023D01*
X4524900Y-9815050D02*
G75*
G03*
X4524900Y-9815050I-73500J0D01*
G01*
X4503373Y-11767023D02*
X4503373Y-11663077D01*
X4399427Y-11663077D01*
X4399427Y-11767023D01*
X4503373Y-11767023D01*
X4524900Y-11715050D02*
G75*
G03*
X4524900Y-11715050I-73500J0D01*
G01*
X4503373Y-13667023D02*
X4503373Y-13563077D01*
X4399427Y-13563077D01*
X4399427Y-13667023D01*
X4503373Y-13667023D01*
X4524900Y-13615050D02*
G75*
G03*
X4524900Y-13615050I-73500J0D01*
G01*
X5768373Y-8221023D02*
X5768373Y-8117077D01*
X5664427Y-8117077D01*
X5664427Y-8221023D01*
X5768373Y-8221023D01*
X5789900Y-8169050D02*
G75*
G03*
X5789900Y-8169050I-73500J0D01*
G01*
X5768373Y-10121023D02*
X5768373Y-10017077D01*
X5664427Y-10017077D01*
X5664427Y-10121023D01*
X5768373Y-10121023D01*
X5789900Y-10069050D02*
G75*
G03*
X5789900Y-10069050I-73500J0D01*
G01*
X5768373Y-12021023D02*
X5768373Y-11917077D01*
X5664427Y-11917077D01*
X5664427Y-12021023D01*
X5768373Y-12021023D01*
X5789900Y-11969050D02*
G75*
G03*
X5789900Y-11969050I-73500J0D01*
G01*
X5768373Y-13921023D02*
X5768373Y-13817077D01*
X5664427Y-13817077D01*
X5664427Y-13921023D01*
X5768373Y-13921023D01*
X5789900Y-13869050D02*
G75*
G03*
X5789900Y-13869050I-73500J0D01*
G01*
X6403373Y-7967023D02*
X6403373Y-7863077D01*
X6299427Y-7863077D01*
X6299427Y-7967023D01*
X6403373Y-7967023D01*
X6424900Y-7915050D02*
G75*
G03*
X6424900Y-7915050I-73500J0D01*
G01*
X6403373Y-9867023D02*
X6403373Y-9763077D01*
X6299427Y-9763077D01*
X6299427Y-9867023D01*
X6403373Y-9867023D01*
X6424900Y-9815050D02*
G75*
G03*
X6424900Y-9815050I-73500J0D01*
G01*
X6403373Y-11767023D02*
X6403373Y-11663077D01*
X6299427Y-11663077D01*
X6299427Y-11767023D01*
X6403373Y-11767023D01*
X6424900Y-11715050D02*
G75*
G03*
X6424900Y-11715050I-73500J0D01*
G01*
X6403373Y-13667023D02*
X6403373Y-13563077D01*
X6299427Y-13563077D01*
X6299427Y-13667023D01*
X6403373Y-13667023D01*
X6424900Y-13615050D02*
G75*
G03*
X6424900Y-13615050I-73500J0D01*
G01*
X7668373Y-8221023D02*
X7668373Y-8117077D01*
X7564427Y-8117077D01*
X7564427Y-8221023D01*
X7668373Y-8221023D01*
X7689900Y-8169050D02*
G75*
G03*
X7689900Y-8169050I-73500J0D01*
G01*
X7668373Y-10121023D02*
X7668373Y-10017077D01*
X7564427Y-10017077D01*
X7564427Y-10121023D01*
X7668373Y-10121023D01*
X7689900Y-10069050D02*
G75*
G03*
X7689900Y-10069050I-73500J0D01*
G01*
X7668373Y-12021023D02*
X7668373Y-11917077D01*
X7564427Y-11917077D01*
X7564427Y-12021023D01*
X7668373Y-12021023D01*
X7689900Y-11969050D02*
G75*
G03*
X7689900Y-11969050I-73500J0D01*
G01*
X7668373Y-13921023D02*
X7668373Y-13817077D01*
X7564427Y-13817077D01*
X7564427Y-13921023D01*
X7668373Y-13921023D01*
X7689900Y-13869050D02*
G75*
G03*
X7689900Y-13869050I-73500J0D01*
G01*
X8303373Y-7967023D02*
X8303373Y-7863077D01*
X8199427Y-7863077D01*
X8199427Y-7967023D01*
X8303373Y-7967023D01*
X8324900Y-7915050D02*
G75*
G03*
X8324900Y-7915050I-73500J0D01*
G01*
X8303373Y-9867023D02*
X8303373Y-9763077D01*
X8199427Y-9763077D01*
X8199427Y-9867023D01*
X8303373Y-9867023D01*
X8324900Y-9815050D02*
G75*
G03*
X8324900Y-9815050I-73500J0D01*
G01*
X8303373Y-11767023D02*
X8303373Y-11663077D01*
X8199427Y-11663077D01*
X8199427Y-11767023D01*
X8303373Y-11767023D01*
X8324900Y-11715050D02*
G75*
G03*
X8324900Y-11715050I-73500J0D01*
G01*
X8303373Y-13667023D02*
X8303373Y-13563077D01*
X8199427Y-13563077D01*
X8199427Y-13667023D01*
X8303373Y-13667023D01*
X8324900Y-13615050D02*
G75*
G03*
X8324900Y-13615050I-73500J0D01*
G01*
X9568373Y-8221023D02*
X9568373Y-8117077D01*
X9464427Y-8117077D01*
X9464427Y-8221023D01*
X9568373Y-8221023D01*
X9589900Y-8169050D02*
G75*
G03*
X9589900Y-8169050I-73500J0D01*
G01*
X9568373Y-10121023D02*
X9568373Y-10017077D01*
X9464427Y-10017077D01*
X9464427Y-10121023D01*
X9568373Y-10121023D01*
X9589900Y-10069050D02*
G75*
G03*
X9589900Y-10069050I-73500J0D01*
G01*
X9568373Y-12021023D02*
X9568373Y-11917077D01*
X9464427Y-11917077D01*
X9464427Y-12021023D01*
X9568373Y-12021023D01*
X9589900Y-11969050D02*
G75*
G03*
X9589900Y-11969050I-73500J0D01*
G01*
X9568373Y-13921023D02*
X9568373Y-13817077D01*
X9464427Y-13817077D01*
X9464427Y-13921023D01*
X9568373Y-13921023D01*
X9589900Y-13869050D02*
G75*
G03*
X9589900Y-13869050I-73500J0D01*
G01*
X10203373Y-7967023D02*
X10203373Y-7863077D01*
X10099427Y-7863077D01*
X10099427Y-7967023D01*
X10203373Y-7967023D01*
X10224900Y-7915050D02*
G75*
G03*
X10224900Y-7915050I-73500J0D01*
G01*
X10203373Y-9867023D02*
X10203373Y-9763077D01*
X10099427Y-9763077D01*
X10099427Y-9867023D01*
X10203373Y-9867023D01*
X10224900Y-9815050D02*
G75*
G03*
X10224900Y-9815050I-73500J0D01*
G01*
X10203373Y-11767023D02*
X10203373Y-11663077D01*
X10099427Y-11663077D01*
X10099427Y-11767023D01*
X10203373Y-11767023D01*
X10224900Y-11715050D02*
G75*
G03*
X10224900Y-11715050I-73500J0D01*
G01*
X10203373Y-13667023D02*
X10203373Y-13563077D01*
X10099427Y-13563077D01*
X10099427Y-13667023D01*
X10203373Y-13667023D01*
X10224900Y-13615050D02*
G75*
G03*
X10224900Y-13615050I-73500J0D01*
G01*
X11468373Y-8221023D02*
X11468373Y-8117077D01*
X11364427Y-8117077D01*
X11364427Y-8221023D01*
X11468373Y-8221023D01*
X11489900Y-8169050D02*
G75*
G03*
X11489900Y-8169050I-73500J0D01*
G01*
X11468373Y-10121023D02*
X11468373Y-10017077D01*
X11364427Y-10017077D01*
X11364427Y-10121023D01*
X11468373Y-10121023D01*
X11489900Y-10069050D02*
G75*
G03*
X11489900Y-10069050I-73500J0D01*
G01*
X11468373Y-12021023D02*
X11468373Y-11917077D01*
X11364427Y-11917077D01*
X11364427Y-12021023D01*
X11468373Y-12021023D01*
X11489900Y-11969050D02*
G75*
G03*
X11489900Y-11969050I-73500J0D01*
G01*
X11468373Y-13921023D02*
X11468373Y-13817077D01*
X11364427Y-13817077D01*
X11364427Y-13921023D01*
X11468373Y-13921023D01*
X11489900Y-13869050D02*
G75*
G03*
X11489900Y-13869050I-73500J0D01*
G01*
X12103373Y-7967023D02*
X12103373Y-7863077D01*
X11999427Y-7863077D01*
X11999427Y-7967023D01*
X12103373Y-7967023D01*
X12124900Y-7915050D02*
G75*
G03*
X12124900Y-7915050I-73500J0D01*
G01*
X12103373Y-9867023D02*
X12103373Y-9763077D01*
X11999427Y-9763077D01*
X11999427Y-9867023D01*
X12103373Y-9867023D01*
X12124900Y-9815050D02*
G75*
G03*
X12124900Y-9815050I-73500J0D01*
G01*
X12103373Y-11767023D02*
X12103373Y-11663077D01*
X11999427Y-11663077D01*
X11999427Y-11767023D01*
X12103373Y-11767023D01*
X12124900Y-11715050D02*
G75*
G03*
X12124900Y-11715050I-73500J0D01*
G01*
X12103373Y-13667023D02*
X12103373Y-13563077D01*
X11999427Y-13563077D01*
X11999427Y-13667023D01*
X12103373Y-13667023D01*
X12124900Y-13615050D02*
G75*
G03*
X12124900Y-13615050I-73500J0D01*
G01*
X13368373Y-8221023D02*
X13368373Y-8117077D01*
X13264427Y-8117077D01*
X13264427Y-8221023D01*
X13368373Y-8221023D01*
X13389900Y-8169050D02*
G75*
G03*
X13389900Y-8169050I-73500J0D01*
G01*
X13368373Y-10121023D02*
X13368373Y-10017077D01*
X13264427Y-10017077D01*
X13264427Y-10121023D01*
X13368373Y-10121023D01*
X13389900Y-10069050D02*
G75*
G03*
X13389900Y-10069050I-73500J0D01*
G01*
X13368373Y-12021023D02*
X13368373Y-11917077D01*
X13264427Y-11917077D01*
X13264427Y-12021023D01*
X13368373Y-12021023D01*
X13389900Y-11969050D02*
G75*
G03*
X13389900Y-11969050I-73500J0D01*
G01*
X13368373Y-13921023D02*
X13368373Y-13817077D01*
X13264427Y-13817077D01*
X13264427Y-13921023D01*
X13368373Y-13921023D01*
X13389900Y-13869050D02*
G75*
G03*
X13389900Y-13869050I-73500J0D01*
G01*
X14003373Y-7967023D02*
X14003373Y-7863077D01*
X13899427Y-7863077D01*
X13899427Y-7967023D01*
X14003373Y-7967023D01*
X14024900Y-7915050D02*
G75*
G03*
X14024900Y-7915050I-73500J0D01*
G01*
X14003373Y-9867023D02*
X14003373Y-9763077D01*
X13899427Y-9763077D01*
X13899427Y-9867023D01*
X14003373Y-9867023D01*
X14024900Y-9815050D02*
G75*
G03*
X14024900Y-9815050I-73500J0D01*
G01*
X14003373Y-11767023D02*
X14003373Y-11663077D01*
X13899427Y-11663077D01*
X13899427Y-11767023D01*
X14003373Y-11767023D01*
X14024900Y-11715050D02*
G75*
G03*
X14024900Y-11715050I-73500J0D01*
G01*
X14003373Y-13667023D02*
X14003373Y-13563077D01*
X13899427Y-13563077D01*
X13899427Y-13667023D01*
X14003373Y-13667023D01*
X14024900Y-13615050D02*
G75*
G03*
X14024900Y-13615050I-73500J0D01*
G01*
X14318373Y-13921023D02*
X14318373Y-13817077D01*
X14214427Y-13817077D01*
X14214427Y-13921023D01*
X14318373Y-13921023D01*
X14339900Y-13869050D02*
G75*
G03*
X14339900Y-13869050I-73500J0D01*
G01*
X14953373Y-13667023D02*
X14953373Y-13563077D01*
X14849427Y-13563077D01*
X14849427Y-13667023D01*
X14953373Y-13667023D01*
X14974900Y-13615050D02*
G75*
G03*
X14974900Y-13615050I-73500J0D01*
G01*
X15268373Y-8221023D02*
X15268373Y-8117077D01*
X15164427Y-8117077D01*
X15164427Y-8221023D01*
X15268373Y-8221023D01*
X15289900Y-8169050D02*
G75*
G03*
X15289900Y-8169050I-73500J0D01*
G01*
X15268373Y-10121023D02*
X15268373Y-10017077D01*
X15164427Y-10017077D01*
X15164427Y-10121023D01*
X15268373Y-10121023D01*
X15289900Y-10069050D02*
G75*
G03*
X15289900Y-10069050I-73500J0D01*
G01*
X15268373Y-12021023D02*
X15268373Y-11917077D01*
X15164427Y-11917077D01*
X15164427Y-12021023D01*
X15268373Y-12021023D01*
X15289900Y-11969050D02*
G75*
G03*
X15289900Y-11969050I-73500J0D01*
G01*
X15268373Y-13921023D02*
X15268373Y-13817077D01*
X15164427Y-13817077D01*
X15164427Y-13921023D01*
X15268373Y-13921023D01*
X15289900Y-13869050D02*
G75*
G03*
X15289900Y-13869050I-73500J0D01*
G01*
X15903373Y-7967023D02*
X15903373Y-7863077D01*
X15799427Y-7863077D01*
X15799427Y-7967023D01*
X15903373Y-7967023D01*
X15924900Y-7915050D02*
G75*
G03*
X15924900Y-7915050I-73500J0D01*
G01*
X15903373Y-9867023D02*
X15903373Y-9763077D01*
X15799427Y-9763077D01*
X15799427Y-9867023D01*
X15903373Y-9867023D01*
X15924900Y-9815050D02*
G75*
G03*
X15924900Y-9815050I-73500J0D01*
G01*
X15903373Y-11767023D02*
X15903373Y-11663077D01*
X15799427Y-11663077D01*
X15799427Y-11767023D01*
X15903373Y-11767023D01*
X15924900Y-11715050D02*
G75*
G03*
X15924900Y-11715050I-73500J0D01*
G01*
X15903373Y-13667023D02*
X15903373Y-13563077D01*
X15799427Y-13563077D01*
X15799427Y-13667023D01*
X15903373Y-13667023D01*
X15924900Y-13615050D02*
G75*
G03*
X15924900Y-13615050I-73500J0D01*
G01*
X17168373Y-8221023D02*
X17168373Y-8117077D01*
X17064427Y-8117077D01*
X17064427Y-8221023D01*
X17168373Y-8221023D01*
X17189900Y-8169050D02*
G75*
G03*
X17189900Y-8169050I-73500J0D01*
G01*
X17168373Y-10121023D02*
X17168373Y-10017077D01*
X17064427Y-10017077D01*
X17064427Y-10121023D01*
X17168373Y-10121023D01*
X17189900Y-10069050D02*
G75*
G03*
X17189900Y-10069050I-73500J0D01*
G01*
X17168373Y-12021023D02*
X17168373Y-11917077D01*
X17064427Y-11917077D01*
X17064427Y-12021023D01*
X17168373Y-12021023D01*
X17189900Y-11969050D02*
G75*
G03*
X17189900Y-11969050I-73500J0D01*
G01*
X17168373Y-13921023D02*
X17168373Y-13817077D01*
X17064427Y-13817077D01*
X17064427Y-13921023D01*
X17168373Y-13921023D01*
X17189900Y-13869050D02*
G75*
G03*
X17189900Y-13869050I-73500J0D01*
G01*
X17803373Y-7967023D02*
X17803373Y-7863077D01*
X17699427Y-7863077D01*
X17699427Y-7967023D01*
X17803373Y-7967023D01*
X17824900Y-7915050D02*
G75*
G03*
X17824900Y-7915050I-73500J0D01*
G01*
X17803373Y-9867023D02*
X17803373Y-9763077D01*
X17699427Y-9763077D01*
X17699427Y-9867023D01*
X17803373Y-9867023D01*
X17824900Y-9815050D02*
G75*
G03*
X17824900Y-9815050I-73500J0D01*
G01*
X17803373Y-11767023D02*
X17803373Y-11663077D01*
X17699427Y-11663077D01*
X17699427Y-11767023D01*
X17803373Y-11767023D01*
X17824900Y-11715050D02*
G75*
G03*
X17824900Y-11715050I-73500J0D01*
G01*
X17803373Y-13667023D02*
X17803373Y-13563077D01*
X17699427Y-13563077D01*
X17699427Y-13667023D01*
X17803373Y-13667023D01*
X17824900Y-13615050D02*
G75*
G03*
X17824900Y-13615050I-73500J0D01*
G01*
X19068373Y-8221023D02*
X19068373Y-8117077D01*
X18964427Y-8117077D01*
X18964427Y-8221023D01*
X19068373Y-8221023D01*
X19089900Y-8169050D02*
G75*
G03*
X19089900Y-8169050I-73500J0D01*
G01*
X19068373Y-10121023D02*
X19068373Y-10017077D01*
X18964427Y-10017077D01*
X18964427Y-10121023D01*
X19068373Y-10121023D01*
X19089900Y-10069050D02*
G75*
G03*
X19089900Y-10069050I-73500J0D01*
G01*
X19068373Y-12021023D02*
X19068373Y-11917077D01*
X18964427Y-11917077D01*
X18964427Y-12021023D01*
X19068373Y-12021023D01*
X19089900Y-11969050D02*
G75*
G03*
X19089900Y-11969050I-73500J0D01*
G01*
X19068373Y-13921023D02*
X19068373Y-13817077D01*
X18964427Y-13817077D01*
X18964427Y-13921023D01*
X19068373Y-13921023D01*
X19089900Y-13869050D02*
G75*
G03*
X19089900Y-13869050I-73500J0D01*
G01*
X19703373Y-7967023D02*
X19703373Y-7863077D01*
X19599427Y-7863077D01*
X19599427Y-7967023D01*
X19703373Y-7967023D01*
X19724900Y-7915050D02*
G75*
G03*
X19724900Y-7915050I-73500J0D01*
G01*
X19703373Y-9867023D02*
X19703373Y-9763077D01*
X19599427Y-9763077D01*
X19599427Y-9867023D01*
X19703373Y-9867023D01*
X19724900Y-9815050D02*
G75*
G03*
X19724900Y-9815050I-73500J0D01*
G01*
X19703373Y-11767023D02*
X19703373Y-11663077D01*
X19599427Y-11663077D01*
X19599427Y-11767023D01*
X19703373Y-11767023D01*
X19724900Y-11715050D02*
G75*
G03*
X19724900Y-11715050I-73500J0D01*
G01*
X19703373Y-13667023D02*
X19703373Y-13563077D01*
X19599427Y-13563077D01*
X19599427Y-13667023D01*
X19703373Y-13667023D01*
X19724900Y-13615050D02*
G75*
G03*
X19724900Y-13615050I-73500J0D01*
G01*
X20968373Y-8221023D02*
X20968373Y-8117077D01*
X20864427Y-8117077D01*
X20864427Y-8221023D01*
X20968373Y-8221023D01*
X20989900Y-8169050D02*
G75*
G03*
X20989900Y-8169050I-73500J0D01*
G01*
X20968373Y-10121023D02*
X20968373Y-10017077D01*
X20864427Y-10017077D01*
X20864427Y-10121023D01*
X20968373Y-10121023D01*
X20989900Y-10069050D02*
G75*
G03*
X20989900Y-10069050I-73500J0D01*
G01*
X20968373Y-12021023D02*
X20968373Y-11917077D01*
X20864427Y-11917077D01*
X20864427Y-12021023D01*
X20968373Y-12021023D01*
X20989900Y-11969050D02*
G75*
G03*
X20989900Y-11969050I-73500J0D01*
G01*
X20968373Y-13921023D02*
X20968373Y-13817077D01*
X20864427Y-13817077D01*
X20864427Y-13921023D01*
X20968373Y-13921023D01*
X20989900Y-13869050D02*
G75*
G03*
X20989900Y-13869050I-73500J0D01*
G01*
X21603373Y-7967023D02*
X21603373Y-7863077D01*
X21499427Y-7863077D01*
X21499427Y-7967023D01*
X21603373Y-7967023D01*
X21624900Y-7915050D02*
G75*
G03*
X21624900Y-7915050I-73500J0D01*
G01*
X21603373Y-9867023D02*
X21603373Y-9763077D01*
X21499427Y-9763077D01*
X21499427Y-9867023D01*
X21603373Y-9867023D01*
X21624900Y-9815050D02*
G75*
G03*
X21624900Y-9815050I-73500J0D01*
G01*
X21603373Y-11767023D02*
X21603373Y-11663077D01*
X21499427Y-11663077D01*
X21499427Y-11767023D01*
X21603373Y-11767023D01*
X21624900Y-11715050D02*
G75*
G03*
X21624900Y-11715050I-73500J0D01*
G01*
X21603373Y-13667023D02*
X21603373Y-13563077D01*
X21499427Y-13563077D01*
X21499427Y-13667023D01*
X21603373Y-13667023D01*
X21624900Y-13615050D02*
G75*
G03*
X21624900Y-13615050I-73500J0D01*
G01*
X22868373Y-8221023D02*
X22868373Y-8117077D01*
X22764427Y-8117077D01*
X22764427Y-8221023D01*
X22868373Y-8221023D01*
X22889900Y-8169050D02*
G75*
G03*
X22889900Y-8169050I-73500J0D01*
G01*
X22868373Y-10121023D02*
X22868373Y-10017077D01*
X22764427Y-10017077D01*
X22764427Y-10121023D01*
X22868373Y-10121023D01*
X22889900Y-10069050D02*
G75*
G03*
X22889900Y-10069050I-73500J0D01*
G01*
X22868373Y-12021023D02*
X22868373Y-11917077D01*
X22764427Y-11917077D01*
X22764427Y-12021023D01*
X22868373Y-12021023D01*
X22889900Y-11969050D02*
G75*
G03*
X22889900Y-11969050I-73500J0D01*
G01*
X22868373Y-13921023D02*
X22868373Y-13817077D01*
X22764427Y-13817077D01*
X22764427Y-13921023D01*
X22868373Y-13921023D01*
X22889900Y-13869050D02*
G75*
G03*
X22889900Y-13869050I-73500J0D01*
G01*
X23503373Y-7967023D02*
X23503373Y-7863077D01*
X23399427Y-7863077D01*
X23399427Y-7967023D01*
X23503373Y-7967023D01*
X23524900Y-7915050D02*
G75*
G03*
X23524900Y-7915050I-73500J0D01*
G01*
X23503373Y-9867023D02*
X23503373Y-9763077D01*
X23399427Y-9763077D01*
X23399427Y-9867023D01*
X23503373Y-9867023D01*
X23524900Y-9815050D02*
G75*
G03*
X23524900Y-9815050I-73500J0D01*
G01*
X23503373Y-11767023D02*
X23503373Y-11663077D01*
X23399427Y-11663077D01*
X23399427Y-11767023D01*
X23503373Y-11767023D01*
X23524900Y-11715050D02*
G75*
G03*
X23524900Y-11715050I-73500J0D01*
G01*
X23503373Y-13667023D02*
X23503373Y-13563077D01*
X23399427Y-13563077D01*
X23399427Y-13667023D01*
X23503373Y-13667023D01*
X23524900Y-13615050D02*
G75*
G03*
X23524900Y-13615050I-73500J0D01*
G01*
X24768373Y-8221023D02*
X24768373Y-8117077D01*
X24664427Y-8117077D01*
X24664427Y-8221023D01*
X24768373Y-8221023D01*
X24789900Y-8169050D02*
G75*
G03*
X24789900Y-8169050I-73500J0D01*
G01*
X24768373Y-10121023D02*
X24768373Y-10017077D01*
X24664427Y-10017077D01*
X24664427Y-10121023D01*
X24768373Y-10121023D01*
X24789900Y-10069050D02*
G75*
G03*
X24789900Y-10069050I-73500J0D01*
G01*
X24768373Y-12021023D02*
X24768373Y-11917077D01*
X24664427Y-11917077D01*
X24664427Y-12021023D01*
X24768373Y-12021023D01*
X24789900Y-11969050D02*
G75*
G03*
X24789900Y-11969050I-73500J0D01*
G01*
X24768373Y-13921023D02*
X24768373Y-13817077D01*
X24664427Y-13817077D01*
X24664427Y-13921023D01*
X24768373Y-13921023D01*
X24789900Y-13869050D02*
G75*
G03*
X24789900Y-13869050I-73500J0D01*
G01*
X25403373Y-7967023D02*
X25403373Y-7863077D01*
X25299427Y-7863077D01*
X25299427Y-7967023D01*
X25403373Y-7967023D01*
X25424900Y-7915050D02*
G75*
G03*
X25424900Y-7915050I-73500J0D01*
G01*
X25403373Y-9867023D02*
X25403373Y-9763077D01*
X25299427Y-9763077D01*
X25299427Y-9867023D01*
X25403373Y-9867023D01*
X25424900Y-9815050D02*
G75*
G03*
X25424900Y-9815050I-73500J0D01*
G01*
X25403373Y-11767023D02*
X25403373Y-11663077D01*
X25299427Y-11663077D01*
X25299427Y-11767023D01*
X25403373Y-11767023D01*
X25424900Y-11715050D02*
G75*
G03*
X25424900Y-11715050I-73500J0D01*
G01*
X25403373Y-13667023D02*
X25403373Y-13563077D01*
X25299427Y-13563077D01*
X25299427Y-13667023D01*
X25403373Y-13667023D01*
X25424900Y-13615050D02*
G75*
G03*
X25424900Y-13615050I-73500J0D01*
G01*
D20*
X3647400Y-5783050D02*
X3757400Y-5673050D01*
X3647400Y-5563050D01*
X3537400Y-5673050D01*
X3647400Y-5783050D01*
X3757400Y-5673050D02*
G75*
G03*
X3757400Y-5673050I-110000J0D01*
G01*
X3647400Y-7183050D02*
X3757400Y-7073050D01*
X3647400Y-6963050D01*
X3537400Y-7073050D01*
X3647400Y-7183050D01*
X3757400Y-7073050D02*
G75*
G03*
X3757400Y-7073050I-110000J0D01*
G01*
X5147400Y-11383050D02*
X5257400Y-11273050D01*
X5147400Y-11163050D01*
X5037400Y-11273050D01*
X5147400Y-11383050D01*
X5257400Y-11273050D02*
G75*
G03*
X5257400Y-11273050I-110000J0D01*
G01*
X8947400Y-9483050D02*
X9057400Y-9373050D01*
X8947400Y-9263050D01*
X8837400Y-9373050D01*
X8947400Y-9483050D01*
X9057400Y-9373050D02*
G75*
G03*
X9057400Y-9373050I-110000J0D01*
G01*
X8947400Y-13283050D02*
X9057400Y-13173050D01*
X8947400Y-13063050D01*
X8837400Y-13173050D01*
X8947400Y-13283050D01*
X9057400Y-13173050D02*
G75*
G03*
X9057400Y-13173050I-110000J0D01*
G01*
X20347400Y-9483050D02*
X20457400Y-9373050D01*
X20347400Y-9263050D01*
X20237400Y-9373050D01*
X20347400Y-9483050D01*
X20457400Y-9373050D02*
G75*
G03*
X20457400Y-9373050I-110000J0D01*
G01*
X20347400Y-13283050D02*
X20457400Y-13173050D01*
X20347400Y-13063050D01*
X20237400Y-13173050D01*
X20347400Y-13283050D01*
X20457400Y-13173050D02*
G75*
G03*
X20457400Y-13173050I-110000J0D01*
G01*
X24147400Y-11383050D02*
X24257400Y-11273050D01*
X24147400Y-11163050D01*
X24037400Y-11273050D01*
X24147400Y-11383050D01*
X24257400Y-11273050D02*
G75*
G03*
X24257400Y-11273050I-110000J0D01*
G01*
X25647400Y-5783050D02*
X25757400Y-5673050D01*
X25647400Y-5563050D01*
X25537400Y-5673050D01*
X25647400Y-5783050D01*
X25757400Y-5673050D02*
G75*
G03*
X25757400Y-5673050I-110000J0D01*
G01*
X25647400Y-7183050D02*
X25757400Y-7073050D01*
X25647400Y-6963050D01*
X25537400Y-7073050D01*
X25647400Y-7183050D01*
X25757400Y-7073050D02*
G75*
G03*
X25757400Y-7073050I-110000J0D01*
G01*
D11*
X3497519Y-15391026D02*
X3497519Y-15191026D01*
X3545138Y-15191026D01*
X3573709Y-15200550D01*
X3592757Y-15219598D01*
X3602281Y-15238645D01*
X3611805Y-15276740D01*
X3611805Y-15305312D01*
X3602281Y-15343407D01*
X3592757Y-15362455D01*
X3573709Y-15381502D01*
X3545138Y-15391026D01*
X3497519Y-15391026D01*
X3697519Y-15391026D02*
X3697519Y-15257693D01*
X3697519Y-15295788D02*
X3707043Y-15276740D01*
X3716567Y-15267217D01*
X3735614Y-15257693D01*
X3754662Y-15257693D01*
X3821328Y-15391026D02*
X3821328Y-15257693D01*
X3821328Y-15191026D02*
X3811805Y-15200550D01*
X3821328Y-15210074D01*
X3830852Y-15200550D01*
X3821328Y-15191026D01*
X3821328Y-15210074D01*
X3945138Y-15391026D02*
X3926090Y-15381502D01*
X3916567Y-15362455D01*
X3916567Y-15191026D01*
X4049900Y-15391026D02*
X4030852Y-15381502D01*
X4021328Y-15362455D01*
X4021328Y-15191026D01*
X4278471Y-15391026D02*
X4278471Y-15191026D01*
X4345138Y-15333883D01*
X4411805Y-15191026D01*
X4411805Y-15391026D01*
X4592757Y-15391026D02*
X4592757Y-15286264D01*
X4583233Y-15267217D01*
X4564186Y-15257693D01*
X4526090Y-15257693D01*
X4507043Y-15267217D01*
X4592757Y-15381502D02*
X4573710Y-15391026D01*
X4526090Y-15391026D01*
X4507043Y-15381502D01*
X4497519Y-15362455D01*
X4497519Y-15343407D01*
X4507043Y-15324359D01*
X4526090Y-15314836D01*
X4573710Y-15314836D01*
X4592757Y-15305312D01*
X4687995Y-15257693D02*
X4687995Y-15457693D01*
X4687995Y-15267217D02*
X4707043Y-15257693D01*
X4745138Y-15257693D01*
X4764186Y-15267217D01*
X4773710Y-15276740D01*
X4783233Y-15295788D01*
X4783233Y-15352931D01*
X4773710Y-15371978D01*
X4764186Y-15381502D01*
X4745138Y-15391026D01*
X4707043Y-15391026D01*
X4687995Y-15381502D01*
X4868948Y-15371978D02*
X4878471Y-15381502D01*
X4868948Y-15391026D01*
X4859424Y-15381502D01*
X4868948Y-15371978D01*
X4868948Y-15391026D01*
X4868948Y-15267217D02*
X4878471Y-15276740D01*
X4868948Y-15286264D01*
X4859424Y-15276740D01*
X4868948Y-15267217D01*
X4868948Y-15286264D01*
D12*
X3199900Y-15700550D02*
X3239900Y-15740550D01*
X3239900Y-15700550D02*
X3199900Y-15740550D01*
D11*
X3535614Y-15611026D02*
X3554662Y-15611026D01*
X3573709Y-15620550D01*
X3583233Y-15630074D01*
X3592757Y-15649121D01*
X3602281Y-15687217D01*
X3602281Y-15734836D01*
X3592757Y-15772931D01*
X3583233Y-15791978D01*
X3573709Y-15801502D01*
X3554662Y-15811026D01*
X3535614Y-15811026D01*
X3516567Y-15801502D01*
X3507043Y-15791978D01*
X3497519Y-15772931D01*
X3487995Y-15734836D01*
X3487995Y-15687217D01*
X3497519Y-15649121D01*
X3507043Y-15630074D01*
X3516567Y-15620550D01*
X3535614Y-15611026D01*
X3687995Y-15791978D02*
X3697519Y-15801502D01*
X3687995Y-15811026D01*
X3678471Y-15801502D01*
X3687995Y-15791978D01*
X3687995Y-15811026D01*
X3868948Y-15677693D02*
X3868948Y-15811026D01*
X3821328Y-15601502D02*
X3773709Y-15744359D01*
X3897519Y-15744359D01*
X4011805Y-15611026D02*
X4030852Y-15611026D01*
X4049900Y-15620550D01*
X4059424Y-15630074D01*
X4068948Y-15649121D01*
X4078471Y-15687217D01*
X4078471Y-15734836D01*
X4068948Y-15772931D01*
X4059424Y-15791978D01*
X4049900Y-15801502D01*
X4030852Y-15811026D01*
X4011805Y-15811026D01*
X3992757Y-15801502D01*
X3983233Y-15791978D01*
X3973709Y-15772931D01*
X3964186Y-15734836D01*
X3964186Y-15687217D01*
X3973709Y-15649121D01*
X3983233Y-15630074D01*
X3992757Y-15620550D01*
X4011805Y-15611026D01*
X4202281Y-15611026D02*
X4221329Y-15611026D01*
X4240376Y-15620550D01*
X4249900Y-15630074D01*
X4259424Y-15649121D01*
X4268948Y-15687217D01*
X4268948Y-15734836D01*
X4259424Y-15772931D01*
X4249900Y-15791978D01*
X4240376Y-15801502D01*
X4221329Y-15811026D01*
X4202281Y-15811026D01*
X4183233Y-15801502D01*
X4173709Y-15791978D01*
X4164186Y-15772931D01*
X4154662Y-15734836D01*
X4154662Y-15687217D01*
X4164186Y-15649121D01*
X4173709Y-15630074D01*
X4183233Y-15620550D01*
X4202281Y-15611026D01*
X4354662Y-15811026D02*
X4354662Y-15677693D01*
X4354662Y-15696740D02*
X4364186Y-15687217D01*
X4383233Y-15677693D01*
X4411805Y-15677693D01*
X4430852Y-15687217D01*
X4440376Y-15706264D01*
X4440376Y-15811026D01*
X4440376Y-15706264D02*
X4449900Y-15687217D01*
X4468948Y-15677693D01*
X4497519Y-15677693D01*
X4516567Y-15687217D01*
X4526090Y-15706264D01*
X4526090Y-15811026D01*
X4621329Y-15811026D02*
X4621329Y-15677693D01*
X4621329Y-15696740D02*
X4630852Y-15687217D01*
X4649900Y-15677693D01*
X4678471Y-15677693D01*
X4697519Y-15687217D01*
X4707043Y-15706264D01*
X4707043Y-15811026D01*
X4707043Y-15706264D02*
X4716567Y-15687217D01*
X4735614Y-15677693D01*
X4764186Y-15677693D01*
X4783233Y-15687217D01*
X4792757Y-15706264D01*
X4792757Y-15811026D01*
X5183233Y-15601502D02*
X5011805Y-15858645D01*
X5440376Y-15611026D02*
X5459424Y-15611026D01*
X5478471Y-15620550D01*
X5487995Y-15630074D01*
X5497519Y-15649121D01*
X5507043Y-15687217D01*
X5507043Y-15734836D01*
X5497519Y-15772931D01*
X5487995Y-15791978D01*
X5478471Y-15801502D01*
X5459424Y-15811026D01*
X5440376Y-15811026D01*
X5421329Y-15801502D01*
X5411805Y-15791978D01*
X5402281Y-15772931D01*
X5392757Y-15734836D01*
X5392757Y-15687217D01*
X5402281Y-15649121D01*
X5411805Y-15630074D01*
X5421329Y-15620550D01*
X5440376Y-15611026D01*
X5592757Y-15791978D02*
X5602281Y-15801502D01*
X5592757Y-15811026D01*
X5583233Y-15801502D01*
X5592757Y-15791978D01*
X5592757Y-15811026D01*
X5726090Y-15611026D02*
X5745138Y-15611026D01*
X5764186Y-15620550D01*
X5773709Y-15630074D01*
X5783233Y-15649121D01*
X5792757Y-15687217D01*
X5792757Y-15734836D01*
X5783233Y-15772931D01*
X5773709Y-15791978D01*
X5764186Y-15801502D01*
X5745138Y-15811026D01*
X5726090Y-15811026D01*
X5707043Y-15801502D01*
X5697519Y-15791978D01*
X5687995Y-15772931D01*
X5678471Y-15734836D01*
X5678471Y-15687217D01*
X5687995Y-15649121D01*
X5697519Y-15630074D01*
X5707043Y-15620550D01*
X5726090Y-15611026D01*
X5983233Y-15811026D02*
X5868948Y-15811026D01*
X5926090Y-15811026D02*
X5926090Y-15611026D01*
X5907043Y-15639598D01*
X5887995Y-15658645D01*
X5868948Y-15668169D01*
X6164186Y-15611026D02*
X6068948Y-15611026D01*
X6059424Y-15706264D01*
X6068948Y-15696740D01*
X6087995Y-15687217D01*
X6135614Y-15687217D01*
X6154662Y-15696740D01*
X6164186Y-15706264D01*
X6173709Y-15725312D01*
X6173709Y-15772931D01*
X6164186Y-15791978D01*
X6154662Y-15801502D01*
X6135614Y-15811026D01*
X6087995Y-15811026D01*
X6068948Y-15801502D01*
X6059424Y-15791978D01*
X6240376Y-15611026D02*
X6373709Y-15611026D01*
X6287995Y-15811026D01*
X6440376Y-15611026D02*
X6440376Y-15649121D01*
X6516567Y-15611026D02*
X6516567Y-15649121D01*
X6811805Y-15887217D02*
X6802281Y-15877693D01*
X6783233Y-15849121D01*
X6773709Y-15830074D01*
X6764186Y-15801502D01*
X6754662Y-15753883D01*
X6754662Y-15715788D01*
X6764186Y-15668169D01*
X6773709Y-15639598D01*
X6783233Y-15620550D01*
X6802281Y-15591978D01*
X6811805Y-15582455D01*
X6868948Y-15611026D02*
X7002281Y-15611026D01*
X6916567Y-15811026D01*
X7068948Y-15630074D02*
X7078471Y-15620550D01*
X7097519Y-15611026D01*
X7145138Y-15611026D01*
X7164186Y-15620550D01*
X7173709Y-15630074D01*
X7183233Y-15649121D01*
X7183233Y-15668169D01*
X7173709Y-15696740D01*
X7059424Y-15811026D01*
X7183233Y-15811026D01*
X7421328Y-15811026D02*
X7421328Y-15611026D01*
X7507043Y-15811026D02*
X7507043Y-15706264D01*
X7497519Y-15687217D01*
X7478471Y-15677693D01*
X7449900Y-15677693D01*
X7430852Y-15687217D01*
X7421328Y-15696740D01*
X7630852Y-15811026D02*
X7611805Y-15801502D01*
X7602281Y-15791978D01*
X7592757Y-15772931D01*
X7592757Y-15715788D01*
X7602281Y-15696740D01*
X7611805Y-15687217D01*
X7630852Y-15677693D01*
X7659424Y-15677693D01*
X7678471Y-15687217D01*
X7687995Y-15696740D01*
X7697519Y-15715788D01*
X7697519Y-15772931D01*
X7687995Y-15791978D01*
X7678471Y-15801502D01*
X7659424Y-15811026D01*
X7630852Y-15811026D01*
X7811805Y-15811026D02*
X7792757Y-15801502D01*
X7783233Y-15782455D01*
X7783233Y-15611026D01*
X7964186Y-15801502D02*
X7945138Y-15811026D01*
X7907043Y-15811026D01*
X7887995Y-15801502D01*
X7878471Y-15782455D01*
X7878471Y-15706264D01*
X7887995Y-15687217D01*
X7907043Y-15677693D01*
X7945138Y-15677693D01*
X7964186Y-15687217D01*
X7973709Y-15706264D01*
X7973709Y-15725312D01*
X7878471Y-15744359D01*
X8049900Y-15801502D02*
X8068948Y-15811026D01*
X8107043Y-15811026D01*
X8126090Y-15801502D01*
X8135614Y-15782455D01*
X8135614Y-15772931D01*
X8126090Y-15753883D01*
X8107043Y-15744359D01*
X8078471Y-15744359D01*
X8059424Y-15734836D01*
X8049900Y-15715788D01*
X8049900Y-15706264D01*
X8059424Y-15687217D01*
X8078471Y-15677693D01*
X8107043Y-15677693D01*
X8126090Y-15687217D01*
X8202281Y-15887217D02*
X8211805Y-15877693D01*
X8230852Y-15849121D01*
X8240376Y-15830074D01*
X8249900Y-15801502D01*
X8259424Y-15753883D01*
X8259424Y-15715788D01*
X8249900Y-15668169D01*
X8240376Y-15639598D01*
X8230852Y-15620550D01*
X8211805Y-15591978D01*
X8202281Y-15582455D01*
D12*
X3239900Y-15984550D02*
G75*
G03*
X3239900Y-15984550I-20000J0D01*
G01*
D11*
X3535614Y-15875026D02*
X3554662Y-15875026D01*
X3573709Y-15884550D01*
X3583233Y-15894074D01*
X3592757Y-15913121D01*
X3602281Y-15951217D01*
X3602281Y-15998836D01*
X3592757Y-16036931D01*
X3583233Y-16055978D01*
X3573709Y-16065502D01*
X3554662Y-16075026D01*
X3535614Y-16075026D01*
X3516567Y-16065502D01*
X3507043Y-16055978D01*
X3497519Y-16036931D01*
X3487995Y-15998836D01*
X3487995Y-15951217D01*
X3497519Y-15913121D01*
X3507043Y-15894074D01*
X3516567Y-15884550D01*
X3535614Y-15875026D01*
X3687995Y-16055978D02*
X3697519Y-16065502D01*
X3687995Y-16075026D01*
X3678471Y-16065502D01*
X3687995Y-16055978D01*
X3687995Y-16075026D01*
X3868948Y-15941693D02*
X3868948Y-16075026D01*
X3821328Y-15865502D02*
X3773709Y-16008359D01*
X3897519Y-16008359D01*
X4011805Y-15875026D02*
X4030852Y-15875026D01*
X4049900Y-15884550D01*
X4059424Y-15894074D01*
X4068948Y-15913121D01*
X4078471Y-15951217D01*
X4078471Y-15998836D01*
X4068948Y-16036931D01*
X4059424Y-16055978D01*
X4049900Y-16065502D01*
X4030852Y-16075026D01*
X4011805Y-16075026D01*
X3992757Y-16065502D01*
X3983233Y-16055978D01*
X3973709Y-16036931D01*
X3964186Y-15998836D01*
X3964186Y-15951217D01*
X3973709Y-15913121D01*
X3983233Y-15894074D01*
X3992757Y-15884550D01*
X4011805Y-15875026D01*
X4202281Y-15875026D02*
X4221329Y-15875026D01*
X4240376Y-15884550D01*
X4249900Y-15894074D01*
X4259424Y-15913121D01*
X4268948Y-15951217D01*
X4268948Y-15998836D01*
X4259424Y-16036931D01*
X4249900Y-16055978D01*
X4240376Y-16065502D01*
X4221329Y-16075026D01*
X4202281Y-16075026D01*
X4183233Y-16065502D01*
X4173709Y-16055978D01*
X4164186Y-16036931D01*
X4154662Y-15998836D01*
X4154662Y-15951217D01*
X4164186Y-15913121D01*
X4173709Y-15894074D01*
X4183233Y-15884550D01*
X4202281Y-15875026D01*
X4354662Y-16075026D02*
X4354662Y-15941693D01*
X4354662Y-15960740D02*
X4364186Y-15951217D01*
X4383233Y-15941693D01*
X4411805Y-15941693D01*
X4430852Y-15951217D01*
X4440376Y-15970264D01*
X4440376Y-16075026D01*
X4440376Y-15970264D02*
X4449900Y-15951217D01*
X4468948Y-15941693D01*
X4497519Y-15941693D01*
X4516567Y-15951217D01*
X4526090Y-15970264D01*
X4526090Y-16075026D01*
X4621329Y-16075026D02*
X4621329Y-15941693D01*
X4621329Y-15960740D02*
X4630852Y-15951217D01*
X4649900Y-15941693D01*
X4678471Y-15941693D01*
X4697519Y-15951217D01*
X4707043Y-15970264D01*
X4707043Y-16075026D01*
X4707043Y-15970264D02*
X4716567Y-15951217D01*
X4735614Y-15941693D01*
X4764186Y-15941693D01*
X4783233Y-15951217D01*
X4792757Y-15970264D01*
X4792757Y-16075026D01*
X5183233Y-15865502D02*
X5011805Y-16122645D01*
X5440376Y-15875026D02*
X5459424Y-15875026D01*
X5478471Y-15884550D01*
X5487995Y-15894074D01*
X5497519Y-15913121D01*
X5507043Y-15951217D01*
X5507043Y-15998836D01*
X5497519Y-16036931D01*
X5487995Y-16055978D01*
X5478471Y-16065502D01*
X5459424Y-16075026D01*
X5440376Y-16075026D01*
X5421329Y-16065502D01*
X5411805Y-16055978D01*
X5402281Y-16036931D01*
X5392757Y-15998836D01*
X5392757Y-15951217D01*
X5402281Y-15913121D01*
X5411805Y-15894074D01*
X5421329Y-15884550D01*
X5440376Y-15875026D01*
X5592757Y-16055978D02*
X5602281Y-16065502D01*
X5592757Y-16075026D01*
X5583233Y-16065502D01*
X5592757Y-16055978D01*
X5592757Y-16075026D01*
X5726090Y-15875026D02*
X5745138Y-15875026D01*
X5764186Y-15884550D01*
X5773709Y-15894074D01*
X5783233Y-15913121D01*
X5792757Y-15951217D01*
X5792757Y-15998836D01*
X5783233Y-16036931D01*
X5773709Y-16055978D01*
X5764186Y-16065502D01*
X5745138Y-16075026D01*
X5726090Y-16075026D01*
X5707043Y-16065502D01*
X5697519Y-16055978D01*
X5687995Y-16036931D01*
X5678471Y-15998836D01*
X5678471Y-15951217D01*
X5687995Y-15913121D01*
X5697519Y-15894074D01*
X5707043Y-15884550D01*
X5726090Y-15875026D01*
X5983233Y-16075026D02*
X5868948Y-16075026D01*
X5926090Y-16075026D02*
X5926090Y-15875026D01*
X5907043Y-15903598D01*
X5887995Y-15922645D01*
X5868948Y-15932169D01*
X6164186Y-15875026D02*
X6068948Y-15875026D01*
X6059424Y-15970264D01*
X6068948Y-15960740D01*
X6087995Y-15951217D01*
X6135614Y-15951217D01*
X6154662Y-15960740D01*
X6164186Y-15970264D01*
X6173709Y-15989312D01*
X6173709Y-16036931D01*
X6164186Y-16055978D01*
X6154662Y-16065502D01*
X6135614Y-16075026D01*
X6087995Y-16075026D01*
X6068948Y-16065502D01*
X6059424Y-16055978D01*
X6240376Y-15875026D02*
X6373709Y-15875026D01*
X6287995Y-16075026D01*
X6440376Y-15875026D02*
X6440376Y-15913121D01*
X6516567Y-15875026D02*
X6516567Y-15913121D01*
X6811805Y-16151217D02*
X6802281Y-16141693D01*
X6783233Y-16113121D01*
X6773709Y-16094074D01*
X6764186Y-16065502D01*
X6754662Y-16017883D01*
X6754662Y-15979788D01*
X6764186Y-15932169D01*
X6773709Y-15903598D01*
X6783233Y-15884550D01*
X6802281Y-15855978D01*
X6811805Y-15846455D01*
X6992757Y-16075026D02*
X6878471Y-16075026D01*
X6935614Y-16075026D02*
X6935614Y-15875026D01*
X6916567Y-15903598D01*
X6897519Y-15922645D01*
X6878471Y-15932169D01*
X7164186Y-15875026D02*
X7126090Y-15875026D01*
X7107043Y-15884550D01*
X7097519Y-15894074D01*
X7078471Y-15922645D01*
X7068948Y-15960740D01*
X7068948Y-16036931D01*
X7078471Y-16055978D01*
X7087995Y-16065502D01*
X7107043Y-16075026D01*
X7145138Y-16075026D01*
X7164186Y-16065502D01*
X7173709Y-16055978D01*
X7183233Y-16036931D01*
X7183233Y-15989312D01*
X7173709Y-15970264D01*
X7164186Y-15960740D01*
X7145138Y-15951217D01*
X7107043Y-15951217D01*
X7087995Y-15960740D01*
X7078471Y-15970264D01*
X7068948Y-15989312D01*
X7421328Y-16075026D02*
X7421328Y-15875026D01*
X7507043Y-16075026D02*
X7507043Y-15970264D01*
X7497519Y-15951217D01*
X7478471Y-15941693D01*
X7449900Y-15941693D01*
X7430852Y-15951217D01*
X7421328Y-15960740D01*
X7630852Y-16075026D02*
X7611805Y-16065502D01*
X7602281Y-16055978D01*
X7592757Y-16036931D01*
X7592757Y-15979788D01*
X7602281Y-15960740D01*
X7611805Y-15951217D01*
X7630852Y-15941693D01*
X7659424Y-15941693D01*
X7678471Y-15951217D01*
X7687995Y-15960740D01*
X7697519Y-15979788D01*
X7697519Y-16036931D01*
X7687995Y-16055978D01*
X7678471Y-16065502D01*
X7659424Y-16075026D01*
X7630852Y-16075026D01*
X7811805Y-16075026D02*
X7792757Y-16065502D01*
X7783233Y-16046455D01*
X7783233Y-15875026D01*
X7964186Y-16065502D02*
X7945138Y-16075026D01*
X7907043Y-16075026D01*
X7887995Y-16065502D01*
X7878471Y-16046455D01*
X7878471Y-15970264D01*
X7887995Y-15951217D01*
X7907043Y-15941693D01*
X7945138Y-15941693D01*
X7964186Y-15951217D01*
X7973709Y-15970264D01*
X7973709Y-15989312D01*
X7878471Y-16008359D01*
X8049900Y-16065502D02*
X8068948Y-16075026D01*
X8107043Y-16075026D01*
X8126090Y-16065502D01*
X8135614Y-16046455D01*
X8135614Y-16036931D01*
X8126090Y-16017883D01*
X8107043Y-16008359D01*
X8078471Y-16008359D01*
X8059424Y-15998836D01*
X8049900Y-15979788D01*
X8049900Y-15970264D01*
X8059424Y-15951217D01*
X8078471Y-15941693D01*
X8107043Y-15941693D01*
X8126090Y-15951217D01*
X8202281Y-16151217D02*
X8211805Y-16141693D01*
X8230852Y-16113121D01*
X8240376Y-16094074D01*
X8249900Y-16065502D01*
X8259424Y-16017883D01*
X8259424Y-15979788D01*
X8249900Y-15932169D01*
X8240376Y-15903598D01*
X8230852Y-15884550D01*
X8211805Y-15855978D01*
X8202281Y-15846455D01*
D13*
X3209900Y-16218550D02*
X3209900Y-16278550D01*
X3179900Y-16248550D02*
X3239900Y-16248550D01*
D11*
X3535614Y-16139026D02*
X3554662Y-16139026D01*
X3573709Y-16148550D01*
X3583233Y-16158074D01*
X3592757Y-16177121D01*
X3602281Y-16215217D01*
X3602281Y-16262836D01*
X3592757Y-16300931D01*
X3583233Y-16319978D01*
X3573709Y-16329502D01*
X3554662Y-16339026D01*
X3535614Y-16339026D01*
X3516567Y-16329502D01*
X3507043Y-16319978D01*
X3497519Y-16300931D01*
X3487995Y-16262836D01*
X3487995Y-16215217D01*
X3497519Y-16177121D01*
X3507043Y-16158074D01*
X3516567Y-16148550D01*
X3535614Y-16139026D01*
X3687995Y-16319978D02*
X3697519Y-16329502D01*
X3687995Y-16339026D01*
X3678471Y-16329502D01*
X3687995Y-16319978D01*
X3687995Y-16339026D01*
X3868948Y-16139026D02*
X3830852Y-16139026D01*
X3811805Y-16148550D01*
X3802281Y-16158074D01*
X3783233Y-16186645D01*
X3773709Y-16224740D01*
X3773709Y-16300931D01*
X3783233Y-16319978D01*
X3792757Y-16329502D01*
X3811805Y-16339026D01*
X3849900Y-16339026D01*
X3868948Y-16329502D01*
X3878471Y-16319978D01*
X3887995Y-16300931D01*
X3887995Y-16253312D01*
X3878471Y-16234264D01*
X3868948Y-16224740D01*
X3849900Y-16215217D01*
X3811805Y-16215217D01*
X3792757Y-16224740D01*
X3783233Y-16234264D01*
X3773709Y-16253312D01*
X4011805Y-16139026D02*
X4030852Y-16139026D01*
X4049900Y-16148550D01*
X4059424Y-16158074D01*
X4068948Y-16177121D01*
X4078471Y-16215217D01*
X4078471Y-16262836D01*
X4068948Y-16300931D01*
X4059424Y-16319978D01*
X4049900Y-16329502D01*
X4030852Y-16339026D01*
X4011805Y-16339026D01*
X3992757Y-16329502D01*
X3983233Y-16319978D01*
X3973709Y-16300931D01*
X3964186Y-16262836D01*
X3964186Y-16215217D01*
X3973709Y-16177121D01*
X3983233Y-16158074D01*
X3992757Y-16148550D01*
X4011805Y-16139026D01*
X4202281Y-16139026D02*
X4221329Y-16139026D01*
X4240376Y-16148550D01*
X4249900Y-16158074D01*
X4259424Y-16177121D01*
X4268948Y-16215217D01*
X4268948Y-16262836D01*
X4259424Y-16300931D01*
X4249900Y-16319978D01*
X4240376Y-16329502D01*
X4221329Y-16339026D01*
X4202281Y-16339026D01*
X4183233Y-16329502D01*
X4173709Y-16319978D01*
X4164186Y-16300931D01*
X4154662Y-16262836D01*
X4154662Y-16215217D01*
X4164186Y-16177121D01*
X4173709Y-16158074D01*
X4183233Y-16148550D01*
X4202281Y-16139026D01*
X4354662Y-16339026D02*
X4354662Y-16205693D01*
X4354662Y-16224740D02*
X4364186Y-16215217D01*
X4383233Y-16205693D01*
X4411805Y-16205693D01*
X4430852Y-16215217D01*
X4440376Y-16234264D01*
X4440376Y-16339026D01*
X4440376Y-16234264D02*
X4449900Y-16215217D01*
X4468948Y-16205693D01*
X4497519Y-16205693D01*
X4516567Y-16215217D01*
X4526090Y-16234264D01*
X4526090Y-16339026D01*
X4621329Y-16339026D02*
X4621329Y-16205693D01*
X4621329Y-16224740D02*
X4630852Y-16215217D01*
X4649900Y-16205693D01*
X4678471Y-16205693D01*
X4697519Y-16215217D01*
X4707043Y-16234264D01*
X4707043Y-16339026D01*
X4707043Y-16234264D02*
X4716567Y-16215217D01*
X4735614Y-16205693D01*
X4764186Y-16205693D01*
X4783233Y-16215217D01*
X4792757Y-16234264D01*
X4792757Y-16339026D01*
X5183233Y-16129502D02*
X5011805Y-16386645D01*
X5440376Y-16139026D02*
X5459424Y-16139026D01*
X5478471Y-16148550D01*
X5487995Y-16158074D01*
X5497519Y-16177121D01*
X5507043Y-16215217D01*
X5507043Y-16262836D01*
X5497519Y-16300931D01*
X5487995Y-16319978D01*
X5478471Y-16329502D01*
X5459424Y-16339026D01*
X5440376Y-16339026D01*
X5421329Y-16329502D01*
X5411805Y-16319978D01*
X5402281Y-16300931D01*
X5392757Y-16262836D01*
X5392757Y-16215217D01*
X5402281Y-16177121D01*
X5411805Y-16158074D01*
X5421329Y-16148550D01*
X5440376Y-16139026D01*
X5592757Y-16319978D02*
X5602281Y-16329502D01*
X5592757Y-16339026D01*
X5583233Y-16329502D01*
X5592757Y-16319978D01*
X5592757Y-16339026D01*
X5726090Y-16139026D02*
X5745138Y-16139026D01*
X5764186Y-16148550D01*
X5773709Y-16158074D01*
X5783233Y-16177121D01*
X5792757Y-16215217D01*
X5792757Y-16262836D01*
X5783233Y-16300931D01*
X5773709Y-16319978D01*
X5764186Y-16329502D01*
X5745138Y-16339026D01*
X5726090Y-16339026D01*
X5707043Y-16329502D01*
X5697519Y-16319978D01*
X5687995Y-16300931D01*
X5678471Y-16262836D01*
X5678471Y-16215217D01*
X5687995Y-16177121D01*
X5697519Y-16158074D01*
X5707043Y-16148550D01*
X5726090Y-16139026D01*
X5868948Y-16158074D02*
X5878471Y-16148550D01*
X5897519Y-16139026D01*
X5945138Y-16139026D01*
X5964186Y-16148550D01*
X5973709Y-16158074D01*
X5983233Y-16177121D01*
X5983233Y-16196169D01*
X5973709Y-16224740D01*
X5859424Y-16339026D01*
X5983233Y-16339026D01*
X6049900Y-16139026D02*
X6173709Y-16139026D01*
X6107043Y-16215217D01*
X6135614Y-16215217D01*
X6154662Y-16224740D01*
X6164186Y-16234264D01*
X6173709Y-16253312D01*
X6173709Y-16300931D01*
X6164186Y-16319978D01*
X6154662Y-16329502D01*
X6135614Y-16339026D01*
X6078471Y-16339026D01*
X6059424Y-16329502D01*
X6049900Y-16319978D01*
X6345138Y-16139026D02*
X6307043Y-16139026D01*
X6287995Y-16148550D01*
X6278471Y-16158074D01*
X6259424Y-16186645D01*
X6249900Y-16224740D01*
X6249900Y-16300931D01*
X6259424Y-16319978D01*
X6268948Y-16329502D01*
X6287995Y-16339026D01*
X6326090Y-16339026D01*
X6345138Y-16329502D01*
X6354662Y-16319978D01*
X6364186Y-16300931D01*
X6364186Y-16253312D01*
X6354662Y-16234264D01*
X6345138Y-16224740D01*
X6326090Y-16215217D01*
X6287995Y-16215217D01*
X6268948Y-16224740D01*
X6259424Y-16234264D01*
X6249900Y-16253312D01*
X6440376Y-16139026D02*
X6440376Y-16177121D01*
X6516567Y-16139026D02*
X6516567Y-16177121D01*
X6811805Y-16415217D02*
X6802281Y-16405693D01*
X6783233Y-16377121D01*
X6773709Y-16358074D01*
X6764186Y-16329502D01*
X6754662Y-16281883D01*
X6754662Y-16243788D01*
X6764186Y-16196169D01*
X6773709Y-16167598D01*
X6783233Y-16148550D01*
X6802281Y-16119978D01*
X6811805Y-16110455D01*
X6973709Y-16205693D02*
X6973709Y-16339026D01*
X6926090Y-16129502D02*
X6878471Y-16272359D01*
X7002281Y-16272359D01*
X7183233Y-16339026D02*
X7068948Y-16339026D01*
X7126090Y-16339026D02*
X7126090Y-16139026D01*
X7107043Y-16167598D01*
X7087995Y-16186645D01*
X7068948Y-16196169D01*
X7421328Y-16339026D02*
X7421328Y-16139026D01*
X7507043Y-16339026D02*
X7507043Y-16234264D01*
X7497519Y-16215217D01*
X7478471Y-16205693D01*
X7449900Y-16205693D01*
X7430852Y-16215217D01*
X7421328Y-16224740D01*
X7630852Y-16339026D02*
X7611805Y-16329502D01*
X7602281Y-16319978D01*
X7592757Y-16300931D01*
X7592757Y-16243788D01*
X7602281Y-16224740D01*
X7611805Y-16215217D01*
X7630852Y-16205693D01*
X7659424Y-16205693D01*
X7678471Y-16215217D01*
X7687995Y-16224740D01*
X7697519Y-16243788D01*
X7697519Y-16300931D01*
X7687995Y-16319978D01*
X7678471Y-16329502D01*
X7659424Y-16339026D01*
X7630852Y-16339026D01*
X7811805Y-16339026D02*
X7792757Y-16329502D01*
X7783233Y-16310455D01*
X7783233Y-16139026D01*
X7964186Y-16329502D02*
X7945138Y-16339026D01*
X7907043Y-16339026D01*
X7887995Y-16329502D01*
X7878471Y-16310455D01*
X7878471Y-16234264D01*
X7887995Y-16215217D01*
X7907043Y-16205693D01*
X7945138Y-16205693D01*
X7964186Y-16215217D01*
X7973709Y-16234264D01*
X7973709Y-16253312D01*
X7878471Y-16272359D01*
X8049900Y-16329502D02*
X8068948Y-16339026D01*
X8107043Y-16339026D01*
X8126090Y-16329502D01*
X8135614Y-16310455D01*
X8135614Y-16300931D01*
X8126090Y-16281883D01*
X8107043Y-16272359D01*
X8078471Y-16272359D01*
X8059424Y-16262836D01*
X8049900Y-16243788D01*
X8049900Y-16234264D01*
X8059424Y-16215217D01*
X8078471Y-16205693D01*
X8107043Y-16205693D01*
X8126090Y-16215217D01*
X8202281Y-16415217D02*
X8211805Y-16405693D01*
X8230852Y-16377121D01*
X8240376Y-16358074D01*
X8249900Y-16329502D01*
X8259424Y-16281883D01*
X8259424Y-16243788D01*
X8249900Y-16196169D01*
X8240376Y-16167598D01*
X8230852Y-16148550D01*
X8211805Y-16119978D01*
X8202281Y-16110455D01*
D13*
X3231113Y-16533763D02*
X3231113Y-16491337D01*
X3188687Y-16491337D01*
X3188687Y-16533763D01*
X3231113Y-16533763D01*
D11*
X3535614Y-16403026D02*
X3554662Y-16403026D01*
X3573709Y-16412550D01*
X3583233Y-16422074D01*
X3592757Y-16441121D01*
X3602281Y-16479217D01*
X3602281Y-16526836D01*
X3592757Y-16564931D01*
X3583233Y-16583978D01*
X3573709Y-16593502D01*
X3554662Y-16603026D01*
X3535614Y-16603026D01*
X3516567Y-16593502D01*
X3507043Y-16583978D01*
X3497519Y-16564931D01*
X3487995Y-16526836D01*
X3487995Y-16479217D01*
X3497519Y-16441121D01*
X3507043Y-16422074D01*
X3516567Y-16412550D01*
X3535614Y-16403026D01*
X3687995Y-16583978D02*
X3697519Y-16593502D01*
X3687995Y-16603026D01*
X3678471Y-16593502D01*
X3687995Y-16583978D01*
X3687995Y-16603026D01*
X3868948Y-16403026D02*
X3830852Y-16403026D01*
X3811805Y-16412550D01*
X3802281Y-16422074D01*
X3783233Y-16450645D01*
X3773709Y-16488740D01*
X3773709Y-16564931D01*
X3783233Y-16583978D01*
X3792757Y-16593502D01*
X3811805Y-16603026D01*
X3849900Y-16603026D01*
X3868948Y-16593502D01*
X3878471Y-16583978D01*
X3887995Y-16564931D01*
X3887995Y-16517312D01*
X3878471Y-16498264D01*
X3868948Y-16488740D01*
X3849900Y-16479217D01*
X3811805Y-16479217D01*
X3792757Y-16488740D01*
X3783233Y-16498264D01*
X3773709Y-16517312D01*
X4011805Y-16403026D02*
X4030852Y-16403026D01*
X4049900Y-16412550D01*
X4059424Y-16422074D01*
X4068948Y-16441121D01*
X4078471Y-16479217D01*
X4078471Y-16526836D01*
X4068948Y-16564931D01*
X4059424Y-16583978D01*
X4049900Y-16593502D01*
X4030852Y-16603026D01*
X4011805Y-16603026D01*
X3992757Y-16593502D01*
X3983233Y-16583978D01*
X3973709Y-16564931D01*
X3964186Y-16526836D01*
X3964186Y-16479217D01*
X3973709Y-16441121D01*
X3983233Y-16422074D01*
X3992757Y-16412550D01*
X4011805Y-16403026D01*
X4202281Y-16403026D02*
X4221329Y-16403026D01*
X4240376Y-16412550D01*
X4249900Y-16422074D01*
X4259424Y-16441121D01*
X4268948Y-16479217D01*
X4268948Y-16526836D01*
X4259424Y-16564931D01*
X4249900Y-16583978D01*
X4240376Y-16593502D01*
X4221329Y-16603026D01*
X4202281Y-16603026D01*
X4183233Y-16593502D01*
X4173709Y-16583978D01*
X4164186Y-16564931D01*
X4154662Y-16526836D01*
X4154662Y-16479217D01*
X4164186Y-16441121D01*
X4173709Y-16422074D01*
X4183233Y-16412550D01*
X4202281Y-16403026D01*
X4354662Y-16603026D02*
X4354662Y-16469693D01*
X4354662Y-16488740D02*
X4364186Y-16479217D01*
X4383233Y-16469693D01*
X4411805Y-16469693D01*
X4430852Y-16479217D01*
X4440376Y-16498264D01*
X4440376Y-16603026D01*
X4440376Y-16498264D02*
X4449900Y-16479217D01*
X4468948Y-16469693D01*
X4497519Y-16469693D01*
X4516567Y-16479217D01*
X4526090Y-16498264D01*
X4526090Y-16603026D01*
X4621329Y-16603026D02*
X4621329Y-16469693D01*
X4621329Y-16488740D02*
X4630852Y-16479217D01*
X4649900Y-16469693D01*
X4678471Y-16469693D01*
X4697519Y-16479217D01*
X4707043Y-16498264D01*
X4707043Y-16603026D01*
X4707043Y-16498264D02*
X4716567Y-16479217D01*
X4735614Y-16469693D01*
X4764186Y-16469693D01*
X4783233Y-16479217D01*
X4792757Y-16498264D01*
X4792757Y-16603026D01*
X5183233Y-16393502D02*
X5011805Y-16650645D01*
X5440376Y-16403026D02*
X5459424Y-16403026D01*
X5478471Y-16412550D01*
X5487995Y-16422074D01*
X5497519Y-16441121D01*
X5507043Y-16479217D01*
X5507043Y-16526836D01*
X5497519Y-16564931D01*
X5487995Y-16583978D01*
X5478471Y-16593502D01*
X5459424Y-16603026D01*
X5440376Y-16603026D01*
X5421329Y-16593502D01*
X5411805Y-16583978D01*
X5402281Y-16564931D01*
X5392757Y-16526836D01*
X5392757Y-16479217D01*
X5402281Y-16441121D01*
X5411805Y-16422074D01*
X5421329Y-16412550D01*
X5440376Y-16403026D01*
X5592757Y-16583978D02*
X5602281Y-16593502D01*
X5592757Y-16603026D01*
X5583233Y-16593502D01*
X5592757Y-16583978D01*
X5592757Y-16603026D01*
X5726090Y-16403026D02*
X5745138Y-16403026D01*
X5764186Y-16412550D01*
X5773709Y-16422074D01*
X5783233Y-16441121D01*
X5792757Y-16479217D01*
X5792757Y-16526836D01*
X5783233Y-16564931D01*
X5773709Y-16583978D01*
X5764186Y-16593502D01*
X5745138Y-16603026D01*
X5726090Y-16603026D01*
X5707043Y-16593502D01*
X5697519Y-16583978D01*
X5687995Y-16564931D01*
X5678471Y-16526836D01*
X5678471Y-16479217D01*
X5687995Y-16441121D01*
X5697519Y-16422074D01*
X5707043Y-16412550D01*
X5726090Y-16403026D01*
X5868948Y-16422074D02*
X5878471Y-16412550D01*
X5897519Y-16403026D01*
X5945138Y-16403026D01*
X5964186Y-16412550D01*
X5973709Y-16422074D01*
X5983233Y-16441121D01*
X5983233Y-16460169D01*
X5973709Y-16488740D01*
X5859424Y-16603026D01*
X5983233Y-16603026D01*
X6049900Y-16403026D02*
X6173709Y-16403026D01*
X6107043Y-16479217D01*
X6135614Y-16479217D01*
X6154662Y-16488740D01*
X6164186Y-16498264D01*
X6173709Y-16517312D01*
X6173709Y-16564931D01*
X6164186Y-16583978D01*
X6154662Y-16593502D01*
X6135614Y-16603026D01*
X6078471Y-16603026D01*
X6059424Y-16593502D01*
X6049900Y-16583978D01*
X6345138Y-16403026D02*
X6307043Y-16403026D01*
X6287995Y-16412550D01*
X6278471Y-16422074D01*
X6259424Y-16450645D01*
X6249900Y-16488740D01*
X6249900Y-16564931D01*
X6259424Y-16583978D01*
X6268948Y-16593502D01*
X6287995Y-16603026D01*
X6326090Y-16603026D01*
X6345138Y-16593502D01*
X6354662Y-16583978D01*
X6364186Y-16564931D01*
X6364186Y-16517312D01*
X6354662Y-16498264D01*
X6345138Y-16488740D01*
X6326090Y-16479217D01*
X6287995Y-16479217D01*
X6268948Y-16488740D01*
X6259424Y-16498264D01*
X6249900Y-16517312D01*
X6440376Y-16403026D02*
X6440376Y-16441121D01*
X6516567Y-16403026D02*
X6516567Y-16441121D01*
X6811805Y-16679217D02*
X6802281Y-16669693D01*
X6783233Y-16641121D01*
X6773709Y-16622074D01*
X6764186Y-16593502D01*
X6754662Y-16545883D01*
X6754662Y-16507788D01*
X6764186Y-16460169D01*
X6773709Y-16431598D01*
X6783233Y-16412550D01*
X6802281Y-16383978D01*
X6811805Y-16374455D01*
X6878471Y-16422074D02*
X6887995Y-16412550D01*
X6907043Y-16403026D01*
X6954662Y-16403026D01*
X6973709Y-16412550D01*
X6983233Y-16422074D01*
X6992757Y-16441121D01*
X6992757Y-16460169D01*
X6983233Y-16488740D01*
X6868948Y-16603026D01*
X6992757Y-16603026D01*
X7230852Y-16603026D02*
X7230852Y-16403026D01*
X7316567Y-16603026D02*
X7316567Y-16498264D01*
X7307043Y-16479217D01*
X7287995Y-16469693D01*
X7259424Y-16469693D01*
X7240376Y-16479217D01*
X7230852Y-16488740D01*
X7440376Y-16603026D02*
X7421328Y-16593502D01*
X7411805Y-16583978D01*
X7402281Y-16564931D01*
X7402281Y-16507788D01*
X7411805Y-16488740D01*
X7421328Y-16479217D01*
X7440376Y-16469693D01*
X7468948Y-16469693D01*
X7487995Y-16479217D01*
X7497519Y-16488740D01*
X7507043Y-16507788D01*
X7507043Y-16564931D01*
X7497519Y-16583978D01*
X7487995Y-16593502D01*
X7468948Y-16603026D01*
X7440376Y-16603026D01*
X7621328Y-16603026D02*
X7602281Y-16593502D01*
X7592757Y-16574455D01*
X7592757Y-16403026D01*
X7773709Y-16593502D02*
X7754662Y-16603026D01*
X7716567Y-16603026D01*
X7697519Y-16593502D01*
X7687995Y-16574455D01*
X7687995Y-16498264D01*
X7697519Y-16479217D01*
X7716567Y-16469693D01*
X7754662Y-16469693D01*
X7773709Y-16479217D01*
X7783233Y-16498264D01*
X7783233Y-16517312D01*
X7687995Y-16536359D01*
X7859424Y-16593502D02*
X7878471Y-16603026D01*
X7916567Y-16603026D01*
X7935614Y-16593502D01*
X7945138Y-16574455D01*
X7945138Y-16564931D01*
X7935614Y-16545883D01*
X7916567Y-16536359D01*
X7887995Y-16536359D01*
X7868948Y-16526836D01*
X7859424Y-16507788D01*
X7859424Y-16498264D01*
X7868948Y-16479217D01*
X7887995Y-16469693D01*
X7916567Y-16469693D01*
X7935614Y-16479217D01*
X8183233Y-16526836D02*
X8335614Y-16526836D01*
X8259424Y-16603026D02*
X8259424Y-16450645D01*
X8668948Y-16469693D02*
X8668948Y-16603026D01*
X8621329Y-16393502D02*
X8573710Y-16536359D01*
X8697519Y-16536359D01*
X8916567Y-16593502D02*
X8935614Y-16603026D01*
X8973710Y-16603026D01*
X8992757Y-16593502D01*
X9002281Y-16574455D01*
X9002281Y-16564931D01*
X8992757Y-16545883D01*
X8973710Y-16536359D01*
X8945138Y-16536359D01*
X8926090Y-16526836D01*
X8916567Y-16507788D01*
X8916567Y-16498264D01*
X8926090Y-16479217D01*
X8945138Y-16469693D01*
X8973710Y-16469693D01*
X8992757Y-16479217D01*
X9116567Y-16603026D02*
X9097519Y-16593502D01*
X9087995Y-16574455D01*
X9087995Y-16403026D01*
X9221329Y-16603026D02*
X9202281Y-16593502D01*
X9192757Y-16583978D01*
X9183233Y-16564931D01*
X9183233Y-16507788D01*
X9192757Y-16488740D01*
X9202281Y-16479217D01*
X9221329Y-16469693D01*
X9249900Y-16469693D01*
X9268948Y-16479217D01*
X9278471Y-16488740D01*
X9287995Y-16507788D01*
X9287995Y-16564931D01*
X9278471Y-16583978D01*
X9268948Y-16593502D01*
X9249900Y-16603026D01*
X9221329Y-16603026D01*
X9345138Y-16469693D02*
X9421329Y-16469693D01*
X9373710Y-16403026D02*
X9373710Y-16574455D01*
X9383233Y-16593502D01*
X9402281Y-16603026D01*
X9421329Y-16603026D01*
X9478471Y-16593502D02*
X9497519Y-16603026D01*
X9535614Y-16603026D01*
X9554662Y-16593502D01*
X9564186Y-16574455D01*
X9564186Y-16564931D01*
X9554662Y-16545883D01*
X9535614Y-16536359D01*
X9507043Y-16536359D01*
X9487995Y-16526836D01*
X9478471Y-16507788D01*
X9478471Y-16498264D01*
X9487995Y-16479217D01*
X9507043Y-16469693D01*
X9535614Y-16469693D01*
X9554662Y-16479217D01*
X9630852Y-16679217D02*
X9640376Y-16669693D01*
X9659424Y-16641121D01*
X9668948Y-16622074D01*
X9678471Y-16593502D01*
X9687995Y-16545883D01*
X9687995Y-16507788D01*
X9678471Y-16460169D01*
X9668948Y-16431598D01*
X9659424Y-16412550D01*
X9640376Y-16383978D01*
X9630852Y-16374455D01*
D14*
X3204900Y-16811550D02*
X3239900Y-16776550D01*
X3204900Y-16741550D01*
X3169900Y-16776550D01*
X3204900Y-16811550D01*
D11*
X3535614Y-16667026D02*
X3554662Y-16667026D01*
X3573709Y-16676550D01*
X3583233Y-16686074D01*
X3592757Y-16705121D01*
X3602281Y-16743217D01*
X3602281Y-16790836D01*
X3592757Y-16828931D01*
X3583233Y-16847979D01*
X3573709Y-16857502D01*
X3554662Y-16867026D01*
X3535614Y-16867026D01*
X3516567Y-16857502D01*
X3507043Y-16847979D01*
X3497519Y-16828931D01*
X3487995Y-16790836D01*
X3487995Y-16743217D01*
X3497519Y-16705121D01*
X3507043Y-16686074D01*
X3516567Y-16676550D01*
X3535614Y-16667026D01*
X3687995Y-16847979D02*
X3697519Y-16857502D01*
X3687995Y-16867026D01*
X3678471Y-16857502D01*
X3687995Y-16847979D01*
X3687995Y-16867026D01*
X3764186Y-16667026D02*
X3897519Y-16667026D01*
X3811805Y-16867026D01*
X4011805Y-16667026D02*
X4030852Y-16667026D01*
X4049900Y-16676550D01*
X4059424Y-16686074D01*
X4068948Y-16705121D01*
X4078471Y-16743217D01*
X4078471Y-16790836D01*
X4068948Y-16828931D01*
X4059424Y-16847979D01*
X4049900Y-16857502D01*
X4030852Y-16867026D01*
X4011805Y-16867026D01*
X3992757Y-16857502D01*
X3983233Y-16847979D01*
X3973709Y-16828931D01*
X3964186Y-16790836D01*
X3964186Y-16743217D01*
X3973709Y-16705121D01*
X3983233Y-16686074D01*
X3992757Y-16676550D01*
X4011805Y-16667026D01*
X4202281Y-16667026D02*
X4221329Y-16667026D01*
X4240376Y-16676550D01*
X4249900Y-16686074D01*
X4259424Y-16705121D01*
X4268948Y-16743217D01*
X4268948Y-16790836D01*
X4259424Y-16828931D01*
X4249900Y-16847979D01*
X4240376Y-16857502D01*
X4221329Y-16867026D01*
X4202281Y-16867026D01*
X4183233Y-16857502D01*
X4173709Y-16847979D01*
X4164186Y-16828931D01*
X4154662Y-16790836D01*
X4154662Y-16743217D01*
X4164186Y-16705121D01*
X4173709Y-16686074D01*
X4183233Y-16676550D01*
X4202281Y-16667026D01*
X4354662Y-16867026D02*
X4354662Y-16733693D01*
X4354662Y-16752740D02*
X4364186Y-16743217D01*
X4383233Y-16733693D01*
X4411805Y-16733693D01*
X4430852Y-16743217D01*
X4440376Y-16762264D01*
X4440376Y-16867026D01*
X4440376Y-16762264D02*
X4449900Y-16743217D01*
X4468948Y-16733693D01*
X4497519Y-16733693D01*
X4516567Y-16743217D01*
X4526090Y-16762264D01*
X4526090Y-16867026D01*
X4621329Y-16867026D02*
X4621329Y-16733693D01*
X4621329Y-16752740D02*
X4630852Y-16743217D01*
X4649900Y-16733693D01*
X4678471Y-16733693D01*
X4697519Y-16743217D01*
X4707043Y-16762264D01*
X4707043Y-16867026D01*
X4707043Y-16762264D02*
X4716567Y-16743217D01*
X4735614Y-16733693D01*
X4764186Y-16733693D01*
X4783233Y-16743217D01*
X4792757Y-16762264D01*
X4792757Y-16867026D01*
X5183233Y-16657502D02*
X5011805Y-16914645D01*
X5440376Y-16667026D02*
X5459424Y-16667026D01*
X5478471Y-16676550D01*
X5487995Y-16686074D01*
X5497519Y-16705121D01*
X5507043Y-16743217D01*
X5507043Y-16790836D01*
X5497519Y-16828931D01*
X5487995Y-16847979D01*
X5478471Y-16857502D01*
X5459424Y-16867026D01*
X5440376Y-16867026D01*
X5421329Y-16857502D01*
X5411805Y-16847979D01*
X5402281Y-16828931D01*
X5392757Y-16790836D01*
X5392757Y-16743217D01*
X5402281Y-16705121D01*
X5411805Y-16686074D01*
X5421329Y-16676550D01*
X5440376Y-16667026D01*
X5592757Y-16847979D02*
X5602281Y-16857502D01*
X5592757Y-16867026D01*
X5583233Y-16857502D01*
X5592757Y-16847979D01*
X5592757Y-16867026D01*
X5726090Y-16667026D02*
X5745138Y-16667026D01*
X5764186Y-16676550D01*
X5773709Y-16686074D01*
X5783233Y-16705121D01*
X5792757Y-16743217D01*
X5792757Y-16790836D01*
X5783233Y-16828931D01*
X5773709Y-16847979D01*
X5764186Y-16857502D01*
X5745138Y-16867026D01*
X5726090Y-16867026D01*
X5707043Y-16857502D01*
X5697519Y-16847979D01*
X5687995Y-16828931D01*
X5678471Y-16790836D01*
X5678471Y-16743217D01*
X5687995Y-16705121D01*
X5697519Y-16686074D01*
X5707043Y-16676550D01*
X5726090Y-16667026D01*
X5868948Y-16686074D02*
X5878471Y-16676550D01*
X5897519Y-16667026D01*
X5945138Y-16667026D01*
X5964186Y-16676550D01*
X5973709Y-16686074D01*
X5983233Y-16705121D01*
X5983233Y-16724169D01*
X5973709Y-16752740D01*
X5859424Y-16867026D01*
X5983233Y-16867026D01*
X6049900Y-16667026D02*
X6183233Y-16667026D01*
X6097519Y-16867026D01*
X6345138Y-16667026D02*
X6307043Y-16667026D01*
X6287995Y-16676550D01*
X6278471Y-16686074D01*
X6259424Y-16714645D01*
X6249900Y-16752740D01*
X6249900Y-16828931D01*
X6259424Y-16847979D01*
X6268948Y-16857502D01*
X6287995Y-16867026D01*
X6326090Y-16867026D01*
X6345138Y-16857502D01*
X6354662Y-16847979D01*
X6364186Y-16828931D01*
X6364186Y-16781312D01*
X6354662Y-16762264D01*
X6345138Y-16752740D01*
X6326090Y-16743217D01*
X6287995Y-16743217D01*
X6268948Y-16752740D01*
X6259424Y-16762264D01*
X6249900Y-16781312D01*
X6440376Y-16667026D02*
X6440376Y-16705121D01*
X6516567Y-16667026D02*
X6516567Y-16705121D01*
X6811805Y-16943217D02*
X6802281Y-16933693D01*
X6783233Y-16905121D01*
X6773709Y-16886074D01*
X6764186Y-16857502D01*
X6754662Y-16809883D01*
X6754662Y-16771788D01*
X6764186Y-16724169D01*
X6773709Y-16695598D01*
X6783233Y-16676550D01*
X6802281Y-16647978D01*
X6811805Y-16638455D01*
X6992757Y-16867026D02*
X6878471Y-16867026D01*
X6935614Y-16867026D02*
X6935614Y-16667026D01*
X6916567Y-16695598D01*
X6897519Y-16714645D01*
X6878471Y-16724169D01*
X7183233Y-16867026D02*
X7068948Y-16867026D01*
X7126090Y-16867026D02*
X7126090Y-16667026D01*
X7107043Y-16695598D01*
X7087995Y-16714645D01*
X7068948Y-16724169D01*
X7297519Y-16752740D02*
X7278471Y-16743217D01*
X7268948Y-16733693D01*
X7259424Y-16714645D01*
X7259424Y-16705121D01*
X7268948Y-16686074D01*
X7278471Y-16676550D01*
X7297519Y-16667026D01*
X7335614Y-16667026D01*
X7354662Y-16676550D01*
X7364186Y-16686074D01*
X7373709Y-16705121D01*
X7373709Y-16714645D01*
X7364186Y-16733693D01*
X7354662Y-16743217D01*
X7335614Y-16752740D01*
X7297519Y-16752740D01*
X7278471Y-16762264D01*
X7268948Y-16771788D01*
X7259424Y-16790836D01*
X7259424Y-16828931D01*
X7268948Y-16847979D01*
X7278471Y-16857502D01*
X7297519Y-16867026D01*
X7335614Y-16867026D01*
X7354662Y-16857502D01*
X7364186Y-16847979D01*
X7373709Y-16828931D01*
X7373709Y-16790836D01*
X7364186Y-16771788D01*
X7354662Y-16762264D01*
X7335614Y-16752740D01*
X7611805Y-16867026D02*
X7611805Y-16667026D01*
X7697519Y-16867026D02*
X7697519Y-16762264D01*
X7687995Y-16743217D01*
X7668948Y-16733693D01*
X7640376Y-16733693D01*
X7621328Y-16743217D01*
X7611805Y-16752740D01*
X7821328Y-16867026D02*
X7802281Y-16857502D01*
X7792757Y-16847979D01*
X7783233Y-16828931D01*
X7783233Y-16771788D01*
X7792757Y-16752740D01*
X7802281Y-16743217D01*
X7821328Y-16733693D01*
X7849900Y-16733693D01*
X7868948Y-16743217D01*
X7878471Y-16752740D01*
X7887995Y-16771788D01*
X7887995Y-16828931D01*
X7878471Y-16847979D01*
X7868948Y-16857502D01*
X7849900Y-16867026D01*
X7821328Y-16867026D01*
X8002281Y-16867026D02*
X7983233Y-16857502D01*
X7973709Y-16838455D01*
X7973709Y-16667026D01*
X8154662Y-16857502D02*
X8135614Y-16867026D01*
X8097519Y-16867026D01*
X8078471Y-16857502D01*
X8068948Y-16838455D01*
X8068948Y-16762264D01*
X8078471Y-16743217D01*
X8097519Y-16733693D01*
X8135614Y-16733693D01*
X8154662Y-16743217D01*
X8164186Y-16762264D01*
X8164186Y-16781312D01*
X8068948Y-16800360D01*
X8240376Y-16857502D02*
X8259424Y-16867026D01*
X8297519Y-16867026D01*
X8316567Y-16857502D01*
X8326090Y-16838455D01*
X8326090Y-16828931D01*
X8316567Y-16809883D01*
X8297519Y-16800360D01*
X8268948Y-16800360D01*
X8249900Y-16790836D01*
X8240376Y-16771788D01*
X8240376Y-16762264D01*
X8249900Y-16743217D01*
X8268948Y-16733693D01*
X8297519Y-16733693D01*
X8316567Y-16743217D01*
X8392757Y-16943217D02*
X8402281Y-16933693D01*
X8421329Y-16905121D01*
X8430852Y-16886074D01*
X8440376Y-16857502D01*
X8449900Y-16809883D01*
X8449900Y-16771788D01*
X8440376Y-16724169D01*
X8430852Y-16695598D01*
X8421329Y-16676550D01*
X8402281Y-16647978D01*
X8392757Y-16638455D01*
D15*
X3159900Y-17000550D02*
X3239900Y-17080550D01*
X3239900Y-17000550D02*
X3159900Y-17080550D01*
X3239900Y-17040550D02*
G75*
G03*
X3239900Y-17040550I-40000J0D01*
G01*
D11*
X3535614Y-16931026D02*
X3554662Y-16931026D01*
X3573709Y-16940550D01*
X3583233Y-16950074D01*
X3592757Y-16969121D01*
X3602281Y-17007217D01*
X3602281Y-17054836D01*
X3592757Y-17092931D01*
X3583233Y-17111979D01*
X3573709Y-17121502D01*
X3554662Y-17131026D01*
X3535614Y-17131026D01*
X3516567Y-17121502D01*
X3507043Y-17111979D01*
X3497519Y-17092931D01*
X3487995Y-17054836D01*
X3487995Y-17007217D01*
X3497519Y-16969121D01*
X3507043Y-16950074D01*
X3516567Y-16940550D01*
X3535614Y-16931026D01*
X3687995Y-17111979D02*
X3697519Y-17121502D01*
X3687995Y-17131026D01*
X3678471Y-17121502D01*
X3687995Y-17111979D01*
X3687995Y-17131026D01*
X3811805Y-17016740D02*
X3792757Y-17007217D01*
X3783233Y-16997693D01*
X3773709Y-16978645D01*
X3773709Y-16969121D01*
X3783233Y-16950074D01*
X3792757Y-16940550D01*
X3811805Y-16931026D01*
X3849900Y-16931026D01*
X3868948Y-16940550D01*
X3878471Y-16950074D01*
X3887995Y-16969121D01*
X3887995Y-16978645D01*
X3878471Y-16997693D01*
X3868948Y-17007217D01*
X3849900Y-17016740D01*
X3811805Y-17016740D01*
X3792757Y-17026264D01*
X3783233Y-17035788D01*
X3773709Y-17054836D01*
X3773709Y-17092931D01*
X3783233Y-17111979D01*
X3792757Y-17121502D01*
X3811805Y-17131026D01*
X3849900Y-17131026D01*
X3868948Y-17121502D01*
X3878471Y-17111979D01*
X3887995Y-17092931D01*
X3887995Y-17054836D01*
X3878471Y-17035788D01*
X3868948Y-17026264D01*
X3849900Y-17016740D01*
X4011805Y-16931026D02*
X4030852Y-16931026D01*
X4049900Y-16940550D01*
X4059424Y-16950074D01*
X4068948Y-16969121D01*
X4078471Y-17007217D01*
X4078471Y-17054836D01*
X4068948Y-17092931D01*
X4059424Y-17111979D01*
X4049900Y-17121502D01*
X4030852Y-17131026D01*
X4011805Y-17131026D01*
X3992757Y-17121502D01*
X3983233Y-17111979D01*
X3973709Y-17092931D01*
X3964186Y-17054836D01*
X3964186Y-17007217D01*
X3973709Y-16969121D01*
X3983233Y-16950074D01*
X3992757Y-16940550D01*
X4011805Y-16931026D01*
X4202281Y-16931026D02*
X4221329Y-16931026D01*
X4240376Y-16940550D01*
X4249900Y-16950074D01*
X4259424Y-16969121D01*
X4268948Y-17007217D01*
X4268948Y-17054836D01*
X4259424Y-17092931D01*
X4249900Y-17111979D01*
X4240376Y-17121502D01*
X4221329Y-17131026D01*
X4202281Y-17131026D01*
X4183233Y-17121502D01*
X4173709Y-17111979D01*
X4164186Y-17092931D01*
X4154662Y-17054836D01*
X4154662Y-17007217D01*
X4164186Y-16969121D01*
X4173709Y-16950074D01*
X4183233Y-16940550D01*
X4202281Y-16931026D01*
X4354662Y-17131026D02*
X4354662Y-16997693D01*
X4354662Y-17016740D02*
X4364186Y-17007217D01*
X4383233Y-16997693D01*
X4411805Y-16997693D01*
X4430852Y-17007217D01*
X4440376Y-17026264D01*
X4440376Y-17131026D01*
X4440376Y-17026264D02*
X4449900Y-17007217D01*
X4468948Y-16997693D01*
X4497519Y-16997693D01*
X4516567Y-17007217D01*
X4526090Y-17026264D01*
X4526090Y-17131026D01*
X4621329Y-17131026D02*
X4621329Y-16997693D01*
X4621329Y-17016740D02*
X4630852Y-17007217D01*
X4649900Y-16997693D01*
X4678471Y-16997693D01*
X4697519Y-17007217D01*
X4707043Y-17026264D01*
X4707043Y-17131026D01*
X4707043Y-17026264D02*
X4716567Y-17007217D01*
X4735614Y-16997693D01*
X4764186Y-16997693D01*
X4783233Y-17007217D01*
X4792757Y-17026264D01*
X4792757Y-17131026D01*
X5183233Y-16921502D02*
X5011805Y-17178645D01*
X5440376Y-16931026D02*
X5459424Y-16931026D01*
X5478471Y-16940550D01*
X5487995Y-16950074D01*
X5497519Y-16969121D01*
X5507043Y-17007217D01*
X5507043Y-17054836D01*
X5497519Y-17092931D01*
X5487995Y-17111979D01*
X5478471Y-17121502D01*
X5459424Y-17131026D01*
X5440376Y-17131026D01*
X5421329Y-17121502D01*
X5411805Y-17111979D01*
X5402281Y-17092931D01*
X5392757Y-17054836D01*
X5392757Y-17007217D01*
X5402281Y-16969121D01*
X5411805Y-16950074D01*
X5421329Y-16940550D01*
X5440376Y-16931026D01*
X5592757Y-17111979D02*
X5602281Y-17121502D01*
X5592757Y-17131026D01*
X5583233Y-17121502D01*
X5592757Y-17111979D01*
X5592757Y-17131026D01*
X5726090Y-16931026D02*
X5745138Y-16931026D01*
X5764186Y-16940550D01*
X5773709Y-16950074D01*
X5783233Y-16969121D01*
X5792757Y-17007217D01*
X5792757Y-17054836D01*
X5783233Y-17092931D01*
X5773709Y-17111979D01*
X5764186Y-17121502D01*
X5745138Y-17131026D01*
X5726090Y-17131026D01*
X5707043Y-17121502D01*
X5697519Y-17111979D01*
X5687995Y-17092931D01*
X5678471Y-17054836D01*
X5678471Y-17007217D01*
X5687995Y-16969121D01*
X5697519Y-16950074D01*
X5707043Y-16940550D01*
X5726090Y-16931026D01*
X5859424Y-16931026D02*
X5983233Y-16931026D01*
X5916567Y-17007217D01*
X5945138Y-17007217D01*
X5964186Y-17016740D01*
X5973709Y-17026264D01*
X5983233Y-17045312D01*
X5983233Y-17092931D01*
X5973709Y-17111979D01*
X5964186Y-17121502D01*
X5945138Y-17131026D01*
X5887995Y-17131026D01*
X5868948Y-17121502D01*
X5859424Y-17111979D01*
X6173709Y-17131026D02*
X6059424Y-17131026D01*
X6116567Y-17131026D02*
X6116567Y-16931026D01*
X6097519Y-16959598D01*
X6078471Y-16978645D01*
X6059424Y-16988169D01*
X6354662Y-16931026D02*
X6259424Y-16931026D01*
X6249900Y-17026264D01*
X6259424Y-17016740D01*
X6278471Y-17007217D01*
X6326090Y-17007217D01*
X6345138Y-17016740D01*
X6354662Y-17026264D01*
X6364186Y-17045312D01*
X6364186Y-17092931D01*
X6354662Y-17111979D01*
X6345138Y-17121502D01*
X6326090Y-17131026D01*
X6278471Y-17131026D01*
X6259424Y-17121502D01*
X6249900Y-17111979D01*
X6440376Y-16931026D02*
X6440376Y-16969121D01*
X6516567Y-16931026D02*
X6516567Y-16969121D01*
X6811805Y-17207217D02*
X6802281Y-17197693D01*
X6783233Y-17169121D01*
X6773709Y-17150074D01*
X6764186Y-17121502D01*
X6754662Y-17073883D01*
X6754662Y-17035788D01*
X6764186Y-16988169D01*
X6773709Y-16959598D01*
X6783233Y-16940550D01*
X6802281Y-16911979D01*
X6811805Y-16902455D01*
X6868948Y-16931026D02*
X6992757Y-16931026D01*
X6926090Y-17007217D01*
X6954662Y-17007217D01*
X6973709Y-17016740D01*
X6983233Y-17026264D01*
X6992757Y-17045312D01*
X6992757Y-17092931D01*
X6983233Y-17111979D01*
X6973709Y-17121502D01*
X6954662Y-17131026D01*
X6897519Y-17131026D01*
X6878471Y-17121502D01*
X6868948Y-17111979D01*
X7230852Y-17131026D02*
X7230852Y-16931026D01*
X7316567Y-17131026D02*
X7316567Y-17026264D01*
X7307043Y-17007217D01*
X7287995Y-16997693D01*
X7259424Y-16997693D01*
X7240376Y-17007217D01*
X7230852Y-17016740D01*
X7440376Y-17131026D02*
X7421328Y-17121502D01*
X7411805Y-17111979D01*
X7402281Y-17092931D01*
X7402281Y-17035788D01*
X7411805Y-17016740D01*
X7421328Y-17007217D01*
X7440376Y-16997693D01*
X7468948Y-16997693D01*
X7487995Y-17007217D01*
X7497519Y-17016740D01*
X7507043Y-17035788D01*
X7507043Y-17092931D01*
X7497519Y-17111979D01*
X7487995Y-17121502D01*
X7468948Y-17131026D01*
X7440376Y-17131026D01*
X7621328Y-17131026D02*
X7602281Y-17121502D01*
X7592757Y-17102455D01*
X7592757Y-16931026D01*
X7773709Y-17121502D02*
X7754662Y-17131026D01*
X7716567Y-17131026D01*
X7697519Y-17121502D01*
X7687995Y-17102455D01*
X7687995Y-17026264D01*
X7697519Y-17007217D01*
X7716567Y-16997693D01*
X7754662Y-16997693D01*
X7773709Y-17007217D01*
X7783233Y-17026264D01*
X7783233Y-17045312D01*
X7687995Y-17064360D01*
X7859424Y-17121502D02*
X7878471Y-17131026D01*
X7916567Y-17131026D01*
X7935614Y-17121502D01*
X7945138Y-17102455D01*
X7945138Y-17092931D01*
X7935614Y-17073883D01*
X7916567Y-17064360D01*
X7887995Y-17064360D01*
X7868948Y-17054836D01*
X7859424Y-17035788D01*
X7859424Y-17026264D01*
X7868948Y-17007217D01*
X7887995Y-16997693D01*
X7916567Y-16997693D01*
X7935614Y-17007217D01*
X8011805Y-17207217D02*
X8021328Y-17197693D01*
X8040376Y-17169121D01*
X8049900Y-17150074D01*
X8059424Y-17121502D01*
X8068948Y-17073883D01*
X8068948Y-17035788D01*
X8059424Y-16988169D01*
X8049900Y-16959598D01*
X8040376Y-16940550D01*
X8021328Y-16911979D01*
X8011805Y-16902455D01*
D15*
X3159900Y-17264550D02*
X3239900Y-17344550D01*
X3239900Y-17264550D02*
X3159900Y-17344550D01*
X3199900Y-17264550D02*
X3199900Y-17344550D01*
X3159900Y-17304550D02*
X3239900Y-17304550D01*
D11*
X3535614Y-17195026D02*
X3554662Y-17195026D01*
X3573709Y-17204550D01*
X3583233Y-17214074D01*
X3592757Y-17233121D01*
X3602281Y-17271217D01*
X3602281Y-17318836D01*
X3592757Y-17356931D01*
X3583233Y-17375979D01*
X3573709Y-17385502D01*
X3554662Y-17395026D01*
X3535614Y-17395026D01*
X3516567Y-17385502D01*
X3507043Y-17375979D01*
X3497519Y-17356931D01*
X3487995Y-17318836D01*
X3487995Y-17271217D01*
X3497519Y-17233121D01*
X3507043Y-17214074D01*
X3516567Y-17204550D01*
X3535614Y-17195026D01*
X3687995Y-17375979D02*
X3697519Y-17385502D01*
X3687995Y-17395026D01*
X3678471Y-17385502D01*
X3687995Y-17375979D01*
X3687995Y-17395026D01*
X3811805Y-17280740D02*
X3792757Y-17271217D01*
X3783233Y-17261693D01*
X3773709Y-17242645D01*
X3773709Y-17233121D01*
X3783233Y-17214074D01*
X3792757Y-17204550D01*
X3811805Y-17195026D01*
X3849900Y-17195026D01*
X3868948Y-17204550D01*
X3878471Y-17214074D01*
X3887995Y-17233121D01*
X3887995Y-17242645D01*
X3878471Y-17261693D01*
X3868948Y-17271217D01*
X3849900Y-17280740D01*
X3811805Y-17280740D01*
X3792757Y-17290264D01*
X3783233Y-17299788D01*
X3773709Y-17318836D01*
X3773709Y-17356931D01*
X3783233Y-17375979D01*
X3792757Y-17385502D01*
X3811805Y-17395026D01*
X3849900Y-17395026D01*
X3868948Y-17385502D01*
X3878471Y-17375979D01*
X3887995Y-17356931D01*
X3887995Y-17318836D01*
X3878471Y-17299788D01*
X3868948Y-17290264D01*
X3849900Y-17280740D01*
X4011805Y-17195026D02*
X4030852Y-17195026D01*
X4049900Y-17204550D01*
X4059424Y-17214074D01*
X4068948Y-17233121D01*
X4078471Y-17271217D01*
X4078471Y-17318836D01*
X4068948Y-17356931D01*
X4059424Y-17375979D01*
X4049900Y-17385502D01*
X4030852Y-17395026D01*
X4011805Y-17395026D01*
X3992757Y-17385502D01*
X3983233Y-17375979D01*
X3973709Y-17356931D01*
X3964186Y-17318836D01*
X3964186Y-17271217D01*
X3973709Y-17233121D01*
X3983233Y-17214074D01*
X3992757Y-17204550D01*
X4011805Y-17195026D01*
X4202281Y-17195026D02*
X4221329Y-17195026D01*
X4240376Y-17204550D01*
X4249900Y-17214074D01*
X4259424Y-17233121D01*
X4268948Y-17271217D01*
X4268948Y-17318836D01*
X4259424Y-17356931D01*
X4249900Y-17375979D01*
X4240376Y-17385502D01*
X4221329Y-17395026D01*
X4202281Y-17395026D01*
X4183233Y-17385502D01*
X4173709Y-17375979D01*
X4164186Y-17356931D01*
X4154662Y-17318836D01*
X4154662Y-17271217D01*
X4164186Y-17233121D01*
X4173709Y-17214074D01*
X4183233Y-17204550D01*
X4202281Y-17195026D01*
X4354662Y-17395026D02*
X4354662Y-17261693D01*
X4354662Y-17280740D02*
X4364186Y-17271217D01*
X4383233Y-17261693D01*
X4411805Y-17261693D01*
X4430852Y-17271217D01*
X4440376Y-17290264D01*
X4440376Y-17395026D01*
X4440376Y-17290264D02*
X4449900Y-17271217D01*
X4468948Y-17261693D01*
X4497519Y-17261693D01*
X4516567Y-17271217D01*
X4526090Y-17290264D01*
X4526090Y-17395026D01*
X4621329Y-17395026D02*
X4621329Y-17261693D01*
X4621329Y-17280740D02*
X4630852Y-17271217D01*
X4649900Y-17261693D01*
X4678471Y-17261693D01*
X4697519Y-17271217D01*
X4707043Y-17290264D01*
X4707043Y-17395026D01*
X4707043Y-17290264D02*
X4716567Y-17271217D01*
X4735614Y-17261693D01*
X4764186Y-17261693D01*
X4783233Y-17271217D01*
X4792757Y-17290264D01*
X4792757Y-17395026D01*
X5183233Y-17185502D02*
X5011805Y-17442645D01*
X5440376Y-17195026D02*
X5459424Y-17195026D01*
X5478471Y-17204550D01*
X5487995Y-17214074D01*
X5497519Y-17233121D01*
X5507043Y-17271217D01*
X5507043Y-17318836D01*
X5497519Y-17356931D01*
X5487995Y-17375979D01*
X5478471Y-17385502D01*
X5459424Y-17395026D01*
X5440376Y-17395026D01*
X5421329Y-17385502D01*
X5411805Y-17375979D01*
X5402281Y-17356931D01*
X5392757Y-17318836D01*
X5392757Y-17271217D01*
X5402281Y-17233121D01*
X5411805Y-17214074D01*
X5421329Y-17204550D01*
X5440376Y-17195026D01*
X5592757Y-17375979D02*
X5602281Y-17385502D01*
X5592757Y-17395026D01*
X5583233Y-17385502D01*
X5592757Y-17375979D01*
X5592757Y-17395026D01*
X5726090Y-17195026D02*
X5745138Y-17195026D01*
X5764186Y-17204550D01*
X5773709Y-17214074D01*
X5783233Y-17233121D01*
X5792757Y-17271217D01*
X5792757Y-17318836D01*
X5783233Y-17356931D01*
X5773709Y-17375979D01*
X5764186Y-17385502D01*
X5745138Y-17395026D01*
X5726090Y-17395026D01*
X5707043Y-17385502D01*
X5697519Y-17375979D01*
X5687995Y-17356931D01*
X5678471Y-17318836D01*
X5678471Y-17271217D01*
X5687995Y-17233121D01*
X5697519Y-17214074D01*
X5707043Y-17204550D01*
X5726090Y-17195026D01*
X5859424Y-17195026D02*
X5983233Y-17195026D01*
X5916567Y-17271217D01*
X5945138Y-17271217D01*
X5964186Y-17280740D01*
X5973709Y-17290264D01*
X5983233Y-17309312D01*
X5983233Y-17356931D01*
X5973709Y-17375979D01*
X5964186Y-17385502D01*
X5945138Y-17395026D01*
X5887995Y-17395026D01*
X5868948Y-17385502D01*
X5859424Y-17375979D01*
X6173709Y-17395026D02*
X6059424Y-17395026D01*
X6116567Y-17395026D02*
X6116567Y-17195026D01*
X6097519Y-17223598D01*
X6078471Y-17242645D01*
X6059424Y-17252169D01*
X6354662Y-17195026D02*
X6259424Y-17195026D01*
X6249900Y-17290264D01*
X6259424Y-17280740D01*
X6278471Y-17271217D01*
X6326090Y-17271217D01*
X6345138Y-17280740D01*
X6354662Y-17290264D01*
X6364186Y-17309312D01*
X6364186Y-17356931D01*
X6354662Y-17375979D01*
X6345138Y-17385502D01*
X6326090Y-17395026D01*
X6278471Y-17395026D01*
X6259424Y-17385502D01*
X6249900Y-17375979D01*
X6440376Y-17195026D02*
X6440376Y-17233121D01*
X6516567Y-17195026D02*
X6516567Y-17233121D01*
X6811805Y-17471217D02*
X6802281Y-17461693D01*
X6783233Y-17433121D01*
X6773709Y-17414074D01*
X6764186Y-17385502D01*
X6754662Y-17337883D01*
X6754662Y-17299788D01*
X6764186Y-17252169D01*
X6773709Y-17223598D01*
X6783233Y-17204550D01*
X6802281Y-17175979D01*
X6811805Y-17166455D01*
X6973709Y-17261693D02*
X6973709Y-17395026D01*
X6926090Y-17185502D02*
X6878471Y-17328360D01*
X7002281Y-17328360D01*
X7164186Y-17261693D02*
X7164186Y-17395026D01*
X7116567Y-17185502D02*
X7068948Y-17328360D01*
X7192757Y-17328360D01*
X7421328Y-17395026D02*
X7421328Y-17195026D01*
X7507043Y-17395026D02*
X7507043Y-17290264D01*
X7497519Y-17271217D01*
X7478471Y-17261693D01*
X7449900Y-17261693D01*
X7430852Y-17271217D01*
X7421328Y-17280740D01*
X7630852Y-17395026D02*
X7611805Y-17385502D01*
X7602281Y-17375979D01*
X7592757Y-17356931D01*
X7592757Y-17299788D01*
X7602281Y-17280740D01*
X7611805Y-17271217D01*
X7630852Y-17261693D01*
X7659424Y-17261693D01*
X7678471Y-17271217D01*
X7687995Y-17280740D01*
X7697519Y-17299788D01*
X7697519Y-17356931D01*
X7687995Y-17375979D01*
X7678471Y-17385502D01*
X7659424Y-17395026D01*
X7630852Y-17395026D01*
X7811805Y-17395026D02*
X7792757Y-17385502D01*
X7783233Y-17366455D01*
X7783233Y-17195026D01*
X7964186Y-17385502D02*
X7945138Y-17395026D01*
X7907043Y-17395026D01*
X7887995Y-17385502D01*
X7878471Y-17366455D01*
X7878471Y-17290264D01*
X7887995Y-17271217D01*
X7907043Y-17261693D01*
X7945138Y-17261693D01*
X7964186Y-17271217D01*
X7973709Y-17290264D01*
X7973709Y-17309312D01*
X7878471Y-17328360D01*
X8049900Y-17385502D02*
X8068948Y-17395026D01*
X8107043Y-17395026D01*
X8126090Y-17385502D01*
X8135614Y-17366455D01*
X8135614Y-17356931D01*
X8126090Y-17337883D01*
X8107043Y-17328360D01*
X8078471Y-17328360D01*
X8059424Y-17318836D01*
X8049900Y-17299788D01*
X8049900Y-17290264D01*
X8059424Y-17271217D01*
X8078471Y-17261693D01*
X8107043Y-17261693D01*
X8126090Y-17271217D01*
X8202281Y-17471217D02*
X8211805Y-17461693D01*
X8230852Y-17433121D01*
X8240376Y-17414074D01*
X8249900Y-17385502D01*
X8259424Y-17337883D01*
X8259424Y-17299788D01*
X8249900Y-17252169D01*
X8240376Y-17223598D01*
X8230852Y-17204550D01*
X8211805Y-17175979D01*
X8202281Y-17166455D01*
D16*
X3158620Y-17527910D02*
X3239900Y-17609190D01*
X3239900Y-17527910D02*
X3158620Y-17609190D01*
X3227997Y-17597287D02*
X3227997Y-17539813D01*
X3170523Y-17539813D01*
X3170523Y-17597287D01*
X3227997Y-17597287D01*
D11*
X3535614Y-17459026D02*
X3554662Y-17459026D01*
X3573709Y-17468550D01*
X3583233Y-17478074D01*
X3592757Y-17497121D01*
X3602281Y-17535217D01*
X3602281Y-17582836D01*
X3592757Y-17620931D01*
X3583233Y-17639979D01*
X3573709Y-17649502D01*
X3554662Y-17659026D01*
X3535614Y-17659026D01*
X3516567Y-17649502D01*
X3507043Y-17639979D01*
X3497519Y-17620931D01*
X3487995Y-17582836D01*
X3487995Y-17535217D01*
X3497519Y-17497121D01*
X3507043Y-17478074D01*
X3516567Y-17468550D01*
X3535614Y-17459026D01*
X3687995Y-17639979D02*
X3697519Y-17649502D01*
X3687995Y-17659026D01*
X3678471Y-17649502D01*
X3687995Y-17639979D01*
X3687995Y-17659026D01*
X3811805Y-17544740D02*
X3792757Y-17535217D01*
X3783233Y-17525693D01*
X3773709Y-17506645D01*
X3773709Y-17497121D01*
X3783233Y-17478074D01*
X3792757Y-17468550D01*
X3811805Y-17459026D01*
X3849900Y-17459026D01*
X3868948Y-17468550D01*
X3878471Y-17478074D01*
X3887995Y-17497121D01*
X3887995Y-17506645D01*
X3878471Y-17525693D01*
X3868948Y-17535217D01*
X3849900Y-17544740D01*
X3811805Y-17544740D01*
X3792757Y-17554264D01*
X3783233Y-17563788D01*
X3773709Y-17582836D01*
X3773709Y-17620931D01*
X3783233Y-17639979D01*
X3792757Y-17649502D01*
X3811805Y-17659026D01*
X3849900Y-17659026D01*
X3868948Y-17649502D01*
X3878471Y-17639979D01*
X3887995Y-17620931D01*
X3887995Y-17582836D01*
X3878471Y-17563788D01*
X3868948Y-17554264D01*
X3849900Y-17544740D01*
X4078471Y-17659026D02*
X3964186Y-17659026D01*
X4021328Y-17659026D02*
X4021328Y-17459026D01*
X4002281Y-17487598D01*
X3983233Y-17506645D01*
X3964186Y-17516169D01*
X4145138Y-17459026D02*
X4268948Y-17459026D01*
X4202281Y-17535217D01*
X4230852Y-17535217D01*
X4249900Y-17544740D01*
X4259424Y-17554264D01*
X4268948Y-17573312D01*
X4268948Y-17620931D01*
X4259424Y-17639979D01*
X4249900Y-17649502D01*
X4230852Y-17659026D01*
X4173709Y-17659026D01*
X4154662Y-17649502D01*
X4145138Y-17639979D01*
X4354662Y-17659026D02*
X4354662Y-17525693D01*
X4354662Y-17544740D02*
X4364186Y-17535217D01*
X4383233Y-17525693D01*
X4411805Y-17525693D01*
X4430852Y-17535217D01*
X4440376Y-17554264D01*
X4440376Y-17659026D01*
X4440376Y-17554264D02*
X4449900Y-17535217D01*
X4468948Y-17525693D01*
X4497519Y-17525693D01*
X4516567Y-17535217D01*
X4526090Y-17554264D01*
X4526090Y-17659026D01*
X4621329Y-17659026D02*
X4621329Y-17525693D01*
X4621329Y-17544740D02*
X4630852Y-17535217D01*
X4649900Y-17525693D01*
X4678471Y-17525693D01*
X4697519Y-17535217D01*
X4707043Y-17554264D01*
X4707043Y-17659026D01*
X4707043Y-17554264D02*
X4716567Y-17535217D01*
X4735614Y-17525693D01*
X4764186Y-17525693D01*
X4783233Y-17535217D01*
X4792757Y-17554264D01*
X4792757Y-17659026D01*
X5183233Y-17449502D02*
X5011805Y-17706645D01*
X5440376Y-17459026D02*
X5459424Y-17459026D01*
X5478471Y-17468550D01*
X5487995Y-17478074D01*
X5497519Y-17497121D01*
X5507043Y-17535217D01*
X5507043Y-17582836D01*
X5497519Y-17620931D01*
X5487995Y-17639979D01*
X5478471Y-17649502D01*
X5459424Y-17659026D01*
X5440376Y-17659026D01*
X5421329Y-17649502D01*
X5411805Y-17639979D01*
X5402281Y-17620931D01*
X5392757Y-17582836D01*
X5392757Y-17535217D01*
X5402281Y-17497121D01*
X5411805Y-17478074D01*
X5421329Y-17468550D01*
X5440376Y-17459026D01*
X5592757Y-17639979D02*
X5602281Y-17649502D01*
X5592757Y-17659026D01*
X5583233Y-17649502D01*
X5592757Y-17639979D01*
X5592757Y-17659026D01*
X5726090Y-17459026D02*
X5745138Y-17459026D01*
X5764186Y-17468550D01*
X5773709Y-17478074D01*
X5783233Y-17497121D01*
X5792757Y-17535217D01*
X5792757Y-17582836D01*
X5783233Y-17620931D01*
X5773709Y-17639979D01*
X5764186Y-17649502D01*
X5745138Y-17659026D01*
X5726090Y-17659026D01*
X5707043Y-17649502D01*
X5697519Y-17639979D01*
X5687995Y-17620931D01*
X5678471Y-17582836D01*
X5678471Y-17535217D01*
X5687995Y-17497121D01*
X5697519Y-17478074D01*
X5707043Y-17468550D01*
X5726090Y-17459026D01*
X5859424Y-17459026D02*
X5983233Y-17459026D01*
X5916567Y-17535217D01*
X5945138Y-17535217D01*
X5964186Y-17544740D01*
X5973709Y-17554264D01*
X5983233Y-17573312D01*
X5983233Y-17620931D01*
X5973709Y-17639979D01*
X5964186Y-17649502D01*
X5945138Y-17659026D01*
X5887995Y-17659026D01*
X5868948Y-17649502D01*
X5859424Y-17639979D01*
X6059424Y-17478074D02*
X6068948Y-17468550D01*
X6087995Y-17459026D01*
X6135614Y-17459026D01*
X6154662Y-17468550D01*
X6164186Y-17478074D01*
X6173709Y-17497121D01*
X6173709Y-17516169D01*
X6164186Y-17544740D01*
X6049900Y-17659026D01*
X6173709Y-17659026D01*
X6297519Y-17459026D02*
X6316567Y-17459026D01*
X6335614Y-17468550D01*
X6345138Y-17478074D01*
X6354662Y-17497121D01*
X6364186Y-17535217D01*
X6364186Y-17582836D01*
X6354662Y-17620931D01*
X6345138Y-17639979D01*
X6335614Y-17649502D01*
X6316567Y-17659026D01*
X6297519Y-17659026D01*
X6278471Y-17649502D01*
X6268948Y-17639979D01*
X6259424Y-17620931D01*
X6249900Y-17582836D01*
X6249900Y-17535217D01*
X6259424Y-17497121D01*
X6268948Y-17478074D01*
X6278471Y-17468550D01*
X6297519Y-17459026D01*
X6440376Y-17459026D02*
X6440376Y-17497121D01*
X6516567Y-17459026D02*
X6516567Y-17497121D01*
X6811805Y-17735217D02*
X6802281Y-17725693D01*
X6783233Y-17697121D01*
X6773709Y-17678074D01*
X6764186Y-17649502D01*
X6754662Y-17601883D01*
X6754662Y-17563788D01*
X6764186Y-17516169D01*
X6773709Y-17487598D01*
X6783233Y-17468550D01*
X6802281Y-17439979D01*
X6811805Y-17430455D01*
X6973709Y-17525693D02*
X6973709Y-17659026D01*
X6926090Y-17449502D02*
X6878471Y-17592360D01*
X7002281Y-17592360D01*
X7230852Y-17659026D02*
X7230852Y-17459026D01*
X7316567Y-17659026D02*
X7316567Y-17554264D01*
X7307043Y-17535217D01*
X7287995Y-17525693D01*
X7259424Y-17525693D01*
X7240376Y-17535217D01*
X7230852Y-17544740D01*
X7440376Y-17659026D02*
X7421328Y-17649502D01*
X7411805Y-17639979D01*
X7402281Y-17620931D01*
X7402281Y-17563788D01*
X7411805Y-17544740D01*
X7421328Y-17535217D01*
X7440376Y-17525693D01*
X7468948Y-17525693D01*
X7487995Y-17535217D01*
X7497519Y-17544740D01*
X7507043Y-17563788D01*
X7507043Y-17620931D01*
X7497519Y-17639979D01*
X7487995Y-17649502D01*
X7468948Y-17659026D01*
X7440376Y-17659026D01*
X7621328Y-17659026D02*
X7602281Y-17649502D01*
X7592757Y-17630455D01*
X7592757Y-17459026D01*
X7773709Y-17649502D02*
X7754662Y-17659026D01*
X7716567Y-17659026D01*
X7697519Y-17649502D01*
X7687995Y-17630455D01*
X7687995Y-17554264D01*
X7697519Y-17535217D01*
X7716567Y-17525693D01*
X7754662Y-17525693D01*
X7773709Y-17535217D01*
X7783233Y-17554264D01*
X7783233Y-17573312D01*
X7687995Y-17592360D01*
X7859424Y-17649502D02*
X7878471Y-17659026D01*
X7916567Y-17659026D01*
X7935614Y-17649502D01*
X7945138Y-17630455D01*
X7945138Y-17620931D01*
X7935614Y-17601883D01*
X7916567Y-17592360D01*
X7887995Y-17592360D01*
X7868948Y-17582836D01*
X7859424Y-17563788D01*
X7859424Y-17554264D01*
X7868948Y-17535217D01*
X7887995Y-17525693D01*
X7916567Y-17525693D01*
X7935614Y-17535217D01*
X8011805Y-17735217D02*
X8021328Y-17725693D01*
X8040376Y-17697121D01*
X8049900Y-17678074D01*
X8059424Y-17649502D01*
X8068948Y-17601883D01*
X8068948Y-17563788D01*
X8059424Y-17516169D01*
X8049900Y-17487598D01*
X8040376Y-17468550D01*
X8021328Y-17439979D01*
X8011805Y-17430455D01*
D17*
X3129900Y-17777550D02*
X3239900Y-17887550D01*
X3239900Y-17777550D02*
X3129900Y-17887550D01*
X3184900Y-17887550D02*
X3239900Y-17832550D01*
X3184900Y-17777550D01*
X3129900Y-17832550D01*
X3184900Y-17887550D01*
D11*
X3602281Y-17923026D02*
X3487995Y-17923026D01*
X3545138Y-17923026D02*
X3545138Y-17723026D01*
X3526090Y-17751598D01*
X3507043Y-17770645D01*
X3487995Y-17780169D01*
X3687995Y-17903979D02*
X3697519Y-17913502D01*
X3687995Y-17923026D01*
X3678471Y-17913502D01*
X3687995Y-17903979D01*
X3687995Y-17923026D01*
X3887995Y-17923026D02*
X3773709Y-17923026D01*
X3830852Y-17923026D02*
X3830852Y-17723026D01*
X3811805Y-17751598D01*
X3792757Y-17770645D01*
X3773709Y-17780169D01*
X4011805Y-17723026D02*
X4030852Y-17723026D01*
X4049900Y-17732550D01*
X4059424Y-17742074D01*
X4068948Y-17761121D01*
X4078471Y-17799217D01*
X4078471Y-17846836D01*
X4068948Y-17884931D01*
X4059424Y-17903979D01*
X4049900Y-17913502D01*
X4030852Y-17923026D01*
X4011805Y-17923026D01*
X3992757Y-17913502D01*
X3983233Y-17903979D01*
X3973709Y-17884931D01*
X3964186Y-17846836D01*
X3964186Y-17799217D01*
X3973709Y-17761121D01*
X3983233Y-17742074D01*
X3992757Y-17732550D01*
X4011805Y-17723026D01*
X4202281Y-17723026D02*
X4221329Y-17723026D01*
X4240376Y-17732550D01*
X4249900Y-17742074D01*
X4259424Y-17761121D01*
X4268948Y-17799217D01*
X4268948Y-17846836D01*
X4259424Y-17884931D01*
X4249900Y-17903979D01*
X4240376Y-17913502D01*
X4221329Y-17923026D01*
X4202281Y-17923026D01*
X4183233Y-17913502D01*
X4173709Y-17903979D01*
X4164186Y-17884931D01*
X4154662Y-17846836D01*
X4154662Y-17799217D01*
X4164186Y-17761121D01*
X4173709Y-17742074D01*
X4183233Y-17732550D01*
X4202281Y-17723026D01*
X4354662Y-17923026D02*
X4354662Y-17789693D01*
X4354662Y-17808740D02*
X4364186Y-17799217D01*
X4383233Y-17789693D01*
X4411805Y-17789693D01*
X4430852Y-17799217D01*
X4440376Y-17818264D01*
X4440376Y-17923026D01*
X4440376Y-17818264D02*
X4449900Y-17799217D01*
X4468948Y-17789693D01*
X4497519Y-17789693D01*
X4516567Y-17799217D01*
X4526090Y-17818264D01*
X4526090Y-17923026D01*
X4621329Y-17923026D02*
X4621329Y-17789693D01*
X4621329Y-17808740D02*
X4630852Y-17799217D01*
X4649900Y-17789693D01*
X4678471Y-17789693D01*
X4697519Y-17799217D01*
X4707043Y-17818264D01*
X4707043Y-17923026D01*
X4707043Y-17818264D02*
X4716567Y-17799217D01*
X4735614Y-17789693D01*
X4764186Y-17789693D01*
X4783233Y-17799217D01*
X4792757Y-17818264D01*
X4792757Y-17923026D01*
X5183233Y-17713502D02*
X5011805Y-17970645D01*
X5440376Y-17723026D02*
X5459424Y-17723026D01*
X5478471Y-17732550D01*
X5487995Y-17742074D01*
X5497519Y-17761121D01*
X5507043Y-17799217D01*
X5507043Y-17846836D01*
X5497519Y-17884931D01*
X5487995Y-17903979D01*
X5478471Y-17913502D01*
X5459424Y-17923026D01*
X5440376Y-17923026D01*
X5421329Y-17913502D01*
X5411805Y-17903979D01*
X5402281Y-17884931D01*
X5392757Y-17846836D01*
X5392757Y-17799217D01*
X5402281Y-17761121D01*
X5411805Y-17742074D01*
X5421329Y-17732550D01*
X5440376Y-17723026D01*
X5592757Y-17903979D02*
X5602281Y-17913502D01*
X5592757Y-17923026D01*
X5583233Y-17913502D01*
X5592757Y-17903979D01*
X5592757Y-17923026D01*
X5726090Y-17723026D02*
X5745138Y-17723026D01*
X5764186Y-17732550D01*
X5773709Y-17742074D01*
X5783233Y-17761121D01*
X5792757Y-17799217D01*
X5792757Y-17846836D01*
X5783233Y-17884931D01*
X5773709Y-17903979D01*
X5764186Y-17913502D01*
X5745138Y-17923026D01*
X5726090Y-17923026D01*
X5707043Y-17913502D01*
X5697519Y-17903979D01*
X5687995Y-17884931D01*
X5678471Y-17846836D01*
X5678471Y-17799217D01*
X5687995Y-17761121D01*
X5697519Y-17742074D01*
X5707043Y-17732550D01*
X5726090Y-17723026D01*
X5964186Y-17789693D02*
X5964186Y-17923026D01*
X5916567Y-17713502D02*
X5868948Y-17856360D01*
X5992757Y-17856360D01*
X6049900Y-17723026D02*
X6173709Y-17723026D01*
X6107043Y-17799217D01*
X6135614Y-17799217D01*
X6154662Y-17808740D01*
X6164186Y-17818264D01*
X6173709Y-17837312D01*
X6173709Y-17884931D01*
X6164186Y-17903979D01*
X6154662Y-17913502D01*
X6135614Y-17923026D01*
X6078471Y-17923026D01*
X6059424Y-17913502D01*
X6049900Y-17903979D01*
X6240376Y-17723026D02*
X6364186Y-17723026D01*
X6297519Y-17799217D01*
X6326090Y-17799217D01*
X6345138Y-17808740D01*
X6354662Y-17818264D01*
X6364186Y-17837312D01*
X6364186Y-17884931D01*
X6354662Y-17903979D01*
X6345138Y-17913502D01*
X6326090Y-17923026D01*
X6268948Y-17923026D01*
X6249900Y-17913502D01*
X6240376Y-17903979D01*
X6440376Y-17723026D02*
X6440376Y-17761121D01*
X6516567Y-17723026D02*
X6516567Y-17761121D01*
X6811805Y-17999217D02*
X6802281Y-17989693D01*
X6783233Y-17961121D01*
X6773709Y-17942074D01*
X6764186Y-17913502D01*
X6754662Y-17865883D01*
X6754662Y-17827788D01*
X6764186Y-17780169D01*
X6773709Y-17751598D01*
X6783233Y-17732550D01*
X6802281Y-17703979D01*
X6811805Y-17694455D01*
X6916567Y-17808740D02*
X6897519Y-17799217D01*
X6887995Y-17789693D01*
X6878471Y-17770645D01*
X6878471Y-17761121D01*
X6887995Y-17742074D01*
X6897519Y-17732550D01*
X6916567Y-17723026D01*
X6954662Y-17723026D01*
X6973709Y-17732550D01*
X6983233Y-17742074D01*
X6992757Y-17761121D01*
X6992757Y-17770645D01*
X6983233Y-17789693D01*
X6973709Y-17799217D01*
X6954662Y-17808740D01*
X6916567Y-17808740D01*
X6897519Y-17818264D01*
X6887995Y-17827788D01*
X6878471Y-17846836D01*
X6878471Y-17884931D01*
X6887995Y-17903979D01*
X6897519Y-17913502D01*
X6916567Y-17923026D01*
X6954662Y-17923026D01*
X6973709Y-17913502D01*
X6983233Y-17903979D01*
X6992757Y-17884931D01*
X6992757Y-17846836D01*
X6983233Y-17827788D01*
X6973709Y-17818264D01*
X6954662Y-17808740D01*
X7230852Y-17923026D02*
X7230852Y-17723026D01*
X7316567Y-17923026D02*
X7316567Y-17818264D01*
X7307043Y-17799217D01*
X7287995Y-17789693D01*
X7259424Y-17789693D01*
X7240376Y-17799217D01*
X7230852Y-17808740D01*
X7440376Y-17923026D02*
X7421328Y-17913502D01*
X7411805Y-17903979D01*
X7402281Y-17884931D01*
X7402281Y-17827788D01*
X7411805Y-17808740D01*
X7421328Y-17799217D01*
X7440376Y-17789693D01*
X7468948Y-17789693D01*
X7487995Y-17799217D01*
X7497519Y-17808740D01*
X7507043Y-17827788D01*
X7507043Y-17884931D01*
X7497519Y-17903979D01*
X7487995Y-17913502D01*
X7468948Y-17923026D01*
X7440376Y-17923026D01*
X7621328Y-17923026D02*
X7602281Y-17913502D01*
X7592757Y-17894455D01*
X7592757Y-17723026D01*
X7773709Y-17913502D02*
X7754662Y-17923026D01*
X7716567Y-17923026D01*
X7697519Y-17913502D01*
X7687995Y-17894455D01*
X7687995Y-17818264D01*
X7697519Y-17799217D01*
X7716567Y-17789693D01*
X7754662Y-17789693D01*
X7773709Y-17799217D01*
X7783233Y-17818264D01*
X7783233Y-17837312D01*
X7687995Y-17856360D01*
X7859424Y-17913502D02*
X7878471Y-17923026D01*
X7916567Y-17923026D01*
X7935614Y-17913502D01*
X7945138Y-17894455D01*
X7945138Y-17884931D01*
X7935614Y-17865883D01*
X7916567Y-17856360D01*
X7887995Y-17856360D01*
X7868948Y-17846836D01*
X7859424Y-17827788D01*
X7859424Y-17818264D01*
X7868948Y-17799217D01*
X7887995Y-17789693D01*
X7916567Y-17789693D01*
X7935614Y-17799217D01*
X8011805Y-17999217D02*
X8021328Y-17989693D01*
X8040376Y-17961121D01*
X8049900Y-17942074D01*
X8059424Y-17913502D01*
X8068948Y-17865883D01*
X8068948Y-17827788D01*
X8059424Y-17780169D01*
X8049900Y-17751598D01*
X8040376Y-17732550D01*
X8021328Y-17703979D01*
X8011805Y-17694455D01*
D18*
X3179900Y-18036550D02*
X3179900Y-18156550D01*
X3119900Y-18096550D02*
X3239900Y-18096550D01*
X3239900Y-18096550D02*
G75*
G03*
X3239900Y-18096550I-60000J0D01*
G01*
D11*
X3602281Y-18187026D02*
X3487995Y-18187026D01*
X3545138Y-18187026D02*
X3545138Y-17987026D01*
X3526090Y-18015598D01*
X3507043Y-18034645D01*
X3487995Y-18044169D01*
X3687995Y-18167979D02*
X3697519Y-18177502D01*
X3687995Y-18187026D01*
X3678471Y-18177502D01*
X3687995Y-18167979D01*
X3687995Y-18187026D01*
X3773709Y-18006074D02*
X3783233Y-17996550D01*
X3802281Y-17987026D01*
X3849900Y-17987026D01*
X3868948Y-17996550D01*
X3878471Y-18006074D01*
X3887995Y-18025121D01*
X3887995Y-18044169D01*
X3878471Y-18072740D01*
X3764186Y-18187026D01*
X3887995Y-18187026D01*
X4011805Y-17987026D02*
X4030852Y-17987026D01*
X4049900Y-17996550D01*
X4059424Y-18006074D01*
X4068948Y-18025121D01*
X4078471Y-18063217D01*
X4078471Y-18110836D01*
X4068948Y-18148931D01*
X4059424Y-18167979D01*
X4049900Y-18177502D01*
X4030852Y-18187026D01*
X4011805Y-18187026D01*
X3992757Y-18177502D01*
X3983233Y-18167979D01*
X3973709Y-18148931D01*
X3964186Y-18110836D01*
X3964186Y-18063217D01*
X3973709Y-18025121D01*
X3983233Y-18006074D01*
X3992757Y-17996550D01*
X4011805Y-17987026D01*
X4202281Y-17987026D02*
X4221329Y-17987026D01*
X4240376Y-17996550D01*
X4249900Y-18006074D01*
X4259424Y-18025121D01*
X4268948Y-18063217D01*
X4268948Y-18110836D01*
X4259424Y-18148931D01*
X4249900Y-18167979D01*
X4240376Y-18177502D01*
X4221329Y-18187026D01*
X4202281Y-18187026D01*
X4183233Y-18177502D01*
X4173709Y-18167979D01*
X4164186Y-18148931D01*
X4154662Y-18110836D01*
X4154662Y-18063217D01*
X4164186Y-18025121D01*
X4173709Y-18006074D01*
X4183233Y-17996550D01*
X4202281Y-17987026D01*
X4354662Y-18187026D02*
X4354662Y-18053693D01*
X4354662Y-18072740D02*
X4364186Y-18063217D01*
X4383233Y-18053693D01*
X4411805Y-18053693D01*
X4430852Y-18063217D01*
X4440376Y-18082264D01*
X4440376Y-18187026D01*
X4440376Y-18082264D02*
X4449900Y-18063217D01*
X4468948Y-18053693D01*
X4497519Y-18053693D01*
X4516567Y-18063217D01*
X4526090Y-18082264D01*
X4526090Y-18187026D01*
X4621329Y-18187026D02*
X4621329Y-18053693D01*
X4621329Y-18072740D02*
X4630852Y-18063217D01*
X4649900Y-18053693D01*
X4678471Y-18053693D01*
X4697519Y-18063217D01*
X4707043Y-18082264D01*
X4707043Y-18187026D01*
X4707043Y-18082264D02*
X4716567Y-18063217D01*
X4735614Y-18053693D01*
X4764186Y-18053693D01*
X4783233Y-18063217D01*
X4792757Y-18082264D01*
X4792757Y-18187026D01*
X5183233Y-17977502D02*
X5011805Y-18234645D01*
X5440376Y-17987026D02*
X5459424Y-17987026D01*
X5478471Y-17996550D01*
X5487995Y-18006074D01*
X5497519Y-18025121D01*
X5507043Y-18063217D01*
X5507043Y-18110836D01*
X5497519Y-18148931D01*
X5487995Y-18167979D01*
X5478471Y-18177502D01*
X5459424Y-18187026D01*
X5440376Y-18187026D01*
X5421329Y-18177502D01*
X5411805Y-18167979D01*
X5402281Y-18148931D01*
X5392757Y-18110836D01*
X5392757Y-18063217D01*
X5402281Y-18025121D01*
X5411805Y-18006074D01*
X5421329Y-17996550D01*
X5440376Y-17987026D01*
X5592757Y-18167979D02*
X5602281Y-18177502D01*
X5592757Y-18187026D01*
X5583233Y-18177502D01*
X5592757Y-18167979D01*
X5592757Y-18187026D01*
X5726090Y-17987026D02*
X5745138Y-17987026D01*
X5764186Y-17996550D01*
X5773709Y-18006074D01*
X5783233Y-18025121D01*
X5792757Y-18063217D01*
X5792757Y-18110836D01*
X5783233Y-18148931D01*
X5773709Y-18167979D01*
X5764186Y-18177502D01*
X5745138Y-18187026D01*
X5726090Y-18187026D01*
X5707043Y-18177502D01*
X5697519Y-18167979D01*
X5687995Y-18148931D01*
X5678471Y-18110836D01*
X5678471Y-18063217D01*
X5687995Y-18025121D01*
X5697519Y-18006074D01*
X5707043Y-17996550D01*
X5726090Y-17987026D01*
X5964186Y-18053693D02*
X5964186Y-18187026D01*
X5916567Y-17977502D02*
X5868948Y-18120360D01*
X5992757Y-18120360D01*
X6049900Y-17987026D02*
X6183233Y-17987026D01*
X6097519Y-18187026D01*
X6249900Y-18006074D02*
X6259424Y-17996550D01*
X6278471Y-17987026D01*
X6326090Y-17987026D01*
X6345138Y-17996550D01*
X6354662Y-18006074D01*
X6364186Y-18025121D01*
X6364186Y-18044169D01*
X6354662Y-18072740D01*
X6240376Y-18187026D01*
X6364186Y-18187026D01*
X6440376Y-17987026D02*
X6440376Y-18025121D01*
X6516567Y-17987026D02*
X6516567Y-18025121D01*
X6811805Y-18263217D02*
X6802281Y-18253693D01*
X6783233Y-18225121D01*
X6773709Y-18206074D01*
X6764186Y-18177502D01*
X6754662Y-18129883D01*
X6754662Y-18091788D01*
X6764186Y-18044169D01*
X6773709Y-18015598D01*
X6783233Y-17996550D01*
X6802281Y-17967979D01*
X6811805Y-17958455D01*
X6897519Y-18187026D02*
X6935614Y-18187026D01*
X6954662Y-18177502D01*
X6964186Y-18167979D01*
X6983233Y-18139407D01*
X6992757Y-18101312D01*
X6992757Y-18025121D01*
X6983233Y-18006074D01*
X6973709Y-17996550D01*
X6954662Y-17987026D01*
X6916567Y-17987026D01*
X6897519Y-17996550D01*
X6887995Y-18006074D01*
X6878471Y-18025121D01*
X6878471Y-18072740D01*
X6887995Y-18091788D01*
X6897519Y-18101312D01*
X6916567Y-18110836D01*
X6954662Y-18110836D01*
X6973709Y-18101312D01*
X6983233Y-18091788D01*
X6992757Y-18072740D01*
X7107043Y-18072740D02*
X7087995Y-18063217D01*
X7078471Y-18053693D01*
X7068948Y-18034645D01*
X7068948Y-18025121D01*
X7078471Y-18006074D01*
X7087995Y-17996550D01*
X7107043Y-17987026D01*
X7145138Y-17987026D01*
X7164186Y-17996550D01*
X7173709Y-18006074D01*
X7183233Y-18025121D01*
X7183233Y-18034645D01*
X7173709Y-18053693D01*
X7164186Y-18063217D01*
X7145138Y-18072740D01*
X7107043Y-18072740D01*
X7087995Y-18082264D01*
X7078471Y-18091788D01*
X7068948Y-18110836D01*
X7068948Y-18148931D01*
X7078471Y-18167979D01*
X7087995Y-18177502D01*
X7107043Y-18187026D01*
X7145138Y-18187026D01*
X7164186Y-18177502D01*
X7173709Y-18167979D01*
X7183233Y-18148931D01*
X7183233Y-18110836D01*
X7173709Y-18091788D01*
X7164186Y-18082264D01*
X7145138Y-18072740D01*
X7421328Y-18187026D02*
X7421328Y-17987026D01*
X7507043Y-18187026D02*
X7507043Y-18082264D01*
X7497519Y-18063217D01*
X7478471Y-18053693D01*
X7449900Y-18053693D01*
X7430852Y-18063217D01*
X7421328Y-18072740D01*
X7630852Y-18187026D02*
X7611805Y-18177502D01*
X7602281Y-18167979D01*
X7592757Y-18148931D01*
X7592757Y-18091788D01*
X7602281Y-18072740D01*
X7611805Y-18063217D01*
X7630852Y-18053693D01*
X7659424Y-18053693D01*
X7678471Y-18063217D01*
X7687995Y-18072740D01*
X7697519Y-18091788D01*
X7697519Y-18148931D01*
X7687995Y-18167979D01*
X7678471Y-18177502D01*
X7659424Y-18187026D01*
X7630852Y-18187026D01*
X7811805Y-18187026D02*
X7792757Y-18177502D01*
X7783233Y-18158455D01*
X7783233Y-17987026D01*
X7964186Y-18177502D02*
X7945138Y-18187026D01*
X7907043Y-18187026D01*
X7887995Y-18177502D01*
X7878471Y-18158455D01*
X7878471Y-18082264D01*
X7887995Y-18063217D01*
X7907043Y-18053693D01*
X7945138Y-18053693D01*
X7964186Y-18063217D01*
X7973709Y-18082264D01*
X7973709Y-18101312D01*
X7878471Y-18120360D01*
X8049900Y-18177502D02*
X8068948Y-18187026D01*
X8107043Y-18187026D01*
X8126090Y-18177502D01*
X8135614Y-18158455D01*
X8135614Y-18148931D01*
X8126090Y-18129883D01*
X8107043Y-18120360D01*
X8078471Y-18120360D01*
X8059424Y-18110836D01*
X8049900Y-18091788D01*
X8049900Y-18082264D01*
X8059424Y-18063217D01*
X8078471Y-18053693D01*
X8107043Y-18053693D01*
X8126090Y-18063217D01*
X8202281Y-18263217D02*
X8211805Y-18253693D01*
X8230852Y-18225121D01*
X8240376Y-18206074D01*
X8249900Y-18177502D01*
X8259424Y-18129883D01*
X8259424Y-18091788D01*
X8249900Y-18044169D01*
X8240376Y-18015598D01*
X8230852Y-17996550D01*
X8211805Y-17967979D01*
X8202281Y-17958455D01*
D19*
X3218373Y-18412523D02*
X3218373Y-18308577D01*
X3114427Y-18308577D01*
X3114427Y-18412523D01*
X3218373Y-18412523D01*
X3239900Y-18360550D02*
G75*
G03*
X3239900Y-18360550I-73500J0D01*
G01*
D11*
X3602281Y-18451026D02*
X3487995Y-18451026D01*
X3545138Y-18451026D02*
X3545138Y-18251026D01*
X3526090Y-18279598D01*
X3507043Y-18298645D01*
X3487995Y-18308169D01*
X3687995Y-18431979D02*
X3697519Y-18441502D01*
X3687995Y-18451026D01*
X3678471Y-18441502D01*
X3687995Y-18431979D01*
X3687995Y-18451026D01*
X3868948Y-18317693D02*
X3868948Y-18451026D01*
X3821328Y-18241502D02*
X3773709Y-18384360D01*
X3897519Y-18384360D01*
X3954662Y-18251026D02*
X4087995Y-18251026D01*
X4002281Y-18451026D01*
X4202281Y-18251026D02*
X4221329Y-18251026D01*
X4240376Y-18260550D01*
X4249900Y-18270074D01*
X4259424Y-18289121D01*
X4268948Y-18327217D01*
X4268948Y-18374836D01*
X4259424Y-18412931D01*
X4249900Y-18431979D01*
X4240376Y-18441502D01*
X4221329Y-18451026D01*
X4202281Y-18451026D01*
X4183233Y-18441502D01*
X4173709Y-18431979D01*
X4164186Y-18412931D01*
X4154662Y-18374836D01*
X4154662Y-18327217D01*
X4164186Y-18289121D01*
X4173709Y-18270074D01*
X4183233Y-18260550D01*
X4202281Y-18251026D01*
X4354662Y-18451026D02*
X4354662Y-18317693D01*
X4354662Y-18336740D02*
X4364186Y-18327217D01*
X4383233Y-18317693D01*
X4411805Y-18317693D01*
X4430852Y-18327217D01*
X4440376Y-18346264D01*
X4440376Y-18451026D01*
X4440376Y-18346264D02*
X4449900Y-18327217D01*
X4468948Y-18317693D01*
X4497519Y-18317693D01*
X4516567Y-18327217D01*
X4526090Y-18346264D01*
X4526090Y-18451026D01*
X4621329Y-18451026D02*
X4621329Y-18317693D01*
X4621329Y-18336740D02*
X4630852Y-18327217D01*
X4649900Y-18317693D01*
X4678471Y-18317693D01*
X4697519Y-18327217D01*
X4707043Y-18346264D01*
X4707043Y-18451026D01*
X4707043Y-18346264D02*
X4716567Y-18327217D01*
X4735614Y-18317693D01*
X4764186Y-18317693D01*
X4783233Y-18327217D01*
X4792757Y-18346264D01*
X4792757Y-18451026D01*
X5183233Y-18241502D02*
X5011805Y-18498645D01*
X5440376Y-18251026D02*
X5459424Y-18251026D01*
X5478471Y-18260550D01*
X5487995Y-18270074D01*
X5497519Y-18289121D01*
X5507043Y-18327217D01*
X5507043Y-18374836D01*
X5497519Y-18412931D01*
X5487995Y-18431979D01*
X5478471Y-18441502D01*
X5459424Y-18451026D01*
X5440376Y-18451026D01*
X5421329Y-18441502D01*
X5411805Y-18431979D01*
X5402281Y-18412931D01*
X5392757Y-18374836D01*
X5392757Y-18327217D01*
X5402281Y-18289121D01*
X5411805Y-18270074D01*
X5421329Y-18260550D01*
X5440376Y-18251026D01*
X5592757Y-18431979D02*
X5602281Y-18441502D01*
X5592757Y-18451026D01*
X5583233Y-18441502D01*
X5592757Y-18431979D01*
X5592757Y-18451026D01*
X5726090Y-18251026D02*
X5745138Y-18251026D01*
X5764186Y-18260550D01*
X5773709Y-18270074D01*
X5783233Y-18289121D01*
X5792757Y-18327217D01*
X5792757Y-18374836D01*
X5783233Y-18412931D01*
X5773709Y-18431979D01*
X5764186Y-18441502D01*
X5745138Y-18451026D01*
X5726090Y-18451026D01*
X5707043Y-18441502D01*
X5697519Y-18431979D01*
X5687995Y-18412931D01*
X5678471Y-18374836D01*
X5678471Y-18327217D01*
X5687995Y-18289121D01*
X5697519Y-18270074D01*
X5707043Y-18260550D01*
X5726090Y-18251026D01*
X5973709Y-18251026D02*
X5878471Y-18251026D01*
X5868948Y-18346264D01*
X5878471Y-18336740D01*
X5897519Y-18327217D01*
X5945138Y-18327217D01*
X5964186Y-18336740D01*
X5973709Y-18346264D01*
X5983233Y-18365312D01*
X5983233Y-18412931D01*
X5973709Y-18431979D01*
X5964186Y-18441502D01*
X5945138Y-18451026D01*
X5897519Y-18451026D01*
X5878471Y-18441502D01*
X5868948Y-18431979D01*
X6049900Y-18251026D02*
X6183233Y-18251026D01*
X6097519Y-18451026D01*
X6268948Y-18451026D02*
X6307043Y-18451026D01*
X6326090Y-18441502D01*
X6335614Y-18431979D01*
X6354662Y-18403407D01*
X6364186Y-18365312D01*
X6364186Y-18289121D01*
X6354662Y-18270074D01*
X6345138Y-18260550D01*
X6326090Y-18251026D01*
X6287995Y-18251026D01*
X6268948Y-18260550D01*
X6259424Y-18270074D01*
X6249900Y-18289121D01*
X6249900Y-18336740D01*
X6259424Y-18355788D01*
X6268948Y-18365312D01*
X6287995Y-18374836D01*
X6326090Y-18374836D01*
X6345138Y-18365312D01*
X6354662Y-18355788D01*
X6364186Y-18336740D01*
X6440376Y-18251026D02*
X6440376Y-18289121D01*
X6516567Y-18251026D02*
X6516567Y-18289121D01*
X6811805Y-18527217D02*
X6802281Y-18517693D01*
X6783233Y-18489121D01*
X6773709Y-18470074D01*
X6764186Y-18441502D01*
X6754662Y-18393883D01*
X6754662Y-18355788D01*
X6764186Y-18308169D01*
X6773709Y-18279598D01*
X6783233Y-18260550D01*
X6802281Y-18231979D01*
X6811805Y-18222455D01*
X6897519Y-18451026D02*
X6935614Y-18451026D01*
X6954662Y-18441502D01*
X6964186Y-18431979D01*
X6983233Y-18403407D01*
X6992757Y-18365312D01*
X6992757Y-18289121D01*
X6983233Y-18270074D01*
X6973709Y-18260550D01*
X6954662Y-18251026D01*
X6916567Y-18251026D01*
X6897519Y-18260550D01*
X6887995Y-18270074D01*
X6878471Y-18289121D01*
X6878471Y-18336740D01*
X6887995Y-18355788D01*
X6897519Y-18365312D01*
X6916567Y-18374836D01*
X6954662Y-18374836D01*
X6973709Y-18365312D01*
X6983233Y-18355788D01*
X6992757Y-18336740D01*
X7107043Y-18336740D02*
X7087995Y-18327217D01*
X7078471Y-18317693D01*
X7068948Y-18298645D01*
X7068948Y-18289121D01*
X7078471Y-18270074D01*
X7087995Y-18260550D01*
X7107043Y-18251026D01*
X7145138Y-18251026D01*
X7164186Y-18260550D01*
X7173709Y-18270074D01*
X7183233Y-18289121D01*
X7183233Y-18298645D01*
X7173709Y-18317693D01*
X7164186Y-18327217D01*
X7145138Y-18336740D01*
X7107043Y-18336740D01*
X7087995Y-18346264D01*
X7078471Y-18355788D01*
X7068948Y-18374836D01*
X7068948Y-18412931D01*
X7078471Y-18431979D01*
X7087995Y-18441502D01*
X7107043Y-18451026D01*
X7145138Y-18451026D01*
X7164186Y-18441502D01*
X7173709Y-18431979D01*
X7183233Y-18412931D01*
X7183233Y-18374836D01*
X7173709Y-18355788D01*
X7164186Y-18346264D01*
X7145138Y-18336740D01*
X7421328Y-18451026D02*
X7421328Y-18251026D01*
X7507043Y-18451026D02*
X7507043Y-18346264D01*
X7497519Y-18327217D01*
X7478471Y-18317693D01*
X7449900Y-18317693D01*
X7430852Y-18327217D01*
X7421328Y-18336740D01*
X7630852Y-18451026D02*
X7611805Y-18441502D01*
X7602281Y-18431979D01*
X7592757Y-18412931D01*
X7592757Y-18355788D01*
X7602281Y-18336740D01*
X7611805Y-18327217D01*
X7630852Y-18317693D01*
X7659424Y-18317693D01*
X7678471Y-18327217D01*
X7687995Y-18336740D01*
X7697519Y-18355788D01*
X7697519Y-18412931D01*
X7687995Y-18431979D01*
X7678471Y-18441502D01*
X7659424Y-18451026D01*
X7630852Y-18451026D01*
X7811805Y-18451026D02*
X7792757Y-18441502D01*
X7783233Y-18422455D01*
X7783233Y-18251026D01*
X7964186Y-18441502D02*
X7945138Y-18451026D01*
X7907043Y-18451026D01*
X7887995Y-18441502D01*
X7878471Y-18422455D01*
X7878471Y-18346264D01*
X7887995Y-18327217D01*
X7907043Y-18317693D01*
X7945138Y-18317693D01*
X7964186Y-18327217D01*
X7973709Y-18346264D01*
X7973709Y-18365312D01*
X7878471Y-18384360D01*
X8049900Y-18441502D02*
X8068948Y-18451026D01*
X8107043Y-18451026D01*
X8126090Y-18441502D01*
X8135614Y-18422455D01*
X8135614Y-18412931D01*
X8126090Y-18393883D01*
X8107043Y-18384360D01*
X8078471Y-18384360D01*
X8059424Y-18374836D01*
X8049900Y-18355788D01*
X8049900Y-18346264D01*
X8059424Y-18327217D01*
X8078471Y-18317693D01*
X8107043Y-18317693D01*
X8126090Y-18327217D01*
X8202281Y-18527217D02*
X8211805Y-18517693D01*
X8230852Y-18489121D01*
X8240376Y-18470074D01*
X8249900Y-18441502D01*
X8259424Y-18393883D01*
X8259424Y-18355788D01*
X8249900Y-18308169D01*
X8240376Y-18279598D01*
X8230852Y-18260550D01*
X8211805Y-18231979D01*
X8202281Y-18222455D01*
X3139900Y-18727550D02*
X3239900Y-18627550D01*
X3139900Y-18527550D01*
X3039900Y-18627550D01*
X3139900Y-18727550D01*
X3239900Y-18627550D02*
G75*
G03*
X3239900Y-18627550I-100000J0D01*
G01*
X3487995Y-18537074D02*
X3497519Y-18527550D01*
X3516567Y-18518026D01*
X3564186Y-18518026D01*
X3583233Y-18527550D01*
X3592757Y-18537074D01*
X3602281Y-18556121D01*
X3602281Y-18575169D01*
X3592757Y-18603740D01*
X3478471Y-18718026D01*
X3602281Y-18718026D01*
X3687995Y-18698979D02*
X3697519Y-18708502D01*
X3687995Y-18718026D01*
X3678471Y-18708502D01*
X3687995Y-18698979D01*
X3687995Y-18718026D01*
X3773709Y-18537074D02*
X3783233Y-18527550D01*
X3802281Y-18518026D01*
X3849900Y-18518026D01*
X3868948Y-18527550D01*
X3878471Y-18537074D01*
X3887995Y-18556121D01*
X3887995Y-18575169D01*
X3878471Y-18603740D01*
X3764186Y-18718026D01*
X3887995Y-18718026D01*
X4011805Y-18518026D02*
X4030852Y-18518026D01*
X4049900Y-18527550D01*
X4059424Y-18537074D01*
X4068948Y-18556121D01*
X4078471Y-18594217D01*
X4078471Y-18641836D01*
X4068948Y-18679931D01*
X4059424Y-18698979D01*
X4049900Y-18708502D01*
X4030852Y-18718026D01*
X4011805Y-18718026D01*
X3992757Y-18708502D01*
X3983233Y-18698979D01*
X3973709Y-18679931D01*
X3964186Y-18641836D01*
X3964186Y-18594217D01*
X3973709Y-18556121D01*
X3983233Y-18537074D01*
X3992757Y-18527550D01*
X4011805Y-18518026D01*
X4202281Y-18518026D02*
X4221329Y-18518026D01*
X4240376Y-18527550D01*
X4249900Y-18537074D01*
X4259424Y-18556121D01*
X4268948Y-18594217D01*
X4268948Y-18641836D01*
X4259424Y-18679931D01*
X4249900Y-18698979D01*
X4240376Y-18708502D01*
X4221329Y-18718026D01*
X4202281Y-18718026D01*
X4183233Y-18708502D01*
X4173709Y-18698979D01*
X4164186Y-18679931D01*
X4154662Y-18641836D01*
X4154662Y-18594217D01*
X4164186Y-18556121D01*
X4173709Y-18537074D01*
X4183233Y-18527550D01*
X4202281Y-18518026D01*
X4354662Y-18718026D02*
X4354662Y-18584693D01*
X4354662Y-18603740D02*
X4364186Y-18594217D01*
X4383233Y-18584693D01*
X4411805Y-18584693D01*
X4430852Y-18594217D01*
X4440376Y-18613264D01*
X4440376Y-18718026D01*
X4440376Y-18613264D02*
X4449900Y-18594217D01*
X4468948Y-18584693D01*
X4497519Y-18584693D01*
X4516567Y-18594217D01*
X4526090Y-18613264D01*
X4526090Y-18718026D01*
X4621329Y-18718026D02*
X4621329Y-18584693D01*
X4621329Y-18603740D02*
X4630852Y-18594217D01*
X4649900Y-18584693D01*
X4678471Y-18584693D01*
X4697519Y-18594217D01*
X4707043Y-18613264D01*
X4707043Y-18718026D01*
X4707043Y-18613264D02*
X4716567Y-18594217D01*
X4735614Y-18584693D01*
X4764186Y-18584693D01*
X4783233Y-18594217D01*
X4792757Y-18613264D01*
X4792757Y-18718026D01*
X5183233Y-18508502D02*
X5011805Y-18765645D01*
X5440376Y-18518026D02*
X5459424Y-18518026D01*
X5478471Y-18527550D01*
X5487995Y-18537074D01*
X5497519Y-18556121D01*
X5507043Y-18594217D01*
X5507043Y-18641836D01*
X5497519Y-18679931D01*
X5487995Y-18698979D01*
X5478471Y-18708502D01*
X5459424Y-18718026D01*
X5440376Y-18718026D01*
X5421329Y-18708502D01*
X5411805Y-18698979D01*
X5402281Y-18679931D01*
X5392757Y-18641836D01*
X5392757Y-18594217D01*
X5402281Y-18556121D01*
X5411805Y-18537074D01*
X5421329Y-18527550D01*
X5440376Y-18518026D01*
X5592757Y-18698979D02*
X5602281Y-18708502D01*
X5592757Y-18718026D01*
X5583233Y-18708502D01*
X5592757Y-18698979D01*
X5592757Y-18718026D01*
X5726090Y-18518026D02*
X5745138Y-18518026D01*
X5764186Y-18527550D01*
X5773709Y-18537074D01*
X5783233Y-18556121D01*
X5792757Y-18594217D01*
X5792757Y-18641836D01*
X5783233Y-18679931D01*
X5773709Y-18698979D01*
X5764186Y-18708502D01*
X5745138Y-18718026D01*
X5726090Y-18718026D01*
X5707043Y-18708502D01*
X5697519Y-18698979D01*
X5687995Y-18679931D01*
X5678471Y-18641836D01*
X5678471Y-18594217D01*
X5687995Y-18556121D01*
X5697519Y-18537074D01*
X5707043Y-18527550D01*
X5726090Y-18518026D01*
X5907043Y-18603740D02*
X5887995Y-18594217D01*
X5878471Y-18584693D01*
X5868948Y-18565645D01*
X5868948Y-18556121D01*
X5878471Y-18537074D01*
X5887995Y-18527550D01*
X5907043Y-18518026D01*
X5945138Y-18518026D01*
X5964186Y-18527550D01*
X5973709Y-18537074D01*
X5983233Y-18556121D01*
X5983233Y-18565645D01*
X5973709Y-18584693D01*
X5964186Y-18594217D01*
X5945138Y-18603740D01*
X5907043Y-18603740D01*
X5887995Y-18613264D01*
X5878471Y-18622788D01*
X5868948Y-18641836D01*
X5868948Y-18679931D01*
X5878471Y-18698979D01*
X5887995Y-18708502D01*
X5907043Y-18718026D01*
X5945138Y-18718026D01*
X5964186Y-18708502D01*
X5973709Y-18698979D01*
X5983233Y-18679931D01*
X5983233Y-18641836D01*
X5973709Y-18622788D01*
X5964186Y-18613264D01*
X5945138Y-18603740D01*
X6154662Y-18518026D02*
X6116567Y-18518026D01*
X6097519Y-18527550D01*
X6087995Y-18537074D01*
X6068948Y-18565645D01*
X6059424Y-18603740D01*
X6059424Y-18679931D01*
X6068948Y-18698979D01*
X6078471Y-18708502D01*
X6097519Y-18718026D01*
X6135614Y-18718026D01*
X6154662Y-18708502D01*
X6164186Y-18698979D01*
X6173709Y-18679931D01*
X6173709Y-18632312D01*
X6164186Y-18613264D01*
X6154662Y-18603740D01*
X6135614Y-18594217D01*
X6097519Y-18594217D01*
X6078471Y-18603740D01*
X6068948Y-18613264D01*
X6059424Y-18632312D01*
X6345138Y-18518026D02*
X6307043Y-18518026D01*
X6287995Y-18527550D01*
X6278471Y-18537074D01*
X6259424Y-18565645D01*
X6249900Y-18603740D01*
X6249900Y-18679931D01*
X6259424Y-18698979D01*
X6268948Y-18708502D01*
X6287995Y-18718026D01*
X6326090Y-18718026D01*
X6345138Y-18708502D01*
X6354662Y-18698979D01*
X6364186Y-18679931D01*
X6364186Y-18632312D01*
X6354662Y-18613264D01*
X6345138Y-18603740D01*
X6326090Y-18594217D01*
X6287995Y-18594217D01*
X6268948Y-18603740D01*
X6259424Y-18613264D01*
X6249900Y-18632312D01*
X6440376Y-18518026D02*
X6440376Y-18556121D01*
X6516567Y-18518026D02*
X6516567Y-18556121D01*
X6811805Y-18794217D02*
X6802281Y-18784693D01*
X6783233Y-18756121D01*
X6773709Y-18737074D01*
X6764186Y-18708502D01*
X6754662Y-18660883D01*
X6754662Y-18622788D01*
X6764186Y-18575169D01*
X6773709Y-18546598D01*
X6783233Y-18527550D01*
X6802281Y-18498979D01*
X6811805Y-18489455D01*
X6992757Y-18718026D02*
X6878471Y-18718026D01*
X6935614Y-18718026D02*
X6935614Y-18518026D01*
X6916567Y-18546598D01*
X6897519Y-18565645D01*
X6878471Y-18575169D01*
X7116567Y-18518026D02*
X7135614Y-18518026D01*
X7154662Y-18527550D01*
X7164186Y-18537074D01*
X7173709Y-18556121D01*
X7183233Y-18594217D01*
X7183233Y-18641836D01*
X7173709Y-18679931D01*
X7164186Y-18698979D01*
X7154662Y-18708502D01*
X7135614Y-18718026D01*
X7116567Y-18718026D01*
X7097519Y-18708502D01*
X7087995Y-18698979D01*
X7078471Y-18679931D01*
X7068948Y-18641836D01*
X7068948Y-18594217D01*
X7078471Y-18556121D01*
X7087995Y-18537074D01*
X7097519Y-18527550D01*
X7116567Y-18518026D01*
X7421328Y-18718026D02*
X7421328Y-18518026D01*
X7507043Y-18718026D02*
X7507043Y-18613264D01*
X7497519Y-18594217D01*
X7478471Y-18584693D01*
X7449900Y-18584693D01*
X7430852Y-18594217D01*
X7421328Y-18603740D01*
X7630852Y-18718026D02*
X7611805Y-18708502D01*
X7602281Y-18698979D01*
X7592757Y-18679931D01*
X7592757Y-18622788D01*
X7602281Y-18603740D01*
X7611805Y-18594217D01*
X7630852Y-18584693D01*
X7659424Y-18584693D01*
X7678471Y-18594217D01*
X7687995Y-18603740D01*
X7697519Y-18622788D01*
X7697519Y-18679931D01*
X7687995Y-18698979D01*
X7678471Y-18708502D01*
X7659424Y-18718026D01*
X7630852Y-18718026D01*
X7811805Y-18718026D02*
X7792757Y-18708502D01*
X7783233Y-18689455D01*
X7783233Y-18518026D01*
X7964186Y-18708502D02*
X7945138Y-18718026D01*
X7907043Y-18718026D01*
X7887995Y-18708502D01*
X7878471Y-18689455D01*
X7878471Y-18613264D01*
X7887995Y-18594217D01*
X7907043Y-18584693D01*
X7945138Y-18584693D01*
X7964186Y-18594217D01*
X7973709Y-18613264D01*
X7973709Y-18632312D01*
X7878471Y-18651360D01*
X8049900Y-18708502D02*
X8068948Y-18718026D01*
X8107043Y-18718026D01*
X8126090Y-18708502D01*
X8135614Y-18689455D01*
X8135614Y-18679931D01*
X8126090Y-18660883D01*
X8107043Y-18651360D01*
X8078471Y-18651360D01*
X8059424Y-18641836D01*
X8049900Y-18622788D01*
X8049900Y-18613264D01*
X8059424Y-18594217D01*
X8078471Y-18584693D01*
X8107043Y-18584693D01*
X8126090Y-18594217D01*
X8202281Y-18794217D02*
X8211805Y-18784693D01*
X8230852Y-18756121D01*
X8240376Y-18737074D01*
X8249900Y-18708502D01*
X8259424Y-18660883D01*
X8259424Y-18622788D01*
X8249900Y-18575169D01*
X8240376Y-18546598D01*
X8230852Y-18527550D01*
X8211805Y-18498979D01*
X8202281Y-18489455D01*
M02*
